<svg xmlns="http://www.w3.org/2000/svg" xmlns:xlink="http://www.w3.org/1999/xlink" width="96" height="96" viewBox="0 0 96 96">
  <defs>
    <clipPath id="clip-path">
      <rect id="Rectángulo_379504" data-name="Rectángulo 379504" width="68.084" height="70.04" fill="none"/>
    </clipPath>
  </defs>
  <g id="Grupo_1078460" data-name="Grupo 1078460" transform="translate(-915.333 -424)">
    <g id="Grupo_1078442" data-name="Grupo 1078442" transform="translate(-436 129)">
      <circle id="Elipse_4282" data-name="Elipse 4282" cx="48" cy="48" r="48" transform="translate(1351.333 295)" fill="#fffad0"/>
    </g>
    <g id="Grupo_1078443" data-name="Grupo 1078443" transform="translate(928.916 436.98)">
      <path id="Trazado_823313" data-name="Trazado 823313" d="M69.444,96.12H83.529L84.771,91.5l3.6-5,3.862-6.512v-7.8L88,64.239l-7.551-4.165-8.649.682-6.745,3.711-4.013,7.118-.606,5.868L64.9,86.124l2.12,4.089Z" transform="translate(-42.508 -42.256)" fill="#f1dd22"/>
      <g id="Grupo_1077218" data-name="Grupo 1077218">
        <g id="Grupo_1077217" data-name="Grupo 1077217" clip-path="url(#clip-path)">
          <path id="Trazado_823314" data-name="Trazado 823314" d="M74.438,94.1q-3.441,0-6.883,0a1.524,1.524,0,0,1-1.769-1.5,15.323,15.323,0,0,0-2.318-6.321c-.708-1.092-1.641-2-2.439-3.016A16.382,16.382,0,0,1,57.5,74.68,16.685,16.685,0,0,1,63.34,59.785a16.132,16.132,0,0,1,8.586-3.93A16.653,16.653,0,0,1,84.6,59.014a16.356,16.356,0,0,1,6.377,9.553,16.808,16.808,0,0,1-2.525,13.883c-.608.9-1.37,1.675-2.06,2.509a14.47,14.47,0,0,0-3.239,7.308,4.4,4.4,0,0,1-.175.866,1.539,1.539,0,0,1-1.576.97q-3.484,0-6.968,0Zm14.69-21.334a15.617,15.617,0,0,0-.415-3.514A14.693,14.693,0,0,0,76,58.122a14.306,14.306,0,0,0-12,4.311A14.581,14.581,0,0,0,63.445,82.4a17.867,17.867,0,0,1,4.509,8.767.636.636,0,0,0,.734.58c.8-.007,1.6.006,2.407.009.519,0,.546-.044.5-.556-.121-1.288-.232-2.578-.341-3.867-.161-1.906-.323-3.813-.47-5.72-.024-.311-.141-.405-.444-.4-.647.019-1.295.016-1.942,0a3.377,3.377,0,0,1-3.18-2.4,3.419,3.419,0,0,1,1.255-3.75,3.338,3.338,0,0,1,5.208,1.845,11.151,11.151,0,0,1,.307,2.507c.021.291.122.422.437.419,1.365-.013,2.73-.009,4.1,0,.281,0,.4-.1.413-.389.023-.548.065-1.1.13-1.64a3.8,3.8,0,0,1,1.6-2.848,3.384,3.384,0,0,1,3.74.067,3.4,3.4,0,0,1-1.223,6.114,14.22,14.22,0,0,1-2.527.075c-.349,0-.488.079-.513.461-.087,1.333-.223,2.663-.332,4-.156,1.893-.3,3.787-.462,5.679-.026.3.059.406.36.4.844-.012,1.689-.006,2.533,0a.607.607,0,0,0,.677-.545c.125-.605.265-1.21.439-1.8a18.073,18.073,0,0,1,4.083-7,14.253,14.253,0,0,0,3.688-9.626M74.489,81.22c-.633,0-1.267.016-1.9-.006-.347-.012-.427.108-.4.443q.415,4.857.8,9.718c.021.262.113.377.385.373q1.1-.015,2.2,0c.247,0,.359-.091.373-.339.027-.464.067-.926.106-1.389q.353-4.207.712-8.412c.026-.3-.077-.4-.372-.392-.633.015-1.267,0-1.9,0M69.3,79.828c.338,0,.675,0,1.013,0,.147,0,.3-.017.289-.217A7.333,7.333,0,0,0,70.206,77a1.846,1.846,0,0,0-1.958-1.161,2.021,2.021,0,0,0-1.7,1.437,1.986,1.986,0,0,0,.733,2.137,2.974,2.974,0,0,0,2.017.416m10.262,0c.309,0,.618.012.927,0a2,2,0,0,0,.365-3.967,1.969,1.969,0,0,0-2.294,1.565,17.5,17.5,0,0,0-.246,2.13c-.03.206.1.273.279.273h.969" transform="translate(-40.371 -39.152)"/>
          <path id="Trazado_823315" data-name="Trazado 823315" d="M95.441,216.065c2.306,0,4.613,0,6.919,0a1.118,1.118,0,0,1,1.12,1.626,1.136,1.136,0,0,1-1.136.65c-1.2.006-2.391,0-3.586,0q-5.084,0-10.167,0a1.251,1.251,0,0,1-1.221-.588,1.129,1.129,0,0,1,1.027-1.69c1.237-.015,2.475,0,3.713,0h3.333" transform="translate(-61.348 -151.978)"/>
          <path id="Trazado_823316" data-name="Trazado 823316" d="M95.415,205.525q-3.5,0-7,0a1.083,1.083,0,0,1-1.1-.754,1.1,1.1,0,0,1,.349-1.252,1.163,1.163,0,0,1,.783-.259q6.984,0,13.967,0a1.136,1.136,0,1,1-.032,2.263q-3.481.005-6.962,0" transform="translate(-61.365 -142.971)"/>
          <path id="Trazado_823317" data-name="Trazado 823317" d="M95.422,192.723c-2.335,0-4.669,0-7,0a1.116,1.116,0,0,1-1.064-1.629,1.151,1.151,0,0,1,1.152-.625q2.088,0,4.177,0,4.809,0,9.618,0a1.157,1.157,0,0,1,1.2.67,1.1,1.1,0,0,1-1.082,1.584c-2.334.006-4.668,0-7,0" transform="translate(-61.357 -133.973)"/>
          <path id="Trazado_823318" data-name="Trazado 823318" d="M33.6,32.37a1.239,1.239,0,0,1,.882.363c1.721,1.718,3.446,3.431,5.157,5.158a1.19,1.19,0,1,1-1.673,1.691q-2.6-2.582-5.184-5.19a1.122,1.122,0,0,1-.219-1.36A1.153,1.153,0,0,1,33.6,32.37" transform="translate(-22.808 -22.769)"/>
          <path id="Trazado_823319" data-name="Trazado 823319" d="M171.7,38.731a1.115,1.115,0,0,1,.367-.867q2.549-2.547,5.1-5.091a1.192,1.192,0,0,1,1.733-.058,1.214,1.214,0,0,1-.048,1.741c-1.511,1.526-3.037,3.039-4.556,4.557-.2.2-.381.416-.6.594a1.168,1.168,0,0,1-1.333.2,1.122,1.122,0,0,1-.669-1.076" transform="translate(-120.771 -22.768)"/>
          <path id="Trazado_823320" data-name="Trazado 823320" d="M38.708,171.511a1.159,1.159,0,0,1,1.2.706,1.146,1.146,0,0,1-.254,1.321c-.453.48-.927.939-1.393,1.406q-1.832,1.832-3.666,3.662a1.2,1.2,0,0,1-2.1-.447,1.224,1.224,0,0,1,.411-1.251q2.48-2.467,4.951-4.944a1.214,1.214,0,0,1,.857-.453" transform="translate(-22.821 -120.641)"/>
          <path id="Trazado_823321" data-name="Trazado 823321" d="M171.7,172.678a1.113,1.113,0,0,1,.665-1.081,1.232,1.232,0,0,1,1.4.27q1.962,1.948,3.914,3.906c.388.388.78.773,1.164,1.165a1.22,1.22,0,0,1,.065,1.74,1.193,1.193,0,0,1-1.736-.033q-2.577-2.556-5.137-5.129a1.128,1.128,0,0,1-.334-.839" transform="translate(-120.775 -120.623)"/>
          <path id="Trazado_823322" data-name="Trazado 823322" d="M4.865,113.03c-1.208,0-2.417.008-3.625,0a1.106,1.106,0,0,1-1.159-.795,1.126,1.126,0,0,1,.31-1.268,1.091,1.091,0,0,1,.8-.305c2.431,0,4.862-.005,7.292,0a1.182,1.182,0,1,1,0,2.364c-1.208.016-2.417,0-3.625.005" transform="translate(0 -77.836)"/>
          <path id="Trazado_823323" data-name="Trazado 823323" d="M201.781,110.659c1.168,0,2.337,0,3.5,0a1.187,1.187,0,1,1,.018,2.369q-3.568.009-7.136,0a1.19,1.19,0,1,1,.024-2.368c1.2,0,2.393,0,3.589,0" transform="translate(-138.482 -77.837)"/>
          <path id="Trazado_823324" data-name="Trazado 823324" d="M110.776,4.851c0-1.195-.009-2.39,0-3.585A1.18,1.18,0,0,1,112.451.1a1.178,1.178,0,0,1,.706,1.229q.006,2.868,0,5.737c0,.464.011.928,0,1.392a1.192,1.192,0,1,1-2.382-.021c-.008-1.2,0-2.39,0-3.586h0" transform="translate(-77.916 0)"/>
          <path id="Trazado_823325" data-name="Trazado 823325" d="M103.57,228.823c1.393,0,2.786,0,4.179,0,.211,0,.478-.067.558.242.074.286-.109.438-.318.579a8.009,8.009,0,0,1-8.909-.014c-.193-.131-.385-.256-.317-.532.073-.3.32-.275.544-.275q2.132,0,4.264,0" transform="translate(-69.46 -160.953)"/>
        </g>
      </g>
    </g>
  </g>
</svg>
