<svg xmlns="http://www.w3.org/2000/svg" xmlns:xlink="http://www.w3.org/1999/xlink" width="400" height="973" viewBox="0 0 400 973">
  <defs>
    <clipPath id="clip-path">
      <path id="path219" d="M0-682.665H61.279v61.279H0Z" transform="translate(0 682.665)" fill="#12263f"/>
    </clipPath>
    <clipPath id="clip-path-2">
      <path id="path3363" d="M0-682.665H63.754v63.754H0Z" transform="translate(0 682.665)" fill="#12263f"/>
    </clipPath>
    <clipPath id="clip-path-3">
      <path id="path1095" d="M0-682.665H57.9v57.9H0Z" transform="translate(0 682.665)" fill="#12263f"/>
    </clipPath>
  </defs>
  <g id="Grupo_1069279" data-name="Grupo 1069279" transform="translate(-118.035 -7429)">
    <g id="Grupo_1078448" data-name="Grupo 1078448" transform="translate(-62 47)">
      <circle id="Elipse_4707" data-name="Elipse 4707" cx="95" cy="95" r="95" transform="translate(180.035 7672)" fill="#dbf9bd"/>
      <circle id="Elipse_4717" data-name="Elipse 4717" cx="147.5" cy="147.5" r="147.5" transform="translate(285.035 7382)" fill="#632059"/>
      <circle id="Elipse_4708" data-name="Elipse 4708" cx="95" cy="95" r="95" transform="translate(390.035 7779)" fill="#dbf9bd"/>
      <circle id="Elipse_4709" data-name="Elipse 4709" cx="95" cy="95" r="95" transform="translate(180.035 7916)" fill="#dbf9bd"/>
      <circle id="Elipse_4710" data-name="Elipse 4710" cx="95" cy="95" r="95" transform="translate(390.035 8044)" fill="#dbf9bd"/>
      <circle id="Elipse_4711" data-name="Elipse 4711" cx="95" cy="95" r="95" transform="translate(180.035 8165)" fill="#dbf9bd"/>
      <path id="Trazado_826289" data-name="Trazado 826289" d="M9.945-3.789A4.025,4.025,0,0,1,8.59-.9,4.76,4.76,0,0,1,5.367.156,4.28,4.28,0,0,1,1.926-1.316,6.038,6.038,0,0,1,.672-5.359v-.7A6.819,6.819,0,0,1,1.25-8.945,4.332,4.332,0,0,1,2.9-10.863a4.629,4.629,0,0,1,2.5-.668A4.637,4.637,0,0,1,8.57-10.477,4.326,4.326,0,0,1,9.961-7.516H7.617A2.376,2.376,0,0,0,7-9.113a2.271,2.271,0,0,0-1.605-.5,1.991,1.991,0,0,0-1.754.84,4.707,4.707,0,0,0-.6,2.605V-5.3a5.038,5.038,0,0,0,.559,2.7,1.954,1.954,0,0,0,1.762.852,2.314,2.314,0,0,0,1.621-.5A2.241,2.241,0,0,0,7.6-3.789ZM16.234,0a2.507,2.507,0,0,1-.227-.758,2.732,2.732,0,0,1-2.133.914,3,3,0,0,1-2.059-.719A2.312,2.312,0,0,1,11-2.375a2.389,2.389,0,0,1,1-2.062,4.915,4.915,0,0,1,2.879-.727h1.039v-.484a1.393,1.393,0,0,0-.3-.937,1.183,1.183,0,0,0-.949-.352,1.345,1.345,0,0,0-.895.273.929.929,0,0,0-.324.75H11.188a2.268,2.268,0,0,1,.453-1.359,3,3,0,0,1,1.281-.98,4.669,4.669,0,0,1,1.859-.355,3.689,3.689,0,0,1,2.48.785,2.747,2.747,0,0,1,.918,2.207v3.664a4.041,4.041,0,0,0,.336,1.82V0ZM14.367-1.57a1.945,1.945,0,0,0,.922-.223,1.462,1.462,0,0,0,.625-.6V-3.844H15.07q-1.7,0-1.8,1.172l-.008.133a.9.9,0,0,0,.3.7A1.153,1.153,0,0,0,14.367-1.57ZM22.3,0H20.031V-12H22.3Zm4.242,0H24.273V-8.453h2.266Zm-2.4-10.641a1.112,1.112,0,0,1,.34-.836,1.277,1.277,0,0,1,.926-.328,1.28,1.28,0,0,1,.922.328,1.105,1.105,0,0,1,.344.836,1.108,1.108,0,0,1-.348.844,1.283,1.283,0,0,1-.918.328,1.283,1.283,0,0,1-.918-.328A1.108,1.108,0,0,1,24.141-10.641Zm3.906,6.352a5.094,5.094,0,0,1,.887-3.148,2.877,2.877,0,0,1,2.426-1.172,2.589,2.589,0,0,1,2.039.922V-12h2.266V0H33.625l-.109-.9A2.657,2.657,0,0,1,31.344.156,2.869,2.869,0,0,1,28.949-1.02,5.258,5.258,0,0,1,28.047-4.289Zm2.258.168A3.337,3.337,0,0,0,30.719-2.3a1.349,1.349,0,0,0,1.2.634A1.511,1.511,0,0,0,33.4-2.548V-5.889a1.489,1.489,0,0,0-1.461-.884Q30.3-6.773,30.3-4.121ZM42.313,0a2.507,2.507,0,0,1-.227-.758,2.732,2.732,0,0,1-2.133.914,3,3,0,0,1-2.059-.719,2.312,2.312,0,0,1-.816-1.812,2.389,2.389,0,0,1,1-2.062,4.915,4.915,0,0,1,2.879-.727h1.039v-.484a1.393,1.393,0,0,0-.3-.937,1.183,1.183,0,0,0-.949-.352,1.345,1.345,0,0,0-.895.273.929.929,0,0,0-.324.75H37.266a2.268,2.268,0,0,1,.453-1.359A3,3,0,0,1,39-8.254a4.669,4.669,0,0,1,1.859-.355,3.689,3.689,0,0,1,2.48.785,2.747,2.747,0,0,1,.918,2.207v3.664a4.041,4.041,0,0,0,.336,1.82V0ZM40.445-1.57a1.945,1.945,0,0,0,.922-.223,1.462,1.462,0,0,0,.625-.6V-3.844h-.844q-1.7,0-1.8,1.172l-.008.133a.9.9,0,0,0,.3.7A1.153,1.153,0,0,0,40.445-1.57Zm5.2-2.719a5.094,5.094,0,0,1,.887-3.148,2.877,2.877,0,0,1,2.426-1.172,2.589,2.589,0,0,1,2.039.922V-12h2.266V0H51.219l-.109-.9A2.657,2.657,0,0,1,48.938.156,2.869,2.869,0,0,1,46.543-1.02,5.258,5.258,0,0,1,45.641-4.289Zm2.258.168A3.337,3.337,0,0,0,48.313-2.3a1.349,1.349,0,0,0,1.2.634,1.511,1.511,0,0,0,1.477-.884V-5.889a1.489,1.489,0,0,0-1.461-.884Q47.9-6.773,47.9-4.121Z" transform="translate(249.82 7812.42)" fill="#12263f"/>
      <g id="g213" transform="translate(246.18 8410.702)">
        <g id="g215" transform="translate(0 -682.665)">
          <g id="g217" clip-path="url(#clip-path)">
            <g id="g223" transform="translate(7.642 40.023)">
              <path id="path225" d="M-188.679-52.162l-8.609,14.912-2.107-7.862L-207.286-43l8.261-14.308" transform="translate(207.286 57.307)" fill="none" stroke="#12263f" stroke-linecap="round" stroke-linejoin="round" stroke-miterlimit="10" stroke-width="2.5"/>
            </g>
            <g id="g227" transform="translate(34.987 39.967)">
              <path id="path229" d="M-105.028,0l8.293,14.364-7.891-2.114-2.107,7.862-8.653-14.987" transform="translate(115.385)" fill="none" stroke="#12263f" stroke-linecap="round" stroke-linejoin="round" stroke-miterlimit="10" stroke-width="2.5"/>
            </g>
            <g id="g231" transform="translate(8.659 1.2)">
              <path id="path233" d="M-244.522-4.336h0a5.733,5.733,0,0,1,6.705,1.8h0a5.733,5.733,0,0,0,3.761,2.172h0a5.733,5.733,0,0,1,4.909,4.909h0A5.733,5.733,0,0,0-226.976,8.3h0a5.733,5.733,0,0,1,1.8,6.705h0a5.733,5.733,0,0,0,0,4.343h0a5.733,5.733,0,0,1-1.8,6.705h0a5.733,5.733,0,0,0-2.172,3.761h0a5.733,5.733,0,0,1-4.909,4.909h0a5.733,5.733,0,0,0-3.761,2.171h0a5.733,5.733,0,0,1-6.705,1.8h0a5.733,5.733,0,0,0-4.343,0h0a5.733,5.733,0,0,1-6.705-1.8h0a5.733,5.733,0,0,0-3.761-2.171h0a5.733,5.733,0,0,1-4.908-4.909h0a5.734,5.734,0,0,0-2.172-3.761h0a5.733,5.733,0,0,1-1.8-6.705h0a5.733,5.733,0,0,0,0-4.343h0a5.733,5.733,0,0,1,1.8-6.705h0a5.734,5.734,0,0,0,2.172-3.761h0a5.733,5.733,0,0,1,4.908-4.909h0a5.733,5.733,0,0,0,3.761-2.172h0a5.733,5.733,0,0,1,6.705-1.8h0A5.733,5.733,0,0,0-244.522-4.336Z" transform="translate(268.636 4.763)" fill="none" stroke="#12263f" stroke-linecap="round" stroke-linejoin="round" stroke-miterlimit="10" stroke-width="2.5"/>
            </g>
            <g id="g235" transform="translate(22.285 16.821)">
              <path id="path237" d="M-70.82-136.369l-6.984-6.984,3.724-3.724,3.26,3.26,6-6,3.724,3.724Z" transform="translate(77.804 149.817)" fill="none" stroke="#12263f" stroke-linecap="round" stroke-linejoin="round" stroke-miterlimit="10" stroke-width="2.5"/>
            </g>
            <g id="g239" transform="translate(16.277 10.189)">
              <path id="path241" d="M-91.979,0a14.367,14.367,0,0,0-9.071,13.356A14.362,14.362,0,0,0-86.687,27.718,14.362,14.362,0,0,0-72.325,13.356,14.367,14.367,0,0,0-81.4,0" transform="translate(101.049)" fill="none" stroke="#12263f" stroke-linecap="round" stroke-linejoin="round" stroke-miterlimit="10" stroke-width="2.5"/>
            </g>
            <g id="g243" transform="translate(30.639 9.183)">
              <path id="path245" d="M0,0H0" fill="none" stroke="#12263f" stroke-linecap="round" stroke-linejoin="round" stroke-miterlimit="10" stroke-width="2.5"/>
            </g>
          </g>
        </g>
      </g>
      <path id="Trazado_826290" data-name="Trazado 826290" d="M-35.883-4.008V0h-2.344V-11.375h4.438a5.134,5.134,0,0,1,2.254.469,3.454,3.454,0,0,1,1.5,1.332,3.714,3.714,0,0,1,.523,1.965A3.266,3.266,0,0,1-30.66-4.973a4.767,4.767,0,0,1-3.168.965Zm0-1.9h2.094a2.059,2.059,0,0,0,1.418-.437,1.591,1.591,0,0,0,.488-1.25,1.876,1.876,0,0,0-.492-1.352,1.839,1.839,0,0,0-1.359-.531h-2.148Zm12.578-.43a6.134,6.134,0,0,0-.812-.062,1.654,1.654,0,0,0-1.68.867V0h-2.258V-8.453h2.133l.063,1.008a2.092,2.092,0,0,1,1.883-1.164,2.366,2.366,0,0,1,.7.1Zm.453,2.031a5.013,5.013,0,0,1,.484-2.242A3.546,3.546,0,0,1-20.973-8.07a4.069,4.069,0,0,1,2.113-.539,3.849,3.849,0,0,1,2.793,1.047,4.2,4.2,0,0,1,1.207,2.844l.016.578A4.418,4.418,0,0,1-15.93-1.02,3.775,3.775,0,0,1-18.844.156a3.793,3.793,0,0,1-2.918-1.172A4.5,4.5,0,0,1-22.852-4.2Zm2.258.16A3.16,3.16,0,0,0-20.141-2.3a1.5,1.5,0,0,0,1.3.638,1.5,1.5,0,0,0,1.281-.63A3.457,3.457,0,0,0-17.1-4.309a3.128,3.128,0,0,0-.461-1.831,1.5,1.5,0,0,0-1.3-.649,1.474,1.474,0,0,0-1.281.646A3.516,3.516,0,0,0-20.594-4.144Zm6.789-.145a5.094,5.094,0,0,1,.887-3.148,2.877,2.877,0,0,1,2.426-1.172,2.589,2.589,0,0,1,2.039.922V-12h2.266V0H-8.227l-.109-.9A2.657,2.657,0,0,1-10.508.156,2.869,2.869,0,0,1-12.9-1.02,5.258,5.258,0,0,1-13.8-4.289Zm2.258.168A3.337,3.337,0,0,0-11.133-2.3a1.349,1.349,0,0,0,1.2.634,1.511,1.511,0,0,0,1.477-.884V-5.889a1.489,1.489,0,0,0-1.461-.884Q-11.547-6.773-11.547-4.121ZM.625-.859A2.831,2.831,0,0,1-1.687.156,2.67,2.67,0,0,1-3.762-.625a3.335,3.335,0,0,1-.73-2.289V-8.453h2.258v5.467q0,1.322,1.2,1.322a1.63,1.63,0,0,0,1.578-.8V-8.453H2.813V0H.688Zm7.406-.8a1.481,1.481,0,0,0,1.016-.344,1.2,1.2,0,0,0,.406-.914H11.57A2.9,2.9,0,0,1,11.1-1.348,3.093,3.093,0,0,1,9.84-.238,3.949,3.949,0,0,1,8.07.156,3.67,3.67,0,0,1,5.211-1,4.56,4.56,0,0,1,4.164-4.18v-.148A4.508,4.508,0,0,1,5.2-7.445,3.627,3.627,0,0,1,8.055-8.609a3.555,3.555,0,0,1,2.543.9,3.2,3.2,0,0,1,.973,2.4H9.453a1.551,1.551,0,0,0-.406-1.072,1.354,1.354,0,0,0-1.031-.412,1.36,1.36,0,0,0-1.191.575,3.333,3.333,0,0,0-.4,1.866v.235a3.375,3.375,0,0,0,.4,1.878A1.377,1.377,0,0,0,8.031-1.664Zm7.531-8.867v2.078h1.445V-6.8H15.563v4.219a1.007,1.007,0,0,0,.18.672.9.9,0,0,0,.688.2,3.6,3.6,0,0,0,.664-.055V-.047a4.648,4.648,0,0,1-1.367.2,2.156,2.156,0,0,1-2.422-2.4V-6.8H12.07V-8.453H13.3v-2.078ZM17.68-4.3a5.013,5.013,0,0,1,.484-2.242A3.546,3.546,0,0,1,19.559-8.07a4.069,4.069,0,0,1,2.113-.539,3.849,3.849,0,0,1,2.793,1.047,4.2,4.2,0,0,1,1.207,2.844l.016.578A4.418,4.418,0,0,1,24.6-1.02,3.775,3.775,0,0,1,21.688.156,3.793,3.793,0,0,1,18.77-1.016,4.5,4.5,0,0,1,17.68-4.2Zm2.258.16A3.16,3.16,0,0,0,20.391-2.3a1.5,1.5,0,0,0,1.3.638,1.5,1.5,0,0,0,1.281-.63,3.457,3.457,0,0,0,.461-2.015,3.128,3.128,0,0,0-.461-1.831,1.5,1.5,0,0,0-1.3-.649,1.474,1.474,0,0,0-1.281.646A3.516,3.516,0,0,0,19.938-4.144ZM30.711-4.3A5.013,5.013,0,0,1,31.2-6.547,3.546,3.546,0,0,1,32.59-8.07,4.069,4.069,0,0,1,34.7-8.609,3.849,3.849,0,0,1,37.5-7.562,4.2,4.2,0,0,1,38.7-4.719l.016.578A4.418,4.418,0,0,1,37.633-1.02,3.775,3.775,0,0,1,34.719.156,3.793,3.793,0,0,1,31.8-1.016,4.5,4.5,0,0,1,30.711-4.2Zm2.258.16A3.16,3.16,0,0,0,33.422-2.3a1.5,1.5,0,0,0,1.3.638A1.5,1.5,0,0,0,36-2.294a3.457,3.457,0,0,0,.461-2.015A3.128,3.128,0,0,0,36-6.14a1.5,1.5,0,0,0-1.3-.649,1.474,1.474,0,0,0-1.281.646A3.516,3.516,0,0,0,32.969-4.144Zm-55.93,17.808a.727.727,0,0,0-.41-.652,4.659,4.659,0,0,0-1.316-.426q-3.016-.633-3.016-2.562a2.323,2.323,0,0,1,.934-1.879,3.766,3.766,0,0,1,2.441-.754,4.053,4.053,0,0,1,2.574.758,2.388,2.388,0,0,1,.965,1.969h-2.258a1.092,1.092,0,0,0-.312-.8A1.322,1.322,0,0,0-24.336,9a1.351,1.351,0,0,0-.883.258.814.814,0,0,0-.312.656.7.7,0,0,0,.355.605,3.657,3.657,0,0,0,1.2.4,9.8,9.8,0,0,1,1.422.379,2.336,2.336,0,0,1,1.789,2.273,2.2,2.2,0,0,1-.992,1.871,4.28,4.28,0,0,1-2.562.715,4.47,4.47,0,0,1-1.887-.379A3.166,3.166,0,0,1-27.5,14.738a2.414,2.414,0,0,1-.469-1.426h2.141a1.179,1.179,0,0,0,.445.922,1.766,1.766,0,0,0,1.109.32,1.635,1.635,0,0,0,.98-.246A.766.766,0,0,0-22.961,13.664Zm7.539,2.492a4.15,4.15,0,0,1-3.027-1.141,4.054,4.054,0,0,1-1.168-3.039v-.219a5.106,5.106,0,0,1,.492-2.277A3.612,3.612,0,0,1-17.73,7.934a3.914,3.914,0,0,1,2.059-.543,3.508,3.508,0,0,1,2.73,1.094,4.444,4.444,0,0,1,1,3.1v.922h-5.383a2.1,2.1,0,0,0,.66,1.328,2,2,0,0,0,1.395.5,2.437,2.437,0,0,0,2.039-.945l1.109,1.242A3.389,3.389,0,0,1-13.5,15.754,4.511,4.511,0,0,1-15.422,16.156Zm-.258-6.945a1.411,1.411,0,0,0-1.09.455,2.357,2.357,0,0,0-.535,1.3h3.141v-.181a1.681,1.681,0,0,0-.406-1.165A1.456,1.456,0,0,0-15.68,9.211Zm9.766.453A6.134,6.134,0,0,0-6.727,9.6a1.654,1.654,0,0,0-1.68.867V16h-2.258V7.547h2.133l.063,1.008A2.092,2.092,0,0,1-6.586,7.391a2.366,2.366,0,0,1,.7.1Zm4.391,3.578,1.57-5.7H2.406L-.445,16H-2.6L-5.453,7.547h2.359ZM5.781,16H3.516V7.547H5.781ZM3.383,5.359a1.112,1.112,0,0,1,.34-.836A1.277,1.277,0,0,1,4.648,4.2a1.28,1.28,0,0,1,.922.328,1.105,1.105,0,0,1,.344.836,1.108,1.108,0,0,1-.348.844,1.283,1.283,0,0,1-.918.328A1.283,1.283,0,0,1,3.73,6.2,1.108,1.108,0,0,1,3.383,5.359Zm7.773,8.977a1.481,1.481,0,0,0,1.016-.344,1.2,1.2,0,0,0,.406-.914H14.7a2.9,2.9,0,0,1-.469,1.574,3.093,3.093,0,0,1-1.262,1.109,3.949,3.949,0,0,1-1.77.395A3.67,3.67,0,0,1,8.336,15,4.56,4.56,0,0,1,7.289,11.82v-.148A4.508,4.508,0,0,1,8.328,8.555,3.627,3.627,0,0,1,11.18,7.391a3.555,3.555,0,0,1,2.543.9,3.2,3.2,0,0,1,.973,2.4H12.578a1.551,1.551,0,0,0-.406-1.072,1.354,1.354,0,0,0-1.031-.412,1.36,1.36,0,0,0-1.191.575,3.333,3.333,0,0,0-.4,1.866v.235a3.375,3.375,0,0,0,.4,1.878A1.377,1.377,0,0,0,11.156,14.336ZM18.367,16H16.1V7.547h2.266Zm-2.4-10.641a1.112,1.112,0,0,1,.34-.836,1.465,1.465,0,0,1,1.848,0,1.105,1.105,0,0,1,.344.836,1.108,1.108,0,0,1-.348.844,1.448,1.448,0,0,1-1.836,0A1.108,1.108,0,0,1,15.969,5.359ZM19.875,11.7a5.013,5.013,0,0,1,.484-2.242A3.546,3.546,0,0,1,21.754,7.93a4.069,4.069,0,0,1,2.113-.539A3.849,3.849,0,0,1,26.66,8.438a4.2,4.2,0,0,1,1.207,2.844l.016.578A4.418,4.418,0,0,1,26.8,14.98a3.775,3.775,0,0,1-2.914,1.176,3.793,3.793,0,0,1-2.918-1.172,4.5,4.5,0,0,1-1.09-3.187Zm2.258.16a3.16,3.16,0,0,0,.453,1.843,1.628,1.628,0,0,0,2.578.008,3.457,3.457,0,0,0,.461-2.015,3.128,3.128,0,0,0-.461-1.831,1.5,1.5,0,0,0-1.3-.649,1.474,1.474,0,0,0-1.281.646A3.516,3.516,0,0,0,22.133,11.856Z" transform="translate(486.82 7906.187)" fill="#12263f"/>
      <g id="producto" transform="translate(452.126 7816.629)">
        <path id="Trazado_808271" data-name="Trazado 808271" d="M64.656,36.133a.887.887,0,0,0-.778-.461H46.261l3.012-3.012a.886.886,0,0,0-.627-1.513H38.8L35.5,21.264a.886.886,0,0,0-1.681,0l-3.294,9.884H20.674a.886.886,0,0,0-.627,1.513l3.012,3.01H5.441a.886.886,0,0,0-.747,1.367l6.357,9.93v24.86a.886.886,0,0,0,.886.886H57.381a.886.886,0,0,0,.886-.886V46.967l6.357-9.929a.888.888,0,0,0,.031-.9ZM22.813,32.92h8.352a.886.886,0,0,0,.841-.608l2.654-7.965,2.656,7.967a.886.886,0,0,0,.841.608h8.35L43.754,35.67h-2.6a.886.886,0,0,0-.747.409l-5.75,8.985-5.75-8.983a.886.886,0,0,0-.747-.409h-2.6Zm4.862,4.525,5.364,8.377H12.423L7.061,37.443ZM12.824,47.594H33.773V70.942H12.824ZM56.5,70.942H35.546V47.594H56.5Zm.4-25.12H36.28l5.361-8.379h20.62Z" transform="translate(0 -7.947)" fill="#12263f" stroke="#12263f" stroke-width="1"/>
        <path id="Trazado_808272" data-name="Trazado 808272" d="M63.136,10.153a.887.887,0,0,0,.886-.886V5.443a.886.886,0,1,0-1.773,0V9.267a.887.887,0,0,0,.886.886Z" transform="translate(-28.477 0)" fill="#12263f" stroke="#12263f" stroke-width="1"/>
        <path id="Trazado_808273" data-name="Trazado 808273" d="M41.873,15.2a.886.886,0,1,0,1.535-.886L41.5,11a.886.886,0,1,0-1.535.886Z" transform="translate(-17.417 -2.963)" fill="#12263f" stroke="#12263f" stroke-width="1"/>
        <path id="Trazado_808274" data-name="Trazado 808274" d="M23.882,28.618l3.312,1.91a.886.886,0,1,0,.886-1.535l-3.312-1.909a.886.886,0,1,0-.886,1.535Z" transform="translate(-9.321 -11.06)" fill="#12263f" stroke="#12263f" stroke-width="1"/>
        <path id="Trazado_808275" data-name="Trazado 808275" d="M81.325,15.526a.885.885,0,0,0,1.21-.325l1.912-3.311A.886.886,0,1,0,82.913,11L81,14.315A.887.887,0,0,0,81.325,15.526Z" transform="translate(-37.672 -2.963)" fill="#12263f" stroke="#12263f" stroke-width="1"/>
        <path id="Trazado_808276" data-name="Trazado 808276" d="M95.41,30.646a.876.876,0,0,0,.442-.121l3.312-1.912a.886.886,0,1,0-.886-1.535l-3.31,1.914a.886.886,0,0,0,.444,1.654Z" transform="translate(-44.406 -11.057)" fill="#12263f" stroke="#12263f" stroke-width="1"/>
      </g>
      <path id="Trazado_826291" data-name="Trazado 826291" d="M-27.59-11.375l2.922,8.25,2.906-8.25h3.078V0h-2.352V-3.109l.234-5.367L-23.871,0H-25.48l-3.062-8.469.234,5.359V0h-2.344V-11.375ZM-12.895.156A4.15,4.15,0,0,1-15.922-.984,4.054,4.054,0,0,1-17.09-4.023v-.219A5.106,5.106,0,0,1-16.6-6.52,3.612,3.612,0,0,1-15.2-8.066a3.914,3.914,0,0,1,2.059-.543,3.508,3.508,0,0,1,2.73,1.094,4.444,4.444,0,0,1,1,3.1v.922H-14.8a2.1,2.1,0,0,0,.66,1.328,2,2,0,0,0,1.395.5,2.437,2.437,0,0,0,2.039-.945L-9.6-1.367A3.389,3.389,0,0,1-10.973-.246,4.511,4.511,0,0,1-12.895.156Zm-.258-6.945a1.411,1.411,0,0,0-1.09.455,2.357,2.357,0,0,0-.535,1.3h3.141v-.181a1.681,1.681,0,0,0-.406-1.165A1.456,1.456,0,0,0-13.152-6.789Zm9.766.453A6.134,6.134,0,0,0-4.2-6.4a1.654,1.654,0,0,0-1.68.867V0H-8.137V-8.453H-6l.063,1.008A2.092,2.092,0,0,1-4.059-8.609a2.366,2.366,0,0,1,.7.1ZM1.066-1.664a1.481,1.481,0,0,0,1.016-.344,1.2,1.2,0,0,0,.406-.914H4.605a2.9,2.9,0,0,1-.469,1.574A3.093,3.093,0,0,1,2.875-.238a3.949,3.949,0,0,1-1.77.395A3.67,3.67,0,0,1-1.754-1,4.56,4.56,0,0,1-2.8-4.18v-.148A4.508,4.508,0,0,1-1.762-7.445,3.627,3.627,0,0,1,1.09-8.609a3.555,3.555,0,0,1,2.543.9,3.2,3.2,0,0,1,.973,2.4H2.488a1.551,1.551,0,0,0-.406-1.072,1.354,1.354,0,0,0-1.031-.412,1.36,1.36,0,0,0-1.191.575,3.333,3.333,0,0,0-.4,1.866v.235a3.375,3.375,0,0,0,.4,1.878A1.377,1.377,0,0,0,1.066-1.664ZM10.793,0a2.507,2.507,0,0,1-.227-.758A2.732,2.732,0,0,1,8.434.156,3,3,0,0,1,6.375-.562a2.312,2.312,0,0,1-.816-1.812,2.389,2.389,0,0,1,1-2.062,4.915,4.915,0,0,1,2.879-.727h1.039v-.484a1.393,1.393,0,0,0-.3-.937,1.183,1.183,0,0,0-.949-.352,1.345,1.345,0,0,0-.895.273A.929.929,0,0,0,8-5.914H5.746A2.268,2.268,0,0,1,6.2-7.273a3,3,0,0,1,1.281-.98A4.669,4.669,0,0,1,9.34-8.609a3.689,3.689,0,0,1,2.48.785,2.747,2.747,0,0,1,.918,2.207v3.664a4.041,4.041,0,0,0,.336,1.82V0ZM8.926-1.57a1.945,1.945,0,0,0,.922-.223,1.462,1.462,0,0,0,.625-.6V-3.844H9.629q-1.7,0-1.8,1.172l-.008.133a.9.9,0,0,0,.3.7A1.153,1.153,0,0,0,8.926-1.57Zm5.2-2.719a5.094,5.094,0,0,1,.887-3.148,2.877,2.877,0,0,1,2.426-1.172,2.589,2.589,0,0,1,2.039.922V-12h2.266V0H19.7L19.59-.9A2.657,2.657,0,0,1,17.418.156,2.869,2.869,0,0,1,15.023-1.02,5.258,5.258,0,0,1,14.121-4.289Zm2.258.168A3.337,3.337,0,0,0,16.793-2.3a1.349,1.349,0,0,0,1.2.634,1.511,1.511,0,0,0,1.477-.884V-5.889a1.489,1.489,0,0,0-1.461-.884Q16.379-6.773,16.379-4.121ZM23.137-4.3a5.013,5.013,0,0,1,.484-2.242A3.546,3.546,0,0,1,25.016-8.07a4.069,4.069,0,0,1,2.113-.539,3.849,3.849,0,0,1,2.793,1.047,4.2,4.2,0,0,1,1.207,2.844l.016.578A4.418,4.418,0,0,1,30.059-1.02,3.775,3.775,0,0,1,27.145.156a3.793,3.793,0,0,1-2.918-1.172A4.5,4.5,0,0,1,23.137-4.2Zm2.258.16A3.16,3.16,0,0,0,25.848-2.3a1.5,1.5,0,0,0,1.3.638,1.5,1.5,0,0,0,1.281-.63,3.457,3.457,0,0,0,.461-2.015,3.128,3.128,0,0,0-.461-1.831,1.5,1.5,0,0,0-1.3-.649,1.474,1.474,0,0,0-1.281.646A3.516,3.516,0,0,0,25.395-4.144Z" transform="translate(278.82 8049.399)" fill="#12263f"/>
      <g id="signo-de-dolar_2_" data-name="signo-de-dolar (2)" transform="translate(249.92 7973.599)">
        <path id="Trazado_808277" data-name="Trazado 808277" d="M27.9,55.8A27.9,27.9,0,1,1,44.3,5.329a1.744,1.744,0,0,1-2.053,2.82A24.377,24.377,0,1,0,49.388,16.3a1.744,1.744,0,0,1,3.068-1.655A27.909,27.909,0,0,1,27.9,55.8Z" transform="translate(0 0)" fill="#12263f"/>
        <path id="Trazado_808278" data-name="Trazado 808278" d="M41.412,11.441a1.744,1.744,0,0,1-1.329-.613l-.314-.362a1.744,1.744,0,1,1,2.612-2.31l.357.411a1.744,1.744,0,0,1-1.326,2.874Z" transform="translate(6.392 1.23)" fill="#12263f"/>
        <path id="Trazado_808279" data-name="Trazado 808279" d="M28.051,24.873H26.889v-8h1.163a4,4,0,0,1,4,4,1.744,1.744,0,1,0,3.488,0,7.5,7.5,0,0,0-7.487-7.487H26.889V9.644a1.744,1.744,0,0,0-3.488,0v3.744H22.239a7.486,7.486,0,1,0,0,14.973H23.4v8H22.239a4,4,0,0,1-4-4,1.744,1.744,0,1,0-3.488,0,7.5,7.5,0,0,0,7.487,7.487H23.4v3.744a1.744,1.744,0,0,0,3.488,0V39.845h1.163a7.486,7.486,0,1,0,0-14.973Zm-5.821,0a4,4,0,1,1,0-8h1.163v8Zm5.821,11.485H26.889v-8h1.163a4,4,0,1,1,0,8Z" transform="translate(2.397 1.284)" fill="#12263f"/>
      </g>
      <path id="Trazado_826293" data-name="Trazado 826293" d="M-30.215-9.477H-33.7V0h-2.344V-9.477H-39.48v-1.9h9.266ZM-25.832.156A4.15,4.15,0,0,1-28.859-.984a4.054,4.054,0,0,1-1.168-3.039v-.219a5.106,5.106,0,0,1,.492-2.277,3.612,3.612,0,0,1,1.395-1.547,3.914,3.914,0,0,1,2.059-.543,3.508,3.508,0,0,1,2.73,1.094,4.444,4.444,0,0,1,1,3.1v.922h-5.383a2.1,2.1,0,0,0,.66,1.328,2,2,0,0,0,1.395.5,2.437,2.437,0,0,0,2.039-.945l1.109,1.242A3.389,3.389,0,0,1-23.91-.246,4.511,4.511,0,0,1-25.832.156Zm-.258-6.945a1.411,1.411,0,0,0-1.09.455,2.357,2.357,0,0,0-.535,1.3h3.141v-.181a1.681,1.681,0,0,0-.406-1.165A1.456,1.456,0,0,0-26.09-6.789Zm8.531,5.125a1.481,1.481,0,0,0,1.016-.344,1.2,1.2,0,0,0,.406-.914h2.117a2.9,2.9,0,0,1-.469,1.574A3.093,3.093,0,0,1-15.75-.238a3.949,3.949,0,0,1-1.77.395A3.67,3.67,0,0,1-20.379-1,4.56,4.56,0,0,1-21.426-4.18v-.148a4.508,4.508,0,0,1,1.039-3.117,3.627,3.627,0,0,1,2.852-1.164,3.555,3.555,0,0,1,2.543.9,3.2,3.2,0,0,1,.973,2.4h-2.117a1.551,1.551,0,0,0-.406-1.072,1.354,1.354,0,0,0-1.031-.412,1.36,1.36,0,0,0-1.191.575,3.333,3.333,0,0,0-.4,1.866v.235a3.375,3.375,0,0,0,.4,1.878A1.377,1.377,0,0,0-17.559-1.664Zm6.906-6.789.07.977a2.951,2.951,0,0,1,2.43-1.133,2.453,2.453,0,0,1,2,.789A3.682,3.682,0,0,1-5.48-5.461V0H-7.738V-5.406a1.465,1.465,0,0,0-.312-1.043A1.4,1.4,0,0,0-9.09-6.773a1.553,1.553,0,0,0-1.43.813V0h-2.258V-8.453ZM-4.121-4.3a5.013,5.013,0,0,1,.484-2.242A3.546,3.546,0,0,1-2.242-8.07,4.069,4.069,0,0,1-.129-8.609,3.849,3.849,0,0,1,2.664-7.562,4.2,4.2,0,0,1,3.871-4.719l.016.578A4.418,4.418,0,0,1,2.8-1.02,3.775,3.775,0,0,1-.113.156,3.793,3.793,0,0,1-3.031-1.016,4.5,4.5,0,0,1-4.121-4.2Zm2.258.16A3.16,3.16,0,0,0-1.41-2.3a1.5,1.5,0,0,0,1.3.638,1.5,1.5,0,0,0,1.281-.63,3.457,3.457,0,0,0,.461-2.015A3.128,3.128,0,0,0,1.168-6.14a1.5,1.5,0,0,0-1.3-.649,1.474,1.474,0,0,0-1.281.646A3.516,3.516,0,0,0-1.863-4.144ZM7.66,0H5.395V-12H7.66ZM9.168-4.3a5.013,5.013,0,0,1,.484-2.242A3.546,3.546,0,0,1,11.047-8.07a4.069,4.069,0,0,1,2.113-.539,3.849,3.849,0,0,1,2.793,1.047A4.2,4.2,0,0,1,17.16-4.719l.016.578A4.418,4.418,0,0,1,16.09-1.02,3.775,3.775,0,0,1,13.176.156a3.793,3.793,0,0,1-2.918-1.172A4.5,4.5,0,0,1,9.168-4.2Zm2.258.16A3.16,3.16,0,0,0,11.879-2.3a1.5,1.5,0,0,0,1.3.638,1.5,1.5,0,0,0,1.281-.63,3.457,3.457,0,0,0,.461-2.015,3.128,3.128,0,0,0-.461-1.831,1.5,1.5,0,0,0-1.3-.649,1.474,1.474,0,0,0-1.281.646A3.516,3.516,0,0,0,11.426-4.144Zm6.813-.145a4.954,4.954,0,0,1,.926-3.133,3,3,0,0,1,2.5-1.187,2.631,2.631,0,0,1,2.164.953l.094-.8h2.047V-.281a3.613,3.613,0,0,1-.5,1.93A3.236,3.236,0,0,1,24.043,2.9a4.985,4.985,0,0,1-2.141.43,4.635,4.635,0,0,1-1.812-.371A3.217,3.217,0,0,1,18.754,2l1-1.375A2.645,2.645,0,0,0,21.8,1.57a1.936,1.936,0,0,0,1.4-.48,1.8,1.8,0,0,0,.5-1.363V-.727a2.612,2.612,0,0,1-2.055.883A2.992,2.992,0,0,1,19.18-1.035a4.953,4.953,0,0,1-.941-3.16Zm2.258.168a3.085,3.085,0,0,0,.461,1.8,1.466,1.466,0,0,0,1.266.653A1.568,1.568,0,0,0,23.7-2.439V-6a1.564,1.564,0,0,0-1.461-.775,1.476,1.476,0,0,0-1.277.665A3.477,3.477,0,0,0,20.5-4.121ZM30.137,0H27.879V-8.453h2.258Zm-.664-11.883h2.461L29.77-9.461H27.934ZM36.98,0a2.507,2.507,0,0,1-.227-.758,2.732,2.732,0,0,1-2.133.914,3,3,0,0,1-2.059-.719,2.312,2.312,0,0,1-.816-1.812,2.389,2.389,0,0,1,1-2.062,4.915,4.915,0,0,1,2.879-.727H36.66v-.484a1.393,1.393,0,0,0-.3-.937,1.183,1.183,0,0,0-.949-.352,1.345,1.345,0,0,0-.895.273.929.929,0,0,0-.324.75H31.934a2.268,2.268,0,0,1,.453-1.359,3,3,0,0,1,1.281-.98,4.669,4.669,0,0,1,1.859-.355,3.689,3.689,0,0,1,2.48.785,2.747,2.747,0,0,1,.918,2.207v3.664a4.041,4.041,0,0,0,.336,1.82V0ZM35.113-1.57a1.945,1.945,0,0,0,.922-.223,1.462,1.462,0,0,0,.625-.6V-3.844h-.844q-1.7,0-1.8,1.172L34-2.539a.9.9,0,0,0,.3.7A1.153,1.153,0,0,0,35.113-1.57Z" transform="translate(484.82 8184.599)" fill="#12263f"/>
      <g id="g3357" transform="translate(454.785 8781.509)">
        <g id="g3359" transform="translate(0 -682.665)">
          <g id="g3361" clip-path="url(#clip-path-2)">
            <g id="g3367" transform="translate(0.934 53.668)">
              <path id="path3369" d="M-454.954-60.441h-43.627a3.237,3.237,0,0,1-3.238-3.238v-2.49a.5.5,0,0,1,.5-.5h60.89a.5.5,0,0,1,.5.5v2.49a3.238,3.238,0,0,1-3.238,3.238h-7.753" transform="translate(501.819 66.667)" fill="none" stroke="#12263f" stroke-linecap="round" stroke-linejoin="round" stroke-miterlimit="10" stroke-width="2"/>
            </g>
            <g id="g3371" transform="translate(5.105 16.312)">
              <path id="path3373" d="M-519.779-92.468v25.339a2.491,2.491,0,0,1-2.49,2.49H-570.83a2.49,2.49,0,0,1-2.49-2.49V-99.5a2.491,2.491,0,0,1,2.49-2.49h26.755" transform="translate(573.321 101.993)" fill="none" stroke="#12263f" stroke-linecap="round" stroke-linejoin="round" stroke-miterlimit="10" stroke-width="2"/>
            </g>
            <g id="g3375" transform="translate(51.152 16.312)">
              <path id="path3377" d="M0,0H5.005A2.49,2.49,0,0,1,7.5,2.49V5.564" fill="none" stroke="#12263f" stroke-linecap="round" stroke-linejoin="round" stroke-miterlimit="10" stroke-width="2"/>
            </g>
            <g id="g3379" transform="translate(39.217 16.312)">
              <path id="path3381" d="M-68.469,0h-7.053" transform="translate(75.522)" fill="none" stroke="#12263f" stroke-linecap="round" stroke-linejoin="round" stroke-miterlimit="10" stroke-width="2"/>
            </g>
            <g id="g3383" transform="translate(8.841 20.048)">
              <path id="path3385" d="M-.008-191.477V-211.2H25.005" transform="translate(0.009 211.201)" fill="none" stroke="#12263f" stroke-linecap="round" stroke-linejoin="round" stroke-miterlimit="10" stroke-width="2"/>
            </g>
            <g id="g3387" transform="translate(8.842 20.048)">
              <path id="path3389" d="M-419.678,0h2.839V29.884h-46.071v-6.13" transform="translate(462.91)" fill="none" stroke="#12263f" stroke-linecap="round" stroke-linejoin="round" stroke-miterlimit="10" stroke-width="2"/>
            </g>
            <g id="g3391" transform="translate(26.149 53.668)">
              <path id="path3393" d="M-96.7-29.011h-8.467a1.494,1.494,0,0,1-1.494-1.494V-32h11.456v1.494A1.494,1.494,0,0,1-96.7-29.011Z" transform="translate(106.666 32)" fill="none" stroke="#12263f" stroke-linecap="round" stroke-linejoin="round" stroke-miterlimit="10" stroke-width="2"/>
            </g>
            <g id="g3395" transform="translate(33.031 3.86)">
              <path id="path3397" d="M-134.691-102.077a4.157,4.157,0,0,0-4.162-4.152,4.157,4.157,0,0,0-4.162,4.152,4.157,4.157,0,0,0,4.162,4.152A4.157,4.157,0,0,0-134.691-102.077Zm-1.763,7.839c-.069.492-.235,1.2-.383,1.768a1.21,1.21,0,0,1-1.171.908h-1.69a1.21,1.21,0,0,1-1.171-.908c-.148-.572-.314-1.276-.383-1.768a1.2,1.2,0,0,0-.592-.872l-1.562-.9a1.2,1.2,0,0,0-1.05-.076c-.462.186-1.159.4-1.731.555a1.21,1.21,0,0,1-1.371-.559l-.844-1.458a1.207,1.207,0,0,1,.2-1.467c.423-.414.953-.91,1.345-1.216a1.2,1.2,0,0,0,.46-.947v-1.8a1.2,1.2,0,0,0-.46-.947c-.392-.306-.922-.8-1.345-1.216a1.207,1.207,0,0,1-.2-1.467l.844-1.458a1.21,1.21,0,0,1,1.371-.559c.572.159,1.269.368,1.731.555a1.2,1.2,0,0,0,1.05-.076l1.562-.9a1.2,1.2,0,0,0,.592-.872c.069-.492.235-1.2.383-1.768a1.21,1.21,0,0,1,1.171-.908h1.69a1.21,1.21,0,0,1,1.171.908c.148.572.314,1.276.383,1.768a1.2,1.2,0,0,0,.592.872l1.562.9a1.2,1.2,0,0,0,1.05.076c.462-.187,1.16-.4,1.731-.555a1.21,1.21,0,0,1,1.371.559l.844,1.458a1.207,1.207,0,0,1-.2,1.467c-.423.414-.952.91-1.345,1.216a1.2,1.2,0,0,0-.46.947v1.8a1.2,1.2,0,0,0,.46.947c.392.306.922.8,1.345,1.216a1.207,1.207,0,0,1,.2,1.467l-.844,1.458a1.21,1.21,0,0,1-1.371.559c-.572-.159-1.269-.368-1.731-.555a1.2,1.2,0,0,0-1.05.076l-1.562.9A1.2,1.2,0,0,0-136.453-94.238Z" transform="translate(148.565 112.592)" fill="none" stroke="#12263f" stroke-linecap="round" stroke-linejoin="round" stroke-miterlimit="10" stroke-width="2"/>
            </g>
            <g id="g3399" transform="translate(18.386 20.048)">
              <path id="path3401" d="M-134.691-102.077a4.157,4.157,0,0,0-4.162-4.152,4.157,4.157,0,0,0-4.162,4.152,4.157,4.157,0,0,0,4.162,4.152A4.157,4.157,0,0,0-134.691-102.077Zm-1.763,7.839c-.069.492-.235,1.2-.383,1.768a1.21,1.21,0,0,1-1.171.908h-1.69a1.21,1.21,0,0,1-1.171-.908c-.148-.572-.314-1.276-.383-1.768a1.2,1.2,0,0,0-.592-.872l-1.562-.9a1.2,1.2,0,0,0-1.05-.076c-.462.186-1.159.4-1.731.555a1.21,1.21,0,0,1-1.371-.559l-.844-1.458a1.207,1.207,0,0,1,.2-1.467c.423-.414.952-.91,1.345-1.216a1.2,1.2,0,0,0,.46-.947v-1.8a1.2,1.2,0,0,0-.46-.947c-.392-.306-.922-.8-1.345-1.216a1.207,1.207,0,0,1-.2-1.467l.844-1.458a1.21,1.21,0,0,1,1.371-.559c.572.159,1.269.368,1.731.555a1.2,1.2,0,0,0,1.05-.076l1.562-.9a1.2,1.2,0,0,0,.592-.872c.069-.492.235-1.2.383-1.768a1.21,1.21,0,0,1,1.171-.908h1.69a1.21,1.21,0,0,1,1.171.908c.148.572.314,1.276.383,1.768a1.2,1.2,0,0,0,.592.872l1.562.9a1.2,1.2,0,0,0,1.05.076c.462-.186,1.16-.4,1.731-.555a1.21,1.21,0,0,1,1.371.559l.844,1.458a1.207,1.207,0,0,1-.2,1.467c-.423.414-.952.91-1.345,1.216a1.2,1.2,0,0,0-.46.947v1.8a1.2,1.2,0,0,0,.46.947c.393.306.922.8,1.345,1.216a1.207,1.207,0,0,1,.2,1.467l-.844,1.458a1.21,1.21,0,0,1-1.371.559c-.572-.159-1.269-.368-1.731-.555a1.2,1.2,0,0,0-1.05.076l-1.562.9A1.2,1.2,0,0,0-136.453-94.238Z" transform="translate(148.565 112.592)" fill="none" stroke="#12263f" stroke-linecap="round" stroke-linejoin="round" stroke-miterlimit="10" stroke-width="2"/>
            </g>
          </g>
        </g>
      </g>
      <path id="Trazado_826292" data-name="Trazado 826292" d="M-25.266-4.648h-4.5V0h-2.344V-11.375H-24.7v1.9h-5.062v2.938h4.5ZM-21.109,0h-2.266V-8.453h2.266Zm-2.4-10.641a1.112,1.112,0,0,1,.34-.836,1.277,1.277,0,0,1,.926-.328,1.28,1.28,0,0,1,.922.328,1.105,1.105,0,0,1,.344.836,1.108,1.108,0,0,1-.348.844,1.283,1.283,0,0,1-.918.328A1.283,1.283,0,0,1-23.16-9.8,1.108,1.108,0,0,1-23.508-10.641ZM-16.867,0h-2.266V-12h2.266Zm1.508-4.3a5.013,5.013,0,0,1,.484-2.242A3.546,3.546,0,0,1-13.48-8.07a4.069,4.069,0,0,1,2.113-.539A3.849,3.849,0,0,1-8.574-7.562,4.2,4.2,0,0,1-7.367-4.719l.016.578A4.418,4.418,0,0,1-8.437-1.02,3.775,3.775,0,0,1-11.352.156,3.793,3.793,0,0,1-14.27-1.016,4.5,4.5,0,0,1-15.359-4.2Zm2.258.16A3.16,3.16,0,0,0-12.648-2.3a1.5,1.5,0,0,0,1.3.638,1.5,1.5,0,0,0,1.281-.63,3.457,3.457,0,0,0,.461-2.015A3.128,3.128,0,0,0-10.07-6.14a1.5,1.5,0,0,0-1.3-.649,1.474,1.474,0,0,0-1.281.646A3.516,3.516,0,0,0-13.1-4.144ZM-1.383-2.336a.727.727,0,0,0-.41-.652,4.659,4.659,0,0,0-1.316-.426q-3.016-.633-3.016-2.562a2.323,2.323,0,0,1,.934-1.879A3.766,3.766,0,0,1-2.75-8.609a4.053,4.053,0,0,1,2.574.758A2.388,2.388,0,0,1,.789-5.883H-1.469a1.092,1.092,0,0,0-.312-.8A1.322,1.322,0,0,0-2.758-7a1.351,1.351,0,0,0-.883.258.814.814,0,0,0-.312.656A.7.7,0,0,0-3.6-5.48a3.657,3.657,0,0,0,1.2.4A9.8,9.8,0,0,1-.977-4.7,2.336,2.336,0,0,1,.813-2.43,2.2,2.2,0,0,1-.18-.559,4.28,4.28,0,0,1-2.742.156,4.47,4.47,0,0,1-4.629-.223,3.166,3.166,0,0,1-5.922-1.262a2.414,2.414,0,0,1-.469-1.426H-4.25a1.179,1.179,0,0,0,.445.922,1.766,1.766,0,0,0,1.109.32,1.635,1.635,0,0,0,.98-.246A.766.766,0,0,0-1.383-2.336ZM1.914-4.3A5.013,5.013,0,0,1,2.4-6.547,3.546,3.546,0,0,1,3.793-8.07a4.069,4.069,0,0,1,2.113-.539A3.849,3.849,0,0,1,8.7-7.562,4.2,4.2,0,0,1,9.906-4.719l.016.578A4.418,4.418,0,0,1,8.836-1.02,3.775,3.775,0,0,1,5.922.156,3.793,3.793,0,0,1,3-1.016,4.5,4.5,0,0,1,1.914-4.2Zm2.258.16A3.16,3.16,0,0,0,4.625-2.3a1.5,1.5,0,0,0,1.3.638A1.5,1.5,0,0,0,7.2-2.294a3.457,3.457,0,0,0,.461-2.015A3.128,3.128,0,0,0,7.2-6.14a1.5,1.5,0,0,0-1.3-.649,1.474,1.474,0,0,0-1.281.646A3.516,3.516,0,0,0,4.172-4.144ZM11.93,0V-6.8H10.672V-8.453H11.93v-.719a2.918,2.918,0,0,1,.816-2.207,3.162,3.162,0,0,1,2.285-.785,5.278,5.278,0,0,1,1.148.156l-.023,1.75a2.878,2.878,0,0,0-.687-.07q-1.273,0-1.273,1.2v.68h1.68V-6.8H14.2V0Zm7.555,0H17.227V-8.453h2.258ZM18.82-11.883h2.461L19.117-9.461H17.281ZM26.328,0A2.507,2.507,0,0,1,26.1-.758a2.732,2.732,0,0,1-2.133.914A3,3,0,0,1,21.91-.562a2.312,2.312,0,0,1-.816-1.812,2.389,2.389,0,0,1,1-2.062,4.915,4.915,0,0,1,2.879-.727h1.039v-.484a1.393,1.393,0,0,0-.3-.937,1.183,1.183,0,0,0-.949-.352,1.345,1.345,0,0,0-.895.273.929.929,0,0,0-.324.75H21.281a2.268,2.268,0,0,1,.453-1.359,3,3,0,0,1,1.281-.98,4.669,4.669,0,0,1,1.859-.355,3.689,3.689,0,0,1,2.48.785,2.747,2.747,0,0,1,.918,2.207v3.664a4.041,4.041,0,0,0,.336,1.82V0ZM24.461-1.57a1.945,1.945,0,0,0,.922-.223,1.462,1.462,0,0,0,.625-.6V-3.844h-.844q-1.7,0-1.8,1.172l-.008.133a.9.9,0,0,0,.3.7A1.153,1.153,0,0,0,24.461-1.57ZM-52.375,12.7a5.013,5.013,0,0,1,.484-2.242A3.546,3.546,0,0,1-50.5,8.93a4.069,4.069,0,0,1,2.113-.539A3.849,3.849,0,0,1-45.59,9.438a4.2,4.2,0,0,1,1.207,2.844l.016.578a4.418,4.418,0,0,1-1.086,3.121,3.775,3.775,0,0,1-2.914,1.176,3.793,3.793,0,0,1-2.918-1.172,4.5,4.5,0,0,1-1.09-3.187Zm2.258.16a3.16,3.16,0,0,0,.453,1.843,1.5,1.5,0,0,0,1.3.638,1.5,1.5,0,0,0,1.281-.63,3.457,3.457,0,0,0,.461-2.015,3.128,3.128,0,0,0-.461-1.831,1.5,1.5,0,0,0-1.3-.649,1.474,1.474,0,0,0-1.281.646A3.516,3.516,0,0,0-50.117,12.856Zm11.891-2.192a6.134,6.134,0,0,0-.812-.062,1.654,1.654,0,0,0-1.68.867V17h-2.258V8.547h2.133l.063,1.008A2.092,2.092,0,0,1-38.9,8.391a2.366,2.366,0,0,1,.7.1Zm.609,2.047a4.954,4.954,0,0,1,.926-3.133,3,3,0,0,1,2.5-1.187,2.631,2.631,0,0,1,2.164.953l.094-.8h2.047v8.172a3.613,3.613,0,0,1-.5,1.93,3.236,3.236,0,0,1-1.418,1.25,4.985,4.985,0,0,1-2.141.43,4.635,4.635,0,0,1-1.812-.371A3.217,3.217,0,0,1-37.1,19l1-1.375a2.645,2.645,0,0,0,2.047.945,1.936,1.936,0,0,0,1.4-.48,1.8,1.8,0,0,0,.5-1.363v-.453a2.612,2.612,0,0,1-2.055.883,2.992,2.992,0,0,1-2.465-1.191,4.953,4.953,0,0,1-.941-3.16Zm2.258.168a3.085,3.085,0,0,0,.461,1.8,1.466,1.466,0,0,0,1.266.653,1.568,1.568,0,0,0,1.477-.775V11a1.564,1.564,0,0,0-1.461-.775,1.476,1.476,0,0,0-1.277.665A3.477,3.477,0,0,0-35.359,12.879ZM-23.258,17a2.507,2.507,0,0,1-.227-.758,2.732,2.732,0,0,1-2.133.914,3,3,0,0,1-2.059-.719,2.312,2.312,0,0,1-.816-1.812,2.389,2.389,0,0,1,1-2.062,4.915,4.915,0,0,1,2.879-.727h1.039v-.484a1.393,1.393,0,0,0-.3-.937,1.183,1.183,0,0,0-.949-.352,1.345,1.345,0,0,0-.895.273.929.929,0,0,0-.324.75H-28.3a2.268,2.268,0,0,1,.453-1.359,3,3,0,0,1,1.281-.98,4.669,4.669,0,0,1,1.859-.355,3.689,3.689,0,0,1,2.48.785,2.747,2.747,0,0,1,.918,2.207v3.664a4.041,4.041,0,0,0,.336,1.82V17Zm-1.867-1.57a1.945,1.945,0,0,0,.922-.223,1.462,1.462,0,0,0,.625-.6V13.156h-.844q-1.7,0-1.8,1.172l-.008.133a.9.9,0,0,0,.3.7A1.153,1.153,0,0,0-25.125,15.43ZM-17.5,8.547l.07.977A2.951,2.951,0,0,1-15,8.391a2.453,2.453,0,0,1,2,.789,3.682,3.682,0,0,1,.672,2.359V17h-2.258V11.594a1.465,1.465,0,0,0-.312-1.043,1.4,1.4,0,0,0-1.039-.324,1.553,1.553,0,0,0-1.43.813V17h-2.258V8.547ZM-8.234,17H-10.5V8.547h2.266Zm-2.4-10.641a1.112,1.112,0,0,1,.34-.836A1.277,1.277,0,0,1-9.367,5.2a1.28,1.28,0,0,1,.922.328,1.105,1.105,0,0,1,.344.836,1.108,1.108,0,0,1-.348.844,1.283,1.283,0,0,1-.918.328,1.283,1.283,0,0,1-.918-.328A1.108,1.108,0,0,1-10.633,6.359Zm6.852,8.82H.352V17H-6.664V15.625l3.977-5.258H-6.547V8.547H.227v1.33ZM6.664,17a2.507,2.507,0,0,1-.227-.758,2.732,2.732,0,0,1-2.133.914,3,3,0,0,1-2.059-.719,2.312,2.312,0,0,1-.816-1.812,2.389,2.389,0,0,1,1-2.062A4.915,4.915,0,0,1,5.3,11.836H6.344v-.484a1.393,1.393,0,0,0-.3-.937,1.183,1.183,0,0,0-.949-.352,1.345,1.345,0,0,0-.895.273.929.929,0,0,0-.324.75H1.617A2.268,2.268,0,0,1,2.07,9.727a3,3,0,0,1,1.281-.98,4.669,4.669,0,0,1,1.859-.355,3.689,3.689,0,0,1,2.48.785,2.747,2.747,0,0,1,.918,2.207v3.664a4.041,4.041,0,0,0,.336,1.82V17ZM4.8,15.43a1.945,1.945,0,0,0,.922-.223,1.462,1.462,0,0,0,.625-.6V13.156H5.5q-1.7,0-1.8,1.172l-.008.133a.9.9,0,0,0,.3.7A1.153,1.153,0,0,0,4.8,15.43Zm9.063-.094a1.481,1.481,0,0,0,1.016-.344,1.2,1.2,0,0,0,.406-.914H17.4a2.9,2.9,0,0,1-.469,1.574,3.093,3.093,0,0,1-1.262,1.109,3.949,3.949,0,0,1-1.77.395A3.67,3.67,0,0,1,11.039,16,4.56,4.56,0,0,1,9.992,12.82v-.148a4.508,4.508,0,0,1,1.039-3.117,3.627,3.627,0,0,1,2.852-1.164,3.555,3.555,0,0,1,2.543.9,3.2,3.2,0,0,1,.973,2.4H15.281a1.551,1.551,0,0,0-.406-1.072,1.51,1.51,0,0,0-2.223.163,3.333,3.333,0,0,0-.4,1.866v.235a3.375,3.375,0,0,0,.4,1.878A1.377,1.377,0,0,0,13.859,15.336ZM21.07,17H18.8V8.547H21.07Zm-2.4-10.641a1.112,1.112,0,0,1,.34-.836,1.465,1.465,0,0,1,1.848,0,1.105,1.105,0,0,1,.344.836,1.108,1.108,0,0,1-.348.844,1.448,1.448,0,0,1-1.836,0A1.108,1.108,0,0,1,18.672,6.359ZM22.578,12.7a5.013,5.013,0,0,1,.484-2.242A3.546,3.546,0,0,1,24.457,8.93a4.069,4.069,0,0,1,2.113-.539,3.849,3.849,0,0,1,2.793,1.047,4.2,4.2,0,0,1,1.207,2.844l.016.578A4.418,4.418,0,0,1,29.5,15.98a3.775,3.775,0,0,1-2.914,1.176,3.793,3.793,0,0,1-2.918-1.172,4.5,4.5,0,0,1-1.09-3.187Zm2.258.16a3.16,3.16,0,0,0,.453,1.843,1.628,1.628,0,0,0,2.578.008,3.457,3.457,0,0,0,.461-2.015,3.128,3.128,0,0,0-.461-1.831,1.5,1.5,0,0,0-1.3-.649,1.474,1.474,0,0,0-1.281.646A3.516,3.516,0,0,0,24.836,12.856Zm9.219-4.309.07.977a2.951,2.951,0,0,1,2.43-1.133,2.453,2.453,0,0,1,2,.789,3.682,3.682,0,0,1,.672,2.359V17H36.969V11.594a1.465,1.465,0,0,0-.312-1.043,1.4,1.4,0,0,0-1.039-.324,1.553,1.553,0,0,0-1.43.813V17H31.93V8.547ZM45.836,17a2.507,2.507,0,0,1-.227-.758,2.732,2.732,0,0,1-2.133.914,3,3,0,0,1-2.059-.719,2.312,2.312,0,0,1-.816-1.812,2.389,2.389,0,0,1,1-2.062,4.915,4.915,0,0,1,2.879-.727h1.039v-.484a1.393,1.393,0,0,0-.3-.937,1.183,1.183,0,0,0-.949-.352,1.345,1.345,0,0,0-.895.273.929.929,0,0,0-.324.75H40.789a2.268,2.268,0,0,1,.453-1.359,3,3,0,0,1,1.281-.98,4.669,4.669,0,0,1,1.859-.355,3.689,3.689,0,0,1,2.48.785,2.747,2.747,0,0,1,.918,2.207v3.664a4.041,4.041,0,0,0,.336,1.82V17Zm-1.867-1.57a1.945,1.945,0,0,0,.922-.223,1.462,1.462,0,0,0,.625-.6V13.156h-.844q-1.7,0-1.8,1.172l-.008.133a.9.9,0,0,0,.3.7A1.153,1.153,0,0,0,43.969,15.43ZM51.9,17H49.633V5H51.9Z" transform="translate(277.82 8286.082)" fill="#12263f"/>
      <g id="g1089" transform="translate(248.883 8886.992)">
        <g id="g1091" transform="translate(0 -682.665)">
          <g id="g1093" clip-path="url(#clip-path-3)">
            <g id="g1099" transform="translate(11.431 11.503)">
              <path id="path1101" d="M-370.753-155.946l-4.306-1.382a12.949,12.949,0,0,0-.567-1.368l1.949-3.908a1.026,1.026,0,0,0-.191-1.182l-2.887-2.895a1.018,1.018,0,0,0-1.178-.192l-3.9,1.954a12.884,12.884,0,0,0-1.365-.569l-1.378-4.212a1.02,1.02,0,0,0-.968-.7h-4.084a1.02,1.02,0,0,0-.968.7l-1.378,4.212a12.888,12.888,0,0,0-1.365.569l-3.9-1.955a1.016,1.016,0,0,0-1.178.192l-2.887,2.895a1.026,1.026,0,0,0-.191,1.182l1.949,3.908a12.969,12.969,0,0,0-.567,1.368l-4.306,1.382a.9.9,0,0,0-.7.865v4.2a1.022,1.022,0,0,0,.7.971l4.306,1.381a12.956,12.956,0,0,0,.567,1.369l-1.949,3.908a1.025,1.025,0,0,0,.191,1.182l2.887,2.9a1.017,1.017,0,0,0,1.178.192l3.9-1.954a12.919,12.919,0,0,0,1.365.569l1.378,4.212a1.02,1.02,0,0,0,.968.7h4.084a1.02,1.02,0,0,0,.968-.7l1.378-4.212a12.922,12.922,0,0,0,1.365-.569l3.9,1.954a1.022,1.022,0,0,0,1.178-.192l2.887-2.9a1.026,1.026,0,0,0,.191-1.182l-1.949-3.908a12.976,12.976,0,0,0,.567-1.368l4.306-1.382a1.022,1.022,0,0,0,.7-.971v-3.989A1.164,1.164,0,0,0-370.753-155.946Z" transform="translate(405.114 170.398)" fill="none" stroke="#12263f" stroke-linejoin="round" stroke-miterlimit="10" stroke-width="2.5"/>
            </g>
            <g id="g1103" transform="translate(23.472 23.471)">
              <path id="path1105" d="M-118.432-59.377a5.5,5.5,0,0,1-5.488,5.5,5.5,5.5,0,0,1-5.488-5.5,5.5,5.5,0,0,1,5.488-5.5A5.5,5.5,0,0,1-118.432-59.377Z" transform="translate(129.408 64.88)" fill="none" stroke="#12263f" stroke-linejoin="round" stroke-miterlimit="10" stroke-width="2.5"/>
            </g>
            <g id="g1107" transform="translate(1.696 1.696)">
              <path id="path1109" d="M-118.432-59.377a5.5,5.5,0,0,1-5.488,5.5,5.5,5.5,0,0,1-5.488-5.5,5.5,5.5,0,0,1,5.488-5.5A5.5,5.5,0,0,1-118.432-59.377Z" transform="translate(129.408 64.88)" fill="none" stroke="#12263f" stroke-linejoin="round" stroke-miterlimit="10" stroke-width="2.5"/>
            </g>
            <g id="g1111" transform="translate(45.211 1.696)">
              <path id="path1113" d="M-118.432-59.377a5.5,5.5,0,0,1-5.488,5.5,5.5,5.5,0,0,1-5.488-5.5,5.5,5.5,0,0,1,5.488-5.5A5.5,5.5,0,0,1-118.432-59.377Z" transform="translate(129.408 64.88)" fill="none" stroke="#12263f" stroke-linejoin="round" stroke-miterlimit="10" stroke-width="2.5"/>
            </g>
            <g id="g1115" transform="translate(1.715 45.199)">
              <path id="path1117" d="M-118.432-59.377a5.5,5.5,0,0,1-5.488,5.5,5.5,5.5,0,0,1-5.488-5.5,5.5,5.5,0,0,1,5.488-5.5A5.5,5.5,0,0,1-118.432-59.377Z" transform="translate(129.408 64.88)" fill="none" stroke="#12263f" stroke-linejoin="round" stroke-miterlimit="10" stroke-width="2.5"/>
            </g>
            <g id="g1119" transform="translate(45.229 45.199)">
              <path id="path1121" d="M-118.432-59.377a5.5,5.5,0,0,1-5.488,5.5,5.5,5.5,0,0,1-5.488-5.5,5.5,5.5,0,0,1,5.488-5.5A5.5,5.5,0,0,1-118.432-59.377Z" transform="translate(129.408 64.88)" fill="none" stroke="#12263f" stroke-linejoin="round" stroke-miterlimit="10" stroke-width="2.5"/>
            </g>
            <g id="g1123" transform="translate(41.259 41.251)">
              <path id="path1125" d="M0,0,5.571,5.567" fill="none" stroke="#12263f" stroke-linejoin="round" stroke-miterlimit="10" stroke-width="2.5"/>
            </g>
            <g id="g1127" transform="translate(11.071 11.084)">
              <path id="path1129" d="M0,0,5.6,5.6" fill="none" stroke="#12263f" stroke-linejoin="round" stroke-miterlimit="10" stroke-width="2.5"/>
            </g>
            <g id="g1131" transform="translate(11.151 41.295)">
              <path id="path1133" d="M-59.921,0l-5.553,5.587" transform="translate(65.475)" fill="none" stroke="#12263f" stroke-linejoin="round" stroke-miterlimit="10" stroke-width="2.5"/>
            </g>
            <g id="g1135" transform="translate(41.206 11.043)">
              <path id="path1137" d="M-60.06,0l-5.566,5.6" transform="translate(65.627)" fill="none" stroke="#12263f" stroke-linejoin="round" stroke-miterlimit="10" stroke-width="2.5"/>
            </g>
          </g>
        </g>
      </g>
      <g id="Elipse_4712" data-name="Elipse 4712" transform="translate(195.035 7687)" fill="none" stroke="#fff" stroke-width="6">
        <circle cx="80" cy="80" r="80" stroke="none"/>
        <circle cx="80" cy="80" r="77" fill="none"/>
      </g>
      <g id="Elipse_4718" data-name="Elipse 4718" transform="translate(308.035 7405)" fill="none" stroke="#fff" stroke-width="6">
        <circle cx="124.5" cy="124.5" r="124.5" stroke="none"/>
        <circle cx="124.5" cy="124.5" r="121.5" fill="none"/>
      </g>
      <g id="Elipse_4713" data-name="Elipse 4713" transform="translate(405.035 7794)" fill="none" stroke="#fff" stroke-width="6">
        <circle cx="80" cy="80" r="80" stroke="none"/>
        <circle cx="80" cy="80" r="77" fill="none"/>
      </g>
      <g id="Elipse_4714" data-name="Elipse 4714" transform="translate(195.035 7931)" fill="none" stroke="#fff" stroke-width="6">
        <circle cx="80" cy="80" r="80" stroke="none"/>
        <circle cx="80" cy="80" r="77" fill="none"/>
      </g>
      <g id="Elipse_4715" data-name="Elipse 4715" transform="translate(405.035 8059)" fill="none" stroke="#fff" stroke-width="6">
        <circle cx="80" cy="80" r="80" stroke="none"/>
        <circle cx="80" cy="80" r="77" fill="none"/>
      </g>
      <g id="Elipse_4716" data-name="Elipse 4716" transform="translate(195.035 8180)" fill="none" stroke="#fff" stroke-width="6">
        <circle cx="80" cy="80" r="80" stroke="none"/>
        <circle cx="80" cy="80" r="77" fill="none"/>
      </g>
      <g id="cliente" transform="translate(396.609 7441.82)">
        <path id="Trazado_808267" data-name="Trazado 808267" d="M182.217,59.434A13.217,13.217,0,1,0,169,46.217,13.232,13.232,0,0,0,182.217,59.434Zm0-21.876a8.659,8.659,0,1,1-8.659,8.659A8.669,8.669,0,0,1,182.217,37.558Z" transform="translate(-143.326)" fill="#e8e8e8"/>
        <path id="Trazado_808268" data-name="Trazado 808268" d="M385.355,113.711A8.356,8.356,0,1,0,377,105.356,8.365,8.365,0,0,0,385.355,113.711Zm0-12.153a3.8,3.8,0,1,1-3.8,3.8A3.8,3.8,0,0,1,385.355,101.558Z" transform="translate(-319.727 -54.277)" fill="#e8e8e8"/>
        <path id="Trazado_808269" data-name="Trazado 808269" d="M67.467,241H63.942a10.331,10.331,0,0,0-9.372,5.978A18.341,18.341,0,0,0,41.015,241H36.768a18.341,18.341,0,0,0-13.555,5.978A10.331,10.331,0,0,0,13.84,241H10.315A10.3,10.3,0,0,0,0,251.253v16.591A4.465,4.465,0,0,0,4.468,272.3H18.4a5.327,5.327,0,0,0,5.3,4.861H54.08a5.327,5.327,0,0,0,5.3-4.861H73.155a4.623,4.623,0,0,0,4.627-4.609V251.253A10.3,10.3,0,0,0,67.467,241ZM4.558,251.253a5.733,5.733,0,0,1,5.758-5.7H13.84a5.733,5.733,0,0,1,5.758,5.7v1.56c-1.532,3.99-1.215,6.381-1.215,14.924H4.558Zm50.285,20.583a.764.764,0,0,1-.763.763H23.7a.764.764,0,0,1-.763-.763V259.385a13.843,13.843,0,0,1,13.828-13.828h4.247a13.843,13.843,0,0,1,13.828,13.828Zm18.382-4.15c0,.079.85.052-13.825.052,0-8.606.315-10.941-1.215-14.924v-1.56a5.733,5.733,0,0,1,5.758-5.7h3.525a5.733,5.733,0,0,1,5.758,5.7Z" transform="translate(0 -176.401)" fill="#e8e8e8"/>
        <path id="Trazado_808270" data-name="Trazado 808270" d="M33.356,113.711A8.356,8.356,0,1,0,25,105.356,8.365,8.365,0,0,0,33.356,113.711Zm0-12.153a3.8,3.8,0,1,1-3.8,3.8A3.8,3.8,0,0,1,33.356,101.558Z" transform="translate(-21.202 -54.277)" fill="#e8e8e8"/>
      </g>
      <path id="Trazado_826288" data-name="Trazado 826288" d="M15.094-5.777a6.231,6.231,0,0,1-.961,3.146A5.8,5.8,0,0,1,11.666-.516a8.4,8.4,0,0,1-3.627.75,6.7,6.7,0,0,1-5.3-2.191A9.048,9.048,0,0,1,.809-8.145v-.844a10.328,10.328,0,0,1,.873-4.389A6.615,6.615,0,0,1,4.2-16.283a7.013,7.013,0,0,1,3.8-1.025,7.354,7.354,0,0,1,4.992,1.635,6.459,6.459,0,0,1,2.145,4.506h-4.1a3.056,3.056,0,0,0-.785-2.238,3.229,3.229,0,0,0-2.25-.68,2.457,2.457,0,0,0-2.25,1.148,7.381,7.381,0,0,0-.75,3.668v1.207a8.167,8.167,0,0,0,.686,3.9A2.509,2.509,0,0,0,8.039-2.988a3.159,3.159,0,0,0,2.168-.668A2.835,2.835,0,0,0,11-5.777ZM21.023,0H17.063V-18h3.961Zm6.6,0H23.66V-12.68h3.961Zm-4.2-15.949a1.763,1.763,0,0,1,.609-1.383,2.3,2.3,0,0,1,1.582-.539,2.3,2.3,0,0,1,1.582.539,1.763,1.763,0,0,1,.609,1.383,1.763,1.763,0,0,1-.609,1.383,2.3,2.3,0,0,1-1.582.539,2.3,2.3,0,0,1-1.582-.539A1.763,1.763,0,0,1,23.426-15.949ZM36.188.234a6.518,6.518,0,0,1-4.723-1.74,6.009,6.009,0,0,1-1.8-4.529v-.328A7.787,7.787,0,0,1,30.381-9.8a5.274,5.274,0,0,1,2.1-2.3,6.35,6.35,0,0,1,3.281-.814,5.489,5.489,0,0,1,4.219,1.658,6.516,6.516,0,0,1,1.547,4.623V-5.1H33.68a2.846,2.846,0,0,0,.926,1.676,2.755,2.755,0,0,0,1.852.609,3.549,3.549,0,0,0,2.93-1.312l1.8,2.133A5.045,5.045,0,0,1,39.1-.369,7.069,7.069,0,0,1,36.188.234Zm-.445-10.1q-1.734,0-2.062,2.3h3.984v-.3a1.956,1.956,0,0,0-.48-1.471A1.912,1.912,0,0,0,35.742-9.867Zm11-2.812.129,1.488A4.3,4.3,0,0,1,50.5-12.914a3.618,3.618,0,0,1,2.959,1.184,5.635,5.635,0,0,1,1.014,3.563V0H50.508V-8a2.14,2.14,0,0,0-.387-1.412,1.789,1.789,0,0,0-1.406-.451,1.883,1.883,0,0,0-1.723.914V0H43.043V-12.68Zm14.508-3.152v3.152H63.34v2.742H61.254v5.8a1.481,1.481,0,0,0,.258,1,1.383,1.383,0,0,0,1.02.281,5.793,5.793,0,0,0,.984-.07V-.105a7.288,7.288,0,0,1-2.227.34,4.137,4.137,0,0,1-3.012-.961A3.939,3.939,0,0,1,57.3-3.645V-9.937H55.688V-12.68H57.3v-3.152ZM71.027.234A6.518,6.518,0,0,1,66.3-1.506a6.009,6.009,0,0,1-1.8-4.529v-.328A7.787,7.787,0,0,1,65.221-9.8a5.274,5.274,0,0,1,2.1-2.3,6.35,6.35,0,0,1,3.281-.814,5.489,5.489,0,0,1,4.219,1.658,6.516,6.516,0,0,1,1.547,4.623V-5.1H68.52a2.846,2.846,0,0,0,.926,1.676,2.755,2.755,0,0,0,1.852.609,3.549,3.549,0,0,0,2.93-1.312l1.8,2.133A5.045,5.045,0,0,1,73.939-.369,7.069,7.069,0,0,1,71.027.234Zm-.445-10.1q-1.734,0-2.062,2.3H72.5v-.3a1.956,1.956,0,0,0-.48-1.471A1.912,1.912,0,0,0,70.582-9.867ZM84.6-3.562a.912.912,0,0,0-.527-.809,8.021,8.021,0,0,0-2-.633,9.138,9.138,0,0,1-2.437-.861A4.083,4.083,0,0,1,78.164-7.16a3.092,3.092,0,0,1-.5-1.746A3.5,3.5,0,0,1,79.1-11.783a5.938,5.938,0,0,1,3.773-1.131,6.579,6.579,0,0,1,4.031,1.137A3.555,3.555,0,0,1,88.43-8.789H84.469q0-1.523-1.605-1.523a1.591,1.591,0,0,0-1.043.346,1.07,1.07,0,0,0-.422.861.982.982,0,0,0,.516.855,4.872,4.872,0,0,0,1.646.539,14.228,14.228,0,0,1,1.986.5q2.859.984,2.859,3.527A3.321,3.321,0,0,1,86.865-.855a6.758,6.758,0,0,1-3.99,1.09,6.9,6.9,0,0,1-2.906-.586,4.86,4.86,0,0,1-1.992-1.594,3.609,3.609,0,0,1-.715-2.121h3.691a1.526,1.526,0,0,0,.586,1.283,2.41,2.41,0,0,0,1.441.4,1.9,1.9,0,0,0,1.213-.328A1.05,1.05,0,0,0,84.6-3.562Z" transform="translate(393 7578.18)" fill="#e8e8e8"/>
      <g id="Grupo_1069274" data-name="Grupo 1069274" transform="translate(6044.609 11737.658) rotate(131)">
        <g id="Elipse_5876" data-name="Elipse 5876" transform="translate(714 7000)" fill="none" stroke="#3b5620" stroke-width="2">
          <circle cx="10" cy="10" r="10" stroke="none"/>
          <circle cx="10" cy="10" r="9" fill="none"/>
        </g>
        <path id="Trazado_814928" data-name="Trazado 814928" d="M-15743-4549h-61.2" transform="translate(16457 11559)" fill="none" stroke="#3b5620" stroke-width="2"/>
        <circle id="Elipse_5877" data-name="Elipse 5877" cx="5" cy="5" r="5" transform="translate(719 7005)" fill="#3b5620"/>
      </g>
      <g id="Grupo_1069277" data-name="Grupo 1069277" transform="matrix(-0.799, 0.602, -0.602, -0.799, 5162.532, 13150.136)">
        <g id="Elipse_5876-2" data-name="Elipse 5876" transform="translate(714 7000)" fill="none" stroke="#3b5620" stroke-width="2">
          <circle cx="10" cy="10" r="10" stroke="none"/>
          <circle cx="10" cy="10" r="9" fill="none"/>
        </g>
        <path id="Trazado_814928-2" data-name="Trazado 814928" d="M-15743-4549h-61.2" transform="translate(16457 11559)" fill="none" stroke="#3b5620" stroke-width="2"/>
        <circle id="Elipse_5877-2" data-name="Elipse 5877" cx="5" cy="5" r="5" transform="translate(719 7005)" fill="#3b5620"/>
      </g>
      <g id="Grupo_1069278" data-name="Grupo 1069278" transform="matrix(-0.799, 0.602, -0.602, -0.799, 5162.532, 13417.136)">
        <g id="Elipse_5876-3" data-name="Elipse 5876" transform="translate(714 7000)" fill="none" stroke="#3b5620" stroke-width="2">
          <circle cx="10" cy="10" r="10" stroke="none"/>
          <circle cx="10" cy="10" r="9" fill="none"/>
        </g>
        <path id="Trazado_814928-3" data-name="Trazado 814928" d="M-15743-4549h-61.2" transform="translate(16457 11559)" fill="none" stroke="#3b5620" stroke-width="2"/>
        <circle id="Elipse_5877-3" data-name="Elipse 5877" cx="5" cy="5" r="5" transform="translate(719 7005)" fill="#3b5620"/>
      </g>
      <g id="Grupo_1069275" data-name="Grupo 1069275" transform="matrix(0.891, 0.454, -0.454, 0.891, 2938.73, 1293.301)">
        <g id="Elipse_5876-4" data-name="Elipse 5876" transform="translate(714 7000)" fill="none" stroke="#3b5620" stroke-width="2">
          <circle cx="10" cy="10" r="10" stroke="none"/>
          <circle cx="10" cy="10" r="9" fill="none"/>
        </g>
        <path id="Trazado_814928-4" data-name="Trazado 814928" d="M-15743-4549h-61.2" transform="translate(16457 11559)" fill="none" stroke="#3b5620" stroke-width="2"/>
        <circle id="Elipse_5877-4" data-name="Elipse 5877" cx="5" cy="5" r="5" transform="translate(719 7005)" fill="#3b5620"/>
      </g>
      <g id="Grupo_1069276" data-name="Grupo 1069276" transform="matrix(0.891, 0.454, -0.454, 0.891, 2938.73, 1538.091)">
        <g id="Elipse_5876-5" data-name="Elipse 5876" transform="translate(714 7000)" fill="none" stroke="#3b5620" stroke-width="2">
          <circle cx="10" cy="10" r="10" stroke="none"/>
          <circle cx="10" cy="10" r="9" fill="none"/>
        </g>
        <path id="Trazado_814928-5" data-name="Trazado 814928" d="M-15743-4549h-61.2" transform="translate(16457 11559)" fill="none" stroke="#3b5620" stroke-width="2"/>
        <circle id="Elipse_5877-5" data-name="Elipse 5877" cx="5" cy="5" r="5" transform="translate(719 7005)" fill="#3b5620"/>
      </g>
    </g>
  </g>
</svg>
