<svg xmlns="http://www.w3.org/2000/svg" xmlns:xlink="http://www.w3.org/1999/xlink" width="116.999" height="115" viewBox="0 0 116.999 115">
  <defs>
    <clipPath id="clip-path">
      <path id="path2337" d="M0-682.665H66.966V-615.7H0Z" transform="translate(0 682.665)" fill="#3b5620"/>
    </clipPath>
  </defs>
  <g id="Grupo_1078462" data-name="Grupo 1078462" transform="translate(-321.5 -10609)">
    <g id="Grupo_1069285" data-name="Grupo 1069285" transform="translate(321.989 10608.734)">
      <path id="Unión_12" data-name="Unión 12" d="M58.5,0C90.809,0,117,25.744,117,57.5S90.809,115,58.5,115,0,89.256,0,57.5,26.192,0,58.5,0Z" transform="translate(-0.49 0.266)" fill="#632059"/>
      <path id="Trazado_608322" data-name="Trazado 608322" d="M49,0C76.062,0,98,22.162,98,49.5S76.062,99,49,99,0,76.838,0,49.5,21.938,0,49,0Z" transform="translate(9.51 7.266)" fill="#fff"/>
    </g>
    <g id="g2331" transform="translate(349.469 11312.395)">
      <g id="g2333" transform="translate(0 -682.665)">
        <g id="g2335" clip-path="url(#clip-path)">
          <g id="g2341" transform="translate(39.114 30.531)">
            <path id="path2343" d="M-209.366-62.766V-67.81a1.783,1.783,0,0,0-1.783-1.783h-20.989" transform="translate(232.138 69.593)" fill="none" stroke="#3b5620" stroke-linecap="round" stroke-linejoin="round" stroke-miterlimit="10" stroke-width="3"/>
          </g>
          <g id="g2345" transform="translate(61.885 41.979)">
            <path id="path2347" d="M0-157.956v-17.18" transform="translate(0 175.136)" fill="none" stroke="#3b5620" stroke-linecap="round" stroke-linejoin="round" stroke-miterlimit="10" stroke-width="3"/>
          </g>
          <g id="g2349" transform="translate(7.612 3.229)">
            <path id="path2351" d="M-266.362-61.123V-64a1.783,1.783,0,0,0-1.643-1.777l-25.405-1.991a1.783,1.783,0,0,0-1.922,1.777v2.595" transform="translate(295.333 67.771)" fill="none" stroke="#3b5620" stroke-linecap="round" stroke-linejoin="round" stroke-miterlimit="10" stroke-width="3"/>
          </g>
          <g id="g2353" transform="translate(5.081 7.553)">
            <path id="path2355" d="M-312.9-474.474v-47.435a1.783,1.783,0,0,0-1.643-1.777l-.888-.07-28.971-2.271-.609-.048a1.783,1.783,0,0,0-1.922,1.777v49.823" transform="translate(346.935 526.079)" fill="none" stroke="#3b5620" stroke-linecap="round" stroke-linejoin="round" stroke-miterlimit="10" stroke-width="3"/>
          </g>
          <g id="g2357" transform="translate(0.981 59.159)">
            <path id="path2359" d="M-576.617,0h-60.426a2.289,2.289,0,0,0-2.289,2.289,2.289,2.289,0,0,0,2.289,2.289h60.426a2.289,2.289,0,0,0,2.289-2.289A2.289,2.289,0,0,0-576.617,0Z" transform="translate(639.332)" fill="none" stroke="#3b5620" stroke-linecap="round" stroke-linejoin="round" stroke-miterlimit="10" stroke-width="3"/>
          </g>
          <g id="g2361" transform="translate(9.216 15.852)">
            <path id="path2363" d="M-43.052-41.177h-3.971a.712.712,0,0,1-.712-.712v-3.055a.712.712,0,0,1,.712-.712h3.971a.712.712,0,0,1,.712.712v3.055A.712.712,0,0,1-43.052-41.177Z" transform="translate(47.735 45.656)" fill="none" stroke="#3b5620" stroke-linecap="round" stroke-linejoin="round" stroke-miterlimit="10" stroke-width="3"/>
          </g>
          <g id="g2365" transform="translate(19.116 15.852)">
            <path id="path2367" d="M-43.052-41.177h-3.971a.712.712,0,0,1-.712-.712v-3.055a.712.712,0,0,1,.712-.712h3.971a.712.712,0,0,1,.712.712v3.055A.712.712,0,0,1-43.052-41.177Z" transform="translate(47.735 45.656)" fill="none" stroke="#3b5620" stroke-linecap="round" stroke-linejoin="round" stroke-miterlimit="10" stroke-width="3"/>
          </g>
          <g id="g2369" transform="translate(29.016 15.852)">
            <path id="path2371" d="M-43.051-41.177h-3.971a.712.712,0,0,1-.712-.712v-3.055a.712.712,0,0,1,.712-.712h3.971a.712.712,0,0,1,.712.712v3.055A.712.712,0,0,1-43.051-41.177Z" transform="translate(47.733 45.656)" fill="none" stroke="#3b5620" stroke-linecap="round" stroke-linejoin="round" stroke-miterlimit="10" stroke-width="3"/>
          </g>
          <g id="g2373" transform="translate(9.216 24.672)">
            <path id="path2375" d="M-43.052-41.177h-3.971a.712.712,0,0,1-.712-.712v-3.055a.712.712,0,0,1,.712-.712h3.971a.712.712,0,0,1,.712.712v3.055A.712.712,0,0,1-43.052-41.177Z" transform="translate(47.735 45.656)" fill="none" stroke="#3b5620" stroke-linecap="round" stroke-linejoin="round" stroke-miterlimit="10" stroke-width="3"/>
          </g>
          <g id="g2377" transform="translate(19.116 24.672)">
            <path id="path2379" d="M-43.052-41.177h-3.971a.712.712,0,0,1-.712-.712v-3.055a.712.712,0,0,1,.712-.712h3.971a.712.712,0,0,1,.712.712v3.055A.712.712,0,0,1-43.052-41.177Z" transform="translate(47.735 45.656)" fill="none" stroke="#3b5620" stroke-linecap="round" stroke-linejoin="round" stroke-miterlimit="10" stroke-width="3"/>
          </g>
          <g id="g2381" transform="translate(29.016 24.672)">
            <path id="path2383" d="M-43.051-41.177h-3.971a.712.712,0,0,1-.712-.712v-3.055a.712.712,0,0,1,.712-.712h3.971a.712.712,0,0,1,.712.712v3.055A.712.712,0,0,1-43.051-41.177Z" transform="translate(47.733 45.656)" fill="none" stroke="#3b5620" stroke-linecap="round" stroke-linejoin="round" stroke-miterlimit="10" stroke-width="3"/>
          </g>
          <g id="g2385" transform="translate(9.216 33.493)">
            <path id="path2387" d="M-43.052-41.177h-3.971a.712.712,0,0,1-.712-.712v-3.055a.712.712,0,0,1,.712-.712h3.971a.712.712,0,0,1,.712.712v3.055A.712.712,0,0,1-43.052-41.177Z" transform="translate(47.735 45.656)" fill="none" stroke="#3b5620" stroke-linecap="round" stroke-linejoin="round" stroke-miterlimit="10" stroke-width="3"/>
          </g>
          <g id="g2389" transform="translate(9.216 43.495)">
            <path id="path2391" d="M-89.094-41.177h-8.788a.9.9,0,0,1-.9-.9v-2.674a.9.9,0,0,1,.9-.9h8.788a.9.9,0,0,1,.9.9v2.674A.9.9,0,0,1-89.094-41.177Z" transform="translate(98.784 45.656)" fill="none" stroke="#3b5620" stroke-linecap="round" stroke-linejoin="round" stroke-miterlimit="10" stroke-width="3"/>
          </g>
          <g id="g2393" transform="translate(19.116 33.493)">
            <path id="path2395" d="M-43.052-41.177h-3.971a.712.712,0,0,1-.712-.712v-3.055a.712.712,0,0,1,.712-.712h3.971a.712.712,0,0,1,.712.712v3.055A.712.712,0,0,1-43.052-41.177Z" transform="translate(47.735 45.656)" fill="none" stroke="#3b5620" stroke-linecap="round" stroke-linejoin="round" stroke-miterlimit="10" stroke-width="3"/>
          </g>
          <g id="g2397" transform="translate(29.016 33.493)">
            <path id="path2399" d="M-43.051-41.177h-3.971a.712.712,0,0,1-.712-.712v-3.055a.712.712,0,0,1,.712-.712h3.971a.712.712,0,0,1,.712.712v3.055A.712.712,0,0,1-43.051-41.177Z" transform="translate(47.733 45.656)" fill="none" stroke="#3b5620" stroke-linecap="round" stroke-linejoin="round" stroke-miterlimit="10" stroke-width="3"/>
          </g>
          <g id="g2401" transform="translate(24.021 55.083)">
            <path id="path2403" d="M0,0V4.076" fill="none" stroke="#3b5620" stroke-linecap="round" stroke-linejoin="round" stroke-miterlimit="10" stroke-width="3"/>
          </g>
          <g id="g2405" transform="translate(24.021 43.495)">
            <path id="path2407" d="M-95.527-144.015V-159.04a.638.638,0,0,0-.638-.638h-9.114a.638.638,0,0,0-.638.638v6.363" transform="translate(105.917 159.678)" fill="none" stroke="#3b5620" stroke-linecap="round" stroke-linejoin="round" stroke-miterlimit="10" stroke-width="3"/>
          </g>
          <g id="g2409" transform="translate(43.142 37.276)">
            <path id="path2411" d="M-44.4-44.358H-48.41a.824.824,0,0,1-.824-.823v-3.177a.824.824,0,0,1,.824-.824H-44.4a.824.824,0,0,1,.824.824v3.177A.824.824,0,0,1-44.4-44.358Z" transform="translate(49.233 49.183)" fill="none" stroke="#3b5620" stroke-linecap="round" stroke-linejoin="round" stroke-miterlimit="10" stroke-width="3"/>
          </g>
          <g id="g2413" transform="translate(43.142 46.329)">
            <path id="path2415" d="M-44.4-44.358H-48.41a.824.824,0,0,1-.824-.824v-3.177a.824.824,0,0,1,.824-.824H-44.4a.824.824,0,0,1,.824.824v3.177A.824.824,0,0,1-44.4-44.358Z" transform="translate(49.233 49.183)" fill="none" stroke="#3b5620" stroke-linecap="round" stroke-linejoin="round" stroke-miterlimit="10" stroke-width="3"/>
          </g>
          <g id="g2417" transform="translate(52.266 37.276)">
            <path id="path2419" d="M-44.4-44.358h-4.006a.824.824,0,0,1-.824-.823v-3.177a.824.824,0,0,1,.824-.824H-44.4a.823.823,0,0,1,.824.824v3.177A.823.823,0,0,1-44.4-44.358Z" transform="translate(49.232 49.183)" fill="none" stroke="#3b5620" stroke-linecap="round" stroke-linejoin="round" stroke-miterlimit="10" stroke-width="3"/>
          </g>
          <g id="g2421" transform="translate(52.266 46.329)">
            <path id="path2423" d="M-44.4-44.358h-4.006a.824.824,0,0,1-.824-.824v-3.177a.824.824,0,0,1,.824-.824H-44.4a.823.823,0,0,1,.824.824v3.177A.823.823,0,0,1-44.4-44.358Z" transform="translate(49.232 49.183)" fill="none" stroke="#3b5620" stroke-linecap="round" stroke-linejoin="round" stroke-miterlimit="10" stroke-width="3"/>
          </g>
        </g>
      </g>
    </g>
  </g>
</svg>
