<svg xmlns="http://www.w3.org/2000/svg" xmlns:xlink="http://www.w3.org/1999/xlink" width="375" height="340" viewBox="0 0 375 340">
  <defs>
    <clipPath id="clip-path">
      <rect id="Rectángulo_376259" data-name="Rectángulo 376259" width="375" height="255.668" fill="none"/>
    </clipPath>
    <clipPath id="clip-path-5">
      <rect id="Rectángulo_376219" data-name="Rectángulo 376219" width="12.54" height="120.164" fill="none"/>
    </clipPath>
    <clipPath id="clip-path-7">
      <rect id="Rectángulo_376223" data-name="Rectángulo 376223" width="13.335" height="71.948" fill="none"/>
    </clipPath>
    <clipPath id="clip-path-9">
      <rect id="Rectángulo_376227" data-name="Rectángulo 376227" width="13.2" height="56.655" fill="none"/>
    </clipPath>
    <clipPath id="clip-path-11">
      <rect id="Rectángulo_376231" data-name="Rectángulo 376231" width="12.54" height="41.4" fill="none"/>
    </clipPath>
    <clipPath id="clip-path-13">
      <rect id="Rectángulo_376234" data-name="Rectángulo 376234" width="8.384" height="21.58" fill="none"/>
    </clipPath>
    <clipPath id="clip-path-14">
      <rect id="Rectángulo_376235" data-name="Rectángulo 376235" width="34.765" height="22.38" fill="none"/>
    </clipPath>
    <clipPath id="clip-path-15">
      <rect id="Rectángulo_376236" data-name="Rectángulo 376236" width="16.732" height="33.139" fill="none"/>
    </clipPath>
    <clipPath id="clip-path-16">
      <rect id="Rectángulo_376237" data-name="Rectángulo 376237" width="1.149" height="2.742" fill="none"/>
    </clipPath>
    <clipPath id="clip-path-17">
      <rect id="Rectángulo_376238" data-name="Rectángulo 376238" width="1.146" height="1.146" fill="none"/>
    </clipPath>
    <clipPath id="clip-path-18">
      <rect id="Rectángulo_376240" data-name="Rectángulo 376240" width="26.893" height="40.525" fill="none"/>
    </clipPath>
    <clipPath id="clip-path-19">
      <rect id="Rectángulo_376241" data-name="Rectángulo 376241" width="22.442" height="24.702" fill="none"/>
    </clipPath>
    <clipPath id="clip-path-20">
      <rect id="Rectángulo_376242" data-name="Rectángulo 376242" width="1.469" height="6.171" fill="none"/>
    </clipPath>
    <clipPath id="clip-path-21">
      <rect id="Rectángulo_376243" data-name="Rectángulo 376243" width="5.456" height="2.647" fill="none"/>
    </clipPath>
    <clipPath id="clip-path-22">
      <rect id="Rectángulo_376244" data-name="Rectángulo 376244" width="1.956" height="5.06" fill="none"/>
    </clipPath>
    <clipPath id="clip-path-23">
      <rect id="Rectángulo_376245" data-name="Rectángulo 376245" width="18.772" height="1.858" fill="none"/>
    </clipPath>
    <clipPath id="clip-path-24">
      <rect id="Rectángulo_376246" data-name="Rectángulo 376246" width="14.863" height="1.569" fill="none"/>
    </clipPath>
    <clipPath id="clip-path-25">
      <rect id="Rectángulo_376247" data-name="Rectángulo 376247" width="3.562" height="1.034" fill="none"/>
    </clipPath>
    <clipPath id="clip-path-26">
      <rect id="Rectángulo_376248" data-name="Rectángulo 376248" width="3.686" height="0.929" fill="none"/>
    </clipPath>
    <clipPath id="clip-path-27">
      <rect id="Rectángulo_376249" data-name="Rectángulo 376249" width="19.345" height="1.469" fill="none"/>
    </clipPath>
    <clipPath id="clip-path-28">
      <rect id="Rectángulo_376250" data-name="Rectángulo 376250" width="14.378" height="1.192" fill="none"/>
    </clipPath>
    <clipPath id="clip-path-29">
      <rect id="Rectángulo_376252" data-name="Rectángulo 376252" width="4.781" height="8.294" fill="none"/>
    </clipPath>
    <clipPath id="clip-path-30">
      <rect id="Rectángulo_376253" data-name="Rectángulo 376253" width="6.84" height="15.512" fill="none"/>
    </clipPath>
    <clipPath id="clip-path-31">
      <rect id="Rectángulo_376254" data-name="Rectángulo 376254" width="5.664" height="7.717" fill="none"/>
    </clipPath>
  </defs>
  <g id="Grupo_1069271" data-name="Grupo 1069271" transform="translate(-915 -5422)">
    <rect id="Rectángulo_376451" data-name="Rectángulo 376451" width="360" height="340" transform="translate(915.035 5422)" fill="none"/>
    <g id="Grupo_1068850" data-name="Grupo 1068850" transform="translate(915 5476.056)">
      <g id="Grupo_1068849" data-name="Grupo 1068849" clip-path="url(#clip-path)">
        <rect id="Rectángulo_376208" data-name="Rectángulo 376208" width="375" height="0.187" transform="translate(0 222.205)" fill="#ebebeb"/>
        <rect id="Rectángulo_376209" data-name="Rectángulo 376209" width="24.842" height="0.187" transform="translate(312.584 234.277)" fill="#ebebeb"/>
        <rect id="Rectángulo_376210" data-name="Rectángulo 376210" width="6.52" height="0.187" transform="translate(241.895 236.312)" fill="#ebebeb"/>
        <rect id="Rectángulo_376211" data-name="Rectángulo 376211" width="14.394" height="0.187" transform="translate(297.44 227.312)" fill="#ebebeb"/>
        <rect id="Rectángulo_376212" data-name="Rectángulo 376212" width="32.395" height="0.187" transform="translate(39.344 228.572)" fill="#ebebeb"/>
        <rect id="Rectángulo_376213" data-name="Rectángulo 376213" width="70.257" height="0.187" transform="translate(98.603 231.74)" fill="#ebebeb"/>
        <g id="Grupo_1068750" data-name="Grupo 1068750">
          <g id="Grupo_1068749" data-name="Grupo 1068749" clip-path="url(#clip-path)">
            <path id="Trazado_812657" data-name="Trazado 812657" d="M144.417,61.635c9.221.025,35.077,3.777,35.077-10.112,0-11.8-12.637-10.932-12.637-10.932s.365-10.225-10.894-11.584c-11.547-1.394-13.29,9.653-13.29,9.653s-20.044-7.034-16.994,10.619c0,0-11.111-1.963-11.111,5.985,0,8.881,20.916,6.347,29.849,6.371" transform="translate(-28.642 -7.221)" fill="#f0f0f0"/>
            <path id="Trazado_812658" data-name="Trazado 812658" d="M118.681,187.579c18.717.056,71.2,8.651,71.2-23.161,0-27.03-25.649-25.041-25.649-25.041s.741-23.419-22.111-26.533c-23.437-3.194-26.975,22.111-26.975,22.111S74.46,118.842,80.651,159.277c0,0-22.553-4.495-22.553,13.709,0,20.341,42.453,14.539,60.583,14.593" transform="translate(-14.524 -28.141)" fill="#f5f5f5"/>
            <path id="Trazado_812659" data-name="Trazado 812659" d="M218.966,202.5c-10.354.031-39.387,4.786-39.387-12.813,0-14.953,14.189-13.852,14.189-13.852s-.41-12.955,12.232-14.678c12.966-1.767,14.924,12.232,14.924,12.232S243.43,164.479,240,186.847c0,0,12.476-2.486,12.476,7.584,0,11.253-23.485,8.043-33.515,8.073" transform="translate(-44.895 -40.252)" fill="#f0f0f0"/>
            <path id="Trazado_812660" data-name="Trazado 812660" d="M298,106.514c10.328.026,39.284,3.985,39.284-10.671,0-12.454-14.152-11.537-14.152-11.537s.409-10.789-12.2-12.223C298,70.611,296.051,82.269,296.051,82.269S273.6,74.845,277.019,93.474c0,0-12.444-2.071-12.444,6.316,0,9.373,23.424,6.7,33.428,6.724" transform="translate(-66.144 -17.988)" fill="#f0f0f0"/>
            <path id="Trazado_812661" data-name="Trazado 812661" d="M268.09,223.145,283.182,125.3l44.88-56.662,15.3-64.531s37.09,35.841,38.119,36.782,9.194,97.681,10.329,99.157S403.6,158.4,403.6,158.4l4.958,64.453Z" transform="translate(-67.022 -1.028)" fill="#fafafa"/>
            <path id="Trazado_812662" data-name="Trazado 812662" d="M268.09,223.145,289.6,138.6l30.477-29.05,5.705,36.771,7.676-41.827,8.716,14.26-1.892-49.17,1.514-15.731L346.908,64.3,343.363,4.111l25.858.6L374.6,33.118l6.878,7.775,10.329,99.157L403.6,158.4l4.958,64.453Z" transform="translate(-67.022 -1.028)" fill="#3b5620" opacity="0.3"/>
            <path id="Trazado_812663" data-name="Trazado 812663" d="M369.355,4.546l15.36,49.7,9.152,7.272s4.827,20.2,4.772,18.909-.555-23.923-.555-23.923l2.371-18.467L394.474,5.144Z" transform="translate(-92.339 -1.136)" fill="#f5f5f5"/>
            <path id="Trazado_812664" data-name="Trazado 812664" d="M433.05,185.364l3.584,16.709,8.206,1.637Z" transform="translate(-108.263 -46.341)" fill="#f5f5f5"/>
            <path id="Trazado_812665" data-name="Trazado 812665" d="M338.365,229.4c16.4.05,62.4,7.583,62.4-20.3,0-23.69-22.48-21.947-22.48-21.947s.65-20.525-19.378-23.255c-20.542-2.8-23.642,19.379-23.642,19.379s-35.657-14.122-30.231,21.316c0,0-19.766-3.94-19.766,12.015,0,17.828,37.207,12.743,53.1,12.79" transform="translate(-71.317 -40.914)" fill="#f5f5f5"/>
          </g>
        </g>
        <rect id="Rectángulo_376215" data-name="Rectángulo 376215" width="4.75" height="0.187" transform="translate(78.417 228.572)" fill="#ebebeb"/>
        <g id="Grupo_1068752" data-name="Grupo 1068752">
          <g id="Grupo_1068751" data-name="Grupo 1068751" clip-path="url(#clip-path)">
            <path id="Trazado_812666" data-name="Trazado 812666" d="M349.083,326.737c0,4.69-65.105,8.492-145.417,8.492s-145.417-3.8-145.417-8.492,65.105-8.492,145.417-8.492,145.417,3.8,145.417,8.492" transform="translate(-14.562 -79.561)" fill="#727997" opacity="0.23"/>
          </g>
        </g>
        <rect id="Rectángulo_376217" data-name="Rectángulo 376217" width="44.377" height="120.023" transform="translate(179.771 127.189)" fill="#632059"/>
        <g id="Grupo_1068757" data-name="Grupo 1068757">
          <g id="Grupo_1068756" data-name="Grupo 1068756" clip-path="url(#clip-path)">
            <g id="Grupo_1068755" data-name="Grupo 1068755" transform="translate(179.76 127.072)" opacity="0.2">
              <g id="Grupo_1068754" data-name="Grupo 1068754">
                <g id="Grupo_1068753" data-name="Grupo 1068753" clip-path="url(#clip-path-5)">
                  <rect id="Rectángulo_376218" data-name="Rectángulo 376218" width="12.54" height="120.163"/>
                </g>
              </g>
            </g>
          </g>
        </g>
        <rect id="Rectángulo_376221" data-name="Rectángulo 376221" width="44.377" height="72.022" transform="translate(135.334 175.189)" fill="#632059"/>
        <g id="Grupo_1068762" data-name="Grupo 1068762">
          <g id="Grupo_1068761" data-name="Grupo 1068761" clip-path="url(#clip-path)">
            <g id="Grupo_1068760" data-name="Grupo 1068760" transform="translate(135.335 175.189)" opacity="0.2">
              <g id="Grupo_1068759" data-name="Grupo 1068759">
                <g id="Grupo_1068758" data-name="Grupo 1068758" clip-path="url(#clip-path-7)">
                  <rect id="Rectángulo_376222" data-name="Rectángulo 376222" width="13.335" height="71.948"/>
                </g>
              </g>
            </g>
          </g>
        </g>
        <rect id="Rectángulo_376225" data-name="Rectángulo 376225" width="44.377" height="56.73" transform="translate(90.923 190.481)" fill="#632059"/>
        <g id="Grupo_1068767" data-name="Grupo 1068767">
          <g id="Grupo_1068766" data-name="Grupo 1068766" clip-path="url(#clip-path)">
            <g id="Grupo_1068765" data-name="Grupo 1068765" transform="translate(90.923 190.481)" opacity="0.2">
              <g id="Grupo_1068764" data-name="Grupo 1068764">
                <g id="Grupo_1068763" data-name="Grupo 1068763" clip-path="url(#clip-path-9)">
                  <rect id="Rectángulo_376226" data-name="Rectángulo 376226" width="13.2" height="56.655"/>
                </g>
              </g>
            </g>
          </g>
        </g>
        <rect id="Rectángulo_376229" data-name="Rectángulo 376229" width="44.376" height="41.436" transform="translate(46.533 205.777)" fill="#632059"/>
        <g id="Grupo_1068772" data-name="Grupo 1068772">
          <g id="Grupo_1068771" data-name="Grupo 1068771" clip-path="url(#clip-path)">
            <g id="Grupo_1068770" data-name="Grupo 1068770" transform="translate(46.535 205.736)" opacity="0.2">
              <g id="Grupo_1068769" data-name="Grupo 1068769">
                <g id="Grupo_1068768" data-name="Grupo 1068768" clip-path="url(#clip-path-11)">
                  <rect id="Rectángulo_376230" data-name="Rectángulo 376230" width="12.54" height="41.4" transform="translate(0 0)"/>
                </g>
              </g>
            </g>
          </g>
        </g>
        <g id="Grupo_1068840" data-name="Grupo 1068840">
          <g id="Grupo_1068839" data-name="Grupo 1068839" clip-path="url(#clip-path)">
            <path id="Trazado_812667" data-name="Trazado 812667" d="M217,43.667c-2.107,2.548-4.278,5.044-6.45,7.536l-1.642,1.859L207.432,54.7a5.134,5.134,0,0,0-1.147,2.589l-.494,4.842c-.166,1.642-.326,3.284-.518,4.925-.362,3.283-.739,6.565-1.18,9.844a2.1,2.1,0,0,1-4.177-.159c-.19-3.3-.316-6.6-.427-9.893-.068-1.648-.1-3.295-.142-4.943l-.113-5.027a12.175,12.175,0,0,1,2.117-6.589l1.633-2.2,1.481-1.966c1.989-2.609,3.981-5.214,6.035-7.767a4.193,4.193,0,1,1,6.534,5.257l-.036.044" transform="translate(-49.808 -9.2)" fill="#3b5620"/>
            <path id="Trazado_812668" data-name="Trazado 812668" d="M198.535,90.312l-2.741,4.654,6.311.641,1.111-4.726a1,1,0,0,0-.795-1.221,5.131,5.131,0,0,0-3.885.652" transform="translate(-48.948 -22.387)" fill="#cb7a63"/>
            <path id="Trazado_812669" data-name="Trazado 812669" d="M195.794,96.772l.288,1.646a1.7,1.7,0,0,0,1.676,1.4l2.055-.006a1.7,1.7,0,0,0,1.494-.9l.8-1.5Z" transform="translate(-48.948 -24.193)" fill="#cb7a63"/>
            <path id="Trazado_812670" data-name="Trazado 812670" d="M198.854,85.915l6.075.208-.392,3.629-5.131-.4Z" transform="translate(-49.713 -21.479)" fill="#dbf9bd"/>
            <path id="Trazado_812672" data-name="Trazado 812672" d="M201.509,126.166l-1,1.5-.763-1.549,1.819-23.549c.289-3.744-.974-6.82-5.631-6.933a6.846,6.846,0,0,0-7.3,6.608l-1.907,23.506-1.043,1.5-.712-1.546,1.919-23.5c.355-4.345,2.283-7.831,9.133-7.666s7.628,3.725,7.293,8.078Z" transform="translate(-46.242 -23.632)" fill="#263238"/>
            <path id="Trazado_812673" data-name="Trazado 812673" d="M178.49,115.531l-1.2-.006a4.978,4.978,0,0,0-4.958,4.332l-2.221,16.97,7.813.278Z" transform="translate(-42.527 -28.881)" fill="#263238"/>
            <g id="Grupo_1068778" data-name="Grupo 1068778" transform="translate(127.58 86.644)" opacity="0.2">
              <g id="Grupo_1068777" data-name="Grupo 1068777">
                <g id="Grupo_1068776" data-name="Grupo 1068776" clip-path="url(#clip-path-13)">
                  <path id="Trazado_812674" data-name="Trazado 812674" d="M178.49,115.531l-1.2-.006a4.978,4.978,0,0,0-4.958,4.332l-2.221,16.97,7.813.278Z" transform="translate(-170.107 -115.526)" fill="#fff"/>
                </g>
              </g>
            </g>
            <path id="Trazado_812675" data-name="Trazado 812675" d="M205.176,126.431l-1.765-.049.172-23.548c.028-3.745-1.45-6.82-6.115-6.933-4.363-.106-6.8,2.869-6.841,6.607l-.264,23.507-1.758-.049.276-23.5c.051-4.344,1.735-7.83,8.6-7.665s7.888,3.724,7.859,8.078Z" transform="translate(-47.151 -23.698)" fill="#263238"/>
            <path id="Trazado_812676" data-name="Trazado 812676" d="M210.165,138.024l-34.729-1.031.335-17.507a3.97,3.97,0,0,1,4.051-3.954l25.285.662a5.35,5.35,0,0,1,5.15,5.38Z" transform="translate(-43.859 -28.883)" fill="#263238"/>
            <g id="Grupo_1068781" data-name="Grupo 1068781" transform="translate(131.633 86.649)" opacity="0.4">
              <g id="Grupo_1068780" data-name="Grupo 1068780">
                <g id="Grupo_1068779" data-name="Grupo 1068779" clip-path="url(#clip-path-14)">
                  <path id="Trazado_812677" data-name="Trazado 812677" d="M206.335,137.91l-27.064-.8a3.933,3.933,0,0,1-3.76-4.017l.278-13.6a3.97,3.97,0,0,1,4.052-3.955l25.285.662a5.349,5.349,0,0,1,5.15,5.38L210.2,134.1a3.77,3.77,0,0,1-3.865,3.808" transform="translate(-175.511 -115.532)" fill="#fff"/>
                </g>
              </g>
            </g>
            <g id="Grupo_1068784" data-name="Grupo 1068784" transform="translate(141.453 71.095)" opacity="0.3">
              <g id="Grupo_1068783" data-name="Grupo 1068783">
                <g id="Grupo_1068782" data-name="Grupo 1068782" clip-path="url(#clip-path-15)">
                  <path id="Trazado_812678" data-name="Trazado 812678" d="M205.176,126.431l-.893,1.5-.872-1.549.172-23.548c.028-3.745-1.45-6.82-6.115-6.933-4.363-.106-6.8,2.869-6.841,6.607l-.264,23.507-.938,1.5-.82-1.545.276-23.5c.051-4.344,1.735-7.83,8.6-7.665s7.888,3.724,7.859,8.078Z" transform="translate(-188.604 -94.793)" fill="#fff"/>
                </g>
              </g>
            </g>
            <path id="Trazado_812679" data-name="Trazado 812679" d="M190.78,123.919l-2.894-.078.013-1.09,2.893.077Z" transform="translate(-46.971 -30.688)" fill="#263238"/>
            <path id="Trazado_812680" data-name="Trazado 812680" d="M190.673,133.339l-2.9-.081.013-1.094,2.9.08Z" transform="translate(-46.943 -33.041)" fill="#263238"/>
            <path id="Trazado_812681" data-name="Trazado 812681" d="M210.607,124.454l-2.905-.079.008-1.092,2.9.078Z" transform="translate(-51.925 -30.821)" fill="#263238"/>
            <path id="Trazado_812682" data-name="Trazado 812682" d="M210.543,133.892l-2.912-.081.008-1.1,2.911.081Z" transform="translate(-51.908 -33.179)" fill="#263238"/>
            <path id="Trazado_812683" data-name="Trazado 812683" d="M202.121,124.64l-6.215-.168.024-2.332,6.21.167Z" transform="translate(-48.977 -30.535)" fill="#fff"/>
            <path id="Trazado_812684" data-name="Trazado 812684" d="M239.835,10.865c.239-.046.494.2.572.565s-.048.7-.287.747-.494-.2-.571-.565c-.1-.373.047-.7.286-.746" transform="translate(-59.88 -2.715)" fill="#263238"/>
            <path id="Trazado_812685" data-name="Trazado 812685" d="M239.926,11.064a1.211,1.211,0,0,0,.567-.62,1.116,1.116,0,0,1-.783.3.438.438,0,0,1,.216.323" transform="translate(-59.927 -2.611)" fill="#263238"/>
            <path id="Trazado_812686" data-name="Trazado 812686" d="M240.392,15.023a2.129,2.129,0,0,0,1.663-.694,13.392,13.392,0,0,1-2.394-2.732Z" transform="translate(-59.915 -2.899)" fill="#b74d3c"/>
            <path id="Trazado_812687" data-name="Trazado 812687" d="M237.138,9.716a1.725,1.725,0,0,1,1.441-.648.257.257,0,0,0,.072.01.221.221,0,0,0-.008-.443,2.157,2.157,0,0,0-1.825.762.221.221,0,0,0,.169.365.215.215,0,0,0,.152-.046" transform="translate(-59.191 -2.157)" fill="#263238"/>
            <path id="Trazado_812688" data-name="Trazado 812688" d="M231.819,35.162c-6.239.067-7.2-3.329-7.2-3.329,1.853-1.82,1.946-5.149,1.552-8.118a6.952,6.952,0,0,0,1.853,1.777c1.492.982,4.73-.595,4.73-.595s0,.554.041,1.35c.1,1.946.529,5.359,2.3,5.887,0,0,3.6,2.952-3.279,3.028" transform="translate(-56.156 -5.929)" fill="#cb7a63"/>
            <path id="Trazado_812689" data-name="Trazado 812689" d="M233.244,24.682c-.066.286-.133.574-.173.877a.14.14,0,0,1-.078.027,5.692,5.692,0,0,1-4.569-.818,6.841,6.841,0,0,1-1.857-1.775c-.1-.753-.233-1.489-.37-2.163l6.794,3.715Z" transform="translate(-56.549 -5.208)" fill="#cb7a63"/>
            <path id="Trazado_812690" data-name="Trazado 812690" d="M236.885,15.3a6.33,6.33,0,0,1-3.072,5.313H233.8a.032.032,0,0,1-.026.009,5.212,5.212,0,0,1-1.536.649.135.135,0,0,1-.078.027,5.689,5.689,0,0,1-4.569-.818,6.85,6.85,0,0,1-1.857-1.774c-1.223-1.678-1.733-3.917-2.609-7.064a6.223,6.223,0,0,1,7.085-7.87c4.743.841,6.763,7.313,6.671,11.528" transform="translate(-55.72 -0.917)" fill="#cb7a63"/>
            <g id="Grupo_1068787" data-name="Grupo 1068787" transform="translate(176.603 17.577)" opacity="0.2">
              <g id="Grupo_1068786" data-name="Grupo 1068786">
                <g id="Grupo_1068785" data-name="Grupo 1068785" clip-path="url(#clip-path-16)">
                  <path id="Trazado_812691" data-name="Trazado 812691" d="M236.62,25.674a3.278,3.278,0,0,1-1.107.5c-.042-.8-.034-1.35-.042-1.35.042-.7.092-1.393.092-1.393,0,.025.73,2.239,1.057,2.239" transform="translate(-235.471 -23.436)"/>
                </g>
              </g>
            </g>
            <path id="Trazado_812692" data-name="Trazado 812692" d="M233.942,5.872c-.508.807-2.107,1.489-2.053,1.3.275-.67.224-1.955-.606-1.654.229.513.918,4.364.606,4.831a25.93,25.93,0,0,1-1.644,6.053,8.591,8.591,0,0,0-1.046,2.84l-4.259.822c-1.595-.2-3.08-2.236-3.211-2.462a13.964,13.964,0,0,0-3.143-2.881,2.552,2.552,0,0,1-.844-1.166c-.292-.817.3-3.763.434-5.149.187-1.992,1.233-3.835,4.124-5.02,1.787-.732,3.291-2.338,5.114-2.973a6.005,6.005,0,0,1,5.534.558c.757.573,2.267,2.877.994,4.9" transform="translate(-54.416 0)" fill="#263238"/>
            <path id="Trazado_812693" data-name="Trazado 812693" d="M235.784,11.544c1.313.385,2,2.318,2.053,3.547.064,1.356-.842,2.214-2.025,1.3A5.174,5.174,0,0,1,234,13.626c-.321-1.329.471-2.468,1.783-2.083" transform="translate(-58.482 -2.867)" fill="#cb7a63"/>
            <path id="Trazado_812694" data-name="Trazado 812694" d="M238.124,17.4a.573.573,0,1,1-.573-.573.573.573,0,0,1,.573.573" transform="translate(-59.244 -4.207)" fill="#407bff"/>
            <g id="Grupo_1068790" data-name="Grupo 1068790" transform="translate(177.734 12.622)" opacity="0.3">
              <g id="Grupo_1068789" data-name="Grupo 1068789">
                <g id="Grupo_1068788" data-name="Grupo 1068788" clip-path="url(#clip-path-17)">
                  <path id="Trazado_812695" data-name="Trazado 812695" d="M238.124,17.4a.573.573,0,1,1-.573-.573.573.573,0,0,1,.573.573" transform="translate(-236.978 -16.829)" fill="#fff"/>
                </g>
              </g>
            </g>
            <path id="Trazado_812696" data-name="Trazado 812696" d="M222.236,36.093s.97-2.992,2.432-3.937,7.882.035,8.888.429,2.02,2.712,2.02,2.712Z" transform="translate(-55.559 -7.939)" fill="#dbf9bd"/>
            <path id="Trazado_812698" data-name="Trazado 812698" d="M234.99,35.666a20.6,20.6,0,0,0-2.419-.405,89.651,89.651,0,0,0-10.335.111,22.615,22.615,0,0,0-3.664.621,5.168,5.168,0,0,0-3.942,5.4c.512,7.021,2.587,11.141,2.893,15.763a75.093,75.093,0,0,1-1.109,17.815l4.722.717A47.766,47.766,0,0,0,239.809,71.7s-1.216-11.134-.04-15.145c3.213-10.96,1.127-12.694.493-15.832a6.428,6.428,0,0,0-5.272-5.054" transform="translate(-53.654 -8.791)" fill="#3b5620"/>
            <g id="Grupo_1068796" data-name="Grupo 1068796" transform="translate(169.058 22.572)" opacity="0.1">
              <g id="Grupo_1068795" data-name="Grupo 1068795" transform="translate(-7.81 3.798)">
                <g id="Grupo_1068794" data-name="Grupo 1068794" clip-path="url(#clip-path-18)">
                  <path id="Trazado_812699" data-name="Trazado 812699" d="M239.769,56.55a22.14,22.14,0,0,0-.512,5.551c0,4.529.554,9.594.554,9.594a47.677,47.677,0,0,1-18.676,3.992l-4.721-.721a75.129,75.129,0,0,0,1.115-17.812c-.31-4.621-2.381-8.738-2.893-15.766A5.157,5.157,0,0,1,218.577,36a22.1,22.1,0,0,1,3.664-.621,90.271,90.271,0,0,1,10.332-.117,20.289,20.289,0,0,1,2.416.411,6.42,6.42,0,0,1,5.275,5.056c.226,1.124.646,2.072.931,3.329a16.464,16.464,0,0,1-.067,6.844,51.753,51.753,0,0,1-1.359,5.652" transform="translate(-214.621 -35.162)" fill="#fff"/>
                </g>
              </g>
            </g>
            <path id="Trazado_812700" data-name="Trazado 812700" d="M242,30.384c1.724.243,3.431.587,5.147.877,1.71.329,3.419.669,5.122,1.035l-.617-.049c.761.034,1.43.093,1.852.119.2.015.347.011.294.042-.01.018-.111.049-.227.124a2.152,2.152,0,0,0-.512.4,1.841,1.841,0,0,0-.539,1.077c0,.171.051.131.059,0a5.112,5.112,0,0,0-.139-1.321l.078.221c-.865-2.5-1.687-5.009-2.439-7.55-.73-2.548-1.431-5.109-1.928-7.749a1.868,1.868,0,0,1,3.417-1.339c1.428,2.275,2.654,4.63,3.85,7,1.175,2.375,2.28,4.778,3.34,7.2l.078.222a12.56,12.56,0,0,1,.745,2.652,6.719,6.719,0,0,1,.008,2.029,5.22,5.22,0,0,1-1.451,2.863,5.458,5.458,0,0,1-1.349.974,6.59,6.59,0,0,1-1.187.458,9.8,9.8,0,0,1-1.724.3c-.936.089-1.627.092-2.225.128l-.1.006-.521-.055c-1.734-.181-3.463-.39-5.191-.608-1.721-.259-3.451-.463-5.164-.768A4.194,4.194,0,0,1,242,30.384" transform="translate(-59.304 -3.849)" fill="#3b5620"/>
            <g id="Grupo_1068799" data-name="Grupo 1068799" transform="translate(178.196 11.545)" opacity="0.1">
              <g id="Grupo_1068798" data-name="Grupo 1068798">
                <g id="Grupo_1068797" data-name="Grupo 1068797" clip-path="url(#clip-path-19)">
                  <path id="Trazado_812701" data-name="Trazado 812701" d="M242,30.384c1.724.243,3.431.587,5.147.877,1.71.329,3.419.669,5.122,1.035l-.617-.049c.761.034,1.43.093,1.852.119.2.015.347.011.294.042-.01.018-.111.049-.227.124a2.152,2.152,0,0,0-.512.4,1.841,1.841,0,0,0-.539,1.077c0,.171.051.131.059,0a5.112,5.112,0,0,0-.139-1.321l.078.221c-.865-2.5-1.687-5.009-2.439-7.55-.73-2.548-1.431-5.109-1.928-7.749a1.868,1.868,0,0,1,3.417-1.339c1.428,2.275,2.654,4.63,3.85,7,1.175,2.375,2.28,4.778,3.34,7.2l.078.222a12.56,12.56,0,0,1,.745,2.652,6.719,6.719,0,0,1,.008,2.029,5.22,5.22,0,0,1-1.451,2.863,5.458,5.458,0,0,1-1.349.974,6.59,6.59,0,0,1-1.187.458,9.8,9.8,0,0,1-1.724.3c-.936.089-1.627.092-2.225.128l-.1.006-.521-.055c-1.734-.181-3.463-.39-5.191-.608-1.721-.259-3.451-.463-5.164-.768A4.194,4.194,0,0,1,242,30.384" transform="translate(-237.218 -15.395)" fill="#fff"/>
                </g>
              </g>
            </g>
            <path id="Trazado_812702" data-name="Trazado 812702" d="M284.843,11.275l22.486-.689-.345-7.044L284.543,5.019Z" transform="translate(-71.136 -0.885)" fill="#bc68b0"/>
            <path id="Trazado_812703" data-name="Trazado 812703" d="M262.2,12.093l18.183-.586-.277-5.776L261.956,6.9Z" transform="translate(-65.489 -1.433)" fill="#bc68b0"/>
            <path id="Trazado_812704" data-name="Trazado 812704" d="M283.232,11.615l1.192.127-.3-6.172-1.174.24Z" transform="translate(-70.738 -1.392)" fill="#263238"/>
            <g id="Grupo_1068802" data-name="Grupo 1068802" transform="translate(212.216 4.177)" opacity="0.2">
              <g id="Grupo_1068801" data-name="Grupo 1068801">
                <g id="Grupo_1068800" data-name="Grupo 1068800" clip-path="url(#clip-path-20)">
                  <path id="Trazado_812705" data-name="Trazado 812705" d="M283.232,11.615l1.192.127-.3-6.172-1.174.24Z" transform="translate(-282.955 -5.57)"/>
                </g>
              </g>
            </g>
            <path id="Trazado_812706" data-name="Trazado 812706" d="M284.816,11.742l1.221-.037-.3-6.3-1.219.08Z" transform="translate(-71.129 -1.352)" fill="#263238"/>
            <path id="Trazado_812707" data-name="Trazado 812707" d="M258.467,11.668l1.8.838-.238-5.06-1.718,1.007Z" transform="translate(-64.579 -1.861)" fill="#263238"/>
            <path id="Trazado_812708" data-name="Trazado 812708" d="M246.162,12.109l5.347-.278L251.4,9.462l-5.344.319Z" transform="translate(-61.513 -2.366)" fill="#263238"/>
            <g id="Grupo_1068805" data-name="Grupo 1068805" transform="translate(184.54 7.097)" opacity="0.2">
              <g id="Grupo_1068804" data-name="Grupo 1068804">
                <g id="Grupo_1068803" data-name="Grupo 1068803" clip-path="url(#clip-path-21)">
                  <path id="Trazado_812709" data-name="Trazado 812709" d="M246.162,12.109l5.347-.278L251.4,9.462l-5.344.319Z" transform="translate(-246.053 -9.462)"/>
                </g>
              </g>
            </g>
            <path id="Trazado_812710" data-name="Trazado 812710" d="M252.3,12.077l5.949-.229L258.1,8.533l-5.942.352Z" transform="translate(-63.038 -2.133)" fill="#263238"/>
            <g id="Grupo_1068808" data-name="Grupo 1068808" transform="translate(193.737 5.584)" opacity="0.2">
              <g id="Grupo_1068807" data-name="Grupo 1068807">
                <g id="Grupo_1068806" data-name="Grupo 1068806" clip-path="url(#clip-path-22)">
                  <path id="Trazado_812711" data-name="Trazado 812711" d="M258.467,11.668l1.8.838-.238-5.06-1.718,1.007Z" transform="translate(-258.316 -7.445)"/>
                </g>
              </g>
            </g>
            <path id="Trazado_812712" data-name="Trazado 812712" d="M260.886,12.515l.986-.031-.245-5.191-.985.064Z" transform="translate(-65.161 -1.823)" fill="#263238"/>
            <path id="Trazado_812713" data-name="Trazado 812713" d="M313.788,10.566l3.527-.126-.346-7.072-3.524.18Z" transform="translate(-78.361 -0.842)" fill="#263238"/>
            <path id="Trazado_812714" data-name="Trazado 812714" d="M315.854,10.774l4.5-.125.112-.311a10.214,10.214,0,0,0-.528-8.137l-4.489.31.1.235a11.476,11.476,0,0,1,.307,8.027" transform="translate(-78.862 -0.55)" fill="#bc68b0"/>
            <g id="Grupo_1068811" data-name="Grupo 1068811" transform="translate(215.284 3.325)" opacity="0.4">
              <g id="Grupo_1068810" data-name="Grupo 1068810">
                <g id="Grupo_1068809" data-name="Grupo 1068809" clip-path="url(#clip-path-23)">
                  <path id="Trazado_812715" data-name="Trazado 812715" d="M309.591,4.546l1.82-.113.037.776-1.849.106a3.04,3.04,0,0,1-.008-.77" transform="translate(-292.676 -4.434)" fill="#fff"/>
                  <path id="Trazado_812716" data-name="Trazado 812716" d="M302.859,4.7a3.316,3.316,0,0,0,.008.766l-15.784.893-.037-.7Z" transform="translate(-287.045 -4.5)" fill="#fff"/>
                </g>
              </g>
            </g>
            <g id="Grupo_1068814" data-name="Grupo 1068814" transform="translate(196.852 4.939)" opacity="0.4">
              <g id="Grupo_1068813" data-name="Grupo 1068813">
                <g id="Grupo_1068812" data-name="Grupo 1068812" clip-path="url(#clip-path-24)">
                  <path id="Trazado_812717" data-name="Trazado 812717" d="M262.469,7.525l.033.63,14.83-.881-.032-.688Z" transform="translate(-262.469 -6.586)" fill="#fff"/>
                </g>
              </g>
            </g>
            <g id="Grupo_1068817" data-name="Grupo 1068817" transform="translate(236.983 1.957)" opacity="0.4">
              <g id="Grupo_1068816" data-name="Grupo 1068816">
                <g id="Grupo_1068815" data-name="Grupo 1068815" clip-path="url(#clip-path-25)">
                  <path id="Trazado_812718" data-name="Trazado 812718" d="M315.978,2.856l.044.786,3.517-.232-.037-.8Z" transform="translate(-315.978 -2.609)" fill="#fff"/>
                </g>
              </g>
            </g>
            <g id="Grupo_1068820" data-name="Grupo 1068820" transform="translate(237.358 9.059)" opacity="0.3" style="isolation: isolate">
              <g id="Grupo_1068819" data-name="Grupo 1068819">
                <g id="Grupo_1068818" data-name="Grupo 1068818" clip-path="url(#clip-path-26)">
                  <path id="Trazado_812719" data-name="Trazado 812719" d="M320.157,12.079a3.308,3.308,0,0,0,.006.8l-3.642.125-.044-.788Z" transform="translate(-316.478 -12.079)"/>
                </g>
              </g>
            </g>
            <g id="Grupo_1068823" data-name="Grupo 1068823" transform="translate(215.177 8.62)" opacity="0.3" style="isolation: isolate">
              <g id="Grupo_1068822" data-name="Grupo 1068822">
                <g id="Grupo_1068821" data-name="Grupo 1068821" clip-path="url(#clip-path-27)">
                  <path id="Trazado_812720" data-name="Trazado 812720" d="M306.24,11.494a3.3,3.3,0,0,0,.008.778l-19.306.69-.038-.7Z" transform="translate(-286.903 -11.494)"/>
                </g>
              </g>
            </g>
            <g id="Grupo_1068826" data-name="Grupo 1068826" transform="translate(197.168 9.298)" opacity="0.3" style="isolation: isolate">
              <g id="Grupo_1068825" data-name="Grupo 1068825">
                <g id="Grupo_1068824" data-name="Grupo 1068824" clip-path="url(#clip-path-28)">
                  <path id="Trazado_812721" data-name="Trazado 812721" d="M277.259,12.4a3.3,3.3,0,0,0,.009.688l-14.345.5-.033-.631Z" transform="translate(-262.89 -12.398)"/>
                </g>
              </g>
            </g>
            <path id="Trazado_812722" data-name="Trazado 812722" d="M244.595,9.744l.046,2.265a.737.737,0,0,0,.781.684l1.838-.031-.077-3.711-1.837.068a.748.748,0,0,0-.751.725" transform="translate(-61.149 -2.238)" fill="#bc68b0"/>
            <path id="Trazado_812723" data-name="Trazado 812723" d="M255.557,15.805l.7-4.221a2.134,2.134,0,0,0,.019-.531l-.2-2.237a.8.8,0,0,0-.551-.67l-3.372-.04a.872.872,0,0,0-1.082.469l-.606,2.765a1.342,1.342,0,0,0,.013.627l1,3.808a.962.962,0,0,0,.753.635l2.2.019a.934.934,0,0,0,1.123-.625" transform="translate(-62.608 -2.016)" fill="#ce7a63"/>
            <path id="Trazado_812724" data-name="Trazado 812724" d="M257.679,19.756l-5.734,2.017-.956-3.523,4.923-1.5Z" transform="translate(-62.748 -4.188)" fill="#dbf9bd"/>
            <g id="Grupo_1068832" data-name="Grupo 1068832" transform="translate(183.077 33.813)" opacity="0.2">
              <g id="Grupo_1068831" data-name="Grupo 1068831">
                <g id="Grupo_1068830" data-name="Grupo 1068830" clip-path="url(#clip-path-29)">
                  <path id="Trazado_812726" data-name="Trazado 812726" d="M248.5,53.377,244.1,45.083l4.462,1.451a16.466,16.466,0,0,1-.068,6.843" transform="translate(-244.103 -45.084)"/>
                </g>
              </g>
            </g>
            <path id="Trazado_812727" data-name="Trazado 812727" d="M279.864,147.869l-.909,11.266,5.128.1,1.407-11.605Z" transform="translate(-69.739 -36.907)" fill="#ce7a63"/>
            <path id="Trazado_812728" data-name="Trazado 812728" d="M284.432,161.048l-5.849.119a.486.486,0,0,0-.457.4l-1.007,5.13a.835.835,0,0,0,.6,1,.767.767,0,0,0,.165.018c2.107-.082,3.982-.244,6.607-.293,3.1-.062,2.315.353,5.958.335,2.195-.014,2.57-2.7,1.637-2.812-4.263-.489-4.72-1.861-6.379-3.464a1.785,1.785,0,0,0-1.274-.43" transform="translate(-69.275 -40.261)" fill="#263238"/>
            <path id="Trazado_812729" data-name="Trazado 812729" d="M204.818,212.321l-2.074,10.347,5.513,1.684,2.656-10.568Z" transform="translate(-50.686 -53.08)" fill="#ce7a63"/>
            <path id="Trazado_812730" data-name="Trazado 812730" d="M234.594,84.479s-7.847,45.8-12.11,59.276c-3.035,9.6-11.175,40.994-11.175,40.994l-7.384-1.637s-.826-21.372,3.281-32.4c1.4-3.763,3.23-7.159,3.725-9.492,2.115-9.968-2.244-28.052-.317-41.54a54.754,54.754,0,0,1,3.276-12.525Z" transform="translate(-50.964 -21.12)" fill="#263238"/>
            <path id="Trazado_812731" data-name="Trazado 812731" d="M222.485,144.646c-3.035,9.6-11.175,40.995-11.175,40.995L203.925,184s-.826-21.372,3.281-32.4c1.4-3.764,3.23-7.16,3.725-9.493,2.115-9.968-2.244-28.052-.317-41.54a54.769,54.769,0,0,1,3.276-12.525" transform="translate(-50.964 -22.01)" fill="#263238"/>
            <g id="Grupo_1068835" data-name="Grupo 1068835" transform="translate(174.008 77.515)" opacity="0.2" style="isolation: isolate">
              <g id="Grupo_1068834" data-name="Grupo 1068834">
                <g id="Grupo_1068833" data-name="Grupo 1068833" clip-path="url(#clip-path-30)">
                  <path id="Trazado_812732" data-name="Trazado 812732" d="M232.011,103.354l3.95,15.512,2.89-14.837Z" transform="translate(-232.011 -103.354)"/>
                </g>
              </g>
            </g>
            <path id="Trazado_812733" data-name="Trazado 812733" d="M271.588,137.335l-7.215.232s.533-9.443.533-23.213a25.578,25.578,0,0,1,.795-6.09,35.08,35.08,0,0,1,2.693-7.342s-.773.045-2.093.105c-4.08.21-29.372,1.516-29.867,1.479-.375-.038-2.674.267-6.793-1.742-7.656-3.733-7.733-14.212-7.733-14.212l19.717-2.677c0,.015.323.06,5.07.143,14.393.247,32.08.8,35.184,5.746,4.366,6.951-10.291,47.572-10.291,47.572" transform="translate(-55.477 -20.969)" fill="#263238"/>
            <path id="Trazado_812734" data-name="Trazado 812734" d="M208.042,224.79l-6.05.082a.462.462,0,0,0-.449.405l-.753,5.172a.9.9,0,0,0,.675,1.009.777.777,0,0,0,.172.019c2.178-.069,4.11-.221,6.826-.254,3.2-.042,2.417.37,6.189.376,2.272,0,2.509-2.708,1.538-2.828-4.444-.521-4.993-1.909-6.8-3.538a1.981,1.981,0,0,0-1.345-.443" transform="translate(-50.195 -56.197)" fill="#263238"/>
            <g id="Grupo_1068838" data-name="Grupo 1068838" transform="translate(210.223 79.579)" opacity="0.2" style="isolation: isolate">
              <g id="Grupo_1068837" data-name="Grupo 1068837">
                <g id="Grupo_1068836" data-name="Grupo 1068836" clip-path="url(#clip-path-31)">
                  <path id="Trazado_812735" data-name="Trazado 812735" d="M280.3,113.822a35.079,35.079,0,0,1,2.693-7.342s-.773.045-2.092.105a.531.531,0,0,0-.2-.038l5.259-.443Z" transform="translate(-280.297 -106.105)"/>
                </g>
              </g>
            </g>
          </g>
        </g>
        <g id="Grupo_1068848" data-name="Grupo 1068848">
          <g id="Grupo_1068847" data-name="Grupo 1068847" clip-path="url(#clip-path)">
            <path id="Trazado_812736" data-name="Trazado 812736" d="M102.674,26.3a9.2,9.2,0,1,1-9.2-9.2,9.2,9.2,0,0,1,9.2,9.2" transform="translate(-21.069 -4.275)" fill="#3b5620" opacity="0.3"/>
            <path id="Trazado_812738" data-name="Trazado 812738" d="M96.108,9.5A1.367,1.367,0,0,1,94.74,8.13V2.089a1.368,1.368,0,0,1,2.736,0V8.13A1.367,1.367,0,0,1,96.108,9.5" transform="translate(-23.685 -0.18)" fill="#3b5620" opacity="0.3"/>
            <path id="Trazado_812739" data-name="Trazado 812739" d="M96.108,54.9a1.367,1.367,0,0,1-1.368-1.368V47.49a1.368,1.368,0,0,1,2.736,0v6.041A1.367,1.367,0,0,1,96.108,54.9" transform="translate(-23.685 -11.53)" fill="#3b5620" opacity="0.3"/>
            <path id="Trazado_812740" data-name="Trazado 812740" d="M82.034,16.11a1.364,1.364,0,0,1-.967-.4L78.455,13.1a1.368,1.368,0,1,1,1.934-1.934L83,13.775a1.368,1.368,0,0,1-.968,2.335" transform="translate(-19.514 -2.691)" fill="#3b5620" opacity="0.3"/>
            <path id="Trazado_812741" data-name="Trazado 812741" d="M111.746,45.822a1.365,1.365,0,0,1-.967-.4l-2.435-2.435a1.368,1.368,0,1,1,1.935-1.935l2.435,2.434a1.368,1.368,0,0,1-.968,2.336" transform="translate(-26.986 -10.163)" fill="#3b5620" opacity="0.3"/>
            <path id="Trazado_812742" data-name="Trazado 812742" d="M75.421,30.185H69.38a1.368,1.368,0,1,1,0-2.736h6.041a1.368,1.368,0,1,1,0,2.736" transform="translate(-17.003 -6.862)" fill="#3b5620" opacity="0.3"/>
            <path id="Trazado_812743" data-name="Trazado 812743" d="M120.822,30.185h-6.041a1.368,1.368,0,0,1,0-2.736h6.041a1.368,1.368,0,0,1,0,2.736" transform="translate(-28.353 -6.862)" fill="#3b5620" opacity="0.3"/>
            <path id="Trazado_812744" data-name="Trazado 812744" d="M79.834,45.691a1.368,1.368,0,0,1-.968-2.335l2.3-2.3A1.368,1.368,0,0,1,83.1,42.988l-2.3,2.3a1.364,1.364,0,0,1-.967.4" transform="translate(-19.616 -10.163)" fill="#3b5620" opacity="0.3"/>
            <path id="Trazado_812745" data-name="Trazado 812745" d="M109.312,16.158a1.368,1.368,0,0,1-.967-2.335l2.469-2.468a1.368,1.368,0,0,1,1.934,1.934l-2.468,2.469a1.365,1.365,0,0,1-.968.4" transform="translate(-26.986 -2.738)" fill="#3b5620" opacity="0.3"/>
          </g>
        </g>
      </g>
    </g>
  </g>
</svg>
