<svg xmlns="http://www.w3.org/2000/svg" width="116.999" height="115" viewBox="0 0 116.999 115">
  <g id="Grupo_1078464" data-name="Grupo 1078464" transform="translate(-1162 -10609)">
    <g id="Grupo_1015374" data-name="Grupo 1015374" transform="translate(1162.489 10608.734)">
      <path id="Unión_12" data-name="Unión 12" d="M58.5,0C90.809,0,117,25.744,117,57.5S90.809,115,58.5,115,0,89.256,0,57.5,26.192,0,58.5,0Z" transform="translate(-0.49 0.266)" fill="#632059"/>
      <path id="Trazado_608322" data-name="Trazado 608322" d="M49,0C76.062,0,98,22.162,98,49.5S76.062,99,49,99,0,76.838,0,49.5,21.938,0,49,0Z" transform="translate(9.51 7.266)" fill="#fff"/>
    </g>
    <g id="nuevo-producto" transform="translate(1188.668 10632.168)">
      <path id="Trazado_808917" data-name="Trazado 808917" d="M112.723,288H71.484l-4.43,8.86h4.007v19.935h42.085V296.86h4.007Zm-1.369,2.215,2.215,4.43H96.111l-2.215-4.43Zm-38.5,0H90.311l-2.215,4.43H70.638Zm38.078,24.365H93.211v-7.752H91v7.752H73.276V296.86h16.19L91,293.8V303.5h2.215V293.8l1.53,3.061h16.19Zm0,0" transform="translate(-57.771 -248.13)" fill="#3b5620"/>
      <path id="Trazado_808918" data-name="Trazado 808918" d="M128,416h6.645v2.215H128Zm0,0" transform="translate(-110.28 -358.41)" fill="#3b5620"/>
      <path id="Trazado_808919" data-name="Trazado 808919" d="M128,448h6.645v2.215H128Zm0,0" transform="translate(-110.28 -385.98)" fill="#3b5620"/>
      <path id="Trazado_808920" data-name="Trazado 808920" d="M192,448h2.215v2.215H192Zm0,0" transform="translate(-165.42 -385.98)" fill="#3b5620"/>
      <path id="Trazado_808921" data-name="Trazado 808921" d="M191.646,27.732l5.115-1.3,5.115,1.3.4-5.492,2.717-4.641-4.805-2.08-3.427-4.237-3.428,4.237-4.805,2.08,2.717,4.641Zm3.067-10.4,2.048-2.531,2.048,2.532,3.01,1.3-1.713,2.927-.246,3.368-3.1-.79-3.1.788-.246-3.368L191.7,18.637Zm0,0" transform="translate(-162.428 -9.719)" fill="#3b5620"/>
      <path id="Trazado_808922" data-name="Trazado 808922" d="M36.745,105.81l1.609-2.748L35.5,101.827l-2.059-2.546-2.059,2.545-2.851,1.235,1.609,2.748.238,3.277,3.062-.779,3.063.78Zm-2.171-.676-.084,1.153-1.045-.266-1.044.266-.085-1.153-.606-1.036,1.056-.457.68-.839.679.84,1.056.457Zm0,0" transform="translate(-24.585 -85.537)" fill="#3b5620"/>
      <path id="Trazado_808923" data-name="Trazado 808923" d="M404.745,105.81l1.609-2.748-2.851-1.235-2.059-2.546-2.059,2.545-2.851,1.235,1.609,2.748.238,3.277,3.062-.779,3.063.78Zm-2.171-.676-.084,1.153-1.045-.266-1.044.266-.084-1.153-.606-1.036,1.056-.457.679-.839.679.84,1.056.457Zm0,0" transform="translate(-341.64 -85.537)" fill="#3b5620"/>
      <path id="Trazado_808924" data-name="Trazado 808924" d="M94.494,146.881a24.56,24.56,0,0,1,5.566,5.1l4.387,5.481-.907-7.257a14.225,14.225,0,0,0-5.552-9.566l-1.061-.8-3.246,6.491Zm3.192-3.6a12.02,12.02,0,0,1,3.578,6.683,26.817,26.817,0,0,0-4.736-4.368Zm0,0" transform="translate(-80.711 -120.487)" fill="#3b5620"/>
      <path id="Trazado_808925" data-name="Trazado 808925" d="M325.458,150.2l-.907,7.257,4.387-5.482a24.584,24.584,0,0,1,5.566-5.1l.813-.543-3.246-6.491-1.061.8a14.221,14.221,0,0,0-5.55,9.565Zm7.01-4.613a26.737,26.737,0,0,0-4.736,4.368,12.027,12.027,0,0,1,3.578-6.683Zm0,0" transform="translate(-279.621 -120.481)" fill="#3b5620"/>
      <path id="Trazado_808926" data-name="Trazado 808926" d="M280,143.523h2.215v-4.64A22.821,22.821,0,0,1,287.5,124.3l-1.7-1.418a25.047,25.047,0,0,0-5.794,16Zm0,0" transform="translate(-241.238 -105.868)" fill="#3b5620"/>
      <path id="Trazado_808927" data-name="Trazado 808927" d="M336,96h2.215v2.215H336Zm0,0" transform="translate(-289.485 -82.71)" fill="#3b5620"/>
      <path id="Trazado_808928" data-name="Trazado 808928" d="M360,64h2.215v2.215H360Zm0,0" transform="translate(-310.163 -55.14)" fill="#3b5620"/>
      <path id="Trazado_808929" data-name="Trazado 808929" d="M167.136,143.522h2.215v-4.64a25.05,25.05,0,0,0-5.793-16l-1.7,1.418a22.826,22.826,0,0,1,5.281,14.586Zm0,0" transform="translate(-139.449 -105.868)" fill="#3b5620"/>
      <path id="Trazado_808930" data-name="Trazado 808930" d="M144,96h2.215v2.215H144Zm0,0" transform="translate(-124.065 -82.71)" fill="#3b5620"/>
      <path id="Trazado_808931" data-name="Trazado 808931" d="M120,64h2.215v2.215H120Zm0,0" transform="translate(-103.388 -55.14)" fill="#3b5620"/>
      <path id="Trazado_808932" data-name="Trazado 808932" d="M240,136h2.215v2.215H240Zm0,0" transform="translate(-206.775 -117.173)" fill="#3b5620"/>
      <path id="Trazado_808933" data-name="Trazado 808933" d="M240,168h2.215v14.4H240Zm0,0" transform="translate(-206.775 -144.743)" fill="#3b5620"/>
      <path id="Trazado_808934" data-name="Trazado 808934" d="M464,216h2.215v2.215H464Zm0,0" transform="translate(-399.765 -186.098)" fill="#3b5620"/>
      <path id="Trazado_808935" data-name="Trazado 808935" d="M464,248h2.215v2.215H464Zm0,0" transform="translate(-399.765 -213.668)" fill="#3b5620"/>
      <path id="Trazado_808936" data-name="Trazado 808936" d="M480,232h2.215v2.215H480Zm0,0" transform="translate(-413.55 -199.883)" fill="#3b5620"/>
      <path id="Trazado_808937" data-name="Trazado 808937" d="M448,232h2.215v2.215H448Zm0,0" transform="translate(-385.98 -199.883)" fill="#3b5620"/>
      <path id="Trazado_808938" data-name="Trazado 808938" d="M440,0h2.215V2.215H440Zm0,0" transform="translate(-379.088)" fill="#3b5620"/>
      <path id="Trazado_808939" data-name="Trazado 808939" d="M440,32h2.215v2.215H440Zm0,0" transform="translate(-379.088 -27.57)" fill="#3b5620"/>
      <path id="Trazado_808940" data-name="Trazado 808940" d="M456,16h2.215v2.215H456Zm0,0" transform="translate(-392.873 -13.785)" fill="#3b5620"/>
      <path id="Trazado_808941" data-name="Trazado 808941" d="M424,16h2.215v2.215H424Zm0,0" transform="translate(-365.303 -13.785)" fill="#3b5620"/>
      <path id="Trazado_808942" data-name="Trazado 808942" d="M16,248h2.215v2.215H16Zm0,0" transform="translate(-13.785 -213.668)" fill="#3b5620"/>
      <path id="Trazado_808943" data-name="Trazado 808943" d="M16,280h2.215v2.215H16Zm0,0" transform="translate(-13.785 -241.238)" fill="#3b5620"/>
      <path id="Trazado_808944" data-name="Trazado 808944" d="M32,264h2.215v2.215H32Zm0,0" transform="translate(-27.57 -227.453)" fill="#3b5620"/>
      <path id="Trazado_808945" data-name="Trazado 808945" d="M0,264H2.215v2.215H0Zm0,0" transform="translate(0 -227.453)" fill="#3b5620"/>
      <path id="Trazado_808946" data-name="Trazado 808946" d="M16,0h2.215V2.215H16Zm0,0" transform="translate(-13.785)" fill="#3b5620"/>
      <path id="Trazado_808947" data-name="Trazado 808947" d="M16,32h2.215v2.215H16Zm0,0" transform="translate(-13.785 -27.57)" fill="#3b5620"/>
      <path id="Trazado_808948" data-name="Trazado 808948" d="M32,16h2.215v2.215H32Zm0,0" transform="translate(-27.57 -13.785)" fill="#3b5620"/>
      <path id="Trazado_808949" data-name="Trazado 808949" d="M0,16H2.215v2.215H0Zm0,0" transform="translate(0 -13.785)" fill="#3b5620"/>
    </g>
  </g>
</svg>
