<svg xmlns="http://www.w3.org/2000/svg" width="567.232" height="333" viewBox="0 0 567.232 333">
  <g id="Grupo_1078474" data-name="Grupo 1078474" transform="translate(-810 -20393.137)">
    <g id="Grupo_1077201" data-name="Grupo 1077201" transform="translate(810 20393.137)">
      <rect id="Rectángulo_376337" data-name="Rectángulo 376337" width="567.232" height="333" transform="translate(0)" fill="#fff"/>
    </g>
    <path id="Trazado_826328" data-name="Trazado 826328" d="M-31.311-2.637h-4.623L-36.813,0h-2.8l4.764-12.8h2.443L-27.62,0h-2.8Zm-3.911-2.136h3.2l-1.608-4.79ZM-20.993-.967a3.185,3.185,0,0,1-2.6,1.143A3,3,0,0,1-25.928-.7a3.752,3.752,0,0,1-.822-2.575V-9.51h2.54v6.151q0,1.487,1.354,1.487a1.834,1.834,0,0,0,1.775-.9V-9.51h2.549V0h-2.391Zm7.418-10.881V-9.51h1.626v1.863h-1.626V-2.9a1.133,1.133,0,0,0,.2.756,1.015,1.015,0,0,0,.773.229,4.051,4.051,0,0,0,.747-.062V-.053A5.229,5.229,0,0,1-13.39.176a2.425,2.425,0,0,1-2.725-2.7V-7.646H-17.5V-9.51h1.389v-2.338Zm2.382,7a5.64,5.64,0,0,1,.545-2.522A3.989,3.989,0,0,1-9.079-9.079,4.577,4.577,0,0,1-6.7-9.686,4.33,4.33,0,0,1-3.56-8.508,4.727,4.727,0,0,1-2.2-5.309l.018.65A4.97,4.97,0,0,1-3.406-1.147,4.247,4.247,0,0,1-6.684.176,4.268,4.268,0,0,1-9.967-1.143a5.058,5.058,0,0,1-1.226-3.586Zm2.54.18a3.555,3.555,0,0,0,.51,2.073,1.682,1.682,0,0,0,1.459.717,1.686,1.686,0,0,0,1.441-.709,3.89,3.89,0,0,0,.519-2.267,3.519,3.519,0,0,0-.519-2.06A1.686,1.686,0,0,0-6.7-7.638a1.658,1.658,0,0,0-1.441.726A3.955,3.955,0,0,0-8.653-4.662ZM4.724-7.128A6.9,6.9,0,0,0,3.81-7.2a1.86,1.86,0,0,0-1.89.976V0H-.62V-9.51h2.4l.07,1.134a2.354,2.354,0,0,1,2.118-1.31,2.662,2.662,0,0,1,.791.114ZM8.626,0H6.078V-9.51H8.626Zm-2.7-11.971a1.251,1.251,0,0,1,.382-.94,1.436,1.436,0,0,1,1.042-.369,1.44,1.44,0,0,1,1.037.369,1.244,1.244,0,0,1,.387.94,1.247,1.247,0,0,1-.391.949,1.443,1.443,0,0,1-1.033.369,1.443,1.443,0,0,1-1.033-.369A1.247,1.247,0,0,1,5.928-11.971Zm4.395,7.146a5.731,5.731,0,0,1,1-3.542,3.237,3.237,0,0,1,2.729-1.318,2.913,2.913,0,0,1,2.294,1.037V-13.5h2.549V0H16.6l-.123-1.011A2.989,2.989,0,0,1,14.032.176a3.228,3.228,0,0,1-2.694-1.323A5.916,5.916,0,0,1,10.323-4.825Zm2.54.189a3.754,3.754,0,0,0,.466,2.051,1.517,1.517,0,0,0,1.354.713,1.7,1.7,0,0,0,1.661-.995V-6.625A1.675,1.675,0,0,0,14.7-7.62Q12.863-7.62,12.863-4.636ZM26.372,0a2.821,2.821,0,0,1-.255-.853,3.073,3.073,0,0,1-2.4,1.028A3.376,3.376,0,0,1,21.4-.633a2.6,2.6,0,0,1-.918-2.039A2.687,2.687,0,0,1,21.6-4.992a5.529,5.529,0,0,1,3.239-.817h1.169v-.545a1.567,1.567,0,0,0-.338-1.055A1.331,1.331,0,0,0,24.6-7.8,1.513,1.513,0,0,0,23.6-7.5a1.045,1.045,0,0,0-.365.844h-2.54a2.551,2.551,0,0,1,.51-1.529,3.37,3.37,0,0,1,1.441-1.1,5.253,5.253,0,0,1,2.092-.4,4.15,4.15,0,0,1,2.791.883A3.09,3.09,0,0,1,28.56-6.319V-2.2a4.546,4.546,0,0,0,.378,2.048V0Zm-2.1-1.767a2.188,2.188,0,0,0,1.037-.25,1.645,1.645,0,0,0,.7-.672V-4.324h-.949q-1.907,0-2.03,1.318l-.009.149a1.017,1.017,0,0,0,.334.782A1.3,1.3,0,0,0,24.271-1.767Zm5.845-3.059a5.731,5.731,0,0,1,1-3.542,3.237,3.237,0,0,1,2.729-1.318,2.913,2.913,0,0,1,2.294,1.037V-13.5h2.549V0H36.391l-.123-1.011A2.989,2.989,0,0,1,33.825.176a3.228,3.228,0,0,1-2.694-1.323A5.916,5.916,0,0,1,30.116-4.825Zm2.54.189a3.754,3.754,0,0,0,.466,2.051,1.517,1.517,0,0,0,1.354.713,1.7,1.7,0,0,0,1.661-.995V-6.625a1.675,1.675,0,0,0-1.644-.995Q32.656-7.62,32.656-4.636Z" transform="translate(895.25 20543.855) rotate(-90)" fill="#12263f"/>
    <path id="Trazado_826321" data-name="Trazado 826321" d="M-61.2-4.685h-2.1V0h-2.637V-12.8h4.755a5.375,5.375,0,0,1,3.5,1.011,3.488,3.488,0,0,1,1.23,2.856,3.937,3.937,0,0,1-.567,2.184,3.866,3.866,0,0,1-1.718,1.393l2.769,5.229V0H-58.8ZM-63.3-6.82h2.127a2.178,2.178,0,0,0,1.538-.505,1.806,1.806,0,0,0,.545-1.393,1.933,1.933,0,0,0-.514-1.424,2.137,2.137,0,0,0-1.578-.519H-63.3Zm13.061,7a4.668,4.668,0,0,1-3.406-1.283,4.561,4.561,0,0,1-1.314-3.419v-.246A5.745,5.745,0,0,1-54.4-7.334a4.064,4.064,0,0,1,1.569-1.74,4.4,4.4,0,0,1,2.316-.611,3.947,3.947,0,0,1,3.072,1.23,5,5,0,0,1,1.121,3.489v1.037h-6.056a2.36,2.36,0,0,0,.743,1.494,2.245,2.245,0,0,0,1.569.563,2.742,2.742,0,0,0,2.294-1.063l1.248,1.4A3.813,3.813,0,0,1-48.076-.277,5.075,5.075,0,0,1-50.238.176Zm-.29-7.813a1.587,1.587,0,0,0-1.226.512,2.651,2.651,0,0,0-.6,1.466h3.533v-.2a1.891,1.891,0,0,0-.457-1.311A1.638,1.638,0,0,0-50.528-7.638Zm10.793,5.01a.818.818,0,0,0-.461-.734,5.241,5.241,0,0,0-1.481-.479q-3.393-.712-3.393-2.883a2.613,2.613,0,0,1,1.05-2.114,4.237,4.237,0,0,1,2.747-.848,4.56,4.56,0,0,1,2.9.853,2.687,2.687,0,0,1,1.085,2.215h-2.54a1.229,1.229,0,0,0-.352-.9,1.488,1.488,0,0,0-1.1-.356,1.52,1.52,0,0,0-.993.29.916.916,0,0,0-.352.738.783.783,0,0,0,.4.681,4.114,4.114,0,0,0,1.349.448,11.019,11.019,0,0,1,1.6.426,2.628,2.628,0,0,1,2.013,2.558,2.481,2.481,0,0,1-1.116,2.1,4.815,4.815,0,0,1-2.883.8A5.029,5.029,0,0,1-43.387-.25a3.561,3.561,0,0,1-1.455-1.169,2.716,2.716,0,0,1-.527-1.6h2.408a1.326,1.326,0,0,0,.5,1.037,1.987,1.987,0,0,0,1.248.36,1.839,1.839,0,0,0,1.1-.277A.861.861,0,0,0-39.735-2.628ZM-27.07-4.667a5.7,5.7,0,0,1-1,3.52A3.2,3.2,0,0,1-30.762.176a2.963,2.963,0,0,1-2.329-1V3.656h-2.54V-9.51h2.355l.088.932a2.985,2.985,0,0,1,2.408-1.107,3.22,3.22,0,0,1,2.733,1.3A5.858,5.858,0,0,1-27.07-4.8Zm-2.54-.185a3.743,3.743,0,0,0-.47-2.048,1.532,1.532,0,0,0-1.367-.721,1.663,1.663,0,0,0-1.644.914v3.894a1.692,1.692,0,0,0,1.661.94Q-29.61-1.872-29.61-4.852Zm3.718.009a5.64,5.64,0,0,1,.545-2.522,3.989,3.989,0,0,1,1.569-1.714A4.577,4.577,0,0,1-21.4-9.686a4.33,4.33,0,0,1,3.142,1.178,4.727,4.727,0,0,1,1.358,3.2l.018.65a4.97,4.97,0,0,1-1.222,3.511A4.247,4.247,0,0,1-21.384.176a4.268,4.268,0,0,1-3.283-1.318,5.058,5.058,0,0,1-1.226-3.586Zm2.54.18a3.555,3.555,0,0,0,.51,2.073,1.682,1.682,0,0,0,1.459.717,1.686,1.686,0,0,0,1.441-.709,3.89,3.89,0,0,0,.519-2.267,3.519,3.519,0,0,0-.519-2.06A1.686,1.686,0,0,0-21.4-7.638a1.658,1.658,0,0,0-1.441.726A3.955,3.955,0,0,0-23.353-4.662ZM-12.981-9.51l.079,1.1a3.32,3.32,0,0,1,2.733-1.274,2.759,2.759,0,0,1,2.25.888,4.142,4.142,0,0,1,.756,2.654V0H-9.7V-6.082a1.648,1.648,0,0,0-.352-1.173,1.574,1.574,0,0,0-1.169-.365,1.747,1.747,0,0,0-1.608.914V0h-2.54V-9.51ZM-.088-2.628a.818.818,0,0,0-.461-.734A5.241,5.241,0,0,0-2.03-3.841q-3.393-.712-3.393-2.883a2.613,2.613,0,0,1,1.05-2.114,4.237,4.237,0,0,1,2.747-.848,4.56,4.56,0,0,1,2.9.853A2.687,2.687,0,0,1,2.355-6.618H-.185a1.229,1.229,0,0,0-.352-.9,1.488,1.488,0,0,0-1.1-.356,1.52,1.52,0,0,0-.993.29.916.916,0,0,0-.352.738.783.783,0,0,0,.4.681,4.114,4.114,0,0,0,1.349.448,11.019,11.019,0,0,1,1.6.426A2.628,2.628,0,0,1,2.382-2.733a2.481,2.481,0,0,1-1.116,2.1,4.815,4.815,0,0,1-2.883.8A5.029,5.029,0,0,1-3.74-.25,3.561,3.561,0,0,1-5.194-1.419a2.716,2.716,0,0,1-.527-1.6h2.408a1.326,1.326,0,0,0,.5,1.037,1.987,1.987,0,0,0,1.248.36A1.839,1.839,0,0,0-.461-1.9.861.861,0,0,0-.088-2.628ZM9.527,0a2.821,2.821,0,0,1-.255-.853A3.073,3.073,0,0,1,6.873.176,3.376,3.376,0,0,1,4.557-.633a2.6,2.6,0,0,1-.918-2.039,2.687,2.687,0,0,1,1.121-2.32A5.529,5.529,0,0,1,8-5.81H9.167v-.545a1.567,1.567,0,0,0-.338-1.055,1.331,1.331,0,0,0-1.068-.4A1.513,1.513,0,0,0,6.754-7.5a1.045,1.045,0,0,0-.365.844H3.85a2.551,2.551,0,0,1,.51-1.529A3.37,3.37,0,0,1,5.8-9.286a5.253,5.253,0,0,1,2.092-.4,4.15,4.15,0,0,1,2.791.883,3.09,3.09,0,0,1,1.033,2.483V-2.2a4.546,4.546,0,0,0,.378,2.048V0Zm-2.1-1.767a2.188,2.188,0,0,0,1.037-.25,1.645,1.645,0,0,0,.7-.672V-4.324H8.218q-1.907,0-2.03,1.318l-.009.149a1.017,1.017,0,0,0,.334.782A1.3,1.3,0,0,0,7.427-1.767Zm14.81-2.9A5.758,5.758,0,0,1,21.261-1.1,3.231,3.231,0,0,1,18.536.176a2.969,2.969,0,0,1-2.47-1.187L15.952,0H13.667V-13.5h2.54v4.843a2.893,2.893,0,0,1,2.312-1.028,3.258,3.258,0,0,1,2.729,1.279,5.767,5.767,0,0,1,.989,3.6ZM19.7-4.852a3.783,3.783,0,0,0-.457-2.1,1.545,1.545,0,0,0-1.362-.664,1.676,1.676,0,0,0-1.67.993v3.753a1.7,1.7,0,0,0,1.688,1,1.568,1.568,0,0,0,1.617-1.213A6.257,6.257,0,0,0,19.7-4.852ZM26.481,0H23.933V-9.51h2.549Zm-2.7-11.971a1.251,1.251,0,0,1,.382-.94,1.436,1.436,0,0,1,1.042-.369,1.44,1.44,0,0,1,1.037.369,1.244,1.244,0,0,1,.387.94,1.247,1.247,0,0,1-.391.949,1.443,1.443,0,0,1-1.033.369,1.443,1.443,0,0,1-1.033-.369A1.247,1.247,0,0,1,23.783-11.971ZM31.254,0H28.705V-13.5h2.549Zm4.772,0H33.478V-9.51h2.549Zm-2.7-11.971a1.251,1.251,0,0,1,.382-.94,1.436,1.436,0,0,1,1.042-.369,1.44,1.44,0,0,1,1.037.369,1.244,1.244,0,0,1,.387.94,1.247,1.247,0,0,1-.391.949,1.443,1.443,0,0,1-1.033.369,1.443,1.443,0,0,1-1.033-.369A1.247,1.247,0,0,1,33.328-11.971Zm4.395,7.146a5.731,5.731,0,0,1,1-3.542,3.237,3.237,0,0,1,2.729-1.318,2.913,2.913,0,0,1,2.294,1.037V-13.5h2.549V0H44l-.123-1.011A2.989,2.989,0,0,1,41.432.176a3.228,3.228,0,0,1-2.694-1.323A5.916,5.916,0,0,1,37.723-4.825Zm2.54.189a3.754,3.754,0,0,0,.466,2.051,1.517,1.517,0,0,0,1.354.713,1.7,1.7,0,0,0,1.661-.995V-6.625A1.675,1.675,0,0,0,42.1-7.62Q40.263-7.62,40.263-4.636ZM53.771,0a2.821,2.821,0,0,1-.255-.853,3.073,3.073,0,0,1-2.4,1.028A3.376,3.376,0,0,1,48.8-.633a2.6,2.6,0,0,1-.918-2.039A2.687,2.687,0,0,1,49-4.992a5.529,5.529,0,0,1,3.239-.817h1.169v-.545a1.567,1.567,0,0,0-.338-1.055A1.331,1.331,0,0,0,52-7.8,1.513,1.513,0,0,0,51-7.5a1.045,1.045,0,0,0-.365.844h-2.54a2.551,2.551,0,0,1,.51-1.529,3.37,3.37,0,0,1,1.441-1.1,5.253,5.253,0,0,1,2.092-.4,4.15,4.15,0,0,1,2.791.883A3.09,3.09,0,0,1,55.96-6.319V-2.2a4.546,4.546,0,0,0,.378,2.048V0Zm-2.1-1.767a2.188,2.188,0,0,0,1.037-.25,1.645,1.645,0,0,0,.7-.672V-4.324h-.949q-1.907,0-2.03,1.318l-.009.149a1.017,1.017,0,0,0,.334.782A1.3,1.3,0,0,0,51.671-1.767Zm5.845-3.059a5.731,5.731,0,0,1,1-3.542,3.237,3.237,0,0,1,2.729-1.318,2.913,2.913,0,0,1,2.294,1.037V-13.5h2.549V0H63.791l-.123-1.011A2.989,2.989,0,0,1,61.225.176a3.228,3.228,0,0,1-2.694-1.323A5.916,5.916,0,0,1,57.516-4.825Zm2.54.189a3.754,3.754,0,0,0,.466,2.051,1.517,1.517,0,0,0,1.354.713,1.7,1.7,0,0,0,1.661-.995V-6.625a1.675,1.675,0,0,0-1.644-.995Q60.056-7.62,60.056-4.636Z" transform="matrix(-0.017, 1, -1, -0.017, 1316.833, 20536.781)" fill="#12263f"/>
    <path id="Trazado_826327" data-name="Trazado 826327" d="M0,0V224" transform="translate(915.75 20431.355)" fill="none" stroke="#3b5620" stroke-width="2" stroke-dasharray="6"/>
    <path id="Trazado_826320" data-name="Trazado 826320" d="M0,0V224" transform="translate(1295.165 20652.887) rotate(180)" fill="none" stroke="#3b5620" stroke-width="2" stroke-dasharray="6"/>
    <path id="Trazado_826326" data-name="Trazado 826326" d="M0,196V0" transform="translate(1103.064 20448.887)" fill="none" stroke="#3b5620" stroke-width="2" stroke-dasharray="6"/>
    <path id="Trazado_826322" data-name="Trazado 826322" d="M20,0H219.2a20,20,0,0,1,20,20V34a20,20,0,0,1-20,20H20A20,20,0,0,1,0,34V20A20,20,0,0,1,20,0Z" transform="translate(985.8 20428.887)" fill="#dbf9bd"/>
    <path id="Trazado_826323" data-name="Trazado 826323" d="M20,0H219.2a20,20,0,0,1,20,20V34a20,20,0,0,1-20,20H20A20,20,0,0,1,0,34V20A20,20,0,0,1,20,0Z" transform="translate(985.8 20513.887)" fill="#dbf9bd"/>
    <path id="Trazado_826329" data-name="Trazado 826329" d="M20,0H219.2a20,20,0,0,1,20,20V34a20,20,0,0,1-20,20H20A20,20,0,0,1,0,34V20A20,20,0,0,1,20,0Z" transform="translate(985.8 20598.887)" fill="#dbf9bd"/>
    <path id="Trazado_826324" data-name="Trazado 826324" d="M-20.738-1.617A4.577,4.577,0,0,1-22.75-.294a8.429,8.429,0,0,1-2.883.47,5.711,5.711,0,0,1-2.914-.725,4.836,4.836,0,0,1-1.934-2.1,7.408,7.408,0,0,1-.7-3.243v-.87a7.868,7.868,0,0,1,.646-3.318A4.779,4.779,0,0,1-28.67-12.23a5.367,5.367,0,0,1,2.852-.743,5.345,5.345,0,0,1,3.56,1.085,4.639,4.639,0,0,1,1.521,3.16H-23.3a2.552,2.552,0,0,0-.778-1.608,2.484,2.484,0,0,0-1.657-.51,2.338,2.338,0,0,0-2.048,1.011A5.315,5.315,0,0,0-28.5-6.829v.817a5.06,5.06,0,0,0,.765,3.041,2.618,2.618,0,0,0,2.241,1.028,2.925,2.925,0,0,0,2.118-.633V-4.781h-2.4V-6.724h5.036ZM-14.392.176A4.668,4.668,0,0,1-17.8-1.107a4.561,4.561,0,0,1-1.314-3.419v-.246a5.745,5.745,0,0,1,.554-2.562,4.064,4.064,0,0,1,1.569-1.74,4.4,4.4,0,0,1,2.316-.611A3.947,3.947,0,0,1-11.6-8.455a5,5,0,0,1,1.121,3.489v1.037h-6.056a2.36,2.36,0,0,0,.743,1.494,2.245,2.245,0,0,0,1.569.563,2.742,2.742,0,0,0,2.294-1.063l1.248,1.4A3.813,3.813,0,0,1-12.23-.277,5.075,5.075,0,0,1-14.392.176Zm-.29-7.813a1.587,1.587,0,0,0-1.226.512,2.651,2.651,0,0,0-.6,1.466h3.533v-.2a1.891,1.891,0,0,0-.457-1.311A1.638,1.638,0,0,0-14.682-7.638Zm10.986.51A6.9,6.9,0,0,0-4.61-7.2a1.86,1.86,0,0,0-1.89.976V0H-9.04V-9.51h2.4l.07,1.134a2.354,2.354,0,0,1,2.118-1.31,2.662,2.662,0,0,1,.791.114ZM1.736.176A4.668,4.668,0,0,1-1.67-1.107,4.561,4.561,0,0,1-2.984-4.526v-.246A5.745,5.745,0,0,1-2.43-7.334,4.064,4.064,0,0,1-.861-9.075a4.4,4.4,0,0,1,2.316-.611,3.947,3.947,0,0,1,3.072,1.23A5,5,0,0,1,5.647-4.966v1.037H-.409A2.36,2.36,0,0,0,.334-2.435,2.245,2.245,0,0,0,1.9-1.872,2.742,2.742,0,0,0,4.2-2.936l1.248,1.4A3.813,3.813,0,0,1,3.9-.277,5.075,5.075,0,0,1,1.736.176Zm-.29-7.813A1.587,1.587,0,0,0,.22-7.126a2.651,2.651,0,0,0-.6,1.466H3.151v-.2a1.891,1.891,0,0,0-.457-1.311A1.638,1.638,0,0,0,1.446-7.638ZM9.426-9.51l.079,1.1a3.32,3.32,0,0,1,2.733-1.274,2.759,2.759,0,0,1,2.25.888,4.142,4.142,0,0,1,.756,2.654V0H12.7V-6.082a1.648,1.648,0,0,0-.352-1.173,1.574,1.574,0,0,0-1.169-.365,1.747,1.747,0,0,0-1.608.914V0H7.036V-9.51ZM20.21-11.848V-9.51h1.626v1.863H20.21V-2.9a1.133,1.133,0,0,0,.2.756,1.015,1.015,0,0,0,.773.229,4.051,4.051,0,0,0,.747-.062V-.053A5.229,5.229,0,0,1,20.4.176a2.425,2.425,0,0,1-2.725-2.7V-7.646H16.282V-9.51H17.67v-2.338ZM27.628.176a4.668,4.668,0,0,1-3.406-1.283,4.561,4.561,0,0,1-1.314-3.419v-.246a5.745,5.745,0,0,1,.554-2.562,4.064,4.064,0,0,1,1.569-1.74,4.4,4.4,0,0,1,2.316-.611,3.947,3.947,0,0,1,3.072,1.23A5,5,0,0,1,31.54-4.966v1.037H25.484a2.36,2.36,0,0,0,.743,1.494,2.245,2.245,0,0,0,1.569.563,2.742,2.742,0,0,0,2.294-1.063l1.248,1.4A3.813,3.813,0,0,1,29.791-.277,5.075,5.075,0,0,1,27.628.176Zm-.29-7.813a1.587,1.587,0,0,0-1.226.512,2.651,2.651,0,0,0-.6,1.466h3.533v-.2a1.891,1.891,0,0,0-.457-1.311A1.638,1.638,0,0,0,27.338-7.638Z" transform="translate(1104.4 20461.887)" fill="#12263f"/>
    <path id="Trazado_826325" data-name="Trazado 826325" d="M-36.018-3.357A1.353,1.353,0,0,0-36.545-4.5a6.917,6.917,0,0,0-1.9-.844,13.458,13.458,0,0,1-2.171-.875A3.547,3.547,0,0,1-42.794-9.4a3.09,3.09,0,0,1,.584-1.85,3.812,3.812,0,0,1,1.679-1.27,6.318,6.318,0,0,1,2.457-.457,5.751,5.751,0,0,1,2.443.5,3.891,3.891,0,0,1,1.666,1.4,3.668,3.668,0,0,1,.593,2.057h-2.637a1.726,1.726,0,0,0-.554-1.367,2.276,2.276,0,0,0-1.556-.488,2.432,2.432,0,0,0-1.5.409,1.289,1.289,0,0,0-.536,1.077,1.235,1.235,0,0,0,.628,1.046,7.1,7.1,0,0,0,1.85.791A7.994,7.994,0,0,1-34.4-5.871a3.343,3.343,0,0,1,1.028,2.5A3.08,3.08,0,0,1-34.629-.769a5.5,5.5,0,0,1-3.384.945A6.534,6.534,0,0,1-40.7-.365a4.256,4.256,0,0,1-1.85-1.481,3.793,3.793,0,0,1-.637-2.18h2.646q0,2.118,2.531,2.118a2.462,2.462,0,0,0,1.468-.382A1.244,1.244,0,0,0-36.018-3.357ZM-26.06-.967a3.185,3.185,0,0,1-2.6,1.143A3,3,0,0,1-30.995-.7a3.752,3.752,0,0,1-.822-2.575V-9.51h2.54v6.151q0,1.487,1.354,1.487a1.834,1.834,0,0,0,1.775-.9V-9.51H-23.6V0h-2.391Zm12.938-3.7a5.7,5.7,0,0,1-1,3.52A3.2,3.2,0,0,1-16.813.176a2.963,2.963,0,0,1-2.329-1V3.656h-2.54V-9.51h2.355l.088.932a2.985,2.985,0,0,1,2.408-1.107,3.22,3.22,0,0,1,2.733,1.3A5.858,5.858,0,0,1-13.122-4.8Zm-2.54-.185a3.743,3.743,0,0,0-.47-2.048A1.532,1.532,0,0,0-17.5-7.62a1.663,1.663,0,0,0-1.644.914v3.894a1.692,1.692,0,0,0,1.661.94Q-15.662-1.872-15.662-4.852ZM-7.172.176a4.668,4.668,0,0,1-3.406-1.283,4.561,4.561,0,0,1-1.314-3.419v-.246a5.745,5.745,0,0,1,.554-2.562,4.064,4.064,0,0,1,1.569-1.74,4.4,4.4,0,0,1,2.316-.611,3.947,3.947,0,0,1,3.072,1.23A5,5,0,0,1-3.261-4.966v1.037H-9.316a2.36,2.36,0,0,0,.743,1.494A2.245,2.245,0,0,0-7-1.872,2.742,2.742,0,0,0-4.711-2.936l1.248,1.4A3.813,3.813,0,0,1-5.01-.277,5.075,5.075,0,0,1-7.172.176Zm-.29-7.813a1.587,1.587,0,0,0-1.226.512,2.651,2.651,0,0,0-.6,1.466h3.533v-.2a1.891,1.891,0,0,0-.457-1.311A1.638,1.638,0,0,0-7.462-7.638Zm10.986.51A6.9,6.9,0,0,0,2.61-7.2a1.86,1.86,0,0,0-1.89.976V0h-2.54V-9.51H.58L.65-8.376a2.354,2.354,0,0,1,2.118-1.31,2.662,2.662,0,0,1,.791.114ZM8.464-3.1,10.23-9.51h2.654L9.677,0H7.251L4.043-9.51H6.7ZM16.682,0H14.133V-9.51h2.549Zm-2.7-11.971a1.251,1.251,0,0,1,.382-.94,1.436,1.436,0,0,1,1.042-.369,1.44,1.44,0,0,1,1.037.369,1.244,1.244,0,0,1,.387.94,1.247,1.247,0,0,1-.391.949,1.443,1.443,0,0,1-1.033.369,1.443,1.443,0,0,1-1.033-.369A1.247,1.247,0,0,1,13.983-11.971Zm9.94,9.343a.818.818,0,0,0-.461-.734,5.241,5.241,0,0,0-1.481-.479q-3.393-.712-3.393-2.883a2.613,2.613,0,0,1,1.05-2.114,4.237,4.237,0,0,1,2.747-.848,4.56,4.56,0,0,1,2.9.853,2.687,2.687,0,0,1,1.085,2.215h-2.54a1.229,1.229,0,0,0-.352-.9,1.488,1.488,0,0,0-1.1-.356,1.52,1.52,0,0,0-.993.29.916.916,0,0,0-.352.738.783.783,0,0,0,.4.681,4.114,4.114,0,0,0,1.349.448,11.019,11.019,0,0,1,1.6.426,2.628,2.628,0,0,1,2.013,2.558,2.481,2.481,0,0,1-1.116,2.1,4.815,4.815,0,0,1-2.883.8A5.029,5.029,0,0,1,20.272-.25a3.561,3.561,0,0,1-1.455-1.169,2.716,2.716,0,0,1-.527-1.6H20.7a1.326,1.326,0,0,0,.5,1.037,1.987,1.987,0,0,0,1.248.36,1.839,1.839,0,0,0,1.1-.277A.861.861,0,0,0,23.924-2.628Zm3.709-2.215a5.64,5.64,0,0,1,.545-2.522,3.989,3.989,0,0,1,1.569-1.714,4.577,4.577,0,0,1,2.377-.606,4.33,4.33,0,0,1,3.142,1.178,4.727,4.727,0,0,1,1.358,3.2l.018.65A4.97,4.97,0,0,1,35.42-1.147,4.247,4.247,0,0,1,32.142.176a4.268,4.268,0,0,1-3.283-1.318,5.058,5.058,0,0,1-1.226-3.586Zm2.54.18a3.555,3.555,0,0,0,.51,2.073,1.682,1.682,0,0,0,1.459.717,1.686,1.686,0,0,0,1.441-.709A3.89,3.89,0,0,0,34.1-4.847a3.519,3.519,0,0,0-.519-2.06,1.686,1.686,0,0,0-1.459-.731,1.658,1.658,0,0,0-1.441.726A3.955,3.955,0,0,0,30.173-4.662ZM43.55-7.128a6.9,6.9,0,0,0-.914-.07,1.86,1.86,0,0,0-1.89.976V0h-2.54V-9.51h2.4l.07,1.134a2.354,2.354,0,0,1,2.118-1.31,2.662,2.662,0,0,1,.791.114Z" transform="translate(1104.4 20546.887)" fill="#12263f"/>
    <g id="Grupo_1068733" data-name="Grupo 1068733" transform="translate(810 20686.137)">
      <rect id="Rectángulo_5121" data-name="Rectángulo 5121" width="567.232" height="40" fill="#e8e8e8"/>
      <text id="Nota._Elaboración_propia._" data-name="Nota. Elaboración propia. " transform="translate(22 11)" fill="#12263f" font-size="14" font-family="Roboto-Regular, Roboto"><tspan x="0" y="13">Nota. Elaboración propia. </tspan></text>
    </g>
    <path id="Trazado_826330" data-name="Trazado 826330" d="M-47.984-4.263a4.528,4.528,0,0,1-1.525,3.252A5.355,5.355,0,0,1-53.134.176a4.816,4.816,0,0,1-3.872-1.657,6.793,6.793,0,0,1-1.411-4.548v-.782a7.671,7.671,0,0,1,.65-3.252,4.874,4.874,0,0,1,1.859-2.158,5.207,5.207,0,0,1,2.808-.751,5.217,5.217,0,0,1,3.568,1.187,4.866,4.866,0,0,1,1.564,3.331H-50.6a2.673,2.673,0,0,0-.69-1.8,2.555,2.555,0,0,0-1.806-.558,2.24,2.24,0,0,0-1.973.945,5.3,5.3,0,0,0-.672,2.931v.967a5.667,5.667,0,0,0,.628,3.032,2.2,2.2,0,0,0,1.982.958,2.6,2.6,0,0,0,1.824-.558,2.521,2.521,0,0,0,.69-1.727Zm1.169-.58a5.64,5.64,0,0,1,.545-2.522A3.989,3.989,0,0,1-44.7-9.079a4.577,4.577,0,0,1,2.377-.606,4.33,4.33,0,0,1,3.142,1.178,4.727,4.727,0,0,1,1.358,3.2l.018.65a4.97,4.97,0,0,1-1.222,3.511A4.247,4.247,0,0,1-42.306.176a4.268,4.268,0,0,1-3.283-1.318,5.058,5.058,0,0,1-1.226-3.586Zm2.54.18a3.555,3.555,0,0,0,.51,2.073,1.682,1.682,0,0,0,1.459.717,1.686,1.686,0,0,0,1.441-.709,3.89,3.89,0,0,0,.519-2.267,3.519,3.519,0,0,0-.519-2.06,1.686,1.686,0,0,0-1.459-.731,1.658,1.658,0,0,0-1.441.726A3.955,3.955,0,0,0-44.275-4.662ZM-33.561,0H-36.11V-13.5h2.549Zm7.6,0a2.821,2.821,0,0,1-.255-.853,3.073,3.073,0,0,1-2.4,1.028,3.376,3.376,0,0,1-2.316-.809,2.6,2.6,0,0,1-.918-2.039,2.687,2.687,0,0,1,1.121-2.32,5.529,5.529,0,0,1,3.239-.817h1.169v-.545a1.567,1.567,0,0,0-.338-1.055,1.331,1.331,0,0,0-1.068-.4,1.513,1.513,0,0,0-1.006.308,1.045,1.045,0,0,0-.365.844h-2.54a2.551,2.551,0,0,1,.51-1.529,3.37,3.37,0,0,1,1.441-1.1,5.253,5.253,0,0,1,2.092-.4A4.15,4.15,0,0,1-24.8-8.8,3.09,3.09,0,0,1-23.77-6.319V-2.2a4.546,4.546,0,0,0,.378,2.048V0Zm-2.1-1.767a2.188,2.188,0,0,0,1.037-.25,1.645,1.645,0,0,0,.7-.672V-4.324h-.949q-1.907,0-2.03,1.318l-.009.149a1.017,1.017,0,0,0,.334.782A1.3,1.3,0,0,0-28.059-1.767Zm14.81-2.9A5.758,5.758,0,0,1-14.225-1.1,3.231,3.231,0,0,1-16.95.176a2.969,2.969,0,0,1-2.47-1.187L-19.534,0h-2.285V-13.5h2.54v4.843a2.893,2.893,0,0,1,2.312-1.028,3.258,3.258,0,0,1,2.729,1.279,5.767,5.767,0,0,1,.989,3.6Zm-2.54-.185a3.783,3.783,0,0,0-.457-2.1,1.545,1.545,0,0,0-1.362-.664,1.676,1.676,0,0,0-1.67.993v3.753a1.7,1.7,0,0,0,1.688,1,1.568,1.568,0,0,0,1.617-1.213A6.257,6.257,0,0,0-15.79-4.852Zm3.709.009a5.64,5.64,0,0,1,.545-2.522A3.989,3.989,0,0,1-9.967-9.079a4.577,4.577,0,0,1,2.377-.606A4.33,4.33,0,0,1-4.447-8.508a4.727,4.727,0,0,1,1.358,3.2l.018.65A4.97,4.97,0,0,1-4.293-1.147,4.247,4.247,0,0,1-7.572.176a4.268,4.268,0,0,1-3.283-1.318,5.058,5.058,0,0,1-1.226-3.586Zm2.54.18a3.555,3.555,0,0,0,.51,2.073,1.682,1.682,0,0,0,1.459.717A1.686,1.686,0,0,0-6.13-2.581a3.89,3.89,0,0,0,.519-2.267,3.519,3.519,0,0,0-.519-2.06,1.686,1.686,0,0,0-1.459-.731,1.658,1.658,0,0,0-1.441.726A3.955,3.955,0,0,0-9.541-4.662ZM3.836-7.128a6.9,6.9,0,0,0-.914-.07,1.86,1.86,0,0,0-1.89.976V0h-2.54V-9.51h2.4l.07,1.134a2.354,2.354,0,0,1,2.118-1.31,2.662,2.662,0,0,1,.791.114ZM10.305,0a2.821,2.821,0,0,1-.255-.853A3.073,3.073,0,0,1,7.651.176,3.376,3.376,0,0,1,5.335-.633a2.6,2.6,0,0,1-.918-2.039,2.687,2.687,0,0,1,1.121-2.32A5.529,5.529,0,0,1,8.776-5.81H9.945v-.545a1.567,1.567,0,0,0-.338-1.055,1.331,1.331,0,0,0-1.068-.4A1.513,1.513,0,0,0,7.532-7.5a1.045,1.045,0,0,0-.365.844H4.627a2.551,2.551,0,0,1,.51-1.529,3.37,3.37,0,0,1,1.441-1.1,5.253,5.253,0,0,1,2.092-.4,4.15,4.15,0,0,1,2.791.883,3.09,3.09,0,0,1,1.033,2.483V-2.2a4.546,4.546,0,0,0,.378,2.048V0ZM8.2-1.767a2.188,2.188,0,0,0,1.037-.25,1.645,1.645,0,0,0,.7-.672V-4.324H9q-1.907,0-2.03,1.318l-.009.149a1.017,1.017,0,0,0,.334.782A1.3,1.3,0,0,0,8.2-1.767Zm5.845-3.059a5.731,5.731,0,0,1,1-3.542,3.237,3.237,0,0,1,2.729-1.318A2.913,2.913,0,0,1,20.07-8.648V-13.5h2.549V0H20.325L20.2-1.011A2.989,2.989,0,0,1,17.758.176a3.228,3.228,0,0,1-2.694-1.323A5.916,5.916,0,0,1,14.049-4.825Zm2.54.189a3.754,3.754,0,0,0,.466,2.051,1.517,1.517,0,0,0,1.354.713,1.7,1.7,0,0,0,1.661-.995V-6.625a1.675,1.675,0,0,0-1.644-.995Q16.589-7.62,16.589-4.636Zm7.6-.207a5.64,5.64,0,0,1,.545-2.522,3.989,3.989,0,0,1,1.569-1.714,4.577,4.577,0,0,1,2.377-.606,4.33,4.33,0,0,1,3.142,1.178,4.727,4.727,0,0,1,1.358,3.2l.018.65a4.97,4.97,0,0,1-1.222,3.511A4.247,4.247,0,0,1,28.7.176a4.268,4.268,0,0,1-3.283-1.318,5.058,5.058,0,0,1-1.226-3.586Zm2.54.18a3.555,3.555,0,0,0,.51,2.073,1.682,1.682,0,0,0,1.459.717,1.686,1.686,0,0,0,1.441-.709,3.89,3.89,0,0,0,.519-2.267,3.519,3.519,0,0,0-.519-2.06,1.686,1.686,0,0,0-1.459-.731,1.658,1.658,0,0,0-1.441.726A3.955,3.955,0,0,0,26.732-4.662ZM40.109-7.128a6.9,6.9,0,0,0-.914-.07,1.86,1.86,0,0,0-1.89.976V0h-2.54V-9.51h2.4l.07,1.134a2.354,2.354,0,0,1,2.118-1.31,2.662,2.662,0,0,1,.791.114Zm5.432,7.3a4.668,4.668,0,0,1-3.406-1.283,4.561,4.561,0,0,1-1.314-3.419v-.246a5.745,5.745,0,0,1,.554-2.562,4.064,4.064,0,0,1,1.569-1.74,4.4,4.4,0,0,1,2.316-.611,3.947,3.947,0,0,1,3.072,1.23,5,5,0,0,1,1.121,3.489v1.037H43.4a2.36,2.36,0,0,0,.743,1.494,2.245,2.245,0,0,0,1.569.563A2.742,2.742,0,0,0,48-2.936l1.248,1.4A3.813,3.813,0,0,1,47.7-.277,5.075,5.075,0,0,1,45.541.176Zm-.29-7.813a1.587,1.587,0,0,0-1.226.512,2.651,2.651,0,0,0-.6,1.466h3.533v-.2A1.891,1.891,0,0,0,46.5-7.174,1.638,1.638,0,0,0,45.25-7.638Zm10.793,5.01a.818.818,0,0,0-.461-.734A5.241,5.241,0,0,0,54.1-3.841q-3.393-.712-3.393-2.883a2.613,2.613,0,0,1,1.05-2.114,4.237,4.237,0,0,1,2.747-.848,4.56,4.56,0,0,1,2.9.853,2.687,2.687,0,0,1,1.085,2.215h-2.54a1.229,1.229,0,0,0-.352-.9,1.488,1.488,0,0,0-1.1-.356,1.52,1.52,0,0,0-.993.29.916.916,0,0,0-.352.738.783.783,0,0,0,.4.681,4.114,4.114,0,0,0,1.349.448,11.019,11.019,0,0,1,1.6.426,2.628,2.628,0,0,1,2.013,2.558A2.481,2.481,0,0,1,57.4-.628a4.815,4.815,0,0,1-2.883.8A5.029,5.029,0,0,1,52.392-.25a3.561,3.561,0,0,1-1.455-1.169,2.716,2.716,0,0,1-.527-1.6h2.408a1.326,1.326,0,0,0,.5,1.037,1.987,1.987,0,0,0,1.248.36,1.839,1.839,0,0,0,1.1-.277A.861.861,0,0,0,56.043-2.628Z" transform="translate(1104.4 20632.068)" fill="#12263f"/>
  </g>
</svg>
