<svg xmlns="http://www.w3.org/2000/svg" xmlns:xlink="http://www.w3.org/1999/xlink" width="116.999" height="115" viewBox="0 0 116.999 115">
  <defs>
    <clipPath id="clip-path">
      <path id="path2859" d="M0-682.665H68.963V-613.7H0Z" transform="translate(0 682.665)" fill="#3b5620"/>
    </clipPath>
  </defs>
  <g id="Grupo_1078463" data-name="Grupo 1078463" transform="translate(-741.501 -10609)">
    <path id="Unión_12" data-name="Unión 12" d="M58.5,0C90.809,0,117,25.744,117,57.5S90.809,115,58.5,115,0,89.256,0,57.5,26.192,0,58.5,0Z" transform="translate(741.5 10609)" fill="#632059"/>
    <path id="Trazado_608322" data-name="Trazado 608322" d="M49,0C76.062,0,98,22.162,98,49.5S76.062,99,49,99,0,76.838,0,49.5,21.938,0,49,0Z" transform="translate(751.5 10616)" fill="#fff"/>
    <g id="g2853" transform="translate(768.805 11310.396)">
      <g id="g2855" transform="translate(0 -682.665)">
        <g id="g2857" clip-path="url(#clip-path)">
          <g id="g2863" transform="translate(27.295 58.324)">
            <path id="path2865" d="M-136.884-5.75h-8.334a36.147,36.147,0,0,1-5.222-.379l-1.827-.267" transform="translate(152.266 6.396)" fill="none" stroke="#3b5620" stroke-linecap="round" stroke-linejoin="round" stroke-miterlimit="10" stroke-width="3"/>
          </g>
          <g id="g2867" transform="translate(12.464 1.01)">
            <path id="path2869" d="M-390.629-218.111a22.021,22.021,0,0,1-21.878,19.526A22.018,22.018,0,0,1-434.526-220.6a22.018,22.018,0,0,1,22.018-22.018,22.021,22.021,0,0,1,21.895,19.679" transform="translate(434.526 242.621)" fill="none" stroke="#3b5620" stroke-linecap="round" stroke-linejoin="round" stroke-miterlimit="10" stroke-width="3"/>
          </g>
          <g id="g2871" transform="translate(17.736 32.316)">
            <path id="path2873" d="M-296.335-46.5a6.229,6.229,0,0,0-3.32-3.512,34.787,34.787,0,0,0-7.831-1.714l-5.579,3.522-5.609-3.475a34.776,34.776,0,0,0-7.816,1.78,6.23,6.23,0,0,0-3.144,3.174" transform="translate(329.635 51.731)" fill="none" stroke="#3b5620" stroke-linecap="round" stroke-linejoin="round" stroke-miterlimit="10" stroke-width="3"/>
          </g>
          <g id="g2875" transform="translate(25.055 6.68)">
            <path id="path2877" d="M-108.755,0-115,.026a2.611,2.611,0,0,0-2.457,1.76.953.953,0,0,1-.9.638,2.631,2.631,0,0,0-2.62,2.642l.023,5.487s2.309-.037,3.093.73a.259.259,0,0,0,.441-.185l-.015-3.607a2.267,2.267,0,0,1,2.258-2.277h.027a3.66,3.66,0,0,1,1.1.165,6.939,6.939,0,0,0,2.083.331h.28a6.934,6.934,0,0,0,2.08-.349,3.667,3.667,0,0,1,1.1-.174h.027A2.268,2.268,0,0,1-106.2,7.444l.015,3.607c0,.231,1.375.339,1.539.176a3.048,3.048,0,0,1,1.99-.751l-.019-4.447A6.055,6.055,0,0,0-108.755,0Z" transform="translate(120.976 0.001)" fill="none" stroke="#3b5620" stroke-linecap="round" stroke-linejoin="round" stroke-miterlimit="10" stroke-width="3"/>
          </g>
          <g id="g2879" transform="translate(24.308 17.157)">
            <path id="path2881" d="M-6.864-.687A1.437,1.437,0,0,0-7.635.592l.007,1.593A1.438,1.438,0,0,0-6.184,3.617l.544,0A7.392,7.392,0,0,0-3.112,9.063a8.326,8.326,0,0,0,5.445,2.06A8.327,8.327,0,0,0,7.761,9.018a7.392,7.392,0,0,0,2.483-5.47l.544,0A1.438,1.438,0,0,0,12.219,2.1L12.212.509A1.437,1.437,0,0,0,11.43-.764" transform="translate(7.635 0.764)" fill="none" stroke="#3b5620" stroke-linecap="round" stroke-linejoin="round" stroke-miterlimit="10" stroke-width="3"/>
          </g>
          <g id="g2883" transform="translate(38.748 27.664)">
            <path id="path2885" d="M-10.116-41.4a1.282,1.282,0,0,1-1.123-1.266l-.014-3.387" transform="translate(11.253 46.055)" fill="none" stroke="#3b5620" stroke-linecap="round" stroke-linejoin="round" stroke-miterlimit="10" stroke-width="3"/>
          </g>
          <g id="g2887" transform="translate(28.696 27.702)">
            <path id="path2889" d="M-9.766,0l.014,3.387a1.281,1.281,0,0,1-1.112,1.275" transform="translate(10.864)" fill="none" stroke="#3b5620" stroke-linecap="round" stroke-linejoin="round" stroke-miterlimit="10" stroke-width="3"/>
          </g>
          <g id="g2891" transform="translate(24.829 33.006)">
            <path id="path2893" d="M0,0,3.643,3.98a2.239,2.239,0,0,0,2.676.479L9.476,2.832" fill="none" stroke="#3b5620" stroke-linecap="round" stroke-linejoin="round" stroke-miterlimit="10" stroke-width="3"/>
          </g>
          <g id="g2895" transform="translate(34.305 32.927)">
            <path id="path2897" d="M-84.113,0-87.72,4.016a2.239,2.239,0,0,1-2.678.5l-3.168-1.605" transform="translate(93.565)" fill="none" stroke="#3b5620" stroke-linecap="round" stroke-linejoin="round" stroke-miterlimit="10" stroke-width="3"/>
          </g>
          <g id="g2899" transform="translate(31.439 40.067)">
            <path id="path2901" d="M-9.849,0l-1.107,4.767" transform="translate(10.956)" fill="none" stroke="#3b5620" stroke-linecap="round" stroke-linejoin="round" stroke-miterlimit="10" stroke-width="3"/>
          </g>
          <g id="g2903" transform="translate(36.097 40.052)">
            <path id="path2905" d="M-10.333-42.863l-1.161-4.817" transform="translate(11.495 47.68)" fill="none" stroke="#3b5620" stroke-linecap="round" stroke-linejoin="round" stroke-miterlimit="10" stroke-width="3"/>
          </g>
          <g id="g2907" transform="translate(31.131 37.444)">
            <path id="path2909" d="M-.15-.183l-.017.008L1.248,2.419,4.8,2.4,6.194-.2,6.175-.2" transform="translate(0.167 0.204)" fill="none" stroke="#3b5620" stroke-linecap="round" stroke-linejoin="round" stroke-miterlimit="10" stroke-width="3"/>
          </g>
          <g id="g2911" transform="translate(4.06 42.696)">
            <path id="path2913" d="M-59.875-107.1v9.517a1.819,1.819,0,0,1-1.819,1.819h-3.09A1.819,1.819,0,0,1-66.6-97.587v-19.733a1.819,1.819,0,0,1,1.819-1.819h3.09a1.819,1.819,0,0,1,1.819,1.819v5.392" transform="translate(66.604 119.14)" fill="none" stroke="#3b5620" stroke-linecap="round" stroke-linejoin="round" stroke-miterlimit="10" stroke-width="3"/>
          </g>
          <g id="g2915" transform="translate(10.788 46.614)">
            <path id="path2917" d="M0-145.217l11.714,4.36a10.514,10.514,0,0,0,3.667.66H29.615a10.511,10.511,0,0,0,5.626-1.632l17.823-10.056a3.128,3.128,0,0,0,.509-4.1c-.968-1.423-2.569-1.67-4.331-.836L31.889-149.18l.02-1.652a5.039,5.039,0,0,0-4.308-4.491l-10.567-1.217c-2.438-.345-3.656-1.162-5.781-2.4a18.94,18.94,0,0,0-9.563-2.592H0" transform="translate(0 161.536)" fill="none" stroke="#3b5620" stroke-linecap="round" stroke-linejoin="round" stroke-miterlimit="10" stroke-width="3"/>
          </g>
        </g>
      </g>
    </g>
  </g>
</svg>
