<svg xmlns="http://www.w3.org/2000/svg" xmlns:xlink="http://www.w3.org/1999/xlink" width="190" height="92" viewBox="0 0 190 92">
  <defs>
    <clipPath id="clip-path">
      <rect id="Rectángulo_380682" data-name="Rectángulo 380682" width="146.653" height="91.467" fill="none"/>
    </clipPath>
    <clipPath id="clip-path-3">
      <rect id="Rectángulo_380675" data-name="Rectángulo 380675" width="28.815" height="28.815" fill="none"/>
    </clipPath>
    <clipPath id="clip-path-4">
      <rect id="Rectángulo_380676" data-name="Rectángulo 380676" width="11.828" height="10.327" fill="none"/>
    </clipPath>
    <clipPath id="clip-path-5">
      <rect id="Rectángulo_380677" data-name="Rectángulo 380677" width="0.838" height="0.829" fill="none"/>
    </clipPath>
    <clipPath id="clip-path-6">
      <rect id="Rectángulo_380678" data-name="Rectángulo 380678" width="0.775" height="0.764" fill="none"/>
    </clipPath>
    <clipPath id="clip-path-7">
      <rect id="Rectángulo_380679" data-name="Rectángulo 380679" width="2.849" height="4.366" fill="none"/>
    </clipPath>
    <clipPath id="clip-path-8">
      <rect id="Rectángulo_380680" data-name="Rectángulo 380680" width="15.737" height="9.525" fill="none"/>
    </clipPath>
  </defs>
  <g id="Grupo_1078301" data-name="Grupo 1078301" transform="translate(-180 -17789)">
    <rect id="Rectángulo_380683" data-name="Rectángulo 380683" width="190" height="92" transform="translate(180 17789)" fill="#fff"/>
    <g id="Grupo_1078300" data-name="Grupo 1078300" transform="translate(202.674 17789)">
      <g id="Grupo_1078299" data-name="Grupo 1078299" clip-path="url(#clip-path)">
        <g id="Grupo_1078298" data-name="Grupo 1078298" transform="translate(0 0)">
          <g id="Grupo_1078297" data-name="Grupo 1078297" clip-path="url(#clip-path)">
            <path id="Trazado_825997" data-name="Trazado 825997" d="M655.256,275.2s-1.2-.708-2.47,2.131a36,36,0,0,0-1.73,4.464s-.344.6-.762.239-1.017-1.409-1.685-1.181c-.693.236-.885,1.031-.694,2.177s.518,3.671.546,3.9-.084.562-.408.363-2.224-2.115-3.078-1.159.2,4.06.311,4.4.049.493-.112.587-.738-.61-1.3-1.133-1.307-1.03-1.754-.438-.482,2.963,1.957,6.69l1.243,1.653,2.066-.218c4.392-.735,6.111-2.369,6.243-3.1s-.745-.933-1.511-.992-1.675-.006-1.715-.187.03-.328.355-.48,3.323-1.481,3.445-2.757-2.574-1.373-2.94-1.476-.194-.415-.01-.546,2.265-1.607,3.236-2.244,1.426-1.318,1.129-1.987c-.286-.645-1.463-.374-2.01-.437s-.341-.722-.341-.722a36.038,36.038,0,0,0,2.107-4.3c1.222-2.862-.145-3.264-.145-3.264" transform="translate(-509.231 -218.262)" fill="#ebebeb"/>
            <path id="Trazado_825998" data-name="Trazado 825998" d="M657,308.336c.906-2.1,2.579-5.8,4-8.988s2.7-6.071,3.618-8.164L665.7,288.7l.295-.674.078-.175c.018-.039.029-.058.029-.058s-.007.021-.023.061l-.072.177-.284.679c-.247.589-.611,1.44-1.064,2.489-.906,2.1-2.182,4.987-3.6,8.173s-3.1,6.886-4.016,8.98" transform="translate(-521.223 -228.318)" fill="#e0e0e0"/>
            <path id="Trazado_825999" data-name="Trazado 825999" d="M678.192,310.116a.68.68,0,0,1,.059.137c.034.09.08.221.136.384.11.326.25.779.4,1.282l.369,1.29.114.39a.075.075,0,1,1-.024.008c-.034-.09-.08-.221-.134-.385-.107-.327-.241-.782-.387-1.285l-.378-1.286-.116-.39a.682.682,0,0,1-.035-.145" transform="translate(-538.034 -246.026)" fill="#e0e0e0"/>
            <path id="Trazado_826000" data-name="Trazado 826000" d="M684.493,322.368c-.006-.017.917-.347,2.06-.738s2.075-.694,2.081-.678-.917.347-2.06.738-2.075.694-2.081.677" transform="translate(-543.033 -254.623)" fill="#e0e0e0"/>
            <path id="Trazado_826001" data-name="Trazado 826001" d="M672.877,349.7a.714.714,0,0,1,.152-.014l.415-.019c.35-.017.833-.042,1.365-.089s1.013-.1,1.36-.149l.411-.053a.7.7,0,0,1,.152-.012.684.684,0,0,1-.148.037c-.1.019-.236.045-.409.073-.346.057-.827.122-1.361.168s-1.019.065-1.369.07c-.175,0-.318,0-.416,0a.712.712,0,0,1-.153-.011" transform="translate(-533.818 -277.164)" fill="#e0e0e0"/>
            <path id="Trazado_826002" data-name="Trazado 826002" d="M663.658,336.258a.6.6,0,0,1,.087.112l.216.317c.18.269.425.644.693,1.059s.507.794.677,1.07l.2.328a.594.594,0,0,1,.065.125.607.607,0,0,1-.087-.112l-.216-.317c-.18-.269-.425-.644-.693-1.06s-.506-.794-.677-1.069l-.2-.328a.6.6,0,0,1-.065-.125" transform="translate(-526.503 -266.765)" fill="#e0e0e0"/>
            <path id="Trazado_826003" data-name="Trazado 826003" d="M650.8,355.435a.966.966,0,0,1,.109.144l.279.405c.233.344.55.821.9,1.351s.66,1.011.883,1.361l.261.416a.959.959,0,0,1,.088.158,1,1,0,0,1-.109-.144l-.278-.405c-.233-.344-.551-.821-.9-1.351s-.659-1.011-.882-1.361l-.261-.416a.961.961,0,0,1-.088-.158" transform="translate(-516.305 -281.979)" fill="#e0e0e0"/>
            <path id="Trazado_826004" data-name="Trazado 826004" d="M662.823,371.312a1.122,1.122,0,0,1,.192-.023l.525-.043c.443-.037,1.055-.09,1.728-.168s1.282-.163,1.721-.228l.521-.077a1.1,1.1,0,0,1,.192-.021,1.119,1.119,0,0,1-.188.045c-.122.025-.3.059-.518.1-.438.077-1.047.17-1.721.247s-1.288.125-1.732.15c-.222.012-.4.02-.526.023a1.131,1.131,0,0,1-.194,0" transform="translate(-525.842 -294.129)" fill="#e0e0e0"/>
            <path id="Trazado_826005" data-name="Trazado 826005" d="M121.817,103.281s-1.3.5.152,3.259a36.009,36.009,0,0,0,2.444,4.116s.259.641-.282.747-1.736-.069-1.969.6c-.242.691.265,1.333,1.284,1.89s3.208,1.859,3.405,1.977.391.414.034.545-3.037.444-2.812,1.706,3.319,2.347,3.655,2.473.418.266.393.45-.936.2-1.694.324-1.617.392-1.427,1.11,2.034,2.208,6.471,2.59l2.068.042,1.1-1.76c2.133-3.91,1.908-6.27,1.415-6.825s-1.194.01-1.713.576-1.039,1.314-1.206,1.234-.24-.227-.158-.576.886-3.528-.042-4.413-2.669,1.177-2.976,1.4-.446-.1-.436-.329.134-2.774.233-3.931-.157-1.935-.866-2.115c-.684-.173-1.2.92-1.585,1.312s-.778-.178-.778-.178a36.006,36.006,0,0,0-2.082-4.311c-1.5-2.729-2.657-1.9-2.657-1.9" transform="translate(-96.219 -81.853)" fill="#ebebeb"/>
            <path id="Trazado_826006" data-name="Trazado 826006" d="M140.658,135.479c-1.092-2.008-2.972-5.61-4.6-8.694s-3.108-5.873-4.19-7.886l-1.283-2.383-.349-.648-.089-.169c-.02-.038-.029-.059-.029-.059s.013.018.034.056l.095.166.359.643c.311.558.756,1.369,1.3,2.374,1.092,2.008,2.577,4.8,4.207,7.878s3.5,6.689,4.586,8.7" transform="translate(-103.226 -91.74)" fill="#e0e0e0"/>
            <path id="Trazado_826007" data-name="Trazado 826007" d="M133.574,147.389a.674.674,0,0,1,.145.038c.092.028.223.073.386.13.324.114.768.284,1.253.48l1.242.506.377.151a.682.682,0,0,1,.136.061.674.674,0,0,1-.145-.037c-.092-.029-.224-.073-.385-.132-.323-.118-.764-.293-1.25-.489l-1.245-.5-.378-.149a.675.675,0,0,1-.136-.062" transform="translate(-105.969 -116.928)" fill="#e0e0e0"/>
            <path id="Trazado_826008" data-name="Trazado 826008" d="M151.377,137.5c-.017-.006.292-.936.691-2.076s.735-2.061.751-2.055-.292.935-.691,2.077-.735,2.061-.751,2.055" transform="translate(-120.092 -105.802)" fill="#e0e0e0"/>
            <path id="Trazado_826009" data-name="Trazado 826009" d="M162.459,164.371a.7.7,0,0,1,.082-.129l.241-.338c.2-.286.482-.681.773-1.129s.543-.861.722-1.162l.212-.356a.077.077,0,1,1,.022.012c-.044.088-.11.213-.195.367-.169.307-.414.726-.708,1.175s-.577.842-.79,1.121c-.107.139-.195.251-.258.326a.7.7,0,0,1-.1.113" transform="translate(-128.884 -127.83)" fill="#e0e0e0"/>
            <path id="Trazado_826010" data-name="Trazado 826010" d="M145.168,174.953a.606.606,0,0,1,.141,0l.383.026c.323.025.769.063,1.261.109s.937.092,1.259.128l.381.046a.58.58,0,0,1,.139.026.6.6,0,0,1-.141,0l-.383-.026c-.323-.024-.769-.063-1.261-.109s-.937-.092-1.259-.128l-.381-.046a.606.606,0,0,1-.139-.026" transform="translate(-115.167 -138.794)" fill="#e0e0e0"/>
            <path id="Trazado_826011" data-name="Trazado 826011" d="M152.319,196.907a.976.976,0,0,1,.181,0l.491.031c.414.029.986.074,1.617.127s1.2.105,1.616.146l.489.052a1,1,0,0,1,.179.027.951.951,0,0,1-.181,0l-.491-.031c-.414-.029-.986-.074-1.617-.127s-1.2-.105-1.615-.146l-.489-.051a.981.981,0,0,1-.179-.028" transform="translate(-120.84 -156.211)" fill="#e0e0e0"/>
            <path id="Trazado_826012" data-name="Trazado 826012" d="M173.925,182.526a1.11,1.11,0,0,1,.1-.166l.29-.44c.244-.371.58-.885.934-1.463s.663-1.109.883-1.5l.261-.457a1.1,1.1,0,0,1,.1-.164,1.127,1.127,0,0,1-.08.176c-.055.112-.138.272-.243.467-.21.392-.513.928-.868,1.507s-.7,1.09-.951,1.455c-.128.182-.232.329-.307.428a1.124,1.124,0,0,1-.121.151" transform="translate(-137.981 -141.484)" fill="#e0e0e0"/>
            <path id="Trazado_826013" data-name="Trazado 826013" d="M46.2,165.487a7.564,7.564,0,0,1,1.751-.991l.186-1.856,3.063-.377.632,1.755a7.549,7.549,0,0,1,1.939.536l1.444-1.18,2.433,1.9-.794,1.687a7.545,7.545,0,0,1,.991,1.751l1.856.186.377,3.063-1.755.632a7.561,7.561,0,0,1-.536,1.939l1.18,1.444-1.9,2.433-1.687-.794a7.559,7.559,0,0,1-1.751.991l-.186,1.856-3.063.377-.632-1.755a7.553,7.553,0,0,1-1.939-.536l-1.444,1.18-2.433-1.9.794-1.687a7.555,7.555,0,0,1-.991-1.751l-1.856-.186L41.5,171.14l1.755-.632a7.571,7.571,0,0,1,.536-1.939l-1.18-1.444,1.9-2.433Zm2.067,3.915a3.31,3.31,0,1,0,4.646-.573,3.31,3.31,0,0,0-4.646.573" transform="translate(-32.923 -128.729)" fill="#ebebeb"/>
            <path id="Trazado_826014" data-name="Trazado 826014" d="M476.74,1.941a5.477,5.477,0,0,1,1.335-.581l.275-1.322L480.584,0l.321,1.311a5.475,5.475,0,0,1,1.355.533l1.129-.74L485,2.656l-.7,1.154a5.474,5.474,0,0,1,.58,1.336l1.322.275.039,2.233-1.311.322a5.475,5.475,0,0,1-.533,1.355l.74,1.129-1.551,1.607-1.154-.7a5.469,5.469,0,0,1-1.336.58l-.275,1.322-2.233.039L478.263,12a5.473,5.473,0,0,1-1.355-.533l-1.129.74-1.607-1.552.7-1.154a5.471,5.471,0,0,1-.581-1.336l-1.322-.275-.039-2.233,1.311-.322a5.481,5.481,0,0,1,.533-1.355l-.74-1.129,1.551-1.607Zm1.191,2.975a2.4,2.4,0,1,0,3.388-.06,2.4,2.4,0,0,0-3.388.06" transform="translate(-375.193 0)" fill="#f5f5f5"/>
            <path id="Trazado_826015" data-name="Trazado 826015" d="M615.64,100.712a3.457,3.457,0,0,1,.842-.366l.173-.833,1.408-.025.2.827a3.447,3.447,0,0,1,.854.336l.712-.466,1.013.978-.441.727a3.443,3.443,0,0,1,.366.842l.833.173.025,1.408-.827.2a3.45,3.45,0,0,1-.336.854l.466.712-.978,1.013-.728-.441a3.451,3.451,0,0,1-.842.366l-.174.833-1.408.025-.2-.827a3.46,3.46,0,0,1-.854-.336l-.712.466-1.013-.978.441-.727a3.443,3.443,0,0,1-.366-.842l-.833-.173-.025-1.408.827-.2A3.45,3.45,0,0,1,614.4,102l-.466-.712.978-1.013Zm.751,1.876a1.511,1.511,0,1,0,2.137-.038,1.511,1.511,0,0,0-2.137.038" transform="translate(-486.503 -78.927)" fill="#f5f5f5"/>
            <path id="Trazado_826016" data-name="Trazado 826016" d="M36.024,65.474a6.713,6.713,0,0,1,1.638-.712L38,63.141l2.739-.048.394,1.608a6.708,6.708,0,0,1,1.662.654l1.384-.907,1.971,1.9-.858,1.415A6.714,6.714,0,0,1,46,69.4l1.621.337.048,2.739-1.608.394a6.713,6.713,0,0,1-.654,1.662l.907,1.384-1.9,1.971L43,77.032a6.708,6.708,0,0,1-1.638.712l-.337,1.621-2.739.048L37.891,77.8a6.712,6.712,0,0,1-1.662-.654l-1.384.907-1.971-1.9.858-1.415a6.708,6.708,0,0,1-.712-1.638L31.4,72.765l-.048-2.739,1.608-.394a6.722,6.722,0,0,1,.654-1.662l-.907-1.384,1.9-1.971Zm1.46,3.648a2.938,2.938,0,1,0,4.155-.073,2.938,2.938,0,0,0-4.155.073" transform="translate(-24.873 -50.054)" fill="#f5f5f5"/>
            <path id="Trazado_826017" data-name="Trazado 826017" d="M615.168,158.583A5.474,5.474,0,0,1,616.5,158l.275-1.322,2.233-.039.321,1.311a5.471,5.471,0,0,1,1.355.533l1.129-.74,1.607,1.552-.7,1.154a5.473,5.473,0,0,1,.58,1.336l1.322.275.039,2.233-1.311.322a5.475,5.475,0,0,1-.533,1.355l.74,1.129-1.551,1.607-1.154-.7a5.48,5.48,0,0,1-1.336.58l-.275,1.322-2.233.039-.322-1.311a5.472,5.472,0,0,1-1.355-.533l-1.129.74-1.607-1.552.7-1.154a5.476,5.476,0,0,1-.58-1.336l-1.322-.275-.039-2.233,1.311-.322a5.482,5.482,0,0,1,.533-1.355l-.74-1.129,1.551-1.607Zm1.191,2.975a2.4,2.4,0,1,0,3.388-.06,2.4,2.4,0,0,0-3.388.06" transform="translate(-485.013 -124.27)" fill="#ebebeb"/>
            <path id="Trazado_826018" data-name="Trazado 826018" d="M372.164,26.78a8.429,8.429,0,0,1,2.057-.894l.424-2.036,3.44-.06.5,2.02a8.426,8.426,0,0,1,2.087.821l1.739-1.14,2.475,2.39L383.8,29.659a8.423,8.423,0,0,1,.894,2.058l2.036.424.06,3.44-2.02.5a8.428,8.428,0,0,1-.821,2.087l1.14,1.739-2.39,2.475L380.926,41.3a8.431,8.431,0,0,1-2.058.894l-.424,2.036L375,44.29l-.5-2.02a8.437,8.437,0,0,1-2.087-.821l-1.739,1.14-2.475-2.39,1.078-1.778a8.425,8.425,0,0,1-.894-2.057l-2.036-.424-.06-3.44,2.02-.5a8.436,8.436,0,0,1,.821-2.087L368,28.178l2.39-2.475ZM374,31.363a3.691,3.691,0,1,0,5.219-.092,3.691,3.691,0,0,0-5.219.092" transform="translate(-290.595 -18.873)" fill="#ebebeb"/>
            <path id="Trazado_826019" data-name="Trazado 826019" d="M146.589,387.137c0,.03-32.818.054-73.291.054S0,387.167,0,387.137s32.811-.054,73.3-.054,73.291.024,73.291.054" transform="translate(0 -307.087)" fill="#263238"/>
            <path id="Trazado_826020" data-name="Trazado 826020" d="M261.392,79.5H189.439a2.246,2.246,0,0,0-2.246,2.246v50.822a2.246,2.246,0,0,0,2.246,2.246h27.615a6.939,6.939,0,0,1-3.689,8.243h25.822s-6.148-2.108-4.567-8.243h26.772a2.246,2.246,0,0,0,2.246-2.246V81.75a2.246,2.246,0,0,0-2.246-2.246" transform="translate(-148.507 -63.073)" fill="#455a64"/>
            <path id="Trazado_826021" data-name="Trazado 826021" d="M367.652,319.647A1.386,1.386,0,0,1,365.7,321.6a.5.5,0,0,1-.12-.12,1.386,1.386,0,0,1,1.952-1.952.494.494,0,0,1,.12.12" transform="translate(-289.783 -253.248)" fill="#263238"/>
            <path id="Trazado_826022" data-name="Trazado 826022" d="M267.155,129.095H193.187V86.013a2,2,0,0,1,2-2h69.96a2,2,0,0,1,2,2Z" transform="translate(-153.262 -66.647)" fill="#fff"/>
            <path id="Trazado_826023" data-name="Trazado 826023" d="M267.155,87.754H193.187V85.9a1.892,1.892,0,0,1,1.892-1.892H265.6a1.553,1.553,0,0,1,1.553,1.553Z" transform="translate(-153.262 -66.646)" fill="#ebebeb"/>
            <path id="Trazado_826024" data-name="Trazado 826024" d="M203.11,91.459a.52.52,0,1,1-.52-.52.52.52,0,0,1,.52.52" transform="translate(-160.31 -72.145)" fill="#e0e0e0"/>
            <path id="Trazado_826025" data-name="Trazado 826025" d="M210.605,91.459a.52.52,0,1,1-.52-.52.52.52,0,0,1,.52.52" transform="translate(-166.256 -72.145)" fill="#e0e0e0"/>
            <path id="Trazado_826026" data-name="Trazado 826026" d="M217.733,91.459a.52.52,0,1,1-.52-.52.52.52,0,0,1,.52.52" transform="translate(-171.911 -72.145)" fill="#e0e0e0"/>
            <path id="Trazado_826027" data-name="Trazado 826027" d="M308.411,347.026c0,.024-10.239.043-22.867.043s-22.869-.019-22.869-.043,10.237-.043,22.869-.043,22.867.019,22.867.043" transform="translate(-208.39 -275.274)" fill="#263238"/>
            <rect id="Rectángulo_380640" data-name="Rectángulo 380640" width="73.774" height="16.469" transform="translate(39.95 27.17)" fill="#f5f5f5"/>
            <rect id="Rectángulo_380641" data-name="Rectángulo 380641" width="10.647" height="2.787" transform="translate(41.76 22.833)" fill="#f5f5f5"/>
            <rect id="Rectángulo_380642" data-name="Rectángulo 380642" width="5.83" height="2.787" transform="translate(106.143 22.833)" fill="#f5f5f5"/>
            <rect id="Rectángulo_380643" data-name="Rectángulo 380643" width="9.54" height="2.787" transform="translate(94.852 22.833)" fill="#f5f5f5"/>
            <rect id="Rectángulo_380644" data-name="Rectángulo 380644" width="9.54" height="2.787" transform="translate(83.328 22.833)" fill="#f5f5f5"/>
            <rect id="Rectángulo_380645" data-name="Rectángulo 380645" width="65.021" height="2.919" transform="translate(43.541 48.279)" fill="#f5f5f5"/>
            <rect id="Rectángulo_380646" data-name="Rectángulo 380646" width="65.021" height="2.919" transform="translate(43.541 53.711)" fill="#f5f5f5"/>
            <path id="Trazado_826028" data-name="Trazado 826028" d="M334.571,162.327l1.792-1.792,3.126,2.849,5.508-5.5,1.664,1.792-7.428,7.166Z" transform="translate(-265.427 -125.253)" fill="#ff725e"/>
            <path id="Trazado_826029" data-name="Trazado 826029" d="M342.46,153.651a7.928,7.928,0,0,1-1.192-1.408,7.926,7.926,0,0,1,1.192,1.408" transform="translate(-270.74 -120.78)" fill="#263238"/>
            <path id="Trazado_826030" data-name="Trazado 826030" d="M357.912,142.4a37.383,37.383,0,0,1-.184-4.009,37.538,37.538,0,0,1,.184,4.009" transform="translate(-283.787 -109.791)" fill="#263238"/>
            <path id="Trazado_826031" data-name="Trazado 826031" d="M371.86,151.849a9.354,9.354,0,0,1-1.245,1.571,9.383,9.383,0,0,1,1.245-1.571" transform="translate(-294.021 -120.467)" fill="#263238"/>
            <path id="Trazado_826032" data-name="Trazado 826032" d="M492.56,201.86H461.918a1.5,1.5,0,0,1-1.5-1.5V155.077a1.5,1.5,0,0,1,1.5-1.5H492.56a1.5,1.5,0,0,1,1.5,1.5v45.281a1.5,1.5,0,0,1-1.5,1.5" transform="translate(-365.265 -121.836)" fill="#e0e0e0"/>
            <path id="Trazado_826033" data-name="Trazado 826033" d="M492.354,201.653l.1-.008a1.44,1.44,0,0,0,.3-.056,1.5,1.5,0,0,0,.913-.751,1.549,1.549,0,0,0,.139-.4,2.366,2.366,0,0,0,.027-.47q0-.5,0-1.087c0-.786,0-1.692,0-2.712,0-4.082-.01-9.986-.017-17.282,0-3.648,0-7.644-.007-11.934q0-3.217,0-6.649,0-1.714,0-3.477,0-.881,0-1.774a2.324,2.324,0,0,0-.023-.437,1.4,1.4,0,0,0-.137-.41,1.472,1.472,0,0,0-.6-.615,1.589,1.589,0,0,0-.411-.148,2.247,2.247,0,0,0-.443-.028H461.715a1.447,1.447,0,0,0-1.426,1.179,2.605,2.605,0,0,0-.026.507v1.55q0,2.062,0,4.1,0,4.067,0,8.008c0,5.25,0,10.314,0,15.139s0,9.408,0,13.7q0,.8,0,1.6,0,.4,0,.787a1.7,1.7,0,0,0,.118.746,1.463,1.463,0,0,0,1.136.867,2.525,2.525,0,0,0,.373.016h1.129l5.727,0,17.281.017,4.7.01,1.222.005c.275,0,.416.006.416.006s-.141,0-.416.006l-1.222.005-4.7.01-17.281.017-5.727,0h-1.129a2.608,2.608,0,0,1-.385-.017,1.549,1.549,0,0,1-1.2-.917,1.788,1.788,0,0,1-.126-.78q0-.392,0-.787,0-.79,0-1.6c0-4.29,0-8.875,0-13.7s0-9.888,0-15.139q0-3.938,0-8.008,0-2.034,0-4.1v-1.55a2.7,2.7,0,0,1,.028-.527,1.554,1.554,0,0,1,1.532-1.267h30.478a2.354,2.354,0,0,1,.462.03,1.7,1.7,0,0,1,.439.158,1.573,1.573,0,0,1,.64.658,1.508,1.508,0,0,1,.146.438,2.422,2.422,0,0,1,.025.454q0,.893,0,1.774,0,1.762,0,3.477,0,3.428,0,6.649c0,4.29,0,8.286-.007,11.934-.007,7.3-.013,13.2-.017,17.282,0,1.02,0,1.926,0,2.712q0,.589,0,1.087a2.4,2.4,0,0,1-.03.474,1.571,1.571,0,0,1-.144.4,1.509,1.509,0,0,1-.929.751,1.37,1.37,0,0,1-.307.051l-.1,0" transform="translate(-365.058 -121.629)" fill="#263238"/>
            <path id="Trazado_826034" data-name="Trazado 826034" d="M492.43,201.73l.1-.007a.887.887,0,0,0,.129-.016,1.271,1.271,0,0,0,.176-.039,1.5,1.5,0,0,0,.916-.751,1.563,1.563,0,0,0,.14-.4,2.375,2.375,0,0,0,.028-.471q0-.5,0-1.087c0-.786,0-1.692,0-2.712,0-4.081-.006-9.986-.011-17.282,0-3.648,0-7.644,0-11.934q0-3.217,0-6.649,0-1.714,0-3.477,0-.881,0-1.774a2.336,2.336,0,0,0-.024-.44,1.428,1.428,0,0,0-.139-.415,1.491,1.491,0,0,0-.607-.623,1.6,1.6,0,0,0-.416-.15,2.251,2.251,0,0,0-.447-.028H461.791a1.466,1.466,0,0,0-1.445,1.2,2.625,2.625,0,0,0-.026.51v1.55q0,2.062,0,4.1,0,4.067,0,8.008c0,5.25,0,10.315,0,15.139s0,9.408,0,13.7q0,.8,0,1.6,0,.4,0,.787a2.43,2.43,0,0,0,.017.386,1.464,1.464,0,0,0,1.251,1.243,2.541,2.541,0,0,0,.375.016h1.129l5.727,0,17.281.011,4.7.006,1.222,0c.275,0,.416,0,.416,0s-.141,0-.416,0l-1.222,0-4.7.006-17.281.011-5.727,0h-1.129a2.57,2.57,0,0,1-.383-.016,1.518,1.518,0,0,1-1.3-1.288,2.5,2.5,0,0,1-.018-.394q0-.392,0-.787,0-.79,0-1.6c0-4.29,0-8.875,0-13.7s0-9.888,0-15.139q0-3.938,0-8.008,0-2.033,0-4.1v-1.55a2.693,2.693,0,0,1,.027-.523,1.534,1.534,0,0,1,1.512-1.251H492.27a2.3,2.3,0,0,1,.459.03,1.674,1.674,0,0,1,.434.156,1.556,1.556,0,0,1,.632.65,1.489,1.489,0,0,1,.145.433,2.4,2.4,0,0,1,.024.451q0,.893,0,1.774,0,1.763,0,3.477,0,3.428,0,6.649c0,4.29,0,8.286,0,11.934,0,7.3-.008,13.2-.011,17.282,0,1.02,0,1.926,0,2.712q0,.589,0,1.087a2.387,2.387,0,0,1-.03.474,1.572,1.572,0,0,1-.143.4,1.505,1.505,0,0,1-.926.751,1.229,1.229,0,0,1-.178.038.867.867,0,0,1-.129.014l-.1,0" transform="translate(-365.135 -121.706)" fill="#263238"/>
            <path id="Trazado_826035" data-name="Trazado 826035" d="M538.153,370.517a1.291,1.291,0,1,1-1.291-1.291,1.291,1.291,0,0,1,1.291,1.291" transform="translate(-424.888 -292.92)" fill="#fff"/>
            <path id="Trazado_826036" data-name="Trazado 826036" d="M533.941,161.126h-6.872a.479.479,0,0,1,0-.958h6.872a.479.479,0,0,1,0,.958" transform="translate(-417.763 -127.067)" fill="#ebebeb"/>
            <path id="Trazado_826037" data-name="Trazado 826037" d="M496.429,210.567H465.911a.5.5,0,0,1-.5-.5V170.746a.5.5,0,0,1,.5-.5h30.519a.5.5,0,0,1,.5.5v39.318a.5.5,0,0,1-.5.5" transform="translate(-369.225 -135.06)" fill="#fff"/>
            <path id="Trazado_826038" data-name="Trazado 826038" d="M496.222,210.36s.032,0,.092-.012a.5.5,0,0,0,.241-.122.5.5,0,0,0,.162-.4q0-.271,0-.628c0-.953-.006-2.355-.01-4.161,0-3.615-.01-8.844-.017-15.305,0-3.231,0-6.77-.007-10.569q0-2.849,0-5.888,0-.759,0-1.529,0-.385,0-.773v-.388a.468.468,0,0,0-.1-.332.454.454,0,0,0-.3-.163c-.12,0-.259,0-.387,0H493.5l-27.8,0a.451.451,0,0,0-.358.175.457.457,0,0,0-.085.185,1.265,1.265,0,0,0-.009.219v2.752q0,1.826,0,3.628,0,3.6,0,7.092c0,4.65,0,9.135,0,13.407s0,8.332,0,12.132v.178a.468.468,0,0,0,.029.158.458.458,0,0,0,.2.241.566.566,0,0,0,.319.059h4.436l5.072,0,15.3.017,4.161.01,1.082.005c.244,0,.369.006.369.006s-.125,0-.369.006l-1.082.005-4.161.01-15.3.017-5.072,0-2.7,0H465.8a.656.656,0,0,1-.363-.07.547.547,0,0,1-.245-.287.558.558,0,0,1-.035-.189v-.178c0-3.8,0-7.859,0-12.132s0-8.757,0-13.407q0-3.487,0-7.092,0-1.8,0-3.628V170.67a1.35,1.35,0,0,1,.011-.241.558.558,0,0,1,.549-.446l27.8,0h2.38c.133,0,.257,0,.4,0a.552.552,0,0,1,.368.2.567.567,0,0,1,.126.394v.388q0,.387,0,.773,0,.77,0,1.529,0,3.035,0,5.888c0,3.8,0,7.338-.007,10.569-.007,6.461-.013,11.69-.017,15.305,0,1.806-.008,3.209-.01,4.161q0,.356,0,.628a.516.516,0,0,1-.171.411.494.494,0,0,1-.247.119.34.34,0,0,1-.093.006" transform="translate(-369.018 -134.853)" fill="#263238"/>
            <rect id="Rectángulo_380647" data-name="Rectángulo 380647" width="31.206" height="11.425" transform="translate(96.371 40.927)" fill="#f5f5f5"/>
            <rect id="Rectángulo_380648" data-name="Rectángulo 380648" width="7.386" height="1.933" transform="translate(97.066 37.06)" fill="#f5f5f5"/>
            <rect id="Rectángulo_380649" data-name="Rectángulo 380649" width="6.618" height="1.933" transform="translate(120.344 37.06)" fill="#f5f5f5"/>
            <rect id="Rectángulo_380650" data-name="Rectángulo 380650" width="6.618" height="1.933" transform="translate(112.468 37.06)" fill="#f5f5f5"/>
            <rect id="Rectángulo_380651" data-name="Rectángulo 380651" width="26.643" height="2.025" transform="translate(98.31 58.235)" fill="#f5f5f5"/>
            <rect id="Rectángulo_380652" data-name="Rectángulo 380652" width="26.643" height="2.025" transform="translate(98.31 54.404)" fill="#f5f5f5"/>
            <rect id="Rectángulo_380653" data-name="Rectángulo 380653" width="26.643" height="2.025" transform="translate(98.31 66.078)" fill="#f5f5f5"/>
            <rect id="Rectángulo_380654" data-name="Rectángulo 380654" width="26.643" height="2.025" transform="translate(98.31 62.247)" fill="#f5f5f5"/>
            <path id="Trazado_826039" data-name="Trazado 826039" d="M512.568,229.627l1.792-1.792,3.126,2.849,5.508-5.5,1.664,1.792-7.428,7.166Z" transform="translate(-406.639 -178.644)" fill="#ff725e"/>
            <path id="Trazado_826040" data-name="Trazado 826040" d="M604.121,240.639l-13.035-.008a2.835,2.835,0,0,1-2.838-2.832l.006-32.585a2.835,2.835,0,0,1,2.841-2.831l13.035.008a2.835,2.835,0,0,1,2.838,2.832l-.006,32.586a2.835,2.835,0,0,1-2.841,2.831" transform="translate(-466.679 -160.558)" fill="#263238"/>
            <path id="Trazado_826041" data-name="Trazado 826041" d="M607.168,206.888l-2.536-.012a.63.63,0,0,0-.619.641l0,.46a.63.63,0,0,1-.618.641l-4.943-.023a.631.631,0,0,1-.613-.647l0-.46a.631.631,0,0,0-.613-.647l-.892,0-2.22-.01a2,2,0,0,0-2,1.987l-.135,32.007a2,2,0,0,0,1.986,2l13.054.06a2,2,0,0,0,2-1.987l.135-32.007a2,2,0,0,0-1.986-2" transform="translate(-469.635 -164.084)" fill="#fff"/>
            <rect id="Rectángulo_380655" data-name="Rectángulo 380655" width="16.987" height="6.219" transform="translate(122.436 48.502)" fill="#f5f5f5"/>
            <rect id="Rectángulo_380656" data-name="Rectángulo 380656" width="4.02" height="1.052" transform="translate(122.814 46.397)" fill="#f5f5f5"/>
            <rect id="Rectángulo_380657" data-name="Rectángulo 380657" width="3.603" height="1.052" transform="translate(135.485 46.397)" fill="#f5f5f5"/>
            <rect id="Rectángulo_380658" data-name="Rectángulo 380658" width="3.603" height="1.052" transform="translate(131.198 46.397)" fill="#f5f5f5"/>
            <rect id="Rectángulo_380659" data-name="Rectángulo 380659" width="14.503" height="1.102" transform="translate(123.491 57.924)" fill="#f5f5f5"/>
            <rect id="Rectángulo_380660" data-name="Rectángulo 380660" width="14.503" height="1.102" transform="translate(123.491 55.839)" fill="#f5f5f5"/>
            <rect id="Rectángulo_380661" data-name="Rectángulo 380661" width="14.503" height="1.102" transform="translate(123.491 62.193)" fill="#f5f5f5"/>
            <rect id="Rectángulo_380662" data-name="Rectángulo 380662" width="14.503" height="1.102" transform="translate(123.491 64.144)" fill="#f5f5f5"/>
            <rect id="Rectángulo_380663" data-name="Rectángulo 380663" width="14.503" height="1.102" transform="translate(123.491 66.372)" fill="#f5f5f5"/>
            <rect id="Rectángulo_380664" data-name="Rectángulo 380664" width="14.503" height="1.102" transform="translate(123.491 68.601)" fill="#f5f5f5"/>
            <rect id="Rectángulo_380665" data-name="Rectángulo 380665" width="14.503" height="1.102" transform="translate(123.491 70.83)" fill="#f5f5f5"/>
            <rect id="Rectángulo_380666" data-name="Rectángulo 380666" width="14.503" height="1.102" transform="translate(123.491 60.108)" fill="#f5f5f5"/>
            <path id="Trazado_826042" data-name="Trazado 826042" d="M611.282,284.6l1.4-1.4,2.705,2.4,5.31-5.11,1.3,1.4-6.813,6.412Z" transform="translate(-484.952 -222.522)" fill="#ff725e"/>
            <path id="Trazado_826043" data-name="Trazado 826043" d="M72.239,239.9H21.808a3.01,3.01,0,0,1-3.01-3.01v-31.31a3.01,3.01,0,0,1,3.01-3.01H72.239a3.011,3.011,0,0,1,3.01,3.01v31.31a3.011,3.011,0,0,1-3.01,3.01" transform="translate(-14.913 -160.703)" fill="#263238"/>
            <path id="Trazado_826044" data-name="Trazado 826044" d="M66.163,374.8H11.244a3.121,3.121,0,0,1-3.121-3.121v-.145H69.284v.145a3.121,3.121,0,0,1-3.121,3.121" transform="translate(-6.444 -294.754)" fill="#263238"/>
            <rect id="Rectángulo_380667" data-name="Rectángulo 380667" width="53.263" height="31.525" transform="translate(5.4 43.347)" fill="#263238"/>
            <path id="Trazado_826045" data-name="Trazado 826045" d="M128.45,369.843l.759,1.207h10.68l.7-1.207Z" transform="translate(-101.904 -293.41)" fill="#455a64"/>
            <path id="Trazado_826046" data-name="Trazado 826046" d="M81.942,245.264H32.116a.676.676,0,0,1-.677-.676v-29a.677.677,0,0,1,.676-.676H81.942a.676.676,0,0,1,.676.676v29a.676.676,0,0,1-.676.676" transform="translate(-24.942 -170.493)" fill="#ebebeb"/>
            <path id="Trazado_826047" data-name="Trazado 826047" d="M82.353,254.018H31.174l.055-28.133H82.353Z" transform="translate(-24.731 -179.203)" fill="#fff"/>
            <path id="Trazado_826048" data-name="Trazado 826048" d="M48.612,219.011a.409.409,0,1,1-.409-.409.409.409,0,0,1,.409.409" transform="translate(-37.917 -173.425)" fill="#263238"/>
            <path id="Trazado_826049" data-name="Trazado 826049" d="M36.625,219.011a.409.409,0,1,1-.409-.409.409.409,0,0,1,.409.409" transform="translate(-28.407 -173.425)" fill="#263238"/>
            <path id="Trazado_826050" data-name="Trazado 826050" d="M42.378,219.011a.409.409,0,1,1-.409-.409.409.409,0,0,1,.409.409" transform="translate(-32.971 -173.425)" fill="#263238"/>
            <path id="Trazado_826051" data-name="Trazado 826051" d="M74.765,369.7c0,.02-12.53.037-27.982.037S18.8,369.723,18.8,369.7s12.527-.037,27.985-.037,27.982.016,27.982.037" transform="translate(-14.913 -293.269)" fill="#455a64"/>
            <rect id="Rectángulo_380668" data-name="Rectángulo 380668" width="51.179" height="11.425" transform="translate(6.497 51.218)" fill="#f5f5f5"/>
            <rect id="Rectángulo_380669" data-name="Rectángulo 380669" width="7.386" height="1.933" transform="translate(7.754 48.209)" fill="#f5f5f5"/>
            <rect id="Rectángulo_380670" data-name="Rectángulo 380670" width="4.044" height="1.933" transform="translate(52.417 48.209)" fill="#f5f5f5"/>
            <rect id="Rectángulo_380671" data-name="Rectángulo 380671" width="6.618" height="1.933" transform="translate(44.584 48.209)" fill="#f5f5f5"/>
            <rect id="Rectángulo_380672" data-name="Rectángulo 380672" width="6.618" height="1.933" transform="translate(36.59 48.209)" fill="#f5f5f5"/>
            <rect id="Rectángulo_380673" data-name="Rectángulo 380673" width="45.107" height="2.025" transform="translate(8.998 69.384)" fill="#f5f5f5"/>
            <rect id="Rectángulo_380674" data-name="Rectángulo 380674" width="45.107" height="2.025" transform="translate(8.998 65.553)" fill="#f5f5f5"/>
            <path id="Trazado_826052" data-name="Trazado 826052" d="M123.869,264.463l1.792-1.792,3.456,3.072,6.785-6.529,1.664,1.792-8.7,8.193Z" transform="translate(-98.269 -205.644)" fill="#ff725e"/>
            <path id="Trazado_826053" data-name="Trazado 826053" d="M184.366,42.668a14.407,14.407,0,1,1-14.407-14.407,14.407,14.407,0,0,1,14.407,14.407" transform="translate(-123.404 -22.42)" fill="#ff725e"/>
            <g id="Grupo_1078281" data-name="Grupo 1078281" transform="translate(32.147 5.841)" opacity="0.3">
              <g id="Grupo_1078280" data-name="Grupo 1078280">
                <g id="Grupo_1078279" data-name="Grupo 1078279" clip-path="url(#clip-path-3)">
                  <path id="Trazado_826054" data-name="Trazado 826054" d="M184.366,42.668a14.407,14.407,0,1,1-14.407-14.407,14.407,14.407,0,0,1,14.407,14.407" transform="translate(-155.551 -28.261)"/>
                </g>
              </g>
            </g>
            <path id="Trazado_826055" data-name="Trazado 826055" d="M182.488,38.211A14.407,14.407,0,1,1,168.08,23.8a14.407,14.407,0,0,1,14.407,14.407" transform="translate(-121.914 -18.884)" fill="#ff725e"/>
            <path id="Trazado_826056" data-name="Trazado 826056" d="M191.571,50.494a11.208,11.208,0,1,1-11.208-11.208,11.208,11.208,0,0,1,11.208,11.208" transform="translate(-134.197 -31.167)" fill="#fff"/>
            <path id="Trazado_826057" data-name="Trazado 826057" d="M201,63.247a7.886,7.886,0,1,1-7.886-7.886A7.886,7.886,0,0,1,201,63.247" transform="translate(-146.951 -43.92)" fill="#ff725e"/>
            <path id="Trazado_826058" data-name="Trazado 826058" d="M211.576,77.546a4.161,4.161,0,1,1-4.161-4.161,4.161,4.161,0,0,1,4.161,4.161" transform="translate(-161.25 -58.219)" fill="#fff"/>
            <path id="Trazado_826059" data-name="Trazado 826059" d="M275.819,12.4l-.391-3.074,3.129-3.349.225,3.317Z" transform="translate(-218.506 -4.743)" fill="#455a64"/>
            <path id="Trazado_826060" data-name="Trazado 826060" d="M285.418,24.228l-3.174-.258-3.182,3.061,3.182.34Z" transform="translate(-221.39 -19.015)" fill="#455a64"/>
            <g id="Grupo_1078284" data-name="Grupo 1078284" transform="translate(46.166 9.242)" opacity="0.3">
              <g id="Grupo_1078283" data-name="Grupo 1078283">
                <g id="Grupo_1078282" data-name="Grupo 1078282" clip-path="url(#clip-path-4)">
                  <path id="Trazado_826061" data-name="Trazado 826061" d="M223.388,55.047l11.828-8.47a16.059,16.059,0,0,0-1.5-1.856l-10.132,9.8Z" transform="translate(-223.388 -44.72)"/>
                </g>
              </g>
            </g>
            <path id="Trazado_826062" data-name="Trazado 826062" d="M236.241,18.486l-1.484,1.5L231.193,23.6,226.9,27.953l-3.73,3.779c-.6.612-1.235,1.206-1.816,1.84l-.026.026c-.351.355.2.9.548.548l1.484-1.5,3.564-3.612,4.294-4.351,3.73-3.779c.6-.612,1.235-1.206,1.816-1.84l.026-.026c.351-.355-.2-.9-.548-.548" transform="translate(-175.497 -14.574)" fill="#263238"/>
            <path id="Trazado_826063" data-name="Trazado 826063" d="M413.583,181.934a1,1,0,0,1-.329-1.958,1.038,1.038,0,0,1,.987-1.7,1.242,1.242,0,0,1,1.919-.927,1.4,1.4,0,0,1,1.719.048.993.993,0,0,1,.8,1.725" transform="translate(-327.269 -140.478)" fill="#263238"/>
            <path id="Trazado_826064" data-name="Trazado 826064" d="M414.773,187.054a4.232,4.232,0,0,1,4.4-3.691l.219.01c2.354.248,3.459,2.386,3.145,4.733l-.709,7.845-.186,1.85-5.351-.632.1-2a2.727,2.727,0,0,1-2.175-2.729c.038-1.1.3-3.348.559-5.383" transform="translate(-328.609 -145.465)" fill="#99655c"/>
            <path id="Trazado_826065" data-name="Trazado 826065" d="M424.592,237.667a5.511,5.511,0,0,0,3.014-.731,2.8,2.8,0,0,1-3.03,1.29Z" transform="translate(-336.832 -187.97)" fill="#744a45"/>
            <path id="Trazado_826066" data-name="Trazado 826066" d="M419.336,210.292a.324.324,0,0,0,.3.342.31.31,0,0,0,.348-.277.325.325,0,0,0-.3-.342.311.311,0,0,0-.348.277" transform="translate(-332.674 -166.611)" fill="#263238"/>
            <path id="Trazado_826067" data-name="Trazado 826067" d="M419.019,205.525c.038.044.292-.126.641-.109s.6.2.636.163c.019-.018-.018-.1-.125-.182a.89.89,0,0,0-.507-.182.856.856,0,0,0-.513.139c-.111.077-.151.152-.132.172" transform="translate(-332.419 -162.803)" fill="#263238"/>
            <path id="Trazado_826068" data-name="Trazado 826068" d="M434.705,211.065a.324.324,0,0,0,.3.341.31.31,0,0,0,.348-.277.324.324,0,0,0-.3-.342.31.31,0,0,0-.348.277" transform="translate(-344.867 -167.224)" fill="#263238"/>
            <path id="Trazado_826069" data-name="Trazado 826069" d="M435.589,206.614c.038.044.292-.126.641-.109s.6.2.636.162c.019-.018-.018-.1-.126-.182a.889.889,0,0,0-.507-.182.856.856,0,0,0-.513.139c-.111.077-.151.152-.132.172" transform="translate(-345.565 -163.667)" fill="#263238"/>
            <path id="Trazado_826070" data-name="Trazado 826070" d="M425.532,208.914a2.307,2.307,0,0,0-.562-.129c-.089-.013-.172-.035-.184-.1a.455.455,0,0,1,.072-.261l.295-.666a11.628,11.628,0,0,0,.674-1.746,11.7,11.7,0,0,0-.813,1.688q-.149.351-.284.67a.515.515,0,0,0-.062.347.223.223,0,0,0,.14.137.611.611,0,0,0,.15.028,2.281,2.281,0,0,0,.574.028" transform="translate(-336.894 -163.44)" fill="#263238"/>
            <path id="Trazado_826071" data-name="Trazado 826071" d="M435.232,201.17c.042.091.345.009.714.014s.675.081.713-.01c.017-.043-.045-.126-.174-.2a1.1,1.1,0,0,0-.547-.142,1.068,1.068,0,0,0-.54.138c-.126.076-.184.158-.166.2" transform="translate(-345.283 -159.326)" fill="#263238"/>
            <path id="Trazado_826072" data-name="Trazado 826072" d="M419.243,198.5c.07.083.361.014.708.026s.637.083.708,0c.032-.039-.011-.12-.135-.2a1.128,1.128,0,0,0-.569-.157,1.11,1.11,0,0,0-.572.133c-.126.076-.17.155-.139.2" transform="translate(-332.594 -157.216)" fill="#263238"/>
            <path id="Trazado_826073" data-name="Trazado 826073" d="M418.218,184.911s.665-1.393,1.366-1.693c.848-.363,1.163.564,1.964.38s1.611-.532,2.39.117c.853.71.417,1.16.424,2.169.031,4.092.722,5.281,1.024,3.369.033-.21.626-.35.754-1.236a10.03,10.03,0,0,0,.057-3.379,3.233,3.233,0,0,0-1.237-1.755,5.384,5.384,0,0,0-3.649-.915c-1.044.056-3.1,1.158-3.092,2.942" transform="translate(-331.787 -144.352)" fill="#263238"/>
            <path id="Trazado_826074" data-name="Trazado 826074" d="M451.654,214.753a.616.616,0,0,1,.693-.563c.421.06.881.322.812,1.2a1.168,1.168,0,0,1-1.651,1.062c0-.03.089-1.048.146-1.7" transform="translate(-358.198 -169.92)" fill="#99655c"/>
            <path id="Trazado_826075" data-name="Trazado 826075" d="M453.353,217.827c.007,0,.025.021.069.045a.269.269,0,0,0,.2.02.67.67,0,0,0,.356-.575.89.89,0,0,0-.045-.392.312.312,0,0,0-.186-.223.138.138,0,0,0-.165.061c-.024.042-.017.073-.025.075s-.031-.029-.014-.092a.173.173,0,0,1,.069-.092.2.2,0,0,1,.152-.028.381.381,0,0,1,.263.262.923.923,0,0,1,.06.439.7.7,0,0,1-.446.638.29.29,0,0,1-.243-.06c-.045-.042-.05-.077-.045-.08" transform="translate(-359.66 -171.856)" fill="#744a45"/>
            <path id="Trazado_826076" data-name="Trazado 826076" d="M429.749,184.144a1.473,1.473,0,0,1-.671.273.506.506,0,0,1-.545-.382c-.013-.109.019-.233-.048-.32-.08-.1-.238-.08-.368-.072a.992.992,0,0,1-.995-.758.416.416,0,0,1-.56.026,2.219,2.219,0,0,1-.4-.472.639.639,0,0,0-.52-.291,1.526,1.526,0,0,1-.341.058c-.2-.027-.291-.271-.312-.474s-.035-.441-.2-.559a.813.813,0,0,0-.554-.041c-.189.019-.429-.037-.468-.222a.369.369,0,0,1,.082-.278,1.006,1.006,0,0,1,1.2-.325,12.567,12.567,0,0,0,3.765-.413,1.407,1.407,0,0,1,.935.873,1,1,0,0,1,1.061,1.51.953.953,0,0,1,.488.782.545.545,0,0,1-.643.528.555.555,0,0,1-.985.509" transform="translate(-336.183 -142.319)" fill="#263238"/>
            <path id="Trazado_826077" data-name="Trazado 826077" d="M429.341,186a.082.082,0,0,0,0,.029c0,.019,0,.047.006.083a.98.98,0,0,0,.1.3,1.112,1.112,0,0,0,.327.383,1.035,1.035,0,0,0,.627.211l-.025-.036a.562.562,0,0,0,.011.43,1.608,1.608,0,0,0,.248.394,1.146,1.146,0,0,0,.165.186.54.54,0,0,0,.242.1.566.566,0,0,0,.508-.156l-.057-.019a1.165,1.165,0,0,0,.456.828.851.851,0,0,0,.5.191,1.531,1.531,0,0,0,.507-.087l-.04-.02a1.223,1.223,0,0,0,.345.5.651.651,0,0,0,.534.173.856.856,0,0,0,.689-.638l-.036.015a.8.8,0,0,0,.529.1.867.867,0,0,0,.379-.148.756.756,0,0,0,.182-.181.371.371,0,0,0,.043-.078.929.929,0,0,1-.24.238.861.861,0,0,1-.37.133.767.767,0,0,1-.5-.106l-.028-.018-.008.033a.807.807,0,0,1-.651.59.592.592,0,0,1-.484-.162,1.168,1.168,0,0,1-.324-.471l-.011-.029-.03.009a1.48,1.48,0,0,1-.485.082.783.783,0,0,1-.463-.177,1.1,1.1,0,0,1-.431-.78l-.006-.074-.051.055a.5.5,0,0,1-.448.137.48.48,0,0,1-.214-.089,1.133,1.133,0,0,1-.156-.174,1.572,1.572,0,0,1-.242-.377.509.509,0,0,1-.016-.389l.014-.036H430.4a1,1,0,0,1-.6-.193,1.108,1.108,0,0,1-.326-.363,1.2,1.2,0,0,1-.129-.4" transform="translate(-340.611 -147.564)" fill="#455a64"/>
            <path id="Trazado_826078" data-name="Trazado 826078" d="M426.976,223.809c-.006.015.08.068.237.1a1.311,1.311,0,0,0,1.161-.344c.113-.115.156-.206.143-.215a1.863,1.863,0,0,1-1.542.456" transform="translate(-338.735 -177.192)" fill="#263238"/>
            <path id="Trazado_826079" data-name="Trazado 826079" d="M397.168,342.8l13.743.187a29.492,29.492,0,0,1,4.9-1.651c1.056-.043,3.152.091,4.121,1.651,1,1.613,1.142,4.459-1.946,6.526-3.007,2.014-16.759,3.875-18.644,3.7l-3.475-4.664s-.036-3.823,0-4,.619-1.82.619-1.82Z" transform="translate(-314.042 -270.792)" fill="#263238"/>
            <path id="Trazado_826080" data-name="Trazado 826080" d="M432.032,378.352l8.2,3.048-3.74,10.228c-.955-.417-.982-6.425-.982-6.425l-5.337-1.737Z" transform="translate(-341.276 -300.16)" fill="#ff725e"/>
            <g id="Grupo_1078287" data-name="Grupo 1078287" transform="translate(94.88 81.539)" opacity="0.6">
              <g id="Grupo_1078286" data-name="Grupo 1078286">
                <g id="Grupo_1078285" data-name="Grupo 1078285" clip-path="url(#clip-path-5)">
                  <path id="Trazado_826081" data-name="Trazado 826081" d="M459.176,394.728a.445.445,0,0,1,.582-.115.428.428,0,0,1,.119.576.47.47,0,0,1-.617.118.443.443,0,0,1-.057-.613" transform="translate(-459.104 -394.551)" fill="#fff"/>
                </g>
              </g>
            </g>
            <path id="Trazado_826082" data-name="Trazado 826082" d="M463.07,391.92l-.828-.308-3.283,9.941s.032.528.371.594Z" transform="translate(-364.109 -310.68)" fill="#263238"/>
            <path id="Trazado_826083" data-name="Trazado 826083" d="M455.395,409.357c.05.017.164-.225.415-.412s.508-.241.505-.294-.319-.084-.618.148-.352.553-.3.559" transform="translate(-361.268 -324.168)" fill="#263238"/>
            <path id="Trazado_826084" data-name="Trazado 826084" d="M455.672,416.375c.044.029.208-.156.482-.248s.515-.06.531-.11-.255-.186-.592-.064-.467.4-.42.423" transform="translate(-361.493 -329.952)" fill="#263238"/>
            <path id="Trazado_826085" data-name="Trazado 826085" d="M457,422.721c.027-.042-.2-.2-.517-.174s-.515.222-.481.258.233-.055.5-.074.478.037.5-.01" transform="translate(-361.757 -335.219)" fill="#263238"/>
            <path id="Trazado_826086" data-name="Trazado 826086" d="M449.546,405.626c.053,0,.068-.259.19-.534s.292-.463.259-.5-.289.1-.429.431-.069.617-.02.607" transform="translate(-356.591 -320.969)" fill="#263238"/>
            <path id="Trazado_826087" data-name="Trazado 826087" d="M442.795,399.452a1.02,1.02,0,0,0,.185-.513,2.448,2.448,0,0,0,.031-.6,2.54,2.54,0,0,0-.049-.351.667.667,0,0,0-.064-.2.232.232,0,0,0-.257-.12.292.292,0,0,0-.194.177.707.707,0,0,0-.044.2,1.957,1.957,0,0,0-.007.358,1.914,1.914,0,0,0,.137.586c.133.318.29.467.306.453s-.089-.189-.182-.5a2.183,2.183,0,0,1-.09-.551,2.022,2.022,0,0,1,.017-.327c.011-.119.044-.211.1-.221.022,0,.03,0,.053.032a.542.542,0,0,1,.046.146,2.838,2.838,0,0,1,.056.327,3.03,3.03,0,0,1,.009.565,3.725,3.725,0,0,0-.055.53" transform="translate(-350.965 -315.481)" fill="#263238"/>
            <path id="Trazado_826088" data-name="Trazado 826088" d="M437.959,404.383c.014-.015-.129-.179-.445-.316a1.764,1.764,0,0,0-.945-.118.451.451,0,0,0-.378.232.255.255,0,0,0,.065.266.742.742,0,0,0,.168.121,1.22,1.22,0,0,0,.345.126,1.252,1.252,0,0,0,.609-.025c.338-.1.474-.29.459-.3a4.438,4.438,0,0,1-.49.173,1.256,1.256,0,0,1-.54-.014,1.126,1.126,0,0,1-.293-.118c-.1-.056-.176-.129-.15-.165s.131-.108.233-.118a1.791,1.791,0,0,1,.324-.025,1.951,1.951,0,0,1,.547.088c.305.1.473.217.49.193" transform="translate(-346.034 -320.452)" fill="#263238"/>
            <path id="Trazado_826089" data-name="Trazado 826089" d="M389.013,377.324l-7.352,3.41,4.2,9.169c.851-.454.439-6,.439-6l4.8-1.992Z" transform="translate(-302.786 -299.345)" fill="#ff725e"/>
            <g id="Grupo_1078290" data-name="Grupo 1078290" transform="translate(81.92 81.4)" opacity="0.6">
              <g id="Grupo_1078289" data-name="Grupo 1078289">
                <g id="Grupo_1078288" data-name="Grupo 1078288" clip-path="url(#clip-path-6)">
                  <path id="Trazado_826090" data-name="Trazado 826090" d="M397.082,394.014a.412.412,0,0,0-.546-.063.4.4,0,0,0-.067.54.434.434,0,0,0,.578.064.411.411,0,0,0,.008-.57" transform="translate(-396.391 -393.875)" fill="#fff"/>
                </g>
              </g>
            </g>
            <path id="Trazado_826091" data-name="Trazado 826091" d="M381.661,392.5l.742-.344,3.754,8.938s.009.49-.3.575Z" transform="translate(-302.786 -311.115)" fill="#263238"/>
            <path id="Trazado_826092" data-name="Trazado 826092" d="M401.187,407.349c-.045.019-.168-.2-.413-.35s-.487-.186-.488-.235.288-.1.581.091.365.485.32.494" transform="translate(-317.561 -322.666)" fill="#263238"/>
            <path id="Trazado_826093" data-name="Trazado 826093" d="M401.156,413.813c-.039.03-.2-.129-.463-.194s-.479-.018-.5-.063.222-.19.542-.1.46.339.418.36" transform="translate(-317.488 -327.986)" fill="#263238"/>
            <path id="Trazado_826094" data-name="Trazado 826094" d="M400.48,419.728c-.028-.036.167-.2.465-.2s.491.167.463.2-.219-.033-.464-.032-.439.069-.464.027" transform="translate(-317.713 -332.828)" fill="#263238"/>
            <path id="Trazado_826095" data-name="Trazado 826095" d="M407.8,403.395c-.049,0-.082-.234-.215-.479s-.3-.406-.275-.447.274.076.427.367.108.565.063.559" transform="translate(-323.134 -319.287)" fill="#263238"/>
            <path id="Trazado_826096" data-name="Trazado 826096" d="M413.4,397.149a.946.946,0,0,1-.208-.46,2.26,2.26,0,0,1-.072-.548,2.369,2.369,0,0,1,.019-.328.617.617,0,0,1,.045-.188.215.215,0,0,1,.229-.13.269.269,0,0,1,.192.149.655.655,0,0,1,.055.183,1.819,1.819,0,0,1,.033.33,1.783,1.783,0,0,1-.084.551c-.1.3-.234.452-.249.441s.069-.181.132-.472a2.012,2.012,0,0,0,.043-.515,1.867,1.867,0,0,0-.039-.3c-.019-.109-.056-.192-.111-.2-.021,0-.028,0-.047.033a.5.5,0,0,0-.032.138,2.6,2.6,0,0,0-.028.306,2.791,2.791,0,0,0,.033.522,3.473,3.473,0,0,1,.089.485" transform="translate(-327.743 -313.758)" fill="#263238"/>
            <path id="Trazado_826097" data-name="Trazado 826097" d="M414.032,401.431c-.014-.013.106-.175.388-.324a1.637,1.637,0,0,1,.864-.178.418.418,0,0,1,.366.187.236.236,0,0,1-.04.25.686.686,0,0,1-.147.124,1.127,1.127,0,0,1-.309.142,1.161,1.161,0,0,1-.564.021c-.319-.07-.459-.233-.445-.244a4.131,4.131,0,0,0,.465.124,1.161,1.161,0,0,0,.5-.052,1.036,1.036,0,0,0,.261-.13c.091-.059.153-.131.126-.163a.288.288,0,0,0-.224-.092,1.661,1.661,0,0,0-.3,0,1.82,1.82,0,0,0-.5.121c-.275.111-.421.235-.439.214" transform="translate(-328.466 -318.068)" fill="#263238"/>
            <path id="Trazado_826098" data-name="Trazado 826098" d="M355.072,340.591s-5.935-2.216-8.119-1.93c-1.221.16-3.131,1.092-3.277,2.658A4.444,4.444,0,0,0,346.024,346c2.112,1.019,10.54,4.8,12.542,5.384s7,1.947,7,1.947l1.9-5.405s-10.347-3.583-10.894-3.983a12.28,12.28,0,0,0-1.93-.947Z" transform="translate(-272.629 -268.652)" fill="#263238"/>
            <path id="Trazado_826099" data-name="Trazado 826099" d="M438.483,350.254a.217.217,0,0,1-.041-.011l-.119-.036c-.1-.031-.26-.077-.462-.125a5.061,5.061,0,0,0-1.742-.128,5.782,5.782,0,0,0-1.187.226,4.115,4.115,0,0,0-.626.244l-.646.315c-.888.424-1.879.859-2.935,1.276a35.141,35.141,0,0,1-5.592,1.578c-.726.161-1.313.293-1.718.389l-.466.11-.122.027a.218.218,0,0,1-.042.007.221.221,0,0,1,.04-.014l.12-.033c.106-.028.261-.072.463-.122.4-.1.989-.243,1.714-.409a36.715,36.715,0,0,0,5.578-1.594c1.055-.417,2.045-.849,2.933-1.27l.646-.312a4.151,4.151,0,0,1,.636-.245,5.771,5.771,0,0,1,1.2-.221,5.412,5.412,0,0,1,1.006.008,5.294,5.294,0,0,1,.746.141c.2.052.356.1.46.137l.117.042a.2.2,0,0,1,.039.017" transform="translate(-335.41 -277.58)" fill="#455a64"/>
            <path id="Trazado_826100" data-name="Trazado 826100" d="M484.938,347.262c0,.01-.181-.022-.471-.053a7.1,7.1,0,0,0-2.269.117c-.286.061-.46.111-.463.1a.482.482,0,0,1,.119-.048c.078-.027.192-.061.334-.1a5.956,5.956,0,0,1,2.285-.117c.146.021.263.043.343.063a.5.5,0,0,1,.123.036" transform="translate(-382.178 -275.37)" fill="#455a64"/>
            <path id="Trazado_826101" data-name="Trazado 826101" d="M373.645,351c-.007.009-.171-.118-.456-.294a6.043,6.043,0,0,0-2.443-.862c-.332-.041-.54-.045-.54-.057a.63.63,0,0,1,.146-.008,3.966,3.966,0,0,1,.4.019,5.4,5.4,0,0,1,2.462.869,3.941,3.941,0,0,1,.322.235.646.646,0,0,1,.109.1" transform="translate(-293.699 -277.495)" fill="#455a64"/>
            <path id="Trazado_826102" data-name="Trazado 826102" d="M375.348,352.6l.046.018.135.056c.119.048.292.13.524.219.462.184,1.145.435,2.021.723,1.753.573,4.273,1.3,7.288,2.062l-.034.018,1.835-5.092.018.04-2.272-.933-12.572-5.174,0,0,0,0c-.512-.542-.982-1.019-1.424-1.4a9.649,9.649,0,0,0-1.194-.9,8.789,8.789,0,0,0-.819-.457l-.22-.1c-.049-.023-.074-.037-.074-.037s.026.01.076.031l.223.1a8.162,8.162,0,0,1,.826.448,9.43,9.43,0,0,1,1.2.894c.445.384.919.86,1.433,1.4l-.007,0,12.58,5.154,2.272.933.028.012-.01.029-1.84,5.091-.009.025-.025-.006c-3.015-.765-5.534-1.5-7.285-2.085-.875-.293-1.557-.55-2.017-.739-.231-.092-.4-.177-.521-.228l-.133-.061-.044-.022" transform="translate(-292.423 -271.029)" fill="#455a64"/>
            <path id="Trazado_826103" data-name="Trazado 826103" d="M456.436,256.58s1.709.984,2.055,2.141c.21.7,1.8,9.686,2.056,11.457a3.882,3.882,0,0,1-1.035,3.671,15.8,15.8,0,0,1-3.045,1.37l-3.222,1.043-.923-2.35,3.067-4.405-.3-2.968Z" transform="translate(-358.844 -203.554)" fill="#ff725e"/>
            <path id="Trazado_826104" data-name="Trazado 826104" d="M377.223,245.533l-1.284-.733a3.56,3.56,0,0,1-2.764,1.2,4.008,4.008,0,0,1-2.539-1.388l-4.756.968a2.335,2.335,0,0,0-1.458,1.061c-.621.887-3.563,4.821-3.563,4.821H358.8a1.529,1.529,0,0,0-1.354.817,5.386,5.386,0,0,0-.733,1.937c.07.627-.051,2.35.79,2.888a4.129,4.129,0,0,0,1.963.647,6.6,6.6,0,0,0,3.095-1.132,28.493,28.493,0,0,0,2.615-2.515v.009l.356,12.476L378,266.233l2.584-19.148s-3.233-1.552-3.359-1.552" transform="translate(-282.989 -194.059)" fill="#ff725e"/>
            <path id="Trazado_826105" data-name="Trazado 826105" d="M397.414,265.246c.018,0,.05,1.546.073,3.454s.026,3.454.008,3.455-.05-1.546-.073-3.454-.027-3.454-.009-3.454" transform="translate(-315.274 -210.429)" fill="#263238"/>
            <path id="Trazado_826106" data-name="Trazado 826106" d="M456.856,314.043c0,.006-.106.017-.294.053a3.619,3.619,0,0,0-.772.246,5.021,5.021,0,0,0-1.028.621,8.966,8.966,0,0,0-1.083,1c-.357.385-.682.766-.988,1.1a11.977,11.977,0,0,1-.849.865,6.05,6.05,0,0,1-.638.511c-.078.056-.144.093-.187.121a.355.355,0,0,1-.068.038.363.363,0,0,1,.061-.048c.04-.031.1-.071.179-.13a7.159,7.159,0,0,0,.622-.524c.252-.234.534-.531.836-.871s.627-.722.985-1.108a8.673,8.673,0,0,1,1.094-1,4.885,4.885,0,0,1,1.046-.616,3.337,3.337,0,0,1,.786-.229,2.106,2.106,0,0,1,.221-.025.355.355,0,0,1,.077,0" transform="translate(-357.753 -249.14)" fill="#263238"/>
            <path id="Trazado_826107" data-name="Trazado 826107" d="M469.9,309.951c0,.012-.189.038-.486.12a4.514,4.514,0,0,0-2.042,1.217c-.214.222-.328.377-.337.37a.541.541,0,0,1,.072-.114,3.006,3.006,0,0,1,.232-.287,4.1,4.1,0,0,1,2.064-1.229,3,3,0,0,1,.362-.067.544.544,0,0,1,.135-.009" transform="translate(-370.516 -245.894)" fill="#263238"/>
            <g id="Grupo_1078293" data-name="Grupo 1078293" transform="translate(76.177 57.524)" opacity="0.3">
              <g id="Grupo_1078292" data-name="Grupo 1078292">
                <g id="Grupo_1078291" data-name="Grupo 1078291" clip-path="url(#clip-path-7)">
                  <path id="Trazado_826108" data-name="Trazado 826108" d="M368.6,282.688c.66.18,1.453-.77,2.052-1.364a2.529,2.529,0,0,0,.751-1.063,1.687,1.687,0,0,0-.1-1.064,3.915,3.915,0,0,0-.439-.853,5.538,5.538,0,0,1,.009,1.942,3.449,3.449,0,0,1-.845,1.37,3.043,3.043,0,0,1-1.424,1.032" transform="translate(-368.604 -278.344)"/>
                </g>
              </g>
            </g>
            <path id="Trazado_826109" data-name="Trazado 826109" d="M379.932,282.016c-.012,0,.064-.218.126-.575a4.36,4.36,0,0,0,.061-.634,4.363,4.363,0,0,0-.242-1.532,4.369,4.369,0,0,0-.253-.584c-.169-.321-.308-.5-.3-.509a.733.733,0,0,1,.1.123,1.589,1.589,0,0,1,.107.153c.039.062.086.13.129.212a3.935,3.935,0,0,1,.269.586,4.125,4.125,0,0,1,.245,1.553,3.959,3.959,0,0,1-.075.64c-.015.091-.039.17-.057.241a1.669,1.669,0,0,1-.055.179.757.757,0,0,1-.059.148" transform="translate(-300.933 -220.692)" fill="#263238"/>
            <path id="Trazado_826110" data-name="Trazado 826110" d="M424.452,246.935c.008.017-.138.1-.291.239s-.255.271-.271.261a.937.937,0,0,1,.562-.5" transform="translate(-336.287 -195.901)" fill="#263238"/>
            <path id="Trazado_826111" data-name="Trazado 826111" d="M431.443,250.588c.013.013-.112.148-.213.347s-.139.378-.159.375a.918.918,0,0,1,.371-.723" transform="translate(-341.98 -198.8)" fill="#263238"/>
            <path id="Trazado_826112" data-name="Trazado 826112" d="M442.6,251.5a9.652,9.652,0,0,1-.27-.75,1.452,1.452,0,0,1,.27.75" transform="translate(-350.912 -198.928)" fill="#263238"/>
            <path id="Trazado_826113" data-name="Trazado 826113" d="M448.622,247.9c-.019,0-.068-.213-.209-.443s-.308-.376-.3-.39a1.089,1.089,0,0,1,.5.833" transform="translate(-355.507 -196.009)" fill="#263238"/>
            <path id="Trazado_826114" data-name="Trazado 826114" d="M466.559,270.657c.018,0-.194,1.706-.471,3.806s-.517,3.8-.535,3.8.194-1.706.472-3.806.517-3.8.535-3.8" transform="translate(-369.339 -214.722)" fill="#263238"/>
            <path id="Trazado_826115" data-name="Trazado 826115" d="M369.841,284.008a.929.929,0,0,1,0,.176,1.345,1.345,0,0,1-.026.205l-.021.128c-.009.045-.023.091-.036.141a3.8,3.8,0,0,1-.246.67,4.58,4.58,0,0,1-.458.744,3.927,3.927,0,0,1-.609.627,2.62,2.62,0,0,1-.612.369c-.047.019-.091.04-.134.055l-.125.035-.109.03c-.034.007-.066.009-.094.013a.934.934,0,0,1-.176.014,3.162,3.162,0,0,0,.62-.188,2.735,2.735,0,0,0,.592-.373,4.071,4.071,0,0,0,.6-.621,4.8,4.8,0,0,0,.456-.731,4.085,4.085,0,0,0,.255-.656,6.1,6.1,0,0,0,.13-.637" transform="translate(-291.307 -225.314)" fill="#263238"/>
            <g id="Grupo_1078296" data-name="Grupo 1078296" transform="translate(82.3 63.431)" opacity="0.3">
              <g id="Grupo_1078295" data-name="Grupo 1078295">
                <g id="Grupo_1078294" data-name="Grupo 1078294" clip-path="url(#clip-path-8)">
                  <path id="Trazado_826116" data-name="Trazado 826116" d="M412.751,316.452c.529-.256.649-.942.7-1.526l.474-5.142a2.13,2.13,0,0,0-2.54-2.857c-4.563.013-8.592.146-13.155.16l.233,7.982Z" transform="translate(-398.232 -306.926)"/>
                </g>
              </g>
            </g>
            <path id="Trazado_826117" data-name="Trazado 826117" d="M388.712,310.965l.486,9.257a.676.676,0,0,0,.678.636l14.746.026a.676.676,0,0,0,.678-.639l.563-9.1c.019-.378-.25-.881-.633-.888H389.4a.676.676,0,0,0-.692.706" transform="translate(-308.379 -246.138)" fill="#e0e0e0"/>
            <path id="Trazado_826118" data-name="Trazado 826118" d="M388.708,310.849s0-.012,0-.035a.621.621,0,0,1,.006-.1.666.666,0,0,1,.175-.361.676.676,0,0,1,.247-.168.865.865,0,0,1,.356-.05l.9,0,5.714-.011,8.474-.008h.6a.533.533,0,0,1,.3.078.759.759,0,0,1,.225.221,1.064,1.064,0,0,1,.185.6q-.018.309-.037.622l-.157,2.55c-.107,1.732-.217,3.525-.331,5.362l-.021.344c-.01.116-.008.226-.028.347a.706.706,0,0,1-.445.522.863.863,0,0,1-.346.046h-1.014l-2.647,0-5.005-.011-4.529-.011-1.045,0h-.255a2.19,2.19,0,0,1-.256-.008.7.7,0,0,1-.442-.244.715.715,0,0,1-.165-.466q-.012-.241-.025-.478-.024-.473-.047-.925l-.289-5.706c-.033-.673-.058-1.2-.075-1.551-.008-.176-.014-.311-.018-.4s0-.138,0-.138,0,.046.011.137.014.227.024.4c.02.356.049.878.087,1.551.073,1.348.179,3.3.31,5.7q.024.452.049.925.013.236.026.478a.665.665,0,0,0,.154.437.656.656,0,0,0,.411.226,2.146,2.146,0,0,0,.249.007h1.3l4.529,0,5.005.007,2.647,0h1.014a.8.8,0,0,0,.324-.042.642.642,0,0,0,.4-.474c.018-.1.018-.225.027-.338l.021-.344c.114-1.837.225-3.63.332-5.362q.081-1.3.159-2.55.019-.312.037-.621a1.007,1.007,0,0,0-.174-.561.549.549,0,0,0-.481-.273h-.6l-8.474-.006-5.713-.01-.9,0a.853.853,0,0,0-.35.045.673.673,0,0,0-.421.515c-.014.09-.007.137-.01.137" transform="translate(-308.374 -246.022)" fill="#263238"/>
            <path id="Trazado_826119" data-name="Trazado 826119" d="M428.276,332.2a.869.869,0,1,1-.869-.869.869.869,0,0,1,.869.869" transform="translate(-338.389 -262.854)" fill="#fff"/>
            <path id="Trazado_826120" data-name="Trazado 826120" d="M428.153,332.093c-.007,0,0-.077-.039-.209a.867.867,0,0,0-.318-.463.844.844,0,0,0-.8-.116.83.83,0,0,0-.388.293.835.835,0,0,0,0,.99.831.831,0,0,0,.389.293.844.844,0,0,0,.8-.116.865.865,0,0,0,.317-.463c.035-.132.032-.209.039-.209a.186.186,0,0,1,0,.056.7.7,0,0,1-.019.159.865.865,0,0,1-.314.493.882.882,0,0,1-.374.171.894.894,0,0,1-.471-.036.885.885,0,0,1-.419-.312.892.892,0,0,1,0-1.064.889.889,0,0,1,1.264-.176.865.865,0,0,1,.314.493.7.7,0,0,1,.019.159.187.187,0,0,1,0,.056" transform="translate(-338.266 -262.751)" fill="#263238"/>
            <path id="Trazado_826121" data-name="Trazado 826121" d="M391.105,318.641c.018,0,.09,1.555.162,3.474s.116,3.476.1,3.477-.09-1.555-.162-3.475-.116-3.476-.1-3.477" transform="translate(-310.275 -252.789)" fill="#263238"/>
            <path id="Trazado_826122" data-name="Trazado 826122" d="M366.846,237.052a8.2,8.2,0,0,1,.291-1.527,9.238,9.238,0,0,1-1.027-2.159,5.744,5.744,0,0,1,.395-1.606l2.87-.737a22.437,22.437,0,0,1,1.106,2.317,9.206,9.206,0,0,1-.316,2.659l-.486,1.053a2.282,2.282,0,0,1-2.833,0" transform="translate(-290.448 -183.279)" fill="#99655c"/>
            <path id="Trazado_826123" data-name="Trazado 826123" d="M364.109,220.175a6.369,6.369,0,0,1-.3-.637c-.182-.431-.4-.854,0-1.094a.528.528,0,0,1,.433-.068s-.062-.363.155-.5a.466.466,0,0,1,.425-.037s-.068-.511.244-.729a.757.757,0,0,1,.795-.023s-.247-2.239-.268-2.358c-.079-.435.082-.821.516-.713.159.039.247.207.433.936s.485,1.974.485,1.974.5.876.742,1.351a11.558,11.558,0,0,1,.748,1.843,3.931,3.931,0,0,1-.333,1.722l-3.05.177s-.9-1.632-1.021-1.844" transform="translate(-288.441 -169.773)" fill="#99655c"/>
            <path id="Trazado_826124" data-name="Trazado 826124" d="M365.172,235.643a2.536,2.536,0,0,1,.236.329l.241.367a1.559,1.559,0,0,1,.131.229.465.465,0,0,1,.036.291.292.292,0,0,1-.193.226.38.38,0,0,1-.273-.034,1.212,1.212,0,0,1-.2-.126c-.06-.043-.115-.085-.164-.123-.1-.077-.176-.143-.227-.191s-.078-.076-.075-.079.127.089.33.234a2.718,2.718,0,0,0,.365.232.327.327,0,0,0,.23.028.231.231,0,0,0,.149-.18.409.409,0,0,0-.031-.252,1.614,1.614,0,0,0-.123-.222l-.23-.374a2.54,2.54,0,0,1-.2-.354" transform="translate(-289.313 -186.943)" fill="#744a45"/>
            <path id="Trazado_826125" data-name="Trazado 826125" d="M379.112,233.4a1.418,1.418,0,0,1,.222-.92c.017.008-.068.2-.128.456s-.075.465-.094.464" transform="translate(-300.752 -184.43)" fill="#744a45"/>
            <path id="Trazado_826126" data-name="Trazado 826126" d="M373.346,237.792a2.022,2.022,0,0,0-1.02-.533,3.837,3.837,0,0,0-1.162-.045.948.948,0,0,0-.806.386.664.664,0,0,0,.305.819,1.544,1.544,0,0,0,.935.142,3.928,3.928,0,0,1,.958-.039" transform="translate(-293.777 -188.172)" fill="#99655c"/>
            <path id="Trazado_826127" data-name="Trazado 826127" d="M372.436,238.409c0,.005-.086-.008-.241-.006a6.407,6.407,0,0,0-.654.062,2.767,2.767,0,0,1-.458.019,1.24,1.24,0,0,1-.514-.129.79.79,0,0,1-.382-.444.6.6,0,0,1-.021-.317.541.541,0,0,1,.168-.282,1.094,1.094,0,0,1,.586-.228,4.939,4.939,0,0,1,.58-.035,2.934,2.934,0,0,1,.97.147,1.943,1.943,0,0,1,.582.314,1.376,1.376,0,0,1,.134.121c.028.03.042.047.04.048s-.064-.058-.189-.149a2.068,2.068,0,0,0-.581-.291,2.984,2.984,0,0,0-.955-.131,5.12,5.12,0,0,0-.571.038,1.042,1.042,0,0,0-.552.213.479.479,0,0,0-.149.248.539.539,0,0,0,.019.284.733.733,0,0,0,.35.412,1.205,1.205,0,0,0,.49.128,2.849,2.849,0,0,0,.45-.011,5.1,5.1,0,0,1,.658-.042,1.519,1.519,0,0,1,.179.017.233.233,0,0,1,.061.015" transform="translate(-293.657 -188.059)" fill="#744a45"/>
            <path id="Trazado_826128" data-name="Trazado 826128" d="M367.17,235.165c.321.487.6,1.023.875,1.54a.955.955,0,0,0,.306.4c.116.071.4-.058.531-.1L368,235" transform="translate(-291.289 -186.431)" fill="#99655c"/>
            <path id="Trazado_826129" data-name="Trazado 826129" d="M368,235a.924.924,0,0,1,.078.149l.2.42c.163.357.387.857.637,1.423l.014.031-.032.012c-.1.034-.2.077-.308.1a.629.629,0,0,1-.135.02.238.238,0,0,1-.072-.008.2.2,0,0,1-.066-.033.684.684,0,0,1-.178-.19c-.091-.142-.154-.285-.226-.417-.138-.267-.265-.505-.375-.7s-.2-.357-.267-.467a1.333,1.333,0,0,1-.1-.173,1.066,1.066,0,0,1,.117.16c.071.106.17.261.285.458s.247.433.388.7c.073.131.14.277.226.41a.632.632,0,0,0,.161.172.266.266,0,0,0,.222.01c.1-.026.2-.067.3-.1l-.019.043c-.248-.567-.465-1.069-.618-1.432l-.178-.428A.933.933,0,0,1,368,235" transform="translate(-291.288 -186.431)" fill="#744a45"/>
            <path id="Trazado_826130" data-name="Trazado 826130" d="M370.043,230.625l.85,2.131a1.46,1.46,0,0,0,.228.427.494.494,0,0,0,.428.186.505.505,0,0,0,.377-.491,1.591,1.591,0,0,0-.159-.647,13.463,13.463,0,0,1-.609-1.994" transform="translate(-293.569 -182.656)" fill="#99655c"/>
            <path id="Trazado_826131" data-name="Trazado 826131" d="M371.157,230.237a.284.284,0,0,1,.022.065l.05.188c.044.163.108.4.2.689s.205.63.352,1a2.061,2.061,0,0,1,.178.61.659.659,0,0,1-.064.339.5.5,0,0,1-.255.25.428.428,0,0,1-.357-.029.669.669,0,0,1-.251-.236,3.758,3.758,0,0,1-.257-.579l-.388-.991-.256-.67-.067-.183a.3.3,0,0,1-.019-.066.273.273,0,0,1,.031.061l.078.179.275.663.4.986a3.834,3.834,0,0,0,.255.566.609.609,0,0,0,.228.214.367.367,0,0,0,.3.026.434.434,0,0,0,.222-.219.6.6,0,0,0,.059-.307,2.04,2.04,0,0,0-.17-.592c-.144-.375-.256-.719-.34-1.01s-.142-.53-.179-.7c-.018-.083-.031-.147-.039-.191a.288.288,0,0,1-.009-.068" transform="translate(-293.567 -182.655)" fill="#744a45"/>
            <path id="Trazado_826132" data-name="Trazado 826132" d="M362.577,254.814s-1.946,5.736-2.023,6.017.384,2.33,1.229,2.817,2.484-1.536,2.689-2.279a6.032,6.032,0,0,0,0-2l1.312-4.942" transform="translate(-286.034 -201.848)" fill="#99655c"/>
            <path id="Trazado_826133" data-name="Trazado 826133" d="M376.211,248.93a.369.369,0,0,1-.183-.024,1.022,1.022,0,0,1-.642-.589.372.372,0,0,1-.04-.18,1.3,1.3,0,0,0,.865.793" transform="translate(-297.774 -196.855)" fill="#744a45"/>
          </g>
        </g>
      </g>
    </g>
  </g>
</svg>
