<svg xmlns="http://www.w3.org/2000/svg" xmlns:xlink="http://www.w3.org/1999/xlink" width="567" height="333" viewBox="0 0 567 333">
  <defs>
    <clipPath id="clip-path">
      <rect id="Rectángulo_374998" data-name="Rectángulo 374998" width="309.143" height="332.781" fill="none"/>
    </clipPath>
    <clipPath id="clip-path-6">
      <rect id="Rectángulo_374968" data-name="Rectángulo 374968" width="11.554" height="9.445" fill="none"/>
    </clipPath>
    <clipPath id="clip-path-8">
      <rect id="Rectángulo_374972" data-name="Rectángulo 374972" width="11.554" height="9.446" fill="none"/>
    </clipPath>
    <clipPath id="clip-path-12">
      <rect id="Rectángulo_374980" data-name="Rectángulo 374980" width="11.555" height="9.445" fill="none"/>
    </clipPath>
    <clipPath id="clip-path-14">
      <rect id="Rectángulo_374985" data-name="Rectángulo 374985" width="10.861" height="8.878" fill="none"/>
    </clipPath>
    <clipPath id="clip-path-16">
      <rect id="Rectángulo_374987" data-name="Rectángulo 374987" width="36.044" height="27.583" fill="none"/>
    </clipPath>
    <clipPath id="clip-path-18">
      <rect id="Rectángulo_374990" data-name="Rectángulo 374990" width="43.204" height="10.858" fill="none"/>
    </clipPath>
    <clipPath id="clip-path-20">
      <rect id="Rectángulo_374992" data-name="Rectángulo 374992" width="54.468" height="52.38" fill="none"/>
    </clipPath>
    <linearGradient id="linear-gradient" x1="0.5" x2="0.5" y2="1" gradientUnits="objectBoundingBox">
      <stop offset="0" stop-color="#820072"/>
      <stop offset="1" stop-color="#b3009d"/>
    </linearGradient>
    <clipPath id="clip-path-21">
      <rect id="Rectángulo_374994" data-name="Rectángulo 374994" width="26.242" height="11.958" fill="none"/>
    </clipPath>
    <clipPath id="clip-path-22">
      <rect id="Rectángulo_374995" data-name="Rectángulo 374995" width="29.921" height="36.065" fill="none"/>
    </clipPath>
  </defs>
  <g id="Grupo_1068932" data-name="Grupo 1068932" transform="translate(-810 -586)">
    <rect id="Rectángulo_376337" data-name="Rectángulo 376337" width="567" height="333" transform="translate(810 586)" fill="none"/>
    <g id="Grupo_1066994" data-name="Grupo 1066994" transform="translate(946 586.219)">
      <g id="Grupo_1066993" data-name="Grupo 1066993" clip-path="url(#clip-path)">
        <rect id="Rectángulo_374962" data-name="Rectángulo 374962" width="48.174" height="37.265" transform="translate(171.881 82.025)" fill="#ebebeb"/>
        <path id="Trazado_805516" data-name="Trazado 805516" d="M216.746,138.253l13.327-20.419,10.9,13.051,6.624-6.931,9.854,14.3Z" transform="translate(-41.129 -22.36)" fill="#f5f5f5"/>
        <g id="Grupo_1066940" data-name="Grupo 1066940">
          <g id="Grupo_1066939" data-name="Grupo 1066939" clip-path="url(#clip-path)">
            <path id="Trazado_805517" data-name="Trazado 805517" d="M247.767,118.675a2.952,2.952,0,1,1-2.952-2.951,2.952,2.952,0,0,1,2.952,2.951" transform="translate(-45.896 -21.96)" fill="#f5f5f5"/>
            <path id="Trazado_805518" data-name="Trazado 805518" d="M164.528,156.787l-27.686,10.87a129.7,129.7,0,0,0-12.726-38.571l25.322-10.89c9.7,11.886,13.243,24.9,15.089,38.591" transform="translate(-23.552 -22.429)" fill="#ebebeb"/>
            <path id="Trazado_805519" data-name="Trazado 805519" d="M83.125,58.835,19.5,60.146l1.71,82.973,63.66.286Z" transform="translate(-3.7 -11.164)" fill="#ebebeb"/>
            <path id="Trazado_805520" data-name="Trazado 805520" d="M79.9,62.585,24.219,63.732l1.55,75.252,55.715.732Z" transform="translate(-4.596 -11.876)" fill="#fafafa"/>
            <path id="Trazado_805521" data-name="Trazado 805521" d="M72.59,79.558l-36.976-.647,1.084,52.6,36.947-.762Z" transform="translate(-6.758 -14.974)" fill="#ebebeb"/>
            <path id="Trazado_805522" data-name="Trazado 805522" d="M36.7,131.51l36.39-27.783L35.614,78.911Z" transform="translate(-6.758 -14.974)" fill="#f5f5f5"/>
            <path id="Trazado_805523" data-name="Trazado 805523" d="M297.344,0,251.576.943l1.23,59.683,45.791.206Z" transform="translate(-47.739 0)" fill="#ebebeb"/>
            <path id="Trazado_805524" data-name="Trazado 805524" d="M295.021,2.7l-40.049.825,1.115,54.13,40.077.527Z" transform="translate(-48.383 -0.512)" fill="#fafafa"/>
            <path id="Trazado_805525" data-name="Trazado 805525" d="M289.765,14.906l-26.6-.465.779,37.834,26.576-.548Z" transform="translate(-49.939 -2.74)" fill="#ebebeb"/>
            <path id="Trazado_805526" data-name="Trazado 805526" d="M263.947,52.276l26.176-19.985-26.956-17.85Z" transform="translate(-49.939 -2.74)" fill="#f5f5f5"/>
            <path id="Trazado_805527" data-name="Trazado 805527" d="M121.251,184.1l-45.767.943,1.229,59.682,45.792.206Z" transform="translate(-14.324 -34.935)" fill="#ebebeb"/>
            <path id="Trazado_805528" data-name="Trazado 805528" d="M118.928,186.8l-40.049.825,1.115,54.129,40.077.527Z" transform="translate(-14.968 -35.446)" fill="#fafafa"/>
            <path id="Trazado_805529" data-name="Trazado 805529" d="M113.673,199.007l-26.6-.465.779,37.834,26.577-.548Z" transform="translate(-16.523 -37.675)" fill="#ebebeb"/>
            <path id="Trazado_805530" data-name="Trazado 805530" d="M87.855,236.376l26.176-19.985-26.956-17.85Z" transform="translate(-16.523 -37.675)" fill="#f5f5f5"/>
            <path id="Trazado_805531" data-name="Trazado 805531" d="M339.779,156.409l-27.394.565.737,35.723,27.408.124Z" transform="translate(-59.278 -29.68)" fill="#ebebeb"/>
            <path id="Trazado_805532" data-name="Trazado 805532" d="M338.388,158.024l-23.971.493.668,32.4,23.987.315Z" transform="translate(-59.664 -29.987)" fill="#fafafa"/>
            <path id="Trazado_805533" data-name="Trazado 805533" d="M335.243,165.332l-15.92-.278.467,22.645,15.907-.327Z" transform="translate(-60.595 -31.32)" fill="#ebebeb"/>
            <path id="Trazado_805534" data-name="Trazado 805534" d="M319.79,187.7l15.668-11.962-16.134-10.684Z" transform="translate(-60.595 -31.32)" fill="#f5f5f5"/>
            <path id="Trazado_805535" data-name="Trazado 805535" d="M150.83,22.473a5.886,5.886,0,0,1-.844-.7l-2.22-1.993c-.941-.837-2.063-1.832-3.341-2.894-.639-.529-1.319-1.077-2.043-1.611-.364-.263-.737-.527-1.128-.77a3.31,3.31,0,0,0-1.194-.521,2.74,2.74,0,0,0-1.162.534c-.379.257-.744.533-1.094.814-.7.565-1.354,1.143-1.97,1.7-1.229,1.118-2.307,2.163-3.208,3.042l-2.129,2.09a5.838,5.838,0,0,1-.812.739,5.133,5.133,0,0,1,.693-.852c.468-.527,1.16-1.279,2.035-2.188s1.935-1.976,3.157-3.117c.613-.57,1.264-1.159,1.973-1.736.355-.288.725-.574,1.121-.843a2.936,2.936,0,0,1,1.407-.607,3.484,3.484,0,0,1,1.4.587c.406.252.785.523,1.154.793.732.548,1.411,1.105,2.047,1.646,1.272,1.085,2.376,2.1,3.293,2.972s1.64,1.588,2.133,2.094a5.2,5.2,0,0,1,.73.82" transform="translate(-24.609 -2.573)" fill="#e0e0e0"/>
            <path id="Trazado_805536" data-name="Trazado 805536" d="M115.743,24.469l.656,32.339,42.171-.856.155-32.355Z" transform="translate(-21.963 -4.478)" fill="#ebebeb"/>
            <path id="Trazado_805537" data-name="Trazado 805537" d="M117.648,27.075l.574,28.3L156.47,54.6l.38-28.318Z" transform="translate(-22.325 -4.987)" fill="#fafafa"/>
            <path id="Trazado_805538" data-name="Trazado 805538" d="M126.271,33.079l-.334,18.794,26.733-.543-.382-18.779Z" transform="translate(-23.898 -6.177)" fill="#ebebeb"/>
            <path id="Trazado_805539" data-name="Trazado 805539" d="M149.288,39.127c0,.116-4.134.211-9.233.211s-9.234-.095-9.234-.211,4.134-.211,9.234-.211,9.233.095,9.233.211" transform="translate(-24.825 -7.385)" fill="#e0e0e0"/>
            <path id="Trazado_805540" data-name="Trazado 805540" d="M149.288,42.731c0,.117-4.134.212-9.233.212s-9.234-.1-9.234-.212,4.134-.21,9.234-.21,9.233.095,9.233.21" transform="translate(-24.825 -8.069)" fill="#e0e0e0"/>
            <path id="Trazado_805541" data-name="Trazado 805541" d="M149.288,46.335c0,.117-4.134.211-9.233.211s-9.234-.094-9.234-.211,4.134-.21,9.234-.21,9.233.094,9.233.21" transform="translate(-24.825 -8.753)" fill="#e0e0e0"/>
            <path id="Trazado_805542" data-name="Trazado 805542" d="M137.39,49.939a12.942,12.942,0,0,1-3.284.211,12.942,12.942,0,0,1-3.284-.211,12.965,12.965,0,0,1,3.284-.211,12.965,12.965,0,0,1,3.284.211" transform="translate(-24.825 -9.436)" fill="#e0e0e0"/>
            <path id="Trazado_805543" data-name="Trazado 805543" d="M133.752,36.781c-.039,0-.04-.272-.175-.726a3.05,3.05,0,0,0-1.123-1.583,2.873,2.873,0,1,0,0,4.618,3.055,3.055,0,0,0,1.123-1.584c.135-.454.136-.727.175-.725a1.539,1.539,0,0,1-.016.766,3.047,3.047,0,0,1-1.1,1.781,3.192,3.192,0,0,1-3.045.5,3.236,3.236,0,0,1,0-6.1,3.19,3.19,0,0,1,3.045.5,3.043,3.043,0,0,1,1.1,1.781,1.539,1.539,0,0,1,.016.766" transform="translate(-24.181 -6.366)" fill="#e0e0e0"/>
            <path id="Trazado_805544" data-name="Trazado 805544" d="M153.941,49.32a1.832,1.832,0,0,1-.293.61,2.7,2.7,0,0,1-1.4,1.235,1.518,1.518,0,0,1-1.347-.194,1.135,1.135,0,0,1-.288-1.54.889.889,0,0,1,.382-.314.584.584,0,0,1,.569.069,1.091,1.091,0,0,1,.344.91,2.647,2.647,0,0,1-.673,1.7,2.074,2.074,0,0,1-.78.56,1.288,1.288,0,0,1-.979,0,1.65,1.65,0,0,1-.949-1.445,2.864,2.864,0,0,1,.354-1.506.526.526,0,0,1,.4-.253.482.482,0,0,1,.406.23,1.567,1.567,0,0,1,.206.642,2.082,2.082,0,0,1-.647,1.749c-.336.306-.6.346-.6.328-.018-.035.211-.128.484-.442a1.99,1.99,0,0,0,.469-1.594,1.33,1.33,0,0,0-.176-.5c-.107-.116-.143-.113-.253.03a2.626,2.626,0,0,0-.255,1.283,1.261,1.261,0,0,0,.717,1.091,1.2,1.2,0,0,0,1.287-.464,2.266,2.266,0,0,0,.574-1.424.738.738,0,0,0-.175-.577c-.087-.087-.272-.014-.389.148a.771.771,0,0,0,.18,1.035,1.216,1.216,0,0,0,1.052.187,2.716,2.716,0,0,0,1.353-1.041c.259-.339.4-.534.429-.517" transform="translate(-28.183 -9.312)" fill="#e0e0e0"/>
            <path id="Trazado_805545" data-name="Trazado 805545" d="M175.4,102.06l-29.225,12.984-.7-22.267,29.195-13.8Z" transform="translate(-27.607 -14.987)" fill="#ebebeb"/>
            <path id="Trazado_805546" data-name="Trazado 805546" d="M353.975,78.251a8.829,8.829,0,0,1-1.3-1.077l-3.409-3.059c-1.443-1.285-3.166-2.812-5.128-4.442-.982-.813-2.024-1.652-3.136-2.474-.558-.4-1.132-.809-1.731-1.18a5.072,5.072,0,0,0-1.833-.8,4.2,4.2,0,0,0-1.783.819c-.583.395-1.142.818-1.68,1.251-1.076.865-2.078,1.754-3.024,2.61-1.887,1.717-3.54,3.319-4.923,4.669l-3.268,3.209a8.855,8.855,0,0,1-1.246,1.133,8.029,8.029,0,0,1,1.064-1.307c.72-.81,1.781-1.963,3.124-3.358s2.969-3.034,4.845-4.785c.94-.873,1.94-1.777,3.029-2.663.544-.443,1.112-.88,1.719-1.292a4.5,4.5,0,0,1,2.159-.932,5.348,5.348,0,0,1,2.154.9c.622.387,1.2.8,1.771,1.218,1.122.841,2.164,1.7,3.142,2.527,1.952,1.665,3.648,3.23,5.054,4.562s2.517,2.438,3.273,3.215a7.993,7.993,0,0,1,1.121,1.258" transform="translate(-61.011 -12.253)" fill="#e0e0e0"/>
            <path id="Trazado_805547" data-name="Trazado 805547" d="M300.118,81.315l1.008,49.639,64.73-1.314.238-49.664Z" transform="translate(-56.95 -15.176)" fill="#ebebeb"/>
            <path id="Trazado_805548" data-name="Trazado 805548" d="M303.042,85.315l.882,43.435,58.707-1.192.585-43.465Z" transform="translate(-57.505 -15.957)" fill="#fafafa"/>
            <path id="Trazado_805549" data-name="Trazado 805549" d="M316.279,94.531l-.513,28.846,41.034-.833-.585-28.824Z" transform="translate(-59.92 -17.784)" fill="#ebebeb"/>
            <path id="Trazado_805550" data-name="Trazado 805550" d="M351.609,103.815c0,.179-6.346.324-14.172.324s-14.173-.145-14.173-.324,6.344-.324,14.173-.324,14.172.145,14.172.324" transform="translate(-61.342 -19.638)" fill="#e0e0e0"/>
            <path id="Trazado_805551" data-name="Trazado 805551" d="M351.609,109.347c0,.179-6.346.323-14.172.323s-14.173-.144-14.173-.323,6.344-.324,14.173-.324,14.172.145,14.172.324" transform="translate(-61.342 -20.688)" fill="#e0e0e0"/>
            <path id="Trazado_805552" data-name="Trazado 805552" d="M351.609,114.878c0,.179-6.346.324-14.172.324s-14.173-.145-14.173-.324,6.344-.323,14.173-.323,14.172.144,14.172.323" transform="translate(-61.342 -21.738)" fill="#e0e0e0"/>
            <path id="Trazado_805553" data-name="Trazado 805553" d="M333.345,120.41c0,.179-2.257.324-5.04.324s-5.04-.145-5.04-.324,2.257-.324,5.04-.324,5.04.145,5.04.324" transform="translate(-61.342 -22.787)" fill="#e0e0e0"/>
            <path id="Trazado_805554" data-name="Trazado 805554" d="M327.76,100.214c-.059,0-.062-.417-.269-1.114a4.681,4.681,0,0,0-1.722-2.43,4.41,4.41,0,1,0,0,7.088,4.683,4.683,0,0,0,1.721-2.43c.207-.7.21-1.116.269-1.114a2.338,2.338,0,0,1-.024,1.176,4.671,4.671,0,0,1-1.688,2.733,4.9,4.9,0,0,1-4.674.775,4.967,4.967,0,0,1,0-9.367,4.9,4.9,0,0,1,4.673.775,4.668,4.668,0,0,1,1.689,2.734,2.334,2.334,0,0,1,.024,1.175" transform="translate(-60.355 -18.075)" fill="#e0e0e0"/>
            <path id="Trazado_805555" data-name="Trazado 805555" d="M358.749,119.46a2.816,2.816,0,0,1-.449.937,4.134,4.134,0,0,1-2.157,1.9,2.329,2.329,0,0,1-2.067-.3,1.743,1.743,0,0,1-.441-2.364,1.351,1.351,0,0,1,.585-.48.892.892,0,0,1,.873.106,1.677,1.677,0,0,1,.53,1.4,4.052,4.052,0,0,1-1.035,2.6,3.2,3.2,0,0,1-1.2.86,1.984,1.984,0,0,1-1.5.007,2.53,2.53,0,0,1-1.457-2.218,4.384,4.384,0,0,1,.543-2.312.81.81,0,0,1,.618-.388.737.737,0,0,1,.623.354,2.393,2.393,0,0,1,.316.984,3.2,3.2,0,0,1-.993,2.686c-.516.469-.917.529-.922.5-.028-.053.324-.2.741-.679a3.056,3.056,0,0,0,.72-2.446,2.049,2.049,0,0,0-.271-.76c-.164-.178-.219-.174-.387.045a4.055,4.055,0,0,0-.393,1.971,1.936,1.936,0,0,0,1.1,1.674,1.836,1.836,0,0,0,1.975-.713,3.461,3.461,0,0,0,.881-2.185,1.122,1.122,0,0,0-.267-.886c-.132-.134-.417-.021-.6.226a1.186,1.186,0,0,0,.278,1.591,1.868,1.868,0,0,0,1.616.288,4.173,4.173,0,0,0,2.076-1.6c.4-.52.617-.819.657-.793" transform="translate(-66.498 -22.596)" fill="#e0e0e0"/>
          </g>
        </g>
        <g id="Grupo_1066942" data-name="Grupo 1066942">
          <g id="Grupo_1066941" data-name="Grupo 1066941" clip-path="url(#clip-path)">
            <path id="Trazado_805556" data-name="Trazado 805556" d="M278.994,410.409c0,.117-62.46.211-139.49.211-77.057,0-139.5-.094-139.5-.211s62.447-.211,139.5-.211c77.03,0,139.49.094,139.49.211" transform="translate(0 -77.839)" fill="#263238"/>
          </g>
        </g>
        <g id="Grupo_1066944" data-name="Grupo 1066944">
          <g id="Grupo_1066943" data-name="Grupo 1066943" clip-path="url(#clip-path)">
            <path id="Trazado_805557" data-name="Trazado 805557" d="M261.482,335c-13.68-8.956-17.154-26.1-17-41.589.025-2.586-.328-5.3.861-7.6s4.057-3.915,6.427-2.883c1.966.856,2.868,3.068,4,4.889a15.248,15.248,0,0,0,6.28,5.64c1.688.813,3.763,1.286,5.386.351,2.228-1.283,2.419-4.368,2.339-6.938l-.442-14.364a23.613,23.613,0,0,1,.6-7.65,8.006,8.006,0,0,1,4.943-5.51c2.46-.744,5.557.592,6.142,3.094a23.315,23.315,0,0,1,.152,3.2,2.706,2.706,0,0,0,1.666,2.505c1.045.276,2.069-.478,2.83-1.248,2.623-2.658,4.365-6.044,5.987-9.409s3.193-6.805,5.562-9.694,5.687-5.211,9.409-5.509,7.752,1.88,8.783,5.469-1.018,7.325-3.276,10.314a57.743,57.743,0,0,1-11.821,11.672,4.743,4.743,0,0,0-1.971,2.2c-.523,1.726,1.164,3.389,2.89,3.911,1.957.591,4.058.342,6.093.529s4.257,1.018,5.072,2.893c1.13,2.6-1.028,5.407-3.174,7.262a49.943,49.943,0,0,1-14.528,8.746,16.877,16.877,0,0,0-5.41,2.757c-1.512,1.365-2.387,3.7-1.411,5.484s3.388,2.312,5.384,1.9,3.767-1.532,5.661-2.29c3.545-1.419,8.171-1.285,10.538,1.711a8.045,8.045,0,0,1,1.052,7.17,18.684,18.684,0,0,1-3.79,6.444A50.043,50.043,0,0,1,285.7,333.793c-8.23,3.038-15.9,3.991-24.223,1.211" transform="translate(-46.387 -45.972)" fill="#c6e8a5"/>
            <path id="Trazado_805558" data-name="Trazado 805558" d="M315.522,244.808s-.08.088-.25.247l-.76.694c-.669.61-1.655,1.509-2.892,2.7a96.557,96.557,0,0,0-9.7,10.823c-1.881,2.427-3.83,5.172-5.869,8.154s-4.182,6.194-6.316,9.649a115.348,115.348,0,0,0-6.159,11.138c-.956,1.989-1.8,4.067-2.663,6.185s-1.726,4.265-2.607,6.437a233.082,233.082,0,0,0-8.669,24.955,113.3,113.3,0,0,0-3.815,21.2,82.742,82.742,0,0,0,.127,14.523c.181,1.708.349,3.031.5,3.924.063.433.113.772.15,1.018.032.23.037.349.037.349s-.431-1.857-.834-5.275a79.671,79.671,0,0,1-.25-14.558,111.786,111.786,0,0,1,3.742-21.27,229.129,229.129,0,0,1,8.654-25l2.611-6.44c.86-2.112,1.713-4.205,2.676-6.2a114.8,114.8,0,0,1,6.2-11.162c2.146-3.457,4.31-6.661,6.356-9.643s4.017-5.718,5.916-8.14a92.3,92.3,0,0,1,9.81-10.764c1.254-1.177,2.257-2.06,2.944-2.65l.784-.667c.178-.148.276-.217.276-.217" transform="translate(-50.35 -46.455)" fill="#263238"/>
            <path id="Trazado_805559" data-name="Trazado 805559" d="M286.493,291.531a6.276,6.276,0,0,1-.264-1.094c-.148-.707-.332-1.737-.543-3.012-.423-2.551-.891-6.092-1.4-10s-1.035-7.432-1.512-9.968c-.235-1.268-.437-2.293-.588-3a6.082,6.082,0,0,1-.189-1.108,6.385,6.385,0,0,1,.335,1.073c.2.7.441,1.715.711,2.98.549,2.529,1.121,6.059,1.629,9.97.5,3.874.946,7.378,1.283,10.008.169,1.225.312,2.242.421,3.029a6.117,6.117,0,0,1,.115,1.118" transform="translate(-53.511 -49.974)" fill="#263238"/>
            <path id="Trazado_805560" data-name="Trazado 805560" d="M320.868,289.52a1.186,1.186,0,0,1-.343.064l-.989.109c-.858.09-2.1.217-3.629.425-3.058.391-7.265,1.086-11.871,2.056s-8.734,2.046-11.7,2.907c-1.484.421-2.676.793-3.5,1.048l-.952.289a1.138,1.138,0,0,1-.341.075,1.272,1.272,0,0,1,.316-.15l.929-.357c.81-.3,1.992-.713,3.469-1.168,2.949-.929,7.079-2.042,11.7-3.023s8.843-1.626,11.919-1.949c1.536-.173,2.785-.26,3.649-.3l.995-.036a1.145,1.145,0,0,1,.349.015" transform="translate(-54.565 -54.936)" fill="#263238"/>
            <path id="Trazado_805561" data-name="Trazado 805561" d="M266.473,334.079a2.039,2.039,0,0,1-.231-.4c-.155-.308-.352-.7-.594-1.185-.514-1.031-1.219-2.539-2.068-4.414-1.7-3.748-3.889-9-6.231-14.821s-4.489-11.084-6.122-14.857c-.81-1.85-1.472-3.362-1.953-4.462-.217-.5-.391-.9-.528-1.214a2.118,2.118,0,0,1-.16-.435,2.09,2.09,0,0,1,.231.4l.594,1.185c.514,1.03,1.218,2.539,2.067,4.414,1.7,3.748,3.89,9,6.232,14.823s4.489,11.082,6.122,14.855c.809,1.849,1.472,3.362,1.953,4.461.216.5.391.9.528,1.215a2.1,2.1,0,0,1,.16.434" transform="translate(-47.171 -55.465)" fill="#263238"/>
            <path id="Trazado_805562" data-name="Trazado 805562" d="M314.8,325.093a2.224,2.224,0,0,1-.44.182l-1.284.449-4.73,1.624c-3.992,1.376-9.484,3.344-15.545,5.532S281.222,337,277.2,338.309c-2.009.656-3.638,1.172-4.772,1.506l-1.306.382a2.2,2.2,0,0,1-.463.106,2.235,2.235,0,0,1,.44-.181l1.283-.45,4.73-1.623c3.993-1.375,9.484-3.345,15.548-5.534s11.572-4.117,15.588-5.427c2.009-.655,3.64-1.171,4.772-1.507l1.307-.38a2.138,2.138,0,0,1,.463-.108" transform="translate(-51.361 -61.689)" fill="#263238"/>
          </g>
        </g>
        <path id="Trazado_805563" data-name="Trazado 805563" d="M173.809,364.816h77.2V172.584l-75.471-2.657Z" transform="translate(-32.982 -32.245)" fill="#455a64"/>
        <path id="Trazado_805564" data-name="Trazado 805564" d="M178.937,209.9v27.318H215.5V211.188Z" transform="translate(-33.955 -39.83)" fill="#263238"/>
        <path id="Trazado_805565" data-name="Trazado 805565" d="M226.428,365.159h34.565V172.927l-33.882-1.193Z" transform="translate(-42.967 -32.588)" fill="#263238"/>
        <path id="Trazado_805566" data-name="Trazado 805566" d="M178.937,172.894v27.318H215.5V174.185Z" transform="translate(-33.955 -32.808)" fill="#263238"/>
        <path id="Trazado_805567" data-name="Trazado 805567" d="M194.5,182.083v4.035h11.188v-4.4Z" transform="translate(-36.907 -34.482)" fill="#263238"/>
        <rect id="Rectángulo_374966" data-name="Rectángulo 374966" width="11.554" height="1.65" transform="translate(157.589 155.028)" fill="#263238"/>
        <g id="Grupo_1066949" data-name="Grupo 1066949">
          <g id="Grupo_1066948" data-name="Grupo 1066948" clip-path="url(#clip-path)">
            <g id="Grupo_1066947" data-name="Grupo 1066947" transform="translate(157.589 147.234)" opacity="0.4">
              <g id="Grupo_1066946" data-name="Grupo 1066946">
                <g id="Grupo_1066945" data-name="Grupo 1066945" clip-path="url(#clip-path-6)">
                  <path id="Trazado_805568" data-name="Trazado 805568" d="M194.5,182.083v4.035h11.188v-4.4Z" transform="translate(-194.496 -181.716)"/>
                  <rect id="Rectángulo_374967" data-name="Rectángulo 374967" width="11.554" height="1.65" transform="translate(0 7.795)"/>
                </g>
              </g>
            </g>
          </g>
        </g>
        <path id="Trazado_805569" data-name="Trazado 805569" d="M178.937,291.041v27.318H215.5V292.333Z" transform="translate(-33.955 -55.228)" fill="#263238"/>
        <path id="Trazado_805570" data-name="Trazado 805570" d="M194.5,300.231v4.035h11.188v-4.4Z" transform="translate(-36.907 -56.902)" fill="#263238"/>
        <rect id="Rectángulo_374970" data-name="Rectángulo 374970" width="11.554" height="1.65" transform="translate(157.589 250.757)" fill="#263238"/>
        <g id="Grupo_1066954" data-name="Grupo 1066954">
          <g id="Grupo_1066953" data-name="Grupo 1066953" clip-path="url(#clip-path)">
            <g id="Grupo_1066952" data-name="Grupo 1066952" transform="translate(157.589 242.962)" opacity="0.4">
              <g id="Grupo_1066951" data-name="Grupo 1066951">
                <g id="Grupo_1066950" data-name="Grupo 1066950" clip-path="url(#clip-path-8)">
                  <path id="Trazado_805571" data-name="Trazado 805571" d="M194.5,300.231v4.035h11.188v-4.4Z" transform="translate(-194.496 -299.864)"/>
                  <rect id="Rectángulo_374971" data-name="Rectángulo 374971" width="11.554" height="1.65" transform="translate(0 7.795)"/>
                </g>
              </g>
            </g>
          </g>
        </g>
        <path id="Trazado_805572" data-name="Trazado 805572" d="M178.937,329.042V356.36H215.5V330.333Z" transform="translate(-33.955 -62.439)" fill="#263238"/>
        <path id="Trazado_805573" data-name="Trazado 805573" d="M194.5,338.232v4.034h11.188v-4.4Z" transform="translate(-36.907 -64.113)" fill="#263238"/>
        <rect id="Rectángulo_374974" data-name="Rectángulo 374974" width="11.554" height="1.65" transform="translate(157.589 281.546)" fill="#263238"/>
        <g id="Grupo_1066959" data-name="Grupo 1066959">
          <g id="Grupo_1066958" data-name="Grupo 1066958" clip-path="url(#clip-path)">
            <g id="Grupo_1066957" data-name="Grupo 1066957" transform="translate(157.589 273.752)" opacity="0.4">
              <g id="Grupo_1066956" data-name="Grupo 1066956">
                <g id="Grupo_1066955" data-name="Grupo 1066955" clip-path="url(#clip-path-6)">
                  <path id="Trazado_805574" data-name="Trazado 805574" d="M194.5,338.232v4.034h11.188v-4.4Z" transform="translate(-194.496 -337.865)"/>
                  <rect id="Rectángulo_374975" data-name="Rectángulo 374975" width="11.554" height="1.65" transform="translate(0 7.795)"/>
                </g>
              </g>
            </g>
          </g>
        </g>
        <path id="Trazado_805575" data-name="Trazado 805575" d="M178.451,367.042V394.36h36.567V368.333Z" transform="translate(-33.863 -69.65)" fill="#263238"/>
        <path id="Trazado_805576" data-name="Trazado 805576" d="M194.009,376.232v4.034H205.2v-4.4Z" transform="translate(-36.815 -71.324)" fill="#263238"/>
        <rect id="Rectángulo_374978" data-name="Rectángulo 374978" width="11.555" height="1.65" transform="translate(157.194 312.336)" fill="#263238"/>
        <g id="Grupo_1066964" data-name="Grupo 1066964">
          <g id="Grupo_1066963" data-name="Grupo 1066963" clip-path="url(#clip-path)">
            <g id="Grupo_1066962" data-name="Grupo 1066962" transform="translate(157.194 304.541)" opacity="0.4">
              <g id="Grupo_1066961" data-name="Grupo 1066961">
                <g id="Grupo_1066960" data-name="Grupo 1066960" clip-path="url(#clip-path-12)">
                  <path id="Trazado_805577" data-name="Trazado 805577" d="M194.009,376.232v4.034H205.2v-4.4Z" transform="translate(-194.009 -375.865)"/>
                  <rect id="Rectángulo_374979" data-name="Rectángulo 374979" width="11.555" height="1.65" transform="translate(0 7.795)"/>
                </g>
              </g>
            </g>
          </g>
        </g>
        <rect id="Rectángulo_374982" data-name="Rectángulo 374982" width="36.567" height="27.318" transform="translate(107.717 202.269)" fill="#455a64"/>
        <path id="Trazado_805578" data-name="Trazado 805578" d="M148.808,264.756v3.794h10.516v-4.138Z" transform="translate(-28.238 -50.174)" fill="#263238"/>
        <rect id="Rectángulo_374983" data-name="Rectángulo 374983" width="10.861" height="1.552" transform="translate(120.57 221.563)" fill="#263238"/>
        <g id="Grupo_1066969" data-name="Grupo 1066969">
          <g id="Grupo_1066968" data-name="Grupo 1066968" clip-path="url(#clip-path)">
            <g id="Grupo_1066967" data-name="Grupo 1066967" transform="translate(120.57 214.237)" opacity="0.4">
              <g id="Grupo_1066966" data-name="Grupo 1066966">
                <g id="Grupo_1066965" data-name="Grupo 1066965" clip-path="url(#clip-path-14)">
                  <path id="Trazado_805579" data-name="Trazado 805579" d="M148.808,264.756v3.794h10.516v-4.138Z" transform="translate(-148.808 -264.411)"/>
                  <rect id="Rectángulo_374984" data-name="Rectángulo 374984" width="10.861" height="1.552" transform="translate(0 7.326)"/>
                </g>
              </g>
            </g>
          </g>
        </g>
        <path id="Trazado_805580" data-name="Trazado 805580" d="M178.076,249.579l36.043-.265-.656,27.583H178.076Z" transform="translate(-33.792 -47.31)" fill="#263238"/>
        <g id="Grupo_1066974" data-name="Grupo 1066974">
          <g id="Grupo_1066973" data-name="Grupo 1066973" clip-path="url(#clip-path)">
            <g id="Grupo_1066972" data-name="Grupo 1066972" transform="translate(144.284 202.004)" opacity="0.4">
              <g id="Grupo_1066971" data-name="Grupo 1066971">
                <g id="Grupo_1066970" data-name="Grupo 1066970" clip-path="url(#clip-path-16)">
                  <path id="Trazado_805581" data-name="Trazado 805581" d="M178.076,249.579l36.043-.265-.656,27.583H178.076Z" transform="translate(-178.076 -249.314)"/>
                </g>
              </g>
            </g>
          </g>
        </g>
        <rect id="Rectángulo_374989" data-name="Rectángulo 374989" width="36.044" height="24.537" transform="translate(143.007 177.467)" fill="#fafafa"/>
        <g id="Grupo_1066979" data-name="Grupo 1066979">
          <g id="Grupo_1066978" data-name="Grupo 1066978" clip-path="url(#clip-path)">
            <path id="Trazado_805582" data-name="Trazado 805582" d="M165.715,223.2l1.817,20.849,42.965-.218-2.571-20.411a2.422,2.422,0,0,0-2.717-2.074l-17.333,1.51-2.952-2.188a1.349,1.349,0,0,0-.919-.251l-17.117,1.509a1.228,1.228,0,0,0-1.172,1.273" transform="translate(-31.445 -41.825)" fill="#263238"/>
            <path id="Trazado_805583" data-name="Trazado 805583" d="M165.715,223.2l1.817,20.849,42.965-.218-2.571-20.411a2.422,2.422,0,0,0-2.717-2.074l-17.333,1.51-2.952-2.188a1.349,1.349,0,0,0-.919-.251l-17.117,1.509a1.228,1.228,0,0,0-1.172,1.273" transform="translate(-31.445 -41.825)" fill="#3b5620"/>
            <path id="Trazado_805584" data-name="Trazado 805584" d="M150.29,241l-.9-5.429,39.726-2.624,3.49,13.472-41.527-.208Z" transform="translate(-28.348 -44.203)" fill="#fafafa"/>
            <path id="Trazado_805585" data-name="Trazado 805585" d="M144.242,238.969l.7,8.071h42.5l-.988-7.85a2.422,2.422,0,0,0-2.717-2.074l-17.334,1.51-2.951-2.188a1.349,1.349,0,0,0-.919-.251L145.414,237.7a1.228,1.228,0,0,0-1.172,1.273" transform="translate(-27.37 -44.818)" fill="#e8505b"/>
            <g id="Grupo_1066977" data-name="Grupo 1066977" transform="translate(116.868 191.364)" opacity="0.7">
              <g id="Grupo_1066976" data-name="Grupo 1066976">
                <g id="Grupo_1066975" data-name="Grupo 1066975" clip-path="url(#clip-path-18)">
                  <path id="Trazado_805586" data-name="Trazado 805586" d="M144.242,238.969l.7,8.071h42.5l-.988-7.85a2.422,2.422,0,0,0-2.717-2.074l-17.334,1.51-2.951-2.188a1.349,1.349,0,0,0-.919-.251L145.414,237.7a1.228,1.228,0,0,0-1.172,1.273" transform="translate(-144.238 -236.182)" fill="#fafafa"/>
                </g>
              </g>
            </g>
            <path id="Trazado_805587" data-name="Trazado 805587" d="M199.582,237.44h5.643a1.422,1.422,0,0,1,1.386,1.744l-1.829,7.869h-2.654Z" transform="translate(-37.873 -45.056)" fill="#263238"/>
          </g>
        </g>
        <g id="Grupo_1066990" data-name="Grupo 1066990">
          <g id="Grupo_1066989" data-name="Grupo 1066989" clip-path="url(#clip-path)">
            <path id="Trazado_805588" data-name="Trazado 805588" d="M284.15,98.7l-25.2,5.418a1.633,1.633,0,0,1-1.928-1.313l-3.41-17.043a1.691,1.691,0,0,1,1.266-2l25.2-5.418a1.634,1.634,0,0,1,1.929,1.313L285.417,96.7a1.691,1.691,0,0,1-1.266,2" transform="translate(-48.119 -14.86)" fill="#632059"/>
            <path id="Trazado_805589" data-name="Trazado 805589" d="M273.2,91.533l3.857,1.338-3.046,2.794-3.046,2.795-.811-4.131-.812-4.131Z" transform="translate(-51.111 -17.116)" fill="#fafafa"/>
            <path id="Trazado_805590" data-name="Trazado 805590" d="M224.694,80.474s.081-.117.254-.329.431-.532.752-.96a22.971,22.971,0,0,0,3.621-7.151c.349-1.181.63-2.5.978-3.907.68-2.816,1.454-6.02,2.308-9.559s1.8-7.42,2.811-11.582a26.808,26.808,0,0,1,.887-3.163,16.964,16.964,0,0,1,4.949-7.053l.043-.037.022-.019c.166.662.03.18.06.326l-.108-.027-.218-.053-.435-.106-.875-.213L225.06,33.056l-7.767-1.9-3.972-.971-2.006-.491-.126-.032-.063-.015c-.036,0,.207-.014.09,0l-.029.011-.238.092-.476.186c-.305.149-.626.273-.921.444a12.7,12.7,0,0,0-5.532,5.729,15.648,15.648,0,0,0-1.2,3.789q-.448,1.948-.89,3.865l-3.4,14.729q-.412,1.761-.813,3.478a25.527,25.527,0,0,1-1.086,3.322,26.17,26.17,0,0,1-3.266,5.813q-.481.65-1,1.256l-.128.152-.064.076c-.174-.553-.034-.15-.067-.271l.024.006.048.011.38.094.757.187,2.953.73,5.552,1.373,16.746,4.17,4.548,1.155,1.181.31c.266.072.4.12.4.12s-.14-.019-.409-.078l-1.19-.271-4.567-1.078L201.75,75.007l-5.558-1.347-2.957-.718-.757-.184-.381-.092-.048-.011-.023-.006c-.047-.127.07.275-.111-.285l.062-.075.125-.151q.506-.6.98-1.242a25.847,25.847,0,0,0,3.2-5.743,41.974,41.974,0,0,0,1.864-6.749c1.076-4.7,2.207-9.626,3.378-14.737q.44-1.917.888-3.866a15.973,15.973,0,0,1,1.228-3.875,13.108,13.108,0,0,1,5.712-5.92c.306-.176.636-.3.953-.459l.491-.192.246-.1.031-.011c-.1,0,.168-.015.151-.009l.063.015.126.031,2.006.492,3.972.973,7.765,1.9,14.679,3.608.874.216.435.107.216.053.109.027c.039.152-.049-.332.095.344l-.021.018-.041.036a17.057,17.057,0,0,0-1.279,1.2,16.872,16.872,0,0,0-2.109,2.7,17.056,17.056,0,0,0-1.472,2.987,26.847,26.847,0,0,0-.886,3.121c-1.027,4.157-1.985,8.032-2.86,11.57l-2.37,9.544c-.359,1.4-.649,2.716-1.014,3.91a22.86,22.86,0,0,1-1.254,3.162,21.979,21.979,0,0,1-2.491,3.982,14.322,14.322,0,0,1-1.074,1.237" transform="translate(-36.418 -5.548)" fill="#263238"/>
            <path id="Trazado_805591" data-name="Trazado 805591" d="M233.733,48.218a3.822,3.822,0,0,1-.908-.135c-.578-.115-1.409-.293-2.436-.523-2.052-.463-4.882-1.127-7.993-1.922s-5.913-1.579-7.928-2.184c-1.01-.3-1.821-.557-2.38-.744a3.872,3.872,0,0,1-.856-.331,3.892,3.892,0,0,1,.9.173l2.415.614,7.953,2.063,7.959,2.041,2.4.654a3.882,3.882,0,0,1,.869.295" transform="translate(-40.083 -8.04)" fill="#263238"/>
            <path id="Trazado_805592" data-name="Trazado 805592" d="M233.042,52.4a3.805,3.805,0,0,1-.907-.136c-.578-.114-1.41-.292-2.436-.523-2.052-.462-4.883-1.126-7.993-1.922s-5.914-1.579-7.929-2.184c-1.009-.3-1.821-.557-2.38-.744a3.829,3.829,0,0,1-.855-.331,3.789,3.789,0,0,1,.9.173l2.415.614,7.953,2.063,7.959,2.041,2.4.653a3.842,3.842,0,0,1,.869.3" transform="translate(-39.952 -8.835)" fill="#263238"/>
            <path id="Trazado_805593" data-name="Trazado 805593" d="M232.071,56.59a3.853,3.853,0,0,1-.907-.136c-.578-.114-1.41-.293-2.436-.523-2.052-.462-4.883-1.126-7.994-1.922s-5.913-1.579-7.928-2.184c-1.008-.3-1.821-.557-2.38-.744a3.87,3.87,0,0,1-.856-.331,3.845,3.845,0,0,1,.9.173l2.415.614,7.953,2.063,7.959,2.041,2.4.653a3.863,3.863,0,0,1,.869.3" transform="translate(-39.768 -9.629)" fill="#263238"/>
            <path id="Trazado_805594" data-name="Trazado 805594" d="M231.176,60.776a3.8,3.8,0,0,1-.907-.136c-.578-.113-1.41-.292-2.436-.523-2.052-.462-4.883-1.125-7.994-1.921s-5.912-1.579-7.928-2.184c-1.008-.3-1.821-.557-2.38-.744a3.821,3.821,0,0,1-.856-.331,3.893,3.893,0,0,1,.9.173l2.415.615,7.953,2.062,7.959,2.041,2.4.654a3.842,3.842,0,0,1,.869.295" transform="translate(-39.598 -10.423)" fill="#263238"/>
            <path id="Trazado_805595" data-name="Trazado 805595" d="M229.821,64.962a3.82,3.82,0,0,1-.907-.135c-.577-.114-1.41-.293-2.436-.523-2.053-.463-4.883-1.127-7.994-1.922s-5.913-1.579-7.929-2.184c-1.008-.3-1.821-.557-2.379-.744a3.759,3.759,0,0,1-.855-.331,3.9,3.9,0,0,1,.9.173l2.414.614,7.953,2.063,7.96,2.041,2.4.654a3.841,3.841,0,0,1,.869.295" transform="translate(-39.341 -11.218)" fill="#263238"/>
            <path id="Trazado_805596" data-name="Trazado 805596" d="M228.843,69.148a3.82,3.82,0,0,1-.907-.135c-.578-.115-1.411-.293-2.436-.523-2.053-.463-4.883-1.127-7.994-1.922s-5.913-1.58-7.929-2.184c-1.008-.3-1.821-.557-2.38-.744a3.827,3.827,0,0,1-.855-.331,3.9,3.9,0,0,1,.9.173l2.415.614,7.953,2.063,7.96,2.041,2.4.653a3.824,3.824,0,0,1,.868.3" transform="translate(-39.155 -12.012)" fill="#263238"/>
            <path id="Trazado_805597" data-name="Trazado 805597" d="M227.6,73.491a3.824,3.824,0,0,1-.907-.135c-.578-.114-1.41-.293-2.436-.524-2.052-.462-4.883-1.126-7.994-1.921s-5.912-1.579-7.928-2.184c-1.009-.3-1.821-.557-2.38-.744a3.9,3.9,0,0,1-.856-.331,3.8,3.8,0,0,1,.9.173l2.415.615,7.953,2.063,7.959,2.04,2.4.654a3.841,3.841,0,0,1,.869.295" transform="translate(-38.92 -12.836)" fill="#263238"/>
            <path id="Trazado_805598" data-name="Trazado 805598" d="M228.915,78.231a9.193,9.193,0,0,1-1.948-.318c-1.19-.252-2.828-.616-4.63-1.071-1.8-.472-3.4-.966-4.566-1.32a9.1,9.1,0,0,1-1.857-.665,9.2,9.2,0,0,1,1.936.378c1.183.28,2.807.731,4.592,1.2s3.423.865,4.595,1.19a9.18,9.18,0,0,1,1.877.608" transform="translate(-40.972 -14.203)" fill="#263238"/>
            <path id="Trazado_805599" data-name="Trazado 805599" d="M158.075,169.6l-27.686,10.87a129.718,129.718,0,0,0-12.726-38.57l17-7.313a12.374,12.374,0,0,1,16.529,7.208,135.681,135.681,0,0,1,6.88,27.805" transform="translate(-22.328 -25.348)" fill="#fafafa"/>
            <path id="Trazado_805600" data-name="Trazado 805600" d="M158.007,169.557s-.029-.123-.068-.351c-.041-.244-.1-.575-.165-1-.14-.87-.356-2.18-.66-3.848a140.607,140.607,0,0,0-3.342-14c-.437-1.457-.9-2.982-1.424-4.557s-1.05-3.239-1.745-4.862a12.113,12.113,0,0,0-3.264-4.337,12.583,12.583,0,0,0-5.149-2.563,12.18,12.18,0,0,0-6.032.167c-.5.126-.982.348-1.48.517l-1.479.638-3,1.294-12.518,5.39.105-.289c.218.442.455.919.693,1.4a134.7,134.7,0,0,1,7.837,19.412,125.729,125.729,0,0,1,4.178,17.829l-.235-.135,20.113-7.8,5.623-2.159,1.489-.561c.339-.126.525-.184.525-.184s-.156.076-.48.211l-1.447.591-5.56,2.231-20.136,8-.2.079-.036-.214a127.284,127.284,0,0,0-4.218-17.762,136.032,136.032,0,0,0-7.833-19.346l-.691-1.393-.1-.2.2-.088,12.522-5.381,3-1.289,1.48-.634c.513-.176,1.007-.4,1.528-.532a12.555,12.555,0,0,1,6.229-.157,12.948,12.948,0,0,1,5.3,2.657,12.449,12.449,0,0,1,3.342,4.478c.707,1.675,1.2,3.321,1.736,4.9s.973,3.113,1.4,4.575a131.153,131.153,0,0,1,3.219,14.05c.28,1.68.468,2.977.583,3.876.051.431.092.767.121,1.014a2.393,2.393,0,0,1,.029.335" transform="translate(-22.26 -25.305)" fill="#263238"/>
            <path id="Trazado_805601" data-name="Trazado 805601" d="M139.809,134.249s4.129,8.478,3.766,8.774c-.335.274,10.258-3.956,10.387-4.023,0,0-5.5-7.4-14.153-4.751" transform="translate(-26.53 -25.366)" fill="#263238"/>
            <path id="Trazado_805602" data-name="Trazado 805602" d="M136.1,148.486a20.659,20.659,0,0,1-3.745,1.812,20.559,20.559,0,0,1-3.909,1.423,20.692,20.692,0,0,1,3.745-1.812,20.7,20.7,0,0,1,3.909-1.423" transform="translate(-24.373 -28.174)" fill="#263238"/>
            <path id="Trazado_805603" data-name="Trazado 805603" d="M150.121,146.982c.049.106-4.44,2.282-10.025,4.861s-10.154,4.584-10.2,4.477,4.439-2.281,10.026-4.861,10.152-4.583,10.2-4.477" transform="translate(-24.648 -27.89)" fill="#263238"/>
            <path id="Trazado_805604" data-name="Trazado 805604" d="M152.421,153.13c.049.105-4.44,2.282-10.024,4.86s-10.155,4.584-10.2,4.478,4.439-2.282,10.026-4.861,10.153-4.584,10.2-4.477" transform="translate(-25.085 -29.057)" fill="#263238"/>
            <path id="Trazado_805605" data-name="Trazado 805605" d="M154.771,159.252c.049.105-4.44,2.282-10.024,4.861s-10.155,4.583-10.2,4.477,4.439-2.282,10.026-4.861,10.153-4.584,10.2-4.477" transform="translate(-25.531 -30.219)" fill="#263238"/>
            <path id="Trazado_805606" data-name="Trazado 805606" d="M149.871,170.6a10.634,10.634,0,0,1-1.881.991c-1.183.563-2.83,1.314-4.659,2.12-2.871,1.264-5.339,2.286-6.268,2.607l-.127.044.028-.121q.1-.442.143-.436c.024,0,.024.156,0,.459l-.1-.077c.864-.469,3.285-1.6,6.155-2.863,1.829-.805,3.495-1.513,4.709-2.006a10.723,10.723,0,0,1,2-.718" transform="translate(-25.985 -32.372)" fill="#263238"/>
            <path id="Trazado_805607" data-name="Trazado 805607" d="M303.976,164.906,273.247,151.6a25.785,25.785,0,0,0,7.372-9.958l8.973-21.544a12.876,12.876,0,0,1,9.62-7.571l28.5,12.343a16.694,16.694,0,0,0-6.928,7.8l-10.222,23.6a22.565,22.565,0,0,1-6.59,8.637" transform="translate(-51.851 -21.353)" fill="#e8505b"/>
            <g id="Grupo_1066982" data-name="Grupo 1066982" transform="translate(221.396 91.173)" opacity="0.7">
              <g id="Grupo_1066981" data-name="Grupo 1066981">
                <g id="Grupo_1066980" data-name="Grupo 1066980" clip-path="url(#clip-path-20)">
                  <path id="Trazado_805608" data-name="Trazado 805608" d="M303.976,164.906,273.247,151.6a25.785,25.785,0,0,0,7.372-9.958l8.973-21.544a12.876,12.876,0,0,1,9.62-7.571l28.5,12.343a16.694,16.694,0,0,0-6.928,7.8l-10.222,23.6a22.565,22.565,0,0,1-6.59,8.637" transform="translate(-273.247 -112.526)" fill="#fafafa"/>
                </g>
              </g>
            </g>
            <path id="Trazado_805609" data-name="Trazado 805609" d="M319.615,136.486c-.047.107-5.082-2-11.245-4.7s-11.124-4.978-11.077-5.085,5.081,2,11.246,4.7,11.123,4.977,11.076,5.084" transform="translate(-56.414 -24.042)" fill="#263238"/>
            <path id="Trazado_805610" data-name="Trazado 805610" d="M317.888,141.633c-.047.107-5.25-2.071-11.622-4.863s-11.5-5.143-11.453-5.25,5.25,2.071,11.623,4.863,11.5,5.143,11.452,5.25" transform="translate(-55.943 -24.956)" fill="#263238"/>
            <path id="Trazado_805611" data-name="Trazado 805611" d="M315.864,146.252c-.047.107-5.25-2.071-11.621-4.862s-11.5-5.143-11.454-5.25,5.25,2.069,11.623,4.863,11.5,5.142,11.452,5.249" transform="translate(-55.559 -25.833)" fill="#263238"/>
            <path id="Trazado_805612" data-name="Trazado 805612" d="M313.839,150.871c-.047.107-5.25-2.071-11.621-4.862s-11.5-5.143-11.454-5.25,5.25,2.069,11.623,4.863,11.5,5.142,11.452,5.249" transform="translate(-55.175 -26.71)" fill="#263238"/>
            <path id="Trazado_805613" data-name="Trazado 805613" d="M311.815,155.49c-.047.107-5.25-2.07-11.621-4.862s-11.5-5.143-11.454-5.25,5.25,2.07,11.623,4.863,11.5,5.143,11.452,5.249" transform="translate(-54.791 -27.586)" fill="#263238"/>
            <path id="Trazado_805614" data-name="Trazado 805614" d="M298.7,155.246a8.671,8.671,0,0,1-1.815-.632c-1.1-.44-2.607-1.075-4.261-1.8s-3.142-1.4-4.211-1.913a8.784,8.784,0,0,1-1.7-.906,8.686,8.686,0,0,1,1.815.632c1.1.441,2.606,1.075,4.261,1.8s3.141,1.4,4.211,1.913a8.775,8.775,0,0,1,1.7.905" transform="translate(-54.407 -28.462)" fill="#263238"/>
            <path id="Trazado_805615" data-name="Trazado 805615" d="M309.461,165.961c-.037-.015.088-.3.158-.827a3.439,3.439,0,0,0-.436-2.154,3.264,3.264,0,1,0-2.1,4.8,3.435,3.435,0,0,0,1.879-1.14c.344-.411.466-.694.5-.677a1.832,1.832,0,0,1-.371.778,3.433,3.433,0,0,1-1.939,1.329,3.58,3.58,0,0,1-3.352-.856,3.625,3.625,0,0,1,2.743-6.261,3.579,3.579,0,0,1,2.9,1.885,3.431,3.431,0,0,1,.337,2.326,1.833,1.833,0,0,1-.32.8" transform="translate(-57.432 -30.539)" fill="#263238"/>
            <rect id="Rectángulo_374993" data-name="Rectángulo 374993" width="1.401" height="9.719" transform="matrix(0.401, -0.916, 0.916, 0.401, 242.157, 99.744)" fill="#263238"/>
            <path id="Trazado_805616" data-name="Trazado 805616" d="M281.453,220.141l-33.174-.776,12.342-16.528h32.372Z" transform="translate(-47.113 -38.49)" fill="url(#linear-gradient)"/>
            <path id="Trazado_805617" data-name="Trazado 805617" d="M254.357,217.975l26.242.8-3.645-5.359-5.164,2.211-4.083-7.061Z" transform="translate(-48.267 -39.577)" fill="#e8505b"/>
            <path id="Trazado_805618" data-name="Trazado 805618" d="M280.591,208.105a1.7,1.7,0,1,1-1.7-1.7,1.7,1.7,0,0,1,1.7,1.7" transform="translate(-52.599 -39.167)" fill="#e8505b"/>
            <g id="Grupo_1066985" data-name="Grupo 1066985" transform="translate(206.09 167.238)" opacity="0.7">
              <g id="Grupo_1066984" data-name="Grupo 1066984">
                <g id="Grupo_1066983" data-name="Grupo 1066983" clip-path="url(#clip-path-21)">
                  <path id="Trazado_805619" data-name="Trazado 805619" d="M254.357,217.975l26.242.8-3.645-5.359-5.164,2.211-4.083-7.061Z" transform="translate(-254.357 -206.814)" fill="#fafafa"/>
                  <path id="Trazado_805620" data-name="Trazado 805620" d="M280.591,208.105a1.7,1.7,0,1,1-1.7-1.7,1.7,1.7,0,0,1,1.7,1.7" transform="translate(-258.69 -206.405)" fill="#fafafa"/>
                </g>
              </g>
            </g>
            <path id="Trazado_805621" data-name="Trazado 805621" d="M171.156,98.879l-29.225,12.984-.7-22.267L170.43,75.8Z" transform="translate(-26.801 -14.384)" fill="#e8505b"/>
            <g id="Grupo_1066988" data-name="Grupo 1066988" transform="translate(114.434 61.415)" opacity="0.7">
              <g id="Grupo_1066987" data-name="Grupo 1066987">
                <g id="Grupo_1066986" data-name="Grupo 1066986" clip-path="url(#clip-path-22)">
                  <path id="Trazado_805622" data-name="Trazado 805622" d="M171.156,98.879l-29.225,12.984-.7-22.267L170.43,75.8Z" transform="translate(-141.235 -75.799)" fill="#fafafa"/>
                </g>
              </g>
            </g>
            <path id="Trazado_805623" data-name="Trazado 805623" d="M143.693,111.4l26.52-12.363-8.619-5.008-3.315,5.835-9.733-4.674Z" transform="translate(-27.267 -17.844)" fill="#632059"/>
            <path id="Trazado_805624" data-name="Trazado 805624" d="M161.565,93.7a1.429,1.429,0,1,1-1.429-1.43,1.43,1.43,0,0,1,1.429,1.43" transform="translate(-30.116 -17.509)" fill="#632059"/>
            <path id="Trazado_805625" data-name="Trazado 805625" d="M150.307,89.807a19.041,19.041,0,0,0-.4-2.453,10.1,10.1,0,0,0-3.695-5.48,9.951,9.951,0,0,0-9.421-1.4,9.954,9.954,0,0,0-4.605,3.465,9.882,9.882,0,0,0,0,11.728,9.956,9.956,0,0,0,4.606,3.466,10.032,10.032,0,0,0,13.116-6.877,19.041,19.041,0,0,0,.4-2.453,3.654,3.654,0,0,1,.01.648,4.6,4.6,0,0,1-.059.785,7.022,7.022,0,0,1-.188,1.06,10.2,10.2,0,0,1-7.989,7.628,10.309,10.309,0,0,1-5.418-.425,10.315,10.315,0,0,1-4.807-3.587,10.264,10.264,0,0,1,0-12.218,10.32,10.32,0,0,1,4.807-3.586,10.3,10.3,0,0,1,5.417-.425,10.2,10.2,0,0,1,7.99,7.628,7.022,7.022,0,0,1,.188,1.06,4.6,4.6,0,0,1,.059.785,3.654,3.654,0,0,1-.01.648" transform="translate(-24.638 -15.087)" fill="#263238"/>
            <path id="Trazado_805626" data-name="Trazado 805626" d="M131.137,101.453c.078.087-2.917,2.868-6.686,6.21s-6.889,5.98-6.967,5.894,2.916-2.867,6.687-6.21,6.889-5.98,6.966-5.894" transform="translate(-22.293 -19.251)" fill="#263238"/>
          </g>
        </g>
        <g id="Grupo_1066992" data-name="Grupo 1066992">
          <g id="Grupo_1066991" data-name="Grupo 1066991" clip-path="url(#clip-path)">
            <path id="Trazado_805627" data-name="Trazado 805627" d="M52.025,149.411c-2.79-1.5-6.964-.581-8.658,2.1a9.871,9.871,0,0,0-1.083,6.279c.217,2.154.762,4.27.856,6.432a8.354,8.354,0,0,1-.463,3.44,4.361,4.361,0,0,1-2.318,2.489c-1.664.668-3.74.022-5.223,1.031a3.118,3.118,0,0,0-.463,4.425,3.865,3.865,0,0,0,4.588.773c-1.56,1.453-1.268,4.247.313,5.677a5.88,5.88,0,0,0,6.014.8,11.333,11.333,0,0,0,4.8-4.094,25.576,25.576,0,0,0,4.537-14.982,34.2,34.2,0,0,0-3.194-14.462" transform="translate(-6.445 -28.216)" fill="#263238"/>
            <path id="Trazado_805628" data-name="Trazado 805628" d="M154,205.774c-.937-1.506-7.4,2.094-7.972,2.358-.553.257-.971-.549-.444-.761.758-.3,8.637-3.686,7.731-5.174-.5-.826-1.9.215-1.9.215s-7.139,3.708-7.543,2.991,3.708-3.046,5.152-3.729c1.426-.676,1.685-1.629.861-2.013-.561-.261-5.033,1.728-6.445,2.437s-5.251,2.724-4.166.192.963-4.888.488-5.5a.862.862,0,0,0-1.482.679,10.021,10.021,0,0,1-.588,2.714,6.547,6.547,0,0,1-1.034,1.973c-.532.691-1.01,1.255-1.428,1.725-4.122,1.441-15.878,5.085-26.864,4.081-.4-.036-.973-.812-1.642-2.03l-14.9,4.793q.839,1.733,1.824,3.7c8.31,16.61,46.842-.621,46.842-.621l-.014-.039a82.235,82.235,0,0,0,8.6-2.2c3.858-1.391,3.738-1.74,3.5-2.161-.643-1.132-6.878,2.192-5.952.7s8.1-3.179,7.381-4.335" transform="translate(-17.425 -37.288)" fill="#eb996e"/>
            <path id="Trazado_805629" data-name="Trazado 805629" d="M103.869,214.408,130.844,203.9l16.655,9.821-29.5,10.532Z" transform="translate(-19.71 -38.691)" fill="#263238"/>
            <path id="Trazado_805630" data-name="Trazado 805630" d="M138.107,204.293l2.568-.689A64.871,64.871,0,0,1,154,213.662l-.757-.446Z" transform="translate(-26.207 -38.636)" fill="#fafafa"/>
            <path id="Trazado_805631" data-name="Trazado 805631" d="M154.529,213.662a16.376,16.376,0,0,1-1.978-1.5c-1.2-.958-2.852-2.272-4.722-3.671s-3.6-2.607-4.876-3.46a18.5,18.5,0,0,1-2.035-1.423,12.027,12.027,0,0,1,2.2,1.171c1.317.793,3.088,1.97,4.967,3.374s3.512,2.762,4.662,3.781a13.066,13.066,0,0,1,1.786,1.732" transform="translate(-26.74 -38.635)" fill="#263238"/>
            <path id="Trazado_805632" data-name="Trazado 805632" d="M88.219,231.386l-1.178-24.314-.083-1.022L99.788,200.1l-4.1-10.037c-4.486-16.937-20.625-17.166-20.625-17.166L62.76,171.689l-5.549,1.206s-10.284,1.775-10.669,16.431A57.27,57.27,0,0,0,52.1,215.17l3.768-1.966a11.961,11.961,0,0,1-2.08,6.686,21.68,21.68,0,0,0-3.316,7.6Z" transform="translate(-8.828 -32.58)" fill="#3b5620"/>
            <path id="Trazado_805633" data-name="Trazado 805633" d="M63.363,189.565c.069,0,.163,1.2.45,3.127a48.187,48.187,0,0,0,4.528,14.444c.863,1.745,1.474,2.789,1.415,2.825a3.3,3.3,0,0,1-.5-.689c-.3-.455-.709-1.138-1.178-2a40.368,40.368,0,0,1-4.558-14.541c-.107-.975-.164-1.766-.174-2.314a3.291,3.291,0,0,1,.019-.852" transform="translate(-12.019 -35.972)" fill="#263238"/>
            <path id="Trazado_805634" data-name="Trazado 805634" d="M93.854,204.553a6.588,6.588,0,0,0,2.263-1.62,4.193,4.193,0,0,0,.991-2.743,3.647,3.647,0,0,0-1.59-3.064,3.417,3.417,0,0,0-2.614-.508l-.2.05-.041-.2c-.4-1.953-.722-3.636-.937-4.834a10.778,10.778,0,0,1-.275-1.919,10.735,10.735,0,0,1,.521,1.868c.284,1.184.663,2.855,1.086,4.8l-.246-.152a3.767,3.767,0,0,1,2.943.545A4,4,0,0,1,97.5,200.19a4.405,4.405,0,0,1-1.155,2.938,4.876,4.876,0,0,1-1.736,1.228,1.85,1.85,0,0,1-.752.2" transform="translate(-17.351 -36)" fill="#263238"/>
            <path id="Trazado_805635" data-name="Trazado 805635" d="M96.7,218.034a27.268,27.268,0,0,1-.651-5.134c-.221-2.841-.579-5.12-.463-5.144a19.507,19.507,0,0,1,.883,5.108,38.579,38.579,0,0,1,.231,5.171" transform="translate(-18.135 -39.423)" fill="#263238"/>
            <path id="Trazado_805636" data-name="Trazado 805636" d="M109.346,206.876a9.672,9.672,0,0,1-1.792,1.051c-1.135.595-2.726,1.376-4.508,2.179s-3.422,1.477-4.62,1.932a9.637,9.637,0,0,1-1.975.647,10.711,10.711,0,0,1,1.86-.922l4.561-2.04,4.55-2.063a10.779,10.779,0,0,1,1.924-.783" transform="translate(-18.302 -39.255)" fill="#263238"/>
            <path id="Trazado_805637" data-name="Trazado 805637" d="M53.12,191.572a12.14,12.14,0,0,1,.361-4.5,12.182,12.182,0,0,1-.361,4.5" transform="translate(-10.062 -35.499)" fill="#fafafa"/>
            <path id="Trazado_805638" data-name="Trazado 805638" d="M53.83,198.493a4.278,4.278,0,0,1-1.8-.5c-.951-.384-1.686-.782-1.642-.89a4.263,4.263,0,0,1,1.8.5c.95.383,1.686.781,1.642.89" transform="translate(-9.561 -37.397)" fill="#fafafa"/>
            <path id="Trazado_805639" data-name="Trazado 805639" d="M60.145,195.1a2.61,2.61,0,0,1-.169-1.668c.1-.929.414-1.629.522-1.594s-.01.754-.1,1.639-.13,1.613-.25,1.623" transform="translate(-11.375 -36.402)" fill="#fafafa"/>
            <path id="Trazado_805640" data-name="Trazado 805640" d="M59.274,205.4a2.671,2.671,0,0,1,.318-1.893c.45-.993,1.151-1.561,1.223-1.478.09.083-.427.737-.84,1.654a13.662,13.662,0,0,1-.7,1.717" transform="translate(-11.235 -38.336)" fill="#fafafa"/>
            <path id="Trazado_805641" data-name="Trazado 805641" d="M56.508,211.385a8.559,8.559,0,0,1-1.8-1.018,8.53,8.53,0,0,1-1.749-1.1,3.847,3.847,0,0,1,1.966.734c1,.6,1.656,1.3,1.581,1.38" transform="translate(-10.05 -39.707)" fill="#fafafa"/>
            <path id="Trazado_805642" data-name="Trazado 805642" d="M65.4,210.717a9.556,9.556,0,0,1-.679,2.046,9.594,9.594,0,0,1-.751,2.022,6.251,6.251,0,0,1,1.43-4.067" transform="translate(-12.13 -39.985)" fill="#fafafa"/>
            <path id="Trazado_805643" data-name="Trazado 805643" d="M56.577,218.007a3.562,3.562,0,0,1-1.68-.268c-.9-.26-1.6-.562-1.564-.673a3.565,3.565,0,0,1,1.681.268c.9.259,1.6.561,1.563.673" transform="translate(-10.12 -41.182)" fill="#fafafa"/>
            <path id="Trazado_805644" data-name="Trazado 805644" d="M63.7,182.319a5.342,5.342,0,0,1-1.8,1.063,5.339,5.339,0,0,1-1.98.68,5.3,5.3,0,0,1,1.8-1.063,5.315,5.315,0,0,1,1.98-.68" transform="translate(-11.37 -34.593)" fill="#fafafa"/>
            <path id="Trazado_805645" data-name="Trazado 805645" d="M57.769,175.34a9.979,9.979,0,0,1-1.3,1.785,10.1,10.1,0,0,1-1.367,1.737,4.316,4.316,0,0,1,1.031-1.992c.753-1,1.566-1.613,1.641-1.53" transform="translate(-10.452 -33.271)" fill="#fafafa"/>
            <path id="Trazado_805646" data-name="Trazado 805646" d="M73.606,190.473a7.012,7.012,0,0,1-3.4-3.1,11.055,11.055,0,0,1,1.721,1.524c.925.848,1.74,1.472,1.675,1.574" transform="translate(-13.321 -35.555)" fill="#fafafa"/>
            <path id="Trazado_805647" data-name="Trazado 805647" d="M83.31,181.65a10.04,10.04,0,0,1-1.3,1.978,9.994,9.994,0,0,1-1.423,1.893,8.24,8.24,0,0,1,2.725-3.871" transform="translate(-15.289 -34.469)" fill="#fafafa"/>
            <path id="Trazado_805648" data-name="Trazado 805648" d="M76.952,199.557a4.844,4.844,0,0,1-1.988.211,4.844,4.844,0,0,1-1.988-.211,4.869,4.869,0,0,1,1.988-.211,4.869,4.869,0,0,1,1.988.211" transform="translate(-13.848 -37.828)" fill="#fafafa"/>
            <path id="Trazado_805649" data-name="Trazado 805649" d="M86.777,195.09a5.962,5.962,0,0,1-.327-4.4,11.853,11.853,0,0,1,.162,2.2,11.855,11.855,0,0,1,.164,2.2" transform="translate(-16.352 -36.185)" fill="#fafafa"/>
            <path id="Trazado_805650" data-name="Trazado 805650" d="M88.327,207.362a6.164,6.164,0,0,1-2.082-.87,6.178,6.178,0,0,1-1.884-1.244,6.157,6.157,0,0,1,2.082.871,6.171,6.171,0,0,1,1.883,1.243" transform="translate(-16.008 -38.945)" fill="#fafafa"/>
            <path id="Trazado_805651" data-name="Trazado 805651" d="M95.158,201.908c.056.1-.415.465-1.052.811s-1.2.542-1.253.44.416-.465,1.053-.811,1.2-.542,1.253-.44" transform="translate(-17.619 -38.309)" fill="#fafafa"/>
            <path id="Trazado_805652" data-name="Trazado 805652" d="M75.409,211.855a7.1,7.1,0,0,1,1.9-4.494,15.229,15.229,0,0,1-.959,2.244,15.02,15.02,0,0,1-.94,2.251" transform="translate(-14.303 -39.348)" fill="#fafafa"/>
            <path id="Trazado_805653" data-name="Trazado 805653" d="M85.593,216.7a8.5,8.5,0,0,1-1.763-5.327,25.338,25.338,0,0,1,.83,2.68,25.352,25.352,0,0,1,.933,2.646" transform="translate(-15.898 -40.11)" fill="#fafafa"/>
            <path id="Trazado_805654" data-name="Trazado 805654" d="M93.154,214.338c.094.077-.211.586-.453,1.253s-.349,1.249-.47,1.247-.2-.65.075-1.394.766-1.183.848-1.107" transform="translate(-17.481 -40.671)" fill="#fafafa"/>
            <path id="Trazado_805655" data-name="Trazado 805655" d="M103.49,205.57a9.614,9.614,0,0,1-3.771,1.351,9.614,9.614,0,0,1,3.771-1.351" transform="translate(-18.922 -39.003)" fill="#fafafa"/>
            <path id="Trazado_805656" data-name="Trazado 805656" d="M103.85,198.154a5.372,5.372,0,0,1,1.2-4,10.693,10.693,0,0,1-.6,2,10.739,10.739,0,0,1-.6,2" transform="translate(-19.692 -36.842)" fill="#fafafa"/>
            <path id="Trazado_805657" data-name="Trazado 805657" d="M99.75,193.533a5.586,5.586,0,0,1-4.293-.541,12.245,12.245,0,0,1,2.145.285,12.364,12.364,0,0,1,2.149.256" transform="translate(-18.113 -36.616)" fill="#fafafa"/>
            <path id="Trazado_805658" data-name="Trazado 805658" d="M97.135,186.539a3.4,3.4,0,0,1,1.059-1.7c.764-.817,1.571-1.254,1.632-1.16s-.6.669-1.325,1.45-1.263,1.475-1.366,1.411" transform="translate(-18.429 -34.852)" fill="#fafafa"/>
            <path id="Trazado_805659" data-name="Trazado 805659" d="M90.16,181.555a8.938,8.938,0,0,1-.869-3.76,8.939,8.939,0,0,1,.869,3.76" transform="translate(-16.935 -33.738)" fill="#fafafa"/>
            <path id="Trazado_805660" data-name="Trazado 805660" d="M56.969,232.658c.072.092-.22.446-.654.792s-.845.553-.917.463.22-.446.654-.792.844-.553.917-.463" transform="translate(-10.51 -44.145)" fill="#fafafa"/>
            <path id="Trazado_805661" data-name="Trazado 805661" d="M94.555,238.568a7.382,7.382,0,0,1-2.468.1,7.366,7.366,0,0,1-2.45-.32,7.345,7.345,0,0,1,2.469-.1,7.361,7.361,0,0,1,2.449.321" transform="translate(-17.009 -45.204)" fill="#fafafa"/>
            <path id="Trazado_805662" data-name="Trazado 805662" d="M68,214.448c.059.1-3.264,2.158-7.42,4.6s-7.575,4.332-7.634,4.232,3.263-2.158,7.421-4.6,7.574-4.333,7.633-4.233" transform="translate(-10.046 -40.693)" fill="#263238"/>
            <path id="Trazado_805663" data-name="Trazado 805663" d="M51.44,238.421c-.389.019-4.687,12.672-.58,21.078.413.846,1.846,2.735,3.636,5.484C63,278.038,84.578,307.274,85.22,311.767c.778,5.441,14.708,62.4,14.708,62.4h11.377l-9.538-64.976L87.561,247.556Z" transform="translate(-9.316 -45.243)" fill="#ffbe9d"/>
            <path id="Trazado_805664" data-name="Trazado 805664" d="M96.237,340.092a7.373,7.373,0,0,0,2.372-5.838c-.095-3.9-2.378-13.223-2.378-13.223l-3.66,2.242s2.879,7.648,3.021,10.046c.158,2.68-.344,3.555-.344,3.555Z" transform="translate(-17.566 -60.919)" fill="#eb996e"/>
            <path id="Trazado_805665" data-name="Trazado 805665" d="M54.6,277.355l12,44.6L29.1,360.9l7.886,9.379s46.052-37.753,46.889-43.186c.954-6.2-10.276-50.264-10.276-50.264Z" transform="translate(-5.523 -52.531)" fill="#ffbe9d"/>
            <path id="Trazado_805666" data-name="Trazado 805666" d="M39.07,388.4h0l-8.414-9.959-2.222,2.1,2.843,3.86c1.961,2.581,8.716,11.128,10.617,12.35,2.12,1.362-2.823-8.352-2.823-8.352" transform="translate(-5.395 -71.812)" fill="#632059"/>
            <path id="Trazado_805667" data-name="Trazado 805667" d="M42.535,397.044c.084-.072-2.971-3.754-6.823-8.22s-7.043-8.03-7.128-7.958,2.971,3.751,6.824,8.22,7.043,8.03,7.127,7.958" transform="translate(-5.424 -72.273)" fill="#263238"/>
            <path id="Trazado_805668" data-name="Trazado 805668" d="M31.033,383.164c.053.013.16-.2.275-.57a4.123,4.123,0,0,0,.191-1.522,2.362,2.362,0,0,0-.609-1.442c-.291-.3-.551-.357-.57-.314s.156.2.352.493a2.806,2.806,0,0,1,.429,1.3,7.409,7.409,0,0,1-.07,1.429c-.044.374-.053.617,0,.629" transform="translate(-5.753 -71.976)" fill="#263238"/>
            <path id="Trazado_805669" data-name="Trazado 805669" d="M41.586,391.614c-.026.117-.429.126-.91.118s-.884-.036-.905-.153.385-.285.913-.273.928.2.9.308" transform="translate(-7.547 -74.254)" fill="#263238"/>
            <path id="Trazado_805670" data-name="Trazado 805670" d="M42.2,392.781c-.014.117-.4.2-.871.19s-.852-.119-.859-.237.382-.2.87-.189.873.119.86.236" transform="translate(-7.679 -74.489)" fill="#263238"/>
            <path id="Trazado_805671" data-name="Trazado 805671" d="M42.741,393.817c0,.118-.3.222-.662.28s-.683.046-.715-.067.254-.293.651-.354.724.026.727.142" transform="translate(-7.849 -74.7)" fill="#263238"/>
            <path id="Trazado_805672" data-name="Trazado 805672" d="M41.881,391.134a3.022,3.022,0,0,1,.6-1.215,4.141,4.141,0,0,1,1.049-1.071,3.043,3.043,0,0,1,.816-.4,1.692,1.692,0,0,1,.506-.093.768.768,0,0,1,.577.238.788.788,0,0,1-.194,1.105,4.992,4.992,0,0,1-.755.481,8.149,8.149,0,0,1-1.358.573,3.343,3.343,0,0,1-1.323.265,5.85,5.85,0,0,1,1.218-.546,11.167,11.167,0,0,0,1.27-.634,5.393,5.393,0,0,0,.673-.454c.194-.152.253-.4.152-.507-.109-.13-.377-.116-.643-.03a2.844,2.844,0,0,0-.721.331,4.448,4.448,0,0,0-1.026.927c-.51.624-.779,1.067-.836,1.032" transform="translate(-7.931 -73.693)" fill="#263238"/>
            <path id="Trazado_805673" data-name="Trazado 805673" d="M42.011,391.416a3.056,3.056,0,0,1,1.333-.322,5.653,5.653,0,0,1,1.506.049,4.1,4.1,0,0,1,.873.25,1.881,1.881,0,0,1,.451.247.727.727,0,0,1,.211.25.476.476,0,0,1,0,.409,1.255,1.255,0,0,1-.95.551,2.727,2.727,0,0,1-.929-.025,6.152,6.152,0,0,1-1.425-.494c-.787-.374-1.107-.856-1.054-.886a9.371,9.371,0,0,0,1.176.61,7.42,7.42,0,0,0,1.369.384,2.5,2.5,0,0,0,.8,0,.967.967,0,0,0,.63-.316c.078-.023-.181-.258-.442-.347a4.177,4.177,0,0,0-.784-.247,6.526,6.526,0,0,0-1.417-.134,7.949,7.949,0,0,1-1.347.02" transform="translate(-7.972 -74.208)" fill="#263238"/>
            <path id="Trazado_805674" data-name="Trazado 805674" d="M39.431,388.189A31.057,31.057,0,0,1,35,383.537a33.77,33.77,0,0,1-3.815-5.1,47.815,47.815,0,0,1,4.234,4.8,57.017,57.017,0,0,1,4.015,4.953" transform="translate(-5.916 -71.812)" fill="#263238"/>
            <path id="Trazado_805675" data-name="Trazado 805675" d="M123.578,405.917h0l-11.941-.13.139,3.746.779.019c3.467.055,17.631.051,19.917-.688,2.549-.823-8.893-2.946-8.893-2.946" transform="translate(-21.184 -77.002)" fill="#632059"/>
            <path id="Trazado_805676" data-name="Trazado 805676" d="M132.778,408.853c-.006-.111-4.7,0-10.48.239s-10.466.53-10.46.641,4.7,0,10.48-.241,10.465-.529,10.46-.639" transform="translate(-21.222 -77.575)" fill="#263238"/>
            <path id="Trazado_805677" data-name="Trazado 805677" d="M115.625,409.213c.046-.034-.065-.251-.3-.57a4.24,4.24,0,0,0-1.153-1.091,2.673,2.673,0,0,0-1.616-.413c-.442.046-.664.212-.641.255s.268,0,.647.028a3.12,3.12,0,0,1,1.375.464,7.855,7.855,0,0,1,1.157.938c.287.267.483.424.53.388" transform="translate(-21.237 -77.256)" fill="#263238"/>
            <path id="Trazado_805678" data-name="Trazado 805678" d="M127.181,406.183c.082.092-.179.415-.5.788s-.614.672-.728.616.015-.478.374-.886.779-.608.856-.518" transform="translate(-23.893 -77.073)" fill="#263238"/>
            <path id="Trazado_805679" data-name="Trazado 805679" d="M128.554,406.431c.089.083-.1.442-.417.8s-.664.6-.767.529.083-.426.417-.8.678-.612.767-.528" transform="translate(-24.164 -77.121)" fill="#263238"/>
            <path id="Trazado_805680" data-name="Trazado 805680" d="M129.812,406.7c.1.07-.008.369-.2.692s-.412.566-.529.521-.079-.382.133-.729.5-.554.6-.484" transform="translate(-24.482 -77.172)" fill="#263238"/>
            <path id="Trazado_805681" data-name="Trazado 805681" d="M127.292,405.315a2.947,2.947,0,0,1-.627-1.22,3.9,3.9,0,0,1-.207-1.488,2.866,2.866,0,0,1,.2-.891,1.686,1.686,0,0,1,.257-.454.836.836,0,0,1,.582-.307.807.807,0,0,1,.8.835,4.654,4.654,0,0,1-.094.892,7.8,7.8,0,0,1-.416,1.422,3.276,3.276,0,0,1-.653,1.2,5.522,5.522,0,0,1,.345-1.295,10.433,10.433,0,0,0,.309-1.39,4.985,4.985,0,0,0,.064-.809c0-.247-.172-.449-.326-.434-.183,0-.348.224-.452.487a2.7,2.7,0,0,0-.2.771,4.167,4.167,0,0,0,.1,1.379,7,7,0,0,1,.315,1.3" transform="translate(-23.995 -76.085)" fill="#263238"/>
            <path id="Trazado_805682" data-name="Trazado 805682" d="M127.317,405.331a2.94,2.94,0,0,1,.612-1.246,5.783,5.783,0,0,1,1.039-1.154,4.427,4.427,0,0,1,.788-.532,2.043,2.043,0,0,1,.506-.2.812.812,0,0,1,.35-.011.509.509,0,0,1,.348.25,1.185,1.185,0,0,1-.165,1.087,2.777,2.777,0,0,1-.636.715,6.636,6.636,0,0,1-1.36.814,2.094,2.094,0,0,1-1.442.28,10.294,10.294,0,0,0,1.291-.546,7.973,7.973,0,0,0,1.229-.839,2.527,2.527,0,0,0,.527-.626.914.914,0,0,0,.152-.69c.032-.076-.338-.017-.584.133a4.459,4.459,0,0,0-.728.463,6.731,6.731,0,0,0-1.05,1.031c-.536.651-.813,1.1-.875,1.072" transform="translate(-24.158 -76.316)" fill="#263238"/>
            <path id="Trazado_805683" data-name="Trazado 805683" d="M123.342,405.913a29.859,29.859,0,0,1-5.74.3,33.472,33.472,0,0,1-5.736-.328,46.022,46.022,0,0,1,5.739-.1,56.2,56.2,0,0,1,5.737.124" transform="translate(-21.228 -77)" fill="#263238"/>
            <path id="Trazado_805684" data-name="Trazado 805684" d="M79.038,165.331c-.055-2.549-.086-4.824-.086-4.824s5-.527,5.3-5.483,0-16.381,0-16.381l-9.1-4.449-10.011,7.584.583,23.865a6.659,6.659,0,0,0,13.314-.311" transform="translate(-12.361 -25.464)" fill="#ffbe9d"/>
            <path id="Trazado_805685" data-name="Trazado 805685" d="M64.111,144.819s8.172-.771,9.618-8.187l8.867,8.187a9.566,9.566,0,0,0-2.221-10.6c-4.913-5.1-8.285-4.046-10.211-4.046-1.8,0-10.879,1.926-13.583,12.26-.2.749-.357,2.6-.481,3.444Z" transform="translate(-10.645 -24.685)" fill="#263238"/>
            <path id="Trazado_805686" data-name="Trazado 805686" d="M87.111,149.815a.634.634,0,1,1-.634-.634.634.634,0,0,1,.634.634" transform="translate(-16.29 -28.308)" fill="#263238"/>
            <path id="Trazado_805687" data-name="Trazado 805687" d="M87.579,148.93c-.081.083-.551-.316-1.233-.353s-1.2.293-1.266.2c-.035-.041.049-.192.274-.346a1.686,1.686,0,0,1,2,.122c.2.18.269.339.23.376" transform="translate(-16.143 -28.115)" fill="#263238"/>
            <path id="Trazado_805688" data-name="Trazado 805688" d="M78.04,149.815a.634.634,0,1,1-.634-.634.634.634,0,0,1,.634.634" transform="translate(-14.568 -28.308)" fill="#263238"/>
            <path id="Trazado_805689" data-name="Trazado 805689" d="M78.237,148.93c-.081.083-.551-.316-1.232-.353s-1.2.293-1.267.2c-.035-.041.05-.192.274-.346a1.686,1.686,0,0,1,2,.122c.2.18.27.339.23.376" transform="translate(-14.37 -28.115)" fill="#263238"/>
            <path id="Trazado_805690" data-name="Trazado 805690" d="M81.836,154.833a4.64,4.64,0,0,1,1.117-.139c.173-.01.345-.034.382-.163a.957.957,0,0,0-.1-.551q-.221-.672-.468-1.415c-.325-1.006-.6-1.923-.792-2.59a4.5,4.5,0,0,1-.252-1.1,4.6,4.6,0,0,1,.437,1.039c.237.651.545,1.558.869,2.564q.235.746.447,1.422a1.094,1.094,0,0,1,.068.713.423.423,0,0,1-.291.245,1.13,1.13,0,0,1-.3.027,4.59,4.59,0,0,1-1.125-.054" transform="translate(-15.507 -28.251)" fill="#263238"/>
            <path id="Trazado_805691" data-name="Trazado 805691" d="M79.068,157.026a28.867,28.867,0,0,0,3.3,1.136,1.89,1.89,0,0,1-2.264.643c-1.458-.615-1.037-1.778-1.037-1.778" transform="translate(-14.993 -29.797)" fill="#fafafa"/>
            <path id="Trazado_805692" data-name="Trazado 805692" d="M80.655,166.15a12.363,12.363,0,0,1-6.565-2.217s1.6,3.646,6.565,3.442Z" transform="translate(-14.059 -31.108)" fill="#eb996e"/>
            <path id="Trazado_805693" data-name="Trazado 805693" d="M77.555,137.377s1.815,3.508,1.04,6.15l7.944,2.051s1.812-10.07-8.983-8.2" transform="translate(-14.717 -26.025)" fill="#263238"/>
            <path id="Trazado_805694" data-name="Trazado 805694" d="M56.083,149.331s-1.4,10.638,8.246,12.7l-.235-13.764Z" transform="translate(-10.629 -28.135)" fill="#263238"/>
            <path id="Trazado_805695" data-name="Trazado 805695" d="M78.425,133.423a5.636,5.636,0,0,1,2.444.291,10.965,10.965,0,0,1,7.8,8.374,5.611,5.611,0,0,1,.115,2.459c-.093,0-.109-.936-.494-2.369a11.626,11.626,0,0,0-7.532-8.093c-1.4-.486-2.339-.569-2.329-.662" transform="translate(-14.882 -25.31)" fill="#263238"/>
            <path id="Trazado_805696" data-name="Trazado 805696" d="M79.49,148.644c-.032,0-.015-.346-.173-.935a3.875,3.875,0,0,0-1.419-2.074,3.781,3.781,0,0,0-3.571-.519,3.716,3.716,0,0,0-1.739,1.313,3.736,3.736,0,0,0,0,4.43,3.718,3.718,0,0,0,1.739,1.313,3.779,3.779,0,0,0,3.571-.519,3.877,3.877,0,0,0,1.419-2.074c.158-.589.142-.937.173-.935a.837.837,0,0,1,.015.25,3.1,3.1,0,0,1-.084.711,3.877,3.877,0,0,1-1.406,2.2,3.932,3.932,0,0,1-1.671.762,4,4,0,0,1-2.1-.16,3.948,3.948,0,0,1-1.869-1.391,3.985,3.985,0,0,1,0-4.75,3.952,3.952,0,0,1,1.869-1.39,4,4,0,0,1,2.1-.16,3.933,3.933,0,0,1,1.671.762,3.866,3.866,0,0,1,1.4,2.2,3.06,3.06,0,0,1,.085.711.838.838,0,0,1-.015.25" transform="translate(-13.584 -27.448)" fill="#263238"/>
            <path id="Trazado_805697" data-name="Trazado 805697" d="M90.537,148.644c-.032,0-.015-.346-.173-.935a3.877,3.877,0,0,0-1.42-2.074,3.746,3.746,0,0,0-1.595-.693,3.786,3.786,0,0,0-1.975.174,3.716,3.716,0,0,0-1.739,1.313,3.739,3.739,0,0,0,0,4.43,3.722,3.722,0,0,0,1.739,1.313,3.794,3.794,0,0,0,1.975.174,3.755,3.755,0,0,0,1.595-.693,3.875,3.875,0,0,0,1.42-2.074c.158-.589.142-.937.173-.935a.838.838,0,0,1,.015.25,3.14,3.14,0,0,1-.084.711,3.873,3.873,0,0,1-1.406,2.2,3.928,3.928,0,0,1-1.671.762,3.992,3.992,0,0,1-2.1-.16,3.952,3.952,0,0,1-1.871-1.391,3.992,3.992,0,0,1,0-4.75,3.972,3.972,0,0,1,5.645-.788,3.868,3.868,0,0,1,1.406,2.2,3.14,3.14,0,0,1,.084.711.838.838,0,0,1-.015.25" transform="translate(-15.681 -27.448)" fill="#263238"/>
            <path id="Trazado_805698" data-name="Trazado 805698" d="M82.471,149.7c0,.076-.319.137-.712.137s-.711-.061-.711-.137.318-.138.711-.138.712.062.712.138" transform="translate(-15.38 -28.381)" fill="#263238"/>
            <path id="Trazado_805699" data-name="Trazado 805699" d="M70.31,150.579a22.38,22.38,0,0,1-3.413.813,22.376,22.376,0,0,1-3.466.544,22.5,22.5,0,0,1,3.413-.813,22.349,22.349,0,0,1,3.466-.544" transform="translate(-12.037 -28.571)" fill="#263238"/>
            <path id="Trazado_805700" data-name="Trazado 805700" d="M64.57,156.688a2.064,2.064,0,0,1-2.59-.352,3.032,3.032,0,0,1-.664-2.661,2.308,2.308,0,0,1,.835-1.462,2.382,2.382,0,0,1,2.227.139Z" transform="translate(-11.623 -28.843)" fill="#ffbe9d"/>
            <path id="Trazado_805701" data-name="Trazado 805701" d="M63.587,156.125c.006-.065-.245-.105-.539-.322a1.288,1.288,0,0,1,.207-2.227c.33-.159.583-.153.589-.218.015-.048-.252-.177-.692-.066a1.5,1.5,0,0,0-.257,2.769c.412.191.7.113.692.063" transform="translate(-11.779 -29.08)" fill="#eb996e"/>
            <path id="Trazado_805702" data-name="Trazado 805702" d="M51.462,235.337s-8.7,9.028-6.9,28.332,4.14,45.246,4.14,45.246,11.182-10.086,16.857-5.78,11.372,7.833,18.758,3.157c10.108-6.4,21.2-2.165,21.2-2.165L87.685,240.208Z" transform="translate(-8.41 -44.657)" fill="#263238"/>
            <path id="Trazado_805703" data-name="Trazado 805703" d="M64.839,238.167a4.3,4.3,0,0,1-.358,1.91,8,8,0,0,1-7.24,5.279,4.322,4.322,0,0,1-1.928-.243c.011-.073.742.058,1.907-.054a8.363,8.363,0,0,0,6.983-5.092c.463-1.075.563-1.813.635-1.8" transform="translate(-10.496 -45.194)" fill="#455a64"/>
            <path id="Trazado_805704" data-name="Trazado 805704" d="M57.479,238.024c-.111-.036-.053-.5.129-1.027s.417-.929.527-.888.052.5-.129,1.025-.416.924-.527.89" transform="translate(-10.896 -44.803)" fill="#455a64"/>
            <path id="Trazado_805705" data-name="Trazado 805705" d="M55.113,246.986a9.268,9.268,0,0,1,.837-3.845,9.275,9.275,0,0,1-.837,3.845" transform="translate(-10.449 -46.138)" fill="#455a64"/>
            <path id="Trazado_805706" data-name="Trazado 805706" d="M53.875,256.6a9.285,9.285,0,0,1,.389-3.916,9.285,9.285,0,0,1-.389,3.916" transform="translate(-10.206 -47.949)" fill="#455a64"/>
            <path id="Trazado_805707" data-name="Trazado 805707" d="M53.609,266.3a9.281,9.281,0,0,1,0-3.936,9.281,9.281,0,0,1,0,3.936" transform="translate(-10.133 -49.786)" fill="#455a64"/>
            <path id="Trazado_805708" data-name="Trazado 805708" d="M54.159,276a4.68,4.68,0,0,1-.371-1.944,4.737,4.737,0,0,1,.05-1.979,4.808,4.808,0,0,1,.37,1.945A4.863,4.863,0,0,1,54.159,276" transform="translate(-10.196 -51.63)" fill="#455a64"/>
            <path id="Trazado_805709" data-name="Trazado 805709" d="M55.336,285.647a9.269,9.269,0,0,1-.549-3.9,9.3,9.3,0,0,1,.549,3.9" transform="translate(-10.383 -53.464)" fill="#455a64"/>
            <path id="Trazado_805710" data-name="Trazado 805710" d="M57.057,295.2a9.29,9.29,0,0,1-.771-3.858,9.29,9.29,0,0,1,.771,3.858" transform="translate(-10.671 -55.285)" fill="#455a64"/>
            <path id="Trazado_805711" data-name="Trazado 805711" d="M59.228,304.665a9.284,9.284,0,0,1-.924-3.821,9.251,9.251,0,0,1,.924,3.821" transform="translate(-11.055 -57.088)" fill="#455a64"/>
            <path id="Trazado_805712" data-name="Trazado 805712" d="M61.12,312.237c-.113.028-.316-.388-.454-.931s-.158-1.008-.045-1.036.316.388.454.931.159,1.007.045,1.036" transform="translate(-11.49 -58.876)" fill="#455a64"/>
            <path id="Trazado_805713" data-name="Trazado 805713" d="M85.87,256.267a14.7,14.7,0,0,1-.327-2.426c-.152-1.5-.352-3.579-.517-5.879s-.24-4.39-.239-5.9a12.481,12.481,0,0,1,.116-2.448,15.993,15.993,0,0,1,.182,2.44c.075,1.506.2,3.585.362,5.882s.317,4.376.393,5.885a13.5,13.5,0,0,1,.03,2.449" transform="translate(-16.089 -45.469)" fill="#455a64"/>
            <path id="Trazado_805714" data-name="Trazado 805714" d="M87.471,240.079a14.9,14.9,0,0,1,.285,2.5c.123,1.551.263,3.694.392,6.062.058,1.177.114,2.3.165,3.341a6.589,6.589,0,0,1-.3,2.763,2.782,2.782,0,0,1-1.223,1.433c-.408.206-.668.193-.668.172s.234-.081.584-.313a2.811,2.811,0,0,0,1.028-1.4,6.72,6.72,0,0,0,.189-2.637c-.062-1.041-.129-2.163-.2-3.339-.129-2.368-.222-4.515-.268-6.07a14.916,14.916,0,0,1,.012-2.521" transform="translate(-16.343 -45.557)" fill="#455a64"/>
            <path id="Trazado_805715" data-name="Trazado 805715" d="M98.86,248.1a3,3,0,0,1-1.394-.339,7.283,7.283,0,0,1-4.226-5.245,3.008,3.008,0,0,1-.035-1.433,12.468,12.468,0,0,1,.326,1.367,8.141,8.141,0,0,0,4.063,5.041,12.561,12.561,0,0,1,1.266.608" transform="translate(-17.675 -45.748)" fill="#455a64"/>
            <path id="Trazado_805716" data-name="Trazado 805716" d="M106.092,314.392a3.384,3.384,0,0,1-.612-.072l-1.741-.267A52.232,52.232,0,0,0,97.3,313.5a31.022,31.022,0,0,0-9.446,1.194c-1.727.5-3.428,1.322-5.274,2.054a14.081,14.081,0,0,1-2.927.832,7.494,7.494,0,0,1-3.151-.157,25.732,25.732,0,0,1-5.463-2.778,17.577,17.577,0,0,0-5.263-1.878,19.535,19.535,0,0,0-5.066-.254,21.5,21.5,0,0,0-4.344.877,19,19,0,0,0-5.665,2.992,14.687,14.687,0,0,0-1.336,1.138,3.446,3.446,0,0,1-.469.4,3.332,3.332,0,0,1,.41-.459A11.534,11.534,0,0,1,50.6,316.25a18.3,18.3,0,0,1,5.675-3.148,21.443,21.443,0,0,1,4.405-.942,19.623,19.623,0,0,1,5.168.22,17.794,17.794,0,0,1,5.393,1.9,25.769,25.769,0,0,0,5.373,2.733,9.178,9.178,0,0,0,5.82-.653c1.816-.713,3.55-1.546,5.311-2.041a30.626,30.626,0,0,1,9.564-1.121,46,46,0,0,1,6.458.7c.754.137,1.337.253,1.731.345a3.315,3.315,0,0,1,.6.156" transform="translate(-9.279 -59.22)" fill="#455a64"/>
            <path id="Trazado_805717" data-name="Trazado 805717" d="M111.734,222.592c1.933-.417,5.619-1.938,5.7-2.44.152-.921-3.271.162-4.184.353s-6.006-.732-6.006-.732c-1.237-.688-2.462-1.413-3.422-1.994a3.294,3.294,0,0,1-.773-3.42,4.771,4.771,0,0,0,.264-3.084.862.862,0,0,0-1.57.436,10.016,10.016,0,0,1-1.012,2.59,6.708,6.708,0,0,1-1.374,1.824c-.612.574-1.162,1.048-1.636,1.435-4.294.771-16.482,2.512-27.176-.216a8.464,8.464,0,0,1-3.363-2.711l-12.03,7.244c5.58,17.716,46.181,6.276,46.181,6.276l11.121-3.772s6.193-1.51,6.189-2.039c-.006-.825-4.585.216-6.91.25" transform="translate(-10.466 -40.018)" fill="#ffbe9d"/>
            <path id="Trazado_805718" data-name="Trazado 805718" d="M79.129,172.9a2.452,2.452,0,0,1-.023.85,7.425,7.425,0,0,1-2.866,4.895,6.178,6.178,0,0,1-4.056,1.181,6.307,6.307,0,0,1-3.887-1.66,7.613,7.613,0,0,1-2.359-5.163,2.39,2.39,0,0,1,.057-.848,11.656,11.656,0,0,0,.682,3.016,7.43,7.43,0,0,0,1.882,2.707,6.045,6.045,0,0,0,3.651,1.527,5.909,5.909,0,0,0,3.8-1.076,7.208,7.208,0,0,0,2.152-2.492,11.438,11.438,0,0,0,.964-2.937" transform="translate(-12.511 -32.669)" fill="#263238"/>
          </g>
        </g>
      </g>
    </g>
  </g>
</svg>
