<svg xmlns="http://www.w3.org/2000/svg" xmlns:xlink="http://www.w3.org/1999/xlink" width="361.035" height="340" viewBox="0 0 361.035 340">
  <defs>
    <clipPath id="clip-path">
      <rect id="Rectángulo_376274" data-name="Rectángulo 376274" width="360.035" height="329.385" fill="none"/>
    </clipPath>
    <clipPath id="clip-path-8">
      <rect id="Rectángulo_376268" data-name="Rectángulo 376268" width="11.758" height="11.214" fill="none"/>
    </clipPath>
    <clipPath id="clip-path-9">
      <rect id="Rectángulo_376269" data-name="Rectángulo 376269" width="9.1" height="11.284" fill="none"/>
    </clipPath>
    <clipPath id="clip-path-10">
      <rect id="Rectángulo_376270" data-name="Rectángulo 376270" width="51.63" height="36.532" fill="none"/>
    </clipPath>
    <clipPath id="clip-path-11">
      <rect id="Rectángulo_376271" data-name="Rectángulo 376271" width="8.367" height="34.244" fill="none"/>
    </clipPath>
    <clipPath id="clip-path-12">
      <rect id="Rectángulo_376272" data-name="Rectángulo 376272" width="9.119" height="10.021" fill="none"/>
    </clipPath>
  </defs>
  <g id="Grupo_1069186" data-name="Grupo 1069186" transform="translate(-914 -5422)">
    <rect id="Rectángulo_376451" data-name="Rectángulo 376451" width="360" height="340" transform="translate(915.035 5422)" fill="none"/>
    <g id="Grupo_1068888" data-name="Grupo 1068888" transform="translate(914 5427.292)">
      <g id="Grupo_1068887" data-name="Grupo 1068887" clip-path="url(#clip-path)">
        <g id="Grupo_1068855" data-name="Grupo 1068855">
          <g id="Grupo_1068854" data-name="Grupo 1068854" clip-path="url(#clip-path)">
            <path id="Trazado_812746" data-name="Trazado 812746" d="M4.4,140.9c-20.221,41.208,34.072,67.822,66.059,79.057,16.107,5.657,29.108,9.854,38.026,24.334,8.277,13.439,8.635,25.191,26.016,30.452,15.984,4.838,47.562-6.972,61.987-21.755,17.7-18.139,14.818-33.924,25.829-51.7,15.866-25.606,96.546-31.587,72.106-78.268-6.374-12.173-21.978-13.26-33.819-18.346-17.614-7.566-21.863-18.865-27.63-37.086-5.26-16.617-12.121-34.052-29.218-40.083-16.622-5.865-36.676,2.42-52.9-5.211-25.885-12.173-70.3-47.263-85.807,7.581-5.507,19.472.6,46.153-10.058,63.3C43.711,111.331,16.642,115.946,4.4,140.9" transform="translate(0 0)" fill="#e9f8dc"/>
          </g>
        </g>
        <g id="Grupo_1068857" data-name="Grupo 1068857">
          <g id="Grupo_1068856" data-name="Grupo 1068856" clip-path="url(#clip-path)">
            <path id="Trazado_812748" data-name="Trazado 812748" d="M360.119,343.631c0,5.79-80.364,10.483-179.5,10.483s-179.5-4.693-179.5-10.483,80.364-10.483,179.5-10.483,179.5,4.694,179.5,10.483" transform="translate(-0.083 -24.728)" fill="#727997" opacity="0.2"/>
          </g>
        </g>
        <g id="Grupo_1068865" data-name="Grupo 1068865">
          <g id="Grupo_1068864" data-name="Grupo 1068864" clip-path="url(#clip-path)">
            <path id="Trazado_812749" data-name="Trazado 812749" d="M179.21,141.855v-7.6l4.7-1.347a44.974,44.974,0,0,1,1.5-7.546l-3.823-3.05,2.9-7.007,4.851.556a47.084,47.084,0,0,1,4.3-6.4l-2.376-4.278,5.357-5.373,4.295,2.375a45.4,45.4,0,0,1,6.384-4.279l-.555-4.851,7.024-2.914,3.032,3.824a48.4,48.4,0,0,1,7.563-1.5l1.348-4.7h7.58l1.365,4.7a48.619,48.619,0,0,1,7.546,1.5l3.048-3.824,7.007,2.914-.555,4.851a45.508,45.508,0,0,1,6.4,4.279l4.279-2.375,5.373,5.373-2.376,4.278a47.15,47.15,0,0,1,4.279,6.4l4.85-.556,2.914,7.007-3.84,3.05a45.062,45.062,0,0,1,1.5,7.546l4.716,1.347v7.6L275.07,143.2a44.415,44.415,0,0,1-1.5,7.547l3.84,3.049-2.914,7.007-4.85-.539a48.086,48.086,0,0,1-4.279,6.383l2.376,4.3-5.373,5.357-4.279-2.375a47.188,47.188,0,0,1-6.4,4.295l.555,4.851-7.007,2.9-3.048-3.824a45.015,45.015,0,0,1-7.546,1.5l-1.365,4.7H225.7l-1.348-4.7a44.84,44.84,0,0,1-7.563-1.5l-3.032,3.824-7.024-2.9.555-4.851a47.076,47.076,0,0,1-6.384-4.295L196.61,176.3l-5.357-5.357,2.376-4.3a48.018,48.018,0,0,1-4.3-6.383l-4.851.539-2.9-7.007,3.823-3.049a44.329,44.329,0,0,1-1.5-7.547Zm50.28,31.229a35.019,35.019,0,1,0-35.019-35.019,35.024,35.024,0,0,0,35.019,35.019" transform="translate(-13.302 -6.515)" fill="#3b5620" opacity="0.3"/>
            <path id="Trazado_812751" data-name="Trazado 812751" d="M152.885,203a26.228,26.228,0,0,1,2.027-4.763l-1.018-4.646,6.907-6.908,4.646,1.019a26.174,26.174,0,0,1,4.764-2.027l3.007-4.7H183l3.008,4.7a26.474,26.474,0,0,1,4.763,2.027l4.637-1.019,6.917,6.908-1.019,4.646A26.165,26.165,0,0,1,203.331,203l4.7,3.008v9.779l-4.7,3.007a26.445,26.445,0,0,1-2.027,4.763l1.019,4.637-6.917,6.917-4.637-1.018A26.608,26.608,0,0,1,186,236.119l-3.008,4.7h-9.779l-3.007-4.7a26.3,26.3,0,0,1-4.764-2.027L160.8,235.11l-6.907-6.917,1.018-4.637a26.51,26.51,0,0,1-2.027-4.763l-4.7-3.007v-9.779Zm25.224,21.44A13.543,13.543,0,1,0,164.565,210.9a13.543,13.543,0,0,0,13.543,13.543" transform="translate(-11 -13.433)" fill="#3b5620" opacity="0.3"/>
          </g>
        </g>
        <g id="Grupo_1068867" data-name="Grupo 1068867">
          <g id="Grupo_1068866" data-name="Grupo 1068866" clip-path="url(#clip-path)">
            <path id="Trazado_812753" data-name="Trazado 812753" d="M352.56,27.178v121.2c17.228,0,33.578-21.736,33.578-60.6s-16.35-60.6-33.578-60.6" transform="translate(-26.169 -2.017)" fill="#263238"/>
            <path id="Trazado_812754" data-name="Trazado 812754" d="M337.253,31.84l-.4-.443a28.877,28.877,0,0,1,2.555-2.063l.346.486a27.944,27.944,0,0,0-2.5,2.019" transform="translate(-25.004 -2.177)" fill="#407bff"/>
            <path id="Trazado_812755" data-name="Trazado 812755" d="M327.262,44.843l-.53-.272a49.985,49.985,0,0,1,6.094-9.325l.456.384a49.387,49.387,0,0,0-6.021,9.213" transform="translate(-24.252 -2.616)" fill="#407bff"/>
            <path id="Trazado_812756" data-name="Trazado 812756" d="M381.253,87.778c0,33.469-13.966,60.6-31.194,60.6s-31.193-27.132-31.193-60.6,13.966-60.6,31.193-60.6,31.194,27.132,31.194,60.6" transform="translate(-23.668 -2.017)" fill="#3b5620"/>
            <path id="Trazado_812757" data-name="Trazado 812757" d="M375.514,88.75c0,26.775-11.172,48.48-24.955,48.48s-24.954-21.7-24.954-48.48,11.172-48.48,24.954-48.48,24.955,21.7,24.955,48.48" transform="translate(-24.169 -2.989)" fill="#fff"/>
            <path id="Trazado_812758" data-name="Trazado 812758" d="M369.776,89.722c0,20.081-8.379,36.36-18.716,36.36s-18.715-16.279-18.715-36.36,8.379-36.36,18.715-36.36,18.716,16.279,18.716,36.36" transform="translate(-24.669 -3.961)" fill="#3b5620"/>
            <path id="Trazado_812759" data-name="Trazado 812759" d="M364.037,90.693c0,13.388-5.586,24.24-12.478,24.24s-12.478-10.853-12.478-24.24,5.587-24.24,12.478-24.24,12.478,10.853,12.478,24.24" transform="translate(-25.169 -4.933)" fill="#fff"/>
            <path id="Trazado_812760" data-name="Trazado 812760" d="M358.3,91.665c0,6.693-2.793,12.12-6.239,12.12s-6.239-5.427-6.239-12.12,2.793-12.12,6.239-12.12,6.239,5.427,6.239,12.12" transform="translate(-25.669 -5.904)" fill="#3b5620"/>
          </g>
        </g>
        <g id="Grupo_1068869" data-name="Grupo 1068869">
          <g id="Grupo_1068868" data-name="Grupo 1068868" clip-path="url(#clip-path)">
            <path id="Trazado_812761" data-name="Trazado 812761" d="M300.142,150.9l-42.613,31.382,18.651,2.535-36.4,60.624-52.354-9.294a3.72,3.72,0,0,0-3.461,1.229l-.021.024-43.5,50.326L80.1,278.185a4.322,4.322,0,0,0-3.569,1.077l-.028.026L29.481,322.432l-.032.03a4.629,4.629,0,1,0,6.324,6.762l45.1-42.174,60.546,9.038.043.006a4.017,4.017,0,0,0,3.652-1.377l43.149-50.84,52.691,8.94.035.007a3.511,3.511,0,0,0,3.6-1.679l37.17-63.009L292.88,203.32Z" transform="translate(-2.077 -11.201)" fill="#263238"/>
          </g>
        </g>
        <g id="Grupo_1068886" data-name="Grupo 1068886">
          <g id="Grupo_1068885" data-name="Grupo 1068885" clip-path="url(#clip-path)">
            <path id="Trazado_812762" data-name="Trazado 812762" d="M114.522,103.556l-.48.236-.592.309c-.4.218-.815.429-1.223.67-.819.462-1.633.978-2.438,1.507-1.616,1.054-3.187,2.216-4.729,3.428s-3.013,2.528-4.464,3.875l-2.121,2.087-1.03,1.079-.518.54c-.084.09-.129.133-.192.211a5.64,5.64,0,0,0-.69,3.665,25.1,25.1,0,0,0,1.044,5.423,76.759,76.759,0,0,0,4.452,11.183l-3.471,2.263a53.234,53.234,0,0,1-6.842-11.3,28.842,28.842,0,0,1-2.088-6.753,15.978,15.978,0,0,1-.164-4.013,9.958,9.958,0,0,1,2.19-5.571l.525-.642,1.051-1.285c.712-.849,1.458-1.67,2.21-2.488a63.759,63.759,0,0,1,4.82-4.637,55.3,55.3,0,0,1,5.366-4.1c.95-.624,1.914-1.229,2.924-1.8.5-.289,1.017-.565,1.545-.834l.818-.393c.3-.136.524-.241.953-.416Z" transform="translate(-6.6 -7.111)" fill="#b55b52"/>
            <path id="Trazado_812763" data-name="Trazado 812763" d="M130.4,68.54c.315,4.936,1.061,15.713-2.726,18.485,0,0,.678,5.055,9.622,6.224,9.834,1.286,5.338-4.268,5.338-4.268-5.2-1.983-4.541-5.947-3.117-9.565Z" transform="translate(-9.477 -5.087)" fill="#b55b52"/>
            <path id="Trazado_812764" data-name="Trazado 812764" d="M125.489,90.807s-.869-2.747-1.191-4.4,11.843-1.094,15.867-.062,5.31,5.75,5.31,5.75Z" transform="translate(-9.226 -6.336)" fill="#263238"/>
            <path id="Trazado_812765" data-name="Trazado 812765" d="M150.072,64.815a17.631,17.631,0,0,0,2.772,3.947,2.837,2.837,0,0,1-2.294.68Z" transform="translate(-11.139 -4.811)" fill="#a02724"/>
            <path id="Trazado_812766" data-name="Trazado 812766" d="M146.941,59.956a.384.384,0,0,1-.172-.044.389.389,0,0,1-.163-.524,3.841,3.841,0,0,1,2.853-2.089.387.387,0,0,1,.074.771,3.069,3.069,0,0,0-2.241,1.679.388.388,0,0,1-.351.207" transform="translate(-10.879 -4.253)" fill="#263238"/>
            <path id="Trazado_812767" data-name="Trazado 812767" d="M149.311,63.561c.068.656.47,1.153.9,1.108s.721-.612.654-1.268-.47-1.153-.9-1.108-.722.612-.655,1.268" transform="translate(-11.082 -4.624)" fill="#263238"/>
            <path id="Trazado_812768" data-name="Trazado 812768" d="M149.818,62.3l1.529-.617s-.681,1.316-1.529.617" transform="translate(-11.12 -4.579)" fill="#263238"/>
            <path id="Trazado_812769" data-name="Trazado 812769" d="M81.885,284.952l7.895,2.141,7.479-17.6-7.9-2.141Z" transform="translate(-6.078 -19.845)" fill="#b55b52"/>
            <path id="Trazado_812770" data-name="Trazado 812770" d="M92.436,282.141l-9.078-1.435a.648.648,0,0,0-.731.45l-2.17,7.019a1.314,1.314,0,0,0,1.068,1.641c3.174.445,4.728.5,8.72,1.132,2.456.388,6,1.21,9.4,1.746,3.317.525,4.1-2.788,2.738-3.315-6.118-2.364-6.82-4.4-8.671-6.529a2.14,2.14,0,0,0-1.272-.71" transform="translate(-5.968 -20.835)" fill="#263238"/>
            <g id="Grupo_1068872" data-name="Grupo 1068872" transform="translate(79.423 247.511)" opacity="0.2">
              <g id="Grupo_1068871" data-name="Grupo 1068871">
                <g id="Grupo_1068870" data-name="Grupo 1068870" clip-path="url(#clip-path-8)">
                  <path id="Trazado_812771" data-name="Trazado 812771" d="M89.65,267.356l7.9,2.142-3.86,9.072-7.9-2.143Z" transform="translate(-85.791 -267.356)"/>
                </g>
              </g>
            </g>
            <path id="Trazado_812772" data-name="Trazado 812772" d="M119.66,90.332c-3.242-1.263-13.037,6.905-13.037,6.905L111,112.292s10.966-6.367,11.953-10.783c1.029-4.6.543-9.684-3.288-11.176" transform="translate(-7.914 -6.695)" fill="#407bff"/>
            <path id="Trazado_812773" data-name="Trazado 812773" d="M156.625,97.815c.031,5.256.194,15.011-3.23,32.441-.619,3.155.608,4.559.058,7.784-.36,2.109-1.542,1.8-1.71,2.828H118.519c.041-.988-1.452-1.516-1.789-3.651-.771-4.89,2.06-5.3,1.968-8.383-.231-7.775-1.366-16.517-4.771-31.87a5.588,5.588,0,0,1,4.639-6.746c2.389-.346,5.265-.68,8.171-.819a105.755,105.755,0,0,1,15.086,0c2.945.268,6.068.726,8.6,1.145a7.41,7.41,0,0,1,6.2,7.271" transform="translate(-8.447 -6.616)" fill="#bc68b0"/>
            <g id="Grupo_1068875" data-name="Grupo 1068875" transform="translate(139.008 95.774)" opacity="0.2">
              <g id="Grupo_1068874" data-name="Grupo 1068874">
                <g id="Grupo_1068873" data-name="Grupo 1068873" clip-path="url(#clip-path-9)">
                  <path id="Trazado_812774" data-name="Trazado 812774" d="M150.153,103.453c1.481,3.536,6.2,8.841,8.48,11.285.352-3.407.528-6.3.62-8.739Z" transform="translate(-150.153 -103.453)"/>
                </g>
              </g>
            </g>
            <path id="Trazado_812775" data-name="Trazado 812775" d="M160.509,95.673c2.727,2.774,5.683,5.606,8.641,8.226a72.286,72.286,0,0,0,9.191,7.12c.392.27.784.457,1.177.693l.589.339c.083.047,0,0-.009,0-.023-.007-.052-.008-.069-.016a.643.643,0,0,0-.108-.013c-.243.035.293.1.93-.134a19.665,19.665,0,0,0,4.522-2.518,103.176,103.176,0,0,0,9.2-7.579l3.181,2.655a57.339,57.339,0,0,1-8.3,9.924,23.222,23.222,0,0,1-5.862,4.168,10.8,10.8,0,0,1-2.158.747,7.574,7.574,0,0,1-2.944.091,6.25,6.25,0,0,1-.856-.207c-.143-.04-.288-.1-.43-.154-.124-.048-.334-.136-.363-.153l-.786-.376c-.515-.257-1.067-.493-1.551-.774a66.34,66.34,0,0,1-10.782-7.5,103.1,103.1,0,0,1-9.326-8.833Z" transform="translate(-11.461 -7.101)" fill="#b55b52"/>
            <path id="Trazado_812776" data-name="Trazado 812776" d="M199.94,99.158a11.162,11.162,0,0,0-3.531,4.274l.7,3.112a.532.532,0,0,0,.755.36l4.971-2.448,2.076-1.056a1.2,1.2,0,0,0,.642-1.24L205.21,99.8a1.2,1.2,0,0,0-1.223-1.023l-3.227.1a1.542,1.542,0,0,0-.82.273" transform="translate(-14.579 -7.332)" fill="#b55b52"/>
            <path id="Trazado_812777" data-name="Trazado 812777" d="M103.3,143.617a11.165,11.165,0,0,1-1.939,5.194l-3.048.945a.533.533,0,0,1-.689-.474l-.361-5.53-.147-2.83a.492.492,0,0,1,.311-.484l3.265-1.3a.494.494,0,0,1,.617.227l1.817,3.4a1.536,1.536,0,0,1,.173.847" transform="translate(-7.209 -10.325)" fill="#b55b52"/>
            <path id="Trazado_812778" data-name="Trazado 812778" d="M67.6,171.587l33.206,3.883a3.758,3.758,0,0,0,3.777-2.358l7.078-19.558a2.148,2.148,0,0,0-1.833-3.014l-33.207-3.883a3.755,3.755,0,0,0-3.776,2.358l-7.078,19.558a2.148,2.148,0,0,0,1.833,3.014" transform="translate(-4.87 -10.884)" fill="#263238"/>
            <path id="Trazado_812779" data-name="Trazado 812779" d="M71.789,178.407l40.7,4.73a3.644,3.644,0,0,0,3.983-3.022l3.963-24.913a3.29,3.29,0,0,0-2.894-3.821l-40.7-4.73a3.643,3.643,0,0,0-3.983,3.022L68.9,174.585a3.291,3.291,0,0,0,2.894,3.822" transform="translate(-5.111 -10.884)" fill="#dbf9bd"/>
            <g id="Grupo_1068878" data-name="Grupo 1068878" transform="translate(63.711 135.852)" opacity="0.3">
              <g id="Grupo_1068877" data-name="Grupo 1068877" transform="translate(0 0)">
                <g id="Grupo_1068876" data-name="Grupo 1068876" clip-path="url(#clip-path-10)">
                  <path id="Trazado_812780" data-name="Trazado 812780" d="M71.789,178.407l40.7,4.73a3.644,3.644,0,0,0,3.983-3.022l3.963-24.913a3.29,3.29,0,0,0-2.894-3.821l-40.7-4.73a3.643,3.643,0,0,0-3.983,3.022L68.9,174.585a3.291,3.291,0,0,0,2.894,3.822" transform="translate(-68.852 -146.629)"/>
                </g>
              </g>
            </g>
            <path id="Trazado_812781" data-name="Trazado 812781" d="M105.3,156.439a2.01,2.01,0,0,1-.223-.012l-11.82-1.374h0A1.884,1.884,0,0,1,91.6,152.88l.854-5.372a3.977,3.977,0,0,1,4.35-3.3l7.905.92a3.84,3.84,0,0,1,3.366,4.44l-.829,5.207a2,2,0,0,1-1.955,1.663m-11.83-3.224,11.822,1.373a.128.128,0,0,0,.135-.1l.829-5.208a1.991,1.991,0,0,0-1.751-2.31l-7.905-.919a2.144,2.144,0,0,0-2.309,1.75l-.854,5.372-.073.964Z" transform="translate(-6.798 -10.702)" fill="#3b5620"/>
            <path id="Trazado_812782" data-name="Trazado 812782" d="M117.174,183.653l-40.7-4.73a3.752,3.752,0,0,1-3.265-3.864l1.259-25.226a3.2,3.2,0,0,1,3.611-3.065l40.7,4.73a3.752,3.752,0,0,1,3.265,3.864l-1.259,25.226a3.2,3.2,0,0,1-3.611,3.065" transform="translate(-5.433 -10.892)" fill="#c6e8a5"/>
            <path id="Trazado_812783" data-name="Trazado 812783" d="M153.6,90.929c6.291,1.52,12.792,7.715,12.792,7.715l-5.553,13.682s-12.949-7.908-14.163-12.266c-1.615-5.8.864-10.6,6.924-9.131" transform="translate(-10.851 -6.73)" fill="#bc68b0"/>
            <path id="Trazado_812784" data-name="Trazado 812784" d="M125.21,62.645c1.327,8.01,1.717,11.428,6.216,15.146,6.766,5.591,16.315,2.21,17.407-6.035.983-7.421-1.352-19.273-9.573-21.667a11.074,11.074,0,0,0-14.05,12.556" transform="translate(-9.282 -3.683)" fill="#b55b52"/>
            <path id="Trazado_812785" data-name="Trazado 812785" d="M141.588,50.5c-5.308-.609-14.842-8.358-20.216-.423-4.943,7.3-7.452,8.369-15.1,11.307-12.757,4.9-5.656,10.113-11.133,17.976S80.485,84.9,79.172,95.552c-2.006,16.283,26.23,36.259,43.125,17.9s5.783-24.573,13.4-29.856c9.636-6.686,7.2-17.811,3.884-19.329,3.634-3.7,8.734-13,2.009-13.767" transform="translate(-5.869 -3.453)" fill="#263238"/>
            <path id="Trazado_812786" data-name="Trazado 812786" d="M147.167,63.805a7.456,7.456,0,0,1,1.956,4.449c.115,2.081-1.808,2.255-3.5.951-1.522-1.174-3.416-3.672-2.734-5.412.672-1.715,2.852-1.541,4.277.012" transform="translate(-10.596 -4.645)" fill="#b55b52"/>
            <path id="Trazado_812787" data-name="Trazado 812787" d="M140.823,145.017s-3.257,48.855-15.877,73.927c-5.136,10.2-28.6,48.092-28.6,48.092l-11.475-1.9s16.594-41.228,26.78-50.9c1.062-27.259-6.9-55.856,4.725-69.222Z" transform="translate(-6.299 -10.764)" fill="#263238"/>
            <g id="Grupo_1068881" data-name="Grupo 1068881" transform="translate(123.429 147.423)" opacity="0.4">
              <g id="Grupo_1068880" data-name="Grupo 1068880">
                <g id="Grupo_1068879" data-name="Grupo 1068879" clip-path="url(#clip-path-11)">
                  <path id="Trazado_812788" data-name="Trazado 812788" d="M133.406,159.243a116.94,116.94,0,0,0,4.018,34.244c1.833-7.869,3.222-15.877,4.268-23.015a57.369,57.369,0,0,0-8.286-11.23" transform="translate(-133.325 -159.243)"/>
                </g>
              </g>
            </g>
            <path id="Trazado_812789" data-name="Trazado 812789" d="M97.043,277.939l-13.713-3.72L85,269.507l14.755,3.475Z" transform="translate(-6.185 -20.005)" fill="#263238"/>
            <path id="Trazado_812790" data-name="Trazado 812790" d="M197.364,237.638l8.341,1.228-1.666-18.826-8.341-1.228Z" transform="translate(-14.526 -16.242)" fill="#b55b52"/>
            <path id="Trazado_812791" data-name="Trazado 812791" d="M205.576,234.3l-9.086-1.381a.649.649,0,0,0-.73.455l-2.127,7.032a1.314,1.314,0,0,0,1.079,1.635c3.176.427,4.731.473,8.726,1.08,2.458.373,6.011,1.175,9.406,1.69,3.32.5,4.085-2.813,2.718-3.333-6.131-2.326-6.846-4.358-8.71-6.476a2.134,2.134,0,0,0-1.276-.7" transform="translate(-14.369 -17.288)" fill="#263238"/>
            <g id="Grupo_1068884" data-name="Grupo 1068884" transform="translate(181.17 202.576)" opacity="0.2">
              <g id="Grupo_1068883" data-name="Grupo 1068883">
                <g id="Grupo_1068882" data-name="Grupo 1068882" clip-path="url(#clip-path-12)">
                  <path id="Trazado_812792" data-name="Trazado 812792" d="M195.7,218.818l8.344,1.229.775,8.792-8.264-.318Z" transform="translate(-195.696 -218.818)"/>
                </g>
              </g>
            </g>
            <path id="Trazado_812793" data-name="Trazado 812793" d="M152.78,145.017s54.791,9.286,52.63,25.333c-3.418,25.394-4.748,48.929-4.748,48.929l-10.641-.928s-4.459-25.02-1.389-41.735c-12.807-5.786-67,16.714-60.3-31.6Z" transform="translate(-9.483 -10.764)" fill="#263238"/>
            <path id="Trazado_812794" data-name="Trazado 812794" d="M206.615,227.552,192.5,225.888l-.157-5.038,14.992,1.255Z" transform="translate(-14.277 -16.393)" fill="#263238"/>
            <path id="Trazado_812795" data-name="Trazado 812795" d="M118.239,142.89l-1.5,2.974c-.117.231.156.467.541.467h34.843c.3,0,.547-.147.567-.335l.3-2.975c.021-.206-.239-.38-.567-.38H118.78a.6.6,0,0,0-.542.25" transform="translate(-8.663 -10.588)" fill="#fff"/>
            <path id="Trazado_812796" data-name="Trazado 812796" d="M123.145,146.631h-.9c-.18,0-.317-.093-.3-.206l.422-3.864c.012-.113.169-.206.349-.206h.9c.18,0,.316.093.3.206l-.422,3.864c-.013.113-.169.206-.349.206" transform="translate(-9.051 -10.567)" fill="#263238"/>
            <path id="Trazado_812797" data-name="Trazado 812797" d="M146.737,146.631h-.9c-.18,0-.317-.093-.3-.206l.422-3.864c.012-.113.169-.206.349-.206h.9c.18,0,.316.093.3.206l-.422,3.864c-.013.113-.169.206-.349.206" transform="translate(-10.802 -10.567)" fill="#263238"/>
          </g>
        </g>
      </g>
    </g>
  </g>
</svg>
