<svg xmlns="http://www.w3.org/2000/svg" xmlns:xlink="http://www.w3.org/1999/xlink" width="567" height="333" viewBox="0 0 567 333">
  <defs>
    <clipPath id="clip-path">
      <rect id="Rectángulo_375427" data-name="Rectángulo 375427" width="346.867" height="332.559" fill="none"/>
    </clipPath>
    <clipPath id="clip-path-2">
      <rect id="Rectángulo_375405" data-name="Rectángulo 375405" width="346.867" height="332.559" fill="#3b5620"/>
    </clipPath>
    <clipPath id="clip-path-5">
      <rect id="Rectángulo_375407" data-name="Rectángulo 375407" width="36.136" height="78.274" fill="none"/>
    </clipPath>
    <clipPath id="clip-path-8">
      <rect id="Rectángulo_375413" data-name="Rectángulo 375413" width="45.438" height="42.437" fill="none"/>
    </clipPath>
    <clipPath id="clip-path-9">
      <rect id="Rectángulo_375414" data-name="Rectángulo 375414" width="169.591" height="227.131" fill="none"/>
    </clipPath>
    <clipPath id="clip-path-10">
      <rect id="Rectángulo_375415" data-name="Rectángulo 375415" width="169.59" height="226.82" fill="none"/>
    </clipPath>
    <clipPath id="clip-path-13">
      <rect id="Rectángulo_375420" data-name="Rectángulo 375420" width="22.178" height="12.027" fill="none"/>
    </clipPath>
    <clipPath id="clip-path-14">
      <rect id="Rectángulo_375421" data-name="Rectángulo 375421" width="20.239" height="8.719" fill="none"/>
    </clipPath>
    <clipPath id="clip-path-15">
      <rect id="Rectángulo_375422" data-name="Rectángulo 375422" width="5.798" height="21.117" fill="none"/>
    </clipPath>
    <clipPath id="clip-path-16">
      <rect id="Rectángulo_375423" data-name="Rectángulo 375423" width="33.205" height="5.279" fill="none"/>
    </clipPath>
    <clipPath id="clip-path-17">
      <rect id="Rectángulo_375424" data-name="Rectángulo 375424" width="3.843" height="3.909" fill="none"/>
    </clipPath>
    <clipPath id="clip-path-18">
      <rect id="Rectángulo_375425" data-name="Rectángulo 375425" width="2.821" height="12.203" fill="none"/>
    </clipPath>
  </defs>
  <g id="Grupo_1068996" data-name="Grupo 1068996" transform="translate(-810 -1551.15)">
    <g id="Grupo_1068983" data-name="Grupo 1068983" transform="translate(0 153.447)">
      <g id="Grupo_1068967" data-name="Grupo 1068967" transform="translate(0 811.703)">
        <rect id="Rectángulo_376337" data-name="Rectángulo 376337" width="567" height="333" transform="translate(810 586)" fill="none"/>
      </g>
    </g>
    <g id="Grupo_1068995" data-name="Grupo 1068995" transform="translate(929.568 1551.15)">
      <g id="Grupo_1067749" data-name="Grupo 1067749" clip-path="url(#clip-path)">
        <g id="Grupo_1067705" data-name="Grupo 1067705">
          <g id="Grupo_1067704" data-name="Grupo 1067704" clip-path="url(#clip-path-2)">
            <path id="Trazado_807827" data-name="Trazado 807827" d="M191.183,397.136c-13.512-6.4-18.9-21.6-20.808-35.769-.318-2.365-1-4.8-.227-7.052s3.141-4.1,5.414-3.468c1.886.527,2.99,2.429,4.251,3.944a13.953,13.953,0,0,0,6.405,4.334c1.628.524,3.561.685,4.9-.38,1.838-1.462,1.6-4.3,1.193-6.641q-1.148-6.53-2.293-13.061a22.082,22.082,0,0,1-.47-7.065,7.357,7.357,0,0,1,3.729-5.675c2.12-1,5.087-.182,5.944,2.027a21.906,21.906,0,0,1,.559,2.9,2.494,2.494,0,0,0,1.831,2.072c.98.116,1.8-.7,2.387-1.508a31.521,31.521,0,0,0,4.157-9.372,43.766,43.766,0,0,1,3.735-9.577c1.755-2.946,4.438-5.5,7.755-6.255s7.235.707,8.637,3.852.049,6.823-1.592,9.845a52.945,52.945,0,0,1-9.116,12.2,4.359,4.359,0,0,0-1.487,2.262c-.244,1.645,1.5,2.943,3.121,3.2,1.841.285,3.7-.216,5.562-.309s3.971.376,4.952,1.983c1.363,2.228-.212,5.072-1.9,7.045a45.351,45.351,0,0,1-11.941,9.878,15.3,15.3,0,0,0-4.513,3.222c-1.182,1.443-1.664,3.686-.547,5.192s3.357,1.67,5.1,1.031a31.63,31.63,0,0,0,4.8-2.828c3.008-1.757,7.2-2.238,9.724.192a7.5,7.5,0,0,1,1.894,6.41,17.3,17.3,0,0,1-2.567,6.379,45.611,45.611,0,0,1-16.916,16.74c-7.017,3.846-13.806,5.714-21.673,4.258" transform="translate(-36.675 -66.181)" fill="#3b5620"/>
            <path id="Trazado_807828" data-name="Trazado 807828" d="M199.809,388.079a212.474,212.474,0,0,1,4.5-23.966l1.5-6.222c.5-2.04.991-4.064,1.6-6.014a106.092,106.092,0,0,1,4.119-11c1.479-3.437,3.009-6.644,4.46-9.633s2.871-5.745,4.265-8.2a84.161,84.161,0,0,1,7.436-11.1c.978-1.238,1.766-2.173,2.31-2.8.262-.3.467-.533.623-.709a1.781,1.781,0,0,1,.223-.231,1.648,1.648,0,0,1-.19.26l-.589.737c-.521.644-1.289,1.6-2.245,2.848a89.056,89.056,0,0,0-7.3,11.151c-1.373,2.462-2.766,5.222-4.208,8.212s-2.952,6.2-4.418,9.634a107.411,107.411,0,0,0-4.078,10.97c-.6,1.94-1.086,3.946-1.584,5.992l-1.5,6.219a217.863,217.863,0,0,0-4.527,23.912" transform="translate(-43.159 -66.57)" fill="#e0e0e0"/>
            <path id="Trazado_807829" data-name="Trazado 807829" d="M207.515,356.936a4.833,4.833,0,0,1-.4-.959c-.232-.626-.538-1.541-.9-2.678-.724-2.272-1.617-5.444-2.59-8.945s-1.908-6.653-2.665-8.908c-.376-1.129-.688-2.039-.913-2.666a4.683,4.683,0,0,1-.3-.993,4.779,4.779,0,0,1,.459.931c.274.608.632,1.505,1.045,2.625.835,2.237,1.822,5.386,2.795,8.893.95,3.457,1.809,6.585,2.466,8.974.3,1.078.56,1.986.766,2.715a4.758,4.758,0,0,1,.235,1.011" transform="translate(-43.145 -71.666)" fill="#e0e0e0"/>
            <path id="Trazado_807830" data-name="Trazado 807830" d="M238.77,350.209a6.619,6.619,0,0,1-1.175.347c-.76.2-1.86.481-3.209.873-2.7.764-6.4,1.948-10.423,3.434s-7.6,3-10.16,4.164c-1.284.573-2.31,1.065-3.022,1.4a6.581,6.581,0,0,1-1.124.486,6.53,6.53,0,0,1,1.047-.64c.689-.383,1.7-.919,2.969-1.531,2.532-1.24,6.107-2.8,10.139-4.3a107.609,107.609,0,0,1,10.493-3.319c1.363-.355,2.479-.593,3.253-.74a6.411,6.411,0,0,1,1.212-.179" transform="translate(-45.285 -75.643)" fill="#e0e0e0"/>
            <path id="Trazado_807831" data-name="Trazado 807831" d="M194.2,399.429a1.564,1.564,0,0,1-.268-.332c-.189-.27-.419-.6-.7-1-.6-.871-1.442-2.155-2.457-3.755-2.033-3.2-4.7-7.706-7.581-12.719s-5.5-9.541-7.468-12.777l-2.336-3.827-.63-1.045a1.588,1.588,0,0,1-.2-.382,1.62,1.62,0,0,1,.269.333l.7,1c.6.872,1.441,2.155,2.456,3.755,2.034,3.2,4.7,7.706,7.582,12.721s5.5,9.538,7.466,12.775L193.376,398l.63,1.045a1.572,1.572,0,0,1,.2.381" transform="translate(-37.274 -78.535)" fill="#e0e0e0"/>
            <path id="Trazado_807832" data-name="Trazado 807832" d="M237.933,384.258a1.625,1.625,0,0,1-.369.231l-1.094.585-4.043,2.111c-3.414,1.783-8.1,4.3-13.276,7.086s-9.892,5.264-13.344,6.976c-1.726.857-3.129,1.536-4.107,1.985l-1.131.511a1.591,1.591,0,0,1-.407.151,1.645,1.645,0,0,1,.368-.231l1.094-.584,4.043-2.111c3.414-1.782,8.1-4.3,13.279-7.087s9.889-5.263,13.341-6.975c1.726-.857,3.129-1.536,4.109-1.985l1.131-.511a1.63,1.63,0,0,1,.408-.151" transform="translate(-43.234 -82.999)" fill="#e0e0e0"/>
            <path id="Trazado_807833" data-name="Trazado 807833" d="M68.609,207.429s-9.316,1.294-4.085,21.7,9.666,30.917,9.666,30.917.7,4.621-3.023,4.478-11.32-3.167-13.9.852c-2.673,4.169-.336,9.192,5.507,14.45S81,297.071,82.113,298.159c1.094,1.068,1.925,3.332-.629,3.641S60.8,299.981,60.3,308.646s18.189,20.638,20.207,21.986,2.336,2.4,1.883,3.575-6.48-.118-11.662-.512-11.26.057-11.126,5.08,9.943,17.715,38.564,27.153l13.548,3.5,10.016-9.863c20.147-22.413,22.353-38.3,19.972-42.727s-7.878-1.8-12.179,1.121-8.891,7.031-9.865,6.239-1.223-1.866-.143-4.038,11.344-21.847,6.61-29.12-19.413,3.584-21.783,4.585-2.774-1.377-2.354-2.848c.426-1.5,5.21-18.054,7.668-25.52s1.988-12.986-2.4-15.275c-4.234-2.209-9.321,4.19-12.483,6.165s-4.849-2.384-4.849-2.384-1.376-11.329-6.975-31.632-14.529-16.666-14.529-16.666" transform="translate(-12.133 -44.758)" fill="#3b5620"/>
            <path id="Trazado_807834" data-name="Trazado 807834" d="M116.414,377.9c-4.054-14.927-10.814-41.579-16.736-64.432S88.379,269.944,84.4,255c-1.994-7.458-3.608-13.5-4.729-17.7l-1.283-4.812-.323-1.254c-.071-.284-.1-.432-.1-.432s.054.14.139.419c.086.3.208.71.364,1.243.317,1.113.775,2.724,1.362,4.791,1.178,4.162,2.839,10.2,4.863,17.661,4.053,14.927,9.481,35.594,15.4,58.439s12.634,49.514,16.612,64.461" transform="translate(-16.842 -49.853)" fill="#e0e0e0"/>
            <path id="Trazado_807835" data-name="Trazado 807835" d="M70.908,287.338a4.535,4.535,0,0,1,.892.479c.561.329,1.358.83,2.336,1.458,1.955,1.26,4.61,3.069,7.5,5.117l7.389,5.272,2.249,1.583a4.585,4.585,0,0,1,.8.614,4.458,4.458,0,0,1-.9-.472c-.561-.332-1.358-.833-2.33-1.471-1.943-1.279-4.574-3.122-7.467-5.17l-7.424-5.217-2.258-1.572a4.529,4.529,0,0,1-.8-.621" transform="translate(-15.316 -62.064)" fill="#e0e0e0"/>
            <path id="Trazado_807836" data-name="Trazado 807836" d="M99.355,298.143c-.1-.065,3.386-5.7,7.789-12.593s8.054-12.425,8.155-12.361-3.385,5.7-7.789,12.594-8.054,12.423-8.155,12.359" transform="translate(-21.46 -59.009)" fill="#e0e0e0"/>
            <path id="Trazado_807837" data-name="Trazado 807837" d="M108.936,345.323a4.706,4.706,0,0,1,.743-.718l2.114-1.849c1.782-1.563,4.234-3.733,6.851-6.227s4.92-4.822,6.569-6.525l1.955-2.016a4.767,4.767,0,0,1,.754-.706,4.64,4.64,0,0,1-.629.82c-.426.509-1.057,1.234-1.857,2.113-1.593,1.759-3.862,4.135-6.493,6.63s-5.116,4.64-6.951,6.146c-.921.75-1.674,1.348-2.205,1.745a4.675,4.675,0,0,1-.851.588" transform="translate(-23.53 -70.692)" fill="#e0e0e0"/>
            <path id="Trazado_807838" data-name="Trazado 807838" d="M79.685,339.966a4.03,4.03,0,0,1,.929.225l2.481.768c2.089.666,4.964,1.614,8.132,2.687s6.029,2.068,8.092,2.808l2.437.9a4.009,4.009,0,0,1,.874.386,4.062,4.062,0,0,1-.929-.226l-2.481-.768c-2.089-.666-4.964-1.614-8.133-2.688S85.059,341.991,83,341.25l-2.437-.9a4.061,4.061,0,0,1-.874-.385" transform="translate(-17.212 -73.431)" fill="#e0e0e0"/>
            <path id="Trazado_807839" data-name="Trazado 807839" d="M83.064,381.012a6.63,6.63,0,0,1,1.185.3l3.183.971c2.681.838,6.377,2.025,10.45,3.362s7.754,2.569,10.411,3.482l3.14,1.1a6.646,6.646,0,0,1,1.133.46,6.485,6.485,0,0,1-1.185-.3l-3.183-.971c-2.681-.839-6.377-2.026-10.451-3.363s-7.753-2.569-10.41-3.483l-3.14-1.1a6.6,6.6,0,0,1-1.133-.461" transform="translate(-17.942 -82.297)" fill="#e0e0e0"/>
            <path id="Trazado_807840" data-name="Trazado 807840" d="M119.878,386.324a7.492,7.492,0,0,1,.919-.934l2.6-2.441c2.188-2.064,5.2-4.925,8.436-8.178s6.1-6.267,8.15-8.465l2.433-2.6a7.609,7.609,0,0,1,.93-.922,7.458,7.458,0,0,1-.8,1.035c-.539.648-1.332,1.572-2.332,2.7-2,2.255-4.822,5.311-8.07,8.566s-6.292,6.089-8.536,8.1c-1.125,1-2.043,1.8-2.691,2.341a7.589,7.589,0,0,1-1.031.807" transform="translate(-25.893 -78.36)" fill="#e0e0e0"/>
            <path id="Trazado_807841" data-name="Trazado 807841" d="M29.586,43.383,21.935,41s-2,6.424-8.716,4.456a6.483,6.483,0,0,1-4.763-5.821A7.18,7.18,0,0,1,10.934,33.6c1.965-1.735,5.416-2.793,10.288-.276l5.382-17.251-7.566-2.36-3.152,10.1S4.42,23.255.772,34.949C-2.718,46.136,6.5,51.865,10.8,53.2c3.284,1.025,14.72,3.721,18.786-9.822" transform="translate(0 -2.963)" fill="#f5f5f5"/>
            <rect id="Rectángulo_375400" data-name="Rectángulo 375400" width="7.512" height="8.043" transform="translate(20.057 7.172) rotate(-72.674)" fill="#f5f5f5"/>
            <path id="Trazado_807842" data-name="Trazado 807842" d="M64.589,24.664l3.064-.808a2.692,2.692,0,0,1,1.983-3.323,2.564,2.564,0,0,1,2.818.949,2.841,2.841,0,0,1,.436,2.539c-.293.994-1.227,2.073-3.388,2.254l1.822,6.908,3.03-.8-1.068-4.047a6.118,6.118,0,0,0,2.724-6.9c-1.182-4.481-5.474-4.461-7.194-4.007-1.316.347-5.711,1.846-4.228,7.236" transform="translate(-13.886 -3.722)" fill="#ebebeb"/>
            <rect id="Rectángulo_375401" data-name="Rectángulo 375401" width="3.18" height="2.97" transform="matrix(0.967, -0.255, 0.255, 0.967, 57.805, 30.886)" fill="#ebebeb"/>
            <path id="Trazado_807843" data-name="Trazado 807843" d="M370.182,127.576l2.979,1.08a2.693,2.693,0,0,1,3.522-1.6,2.564,2.564,0,0,1,1.777,2.384,2.838,2.838,0,0,1-1.087,2.336c-.807.65-2.188,1.007-4.068-.075l-2.434,6.718,2.946,1.067,1.425-3.935a6.118,6.118,0,0,0,6.168-4.125c1.578-4.357-1.962-6.783-3.634-7.389-1.279-.463-5.748-1.733-7.6,3.544" transform="translate(-79.959 -26.688)" fill="#ebebeb"/>
            <rect id="Rectángulo_375402" data-name="Rectángulo 375402" width="2.97" height="3.18" transform="matrix(0.341, -0.94, 0.94, 0.341, 289.392, 115.898)" fill="#ebebeb"/>
            <path id="Trazado_807844" data-name="Trazado 807844" d="M3.766,194.162l6.3-2.429s-2.039-5.294,3.426-7.508a5.467,5.467,0,0,1,6.2,1.352,6.057,6.057,0,0,1,1.518,5.28c-.39,2.175-2.116,4.68-6.654,5.569l5.477,14.216,6.234-2.4-3.208-8.328s7.874-5.629,4.161-15.265c-3.552-9.22-12.644-8.176-16.184-6.813-2.706,1.043-11.675,5.249-7.27,16.327" transform="translate(-0.555 -38.22)" fill="#f5f5f5"/>
            <rect id="Rectángulo_375403" data-name="Rectángulo 375403" width="6.781" height="6.333" transform="translate(20.589 175.358) rotate(-21.067)" fill="#f5f5f5"/>
            <path id="Trazado_807845" data-name="Trazado 807845" d="M368.535,199.5l-4.468,1.722a4.069,4.069,0,0,1-2.428,5.32,3.872,3.872,0,0,1-4.39-.959,4.291,4.291,0,0,1-1.076-3.741c.277-1.541,1.5-3.317,4.716-3.947l-3.882-10.074-4.418,1.7,2.274,5.9a9.246,9.246,0,0,0-2.949,10.818c2.517,6.533,8.961,5.794,11.469,4.827,1.918-.739,8.273-3.719,5.152-11.57" transform="translate(-75.861 -40.569)" fill="#f5f5f5"/>
            <rect id="Rectángulo_375404" data-name="Rectángulo 375404" width="4.805" height="4.487" transform="translate(274.262 142.71) rotate(-21.067)" fill="#f5f5f5"/>
          </g>
        </g>
        <g id="Grupo_1067707" data-name="Grupo 1067707">
          <g id="Grupo_1067706" data-name="Grupo 1067706" clip-path="url(#clip-path)">
            <path id="Trazado_807846" data-name="Trazado 807846" d="M313.889,423.793c0,.113-61.368.2-137.051.2-75.71,0-137.065-.091-137.065-.2s61.354-.2,137.065-.2c75.684,0,137.051.091,137.051.2" transform="translate(-8.591 -91.495)" fill="#263238"/>
          </g>
        </g>
        <g id="Grupo_1067712" data-name="Grupo 1067712">
          <g id="Grupo_1067711" data-name="Grupo 1067711" clip-path="url(#clip-path)">
            <path id="Trazado_807847" data-name="Trazado 807847" d="M385.1,381.912c.743-2.884-1.146-5.778-3.266-7.87s-4.652-3.965-5.755-6.731c-1.786-4.481.615-10.283-2.434-14.022-1.792-2.2-5.008-2.935-6.6-5.285a12.027,12.027,0,0,1-1.432-4.2,42.654,42.654,0,0,0-10.606-19.848,36.993,36.993,0,0,0,4.161,19.129c1.234,2.35,2.75,4.642,3.159,7.265.666,4.26-1.713,8.648-.666,12.831,1.2,4.784,6.569,7.986,6.824,12.91.216,4.163-3.414,7.817-3.143,11.977a11.241,11.241,0,0,0,1.853,4.936c3.219,5.352,7.947,9.037,15.115,8.918l8.779.307Z" transform="translate(-76.67 -69.974)" fill="#dbf9bd"/>
            <g id="Grupo_1067710" data-name="Grupo 1067710" transform="translate(277.875 253.198)" opacity="0.3">
              <g id="Grupo_1067709" data-name="Grupo 1067709">
                <g id="Grupo_1067708" data-name="Grupo 1067708" clip-path="url(#clip-path-5)">
                  <path id="Trazado_807848" data-name="Trazado 807848" d="M385.1,381.912c.743-2.884-1.146-5.778-3.266-7.87s-4.652-3.965-5.755-6.731c-1.786-4.481.615-10.283-2.434-14.022-1.792-2.2-5.008-2.935-6.6-5.285a12.027,12.027,0,0,1-1.432-4.2,42.654,42.654,0,0,0-10.606-19.848,36.993,36.993,0,0,0,4.161,19.129c1.234,2.35,2.75,4.642,3.159,7.265.666,4.26-1.713,8.648-.666,12.831,1.2,4.784,6.569,7.986,6.824,12.91.216,4.163-3.414,7.817-3.143,11.977a11.241,11.241,0,0,0,1.853,4.936c3.219,5.352,7.947,9.037,15.115,8.918l8.779.307Z" transform="translate(-354.955 -323.956)"/>
                </g>
              </g>
            </g>
            <path id="Trazado_807849" data-name="Trazado 807849" d="M402.089,394.152a7.015,7.015,0,0,0,2.417-.053,14.643,14.643,0,0,0,2.853-.717,12.115,12.115,0,0,0,3.523-1.93,4.91,4.91,0,0,0,1.449-1.931,9.083,9.083,0,0,0,.413-2.623,25.34,25.34,0,0,1,.205-2.84,7.825,7.825,0,0,1,1.073-2.823c1.035-1.818,2.753-3.539,3.309-6.009.6-2.428.17-5.056-.238-7.695s-.8-5.5.2-8.247c.942-2.746,2.867-5.225,3.83-8.319.958-3.127.512-6.488.714-9.8a13.009,13.009,0,0,1,1.144-4.875c.71-1.554,1.7-3.019,2.465-4.655,1.558-3.307,1.833-7.055,2.259-10.728q.312-2.777.63-5.61a27.5,27.5,0,0,1,.975-5.614,49.428,49.428,0,0,1,2.1-5.433,18.037,18.037,0,0,0,1.018-2.837,28.556,28.556,0,0,0,.284-3.02,35.633,35.633,0,0,0-.234-6.077c-.238-2.026-.6-4.034-.822-6.064-.013-.12-.027-.24-.039-.35l-.045-.4-.359.18a13.56,13.56,0,0,0-4.726,3.988,21.5,21.5,0,0,0-2.9,5.351c-1.466,3.772-1.995,7.725-2.734,11.5a31.218,31.218,0,0,1-3.607,10.617c-.961,1.563-2.125,2.991-3.144,4.516a12.412,12.412,0,0,0-2.179,5c-.519,3.714,1.526,6.975,1.1,10.263a11.391,11.391,0,0,1-1.6,4.557c-.8,1.4-1.734,2.7-2.622,4.01a25.752,25.752,0,0,0-2.357,4.051,12.84,12.84,0,0,0-1.079,4.4c-.214,2.96.206,5.769-.01,8.42a19.376,19.376,0,0,1-2.167,7.215c-1.062,2.16-2.243,4.113-3.232,6.007a30.959,30.959,0,0,0-1.331,2.8,13.734,13.734,0,0,0-.77,2.775,17.512,17.512,0,0,0-.065,5.011,12.62,12.62,0,0,0,2.512,6.39,6.07,6.07,0,0,0,.71.769,3.531,3.531,0,0,0,.576.489c.328.241.5.352.5.352a11.09,11.09,0,0,1-1.7-1.681,12.712,12.712,0,0,1-2.383-6.347,17.423,17.423,0,0,1,.112-4.938,13.563,13.563,0,0,1,.776-2.71c.374-.905.838-1.825,1.339-2.76,1-1.877,2.191-3.822,3.276-6a19.712,19.712,0,0,0,2.242-7.342c.23-2.707-.177-5.526.047-8.417a12.4,12.4,0,0,1,1.058-4.253,25.392,25.392,0,0,1,2.33-3.969c.888-1.3,1.836-2.6,2.656-4.036a11.858,11.858,0,0,0,1.675-4.742c.423-3.5-1.607-6.786-1.08-10.238a11.9,11.9,0,0,1,2.105-4.786c1-1.5,2.172-2.925,3.163-4.528a31.692,31.692,0,0,0,3.691-10.794c.746-3.795,1.275-7.706,2.715-11.4a21.012,21.012,0,0,1,2.827-5.21,13.012,13.012,0,0,1,4.528-3.824l-.4-.224c.012.111.026.233.039.354.221,2.054.587,4.067.823,6.069a35.052,35.052,0,0,1,.233,5.984,28.74,28.74,0,0,1-.27,2.928,17.708,17.708,0,0,1-.986,2.737,49.96,49.96,0,0,0-2.116,5.493,27.977,27.977,0,0,0-.989,5.707q-.314,2.835-.622,5.613c-.419,3.69-.695,7.377-2.2,10.57-.741,1.589-1.725,3.059-2.456,4.664a13.507,13.507,0,0,0-1.176,5.054c-.191,3.388.249,6.7-.667,9.7s-2.826,5.479-3.793,8.312c-1.036,2.862-.607,5.827-.187,8.451.423,2.644.85,5.216.284,7.55-.507,2.358-2.176,4.063-3.233,5.934a8.132,8.132,0,0,0-1.089,2.935,25.493,25.493,0,0,0-.184,2.874,8.893,8.893,0,0,1-.375,2.552,4.7,4.7,0,0,1-1.362,1.847,12.036,12.036,0,0,1-3.439,1.94,15.154,15.154,0,0,1-2.812.763,11.281,11.281,0,0,1-1.786.172c-.4-.015-.614-.008-.614-.008" transform="translate(-85.89 -61.666)" fill="#263238"/>
            <path id="Trazado_807850" data-name="Trazado 807850" d="M431.052,292.174a1.006,1.006,0,0,0-.085.265c-.052.211-.115.47-.194.791-.172.691-.379,1.735-.71,3.039s-1.141,2.772-1.822,4.586c-.708,1.8-1.426,3.884-2.087,6.227s-1.263,4.942-1.883,7.726a32.51,32.51,0,0,1-2.811,8.573c-.719,1.426-1.53,2.869-2.172,4.448a20.678,20.678,0,0,0-1.265,5.038,101.964,101.964,0,0,1-1.893,10.621l-4.964,20.285-4.16,16.544-2.757,11.166c-.306,1.287-.546,2.3-.722,3.043l-.174.794a1.015,1.015,0,0,0-.04.276,1.076,1.076,0,0,0,.1-.261l.229-.781c.2-.733.475-1.741.824-3.017l2.931-11.121c1.221-4.715,2.67-10.308,4.277-16.514,1.541-6.241,3.233-13.094,5.01-20.291a100.407,100.407,0,0,0,1.889-10.665,20.263,20.263,0,0,1,1.217-4.916c.62-1.538,1.417-2.975,2.138-4.415a32.72,32.72,0,0,0,2.8-8.706c.6-2.792,1.17-5.385,1.811-7.721s1.32-4.419,2-6.22c.646-1.808,1.417-3.3,1.74-4.641.3-1.337.472-2.369.609-3.074.056-.325.1-.588.14-.8a1.066,1.066,0,0,0,.028-.277" transform="translate(-87.115 -63.109)" fill="#263238"/>
            <path id="Trazado_807851" data-name="Trazado 807851" d="M396.552,386.518c5.734-3.409,7.38-13.754,4.988-19.981s-6.579-11.917-7.225-18.556c-.5-5.1,1.175-10.342-.013-15.33-1.6-6.731-8.176-11.946-8.1-18.866.043-3.882,2.252-7.536,2.076-11.415-.216-4.758-3.867-8.532-6.129-12.724-3.462-6.415-3.69-14-4.874-21.194s-3.925-14.9-10.3-18.432c-.942,6.107-2.549,10.289-2.044,18.563.181,2.971,3.633,8.659,4.1,15.171.281,3.892.475,7.789.713,11.684.232,3.791.477,7.65,1.836,11.2,1.04,2.717,2.713,5.186,3.486,7.991,1.454,5.278-.456,10.995.718,16.342.995,4.531,4.13,8.43,4.771,13.023.9,6.455-3.277,13.161-1.139,19.318,1.062,3.054,3.574,5.508,4.288,8.662.553,2.448-.05,5.039.451,7.5.807,3.961,8.363,7.038,12.4,6.793" transform="translate(-78.804 -54.004)" fill="#dbf9bd"/>
            <path id="Trazado_807852" data-name="Trazado 807852" d="M369.578,257.752a1.611,1.611,0,0,0,.025.345c.033.256.075.587.129,1,.132.882.279,2.177.577,3.852.321,1.684,1.189,3.58,1.882,5.866.732,2.279,1.46,4.908,2.1,7.852s1.2,6.2,1.777,9.7a40.662,40.662,0,0,0,2.939,10.971c.8,1.833,1.707,3.668,2.383,5.622a25.21,25.21,0,0,1,1.21,6.2,125.2,125.2,0,0,0,1.682,13.357c1.756,9.049,3.429,17.667,4.952,25.512,1.6,7.814,3.051,14.854,4.268,20.78,1.229,5.884,2.227,10.657,2.925,14,.351,1.621.626,2.895.823,3.8.094.408.169.733.228.985a.173.173,0,1,0,.056-.012c-.045-.255-.1-.583-.173-1-.172-.911-.412-2.191-.72-3.822-.656-3.352-1.594-8.136-2.749-14.035l-4.149-20.8c-1.508-7.843-3.166-16.459-4.905-25.505a126.493,126.493,0,0,1-1.687-13.314,25.732,25.732,0,0,0-1.25-6.32c-.7-2-1.613-3.838-2.418-5.657a40.536,40.536,0,0,1-2.954-10.84c-.593-3.5-1.166-6.764-1.848-9.711s-1.429-5.584-2.192-7.863c-.729-2.294-1.623-4.173-1.967-5.815-.327-1.644-.513-2.952-.68-3.823-.077-.412-.137-.74-.185-.995a1.538,1.538,0,0,0-.082-.336" transform="translate(-79.828 -55.674)" fill="#263238"/>
          </g>
        </g>
        <g id="Grupo_1067714" data-name="Grupo 1067714">
          <g id="Grupo_1067713" data-name="Grupo 1067713" clip-path="url(#clip-path)">
            <path id="Trazado_807853" data-name="Trazado 807853" d="M336.892,46.149h-3.121a2.653,2.653,0,0,1-2.723,2.668A2.525,2.525,0,0,1,328.6,47.2a2.8,2.8,0,0,1,.223-2.528c.529-.873,1.69-1.666,3.792-1.3V36.345h-3.086v4.122a6.026,6.026,0,0,0-4.328,5.888c0,4.564,4.092,5.624,5.844,5.624,1.34,0,5.9-.323,5.845-5.83" transform="translate(-70.243 -7.85)" fill="#632059"/>
            <rect id="Rectángulo_375409" data-name="Rectángulo 375409" width="3.132" height="2.925" transform="translate(259.25 24.12)" fill="#632059"/>
            <path id="Trazado_807854" data-name="Trazado 807854" d="M349.273,37.181a2.249,2.249,0,0,0,.006-.4c-.008-.286-.019-.67-.032-1.16-.013-.255-.012-.542-.038-.855l-.143-1.024-.172-1.195q-.156-.629-.331-1.335a21.63,21.63,0,0,0-2.822-6.47A22.833,22.833,0,0,0,328.58,14.259a23.56,23.56,0,0,0-3.128-.063c-.529.037-1.067.026-1.6.1l-1.611.242a22.962,22.962,0,0,0-6.367,2.175,24.5,24.5,0,0,0-5.722,4.158,24.041,24.041,0,0,0-4.3,5.991,21.787,21.787,0,0,0-2.241,7.3,14.51,14.51,0,0,0-.165,1.947,17.739,17.739,0,0,0-.036,1.969,23.321,23.321,0,0,0,.5,3.944,23.048,23.048,0,0,0,3.3,7.852l-.024-.238-3.21,8-.19.474.492-.136,8.55-2.35-.211-.041a22.942,22.942,0,0,0,9.77,4.268,20.784,20.784,0,0,0,5.005.31,16.077,16.077,0,0,0,2.4-.227l1.171-.182c.384-.071.757-.188,1.132-.28A22.869,22.869,0,0,0,345.1,50.555a21.868,21.868,0,0,0,2.8-5.311l.428-1.2q.15-.592.288-1.135t.258-1.039c.063-.334.1-.655.144-.956.077-.6.181-1.136.2-1.6s.029-.849.04-1.175c.006-.3.012-.534.016-.717a.122.122,0,1,0-.042,0c-.015.183-.034.419-.056.715-.022.324-.049.712-.079,1.167s-.152.988-.241,1.587a22.748,22.748,0,0,1-16.87,18.185c-.368.087-.735.2-1.113.269l-1.149.172a15.626,15.626,0,0,1-2.361.212,20.381,20.381,0,0,1-4.907-.324,22.53,22.53,0,0,1-9.557-4.209l-.1-.072-.116.032-8.555,2.333.3.338,3.219-7.994.05-.125-.074-.114a22.579,22.579,0,0,1-3.227-7.676,22.9,22.9,0,0,1-.488-3.855,17.115,17.115,0,0,1,.035-1.925,14.14,14.14,0,0,1,.161-1.905,21.316,21.316,0,0,1,2.184-7.141,23.6,23.6,0,0,1,4.2-5.868,24.1,24.1,0,0,1,5.591-4.085,22.523,22.523,0,0,1,6.23-2.15l1.579-.245c.523-.078,1.051-.069,1.569-.107a23.378,23.378,0,0,1,3.07.049A22.595,22.595,0,0,1,345.5,24.9a21.767,21.767,0,0,1,2.869,6.365q.186.7.351,1.319.1.63.194,1.181t.167,1.014c.035.311.042.6.063.849.036.487.064.869.085,1.154a2.216,2.216,0,0,0,.046.394" transform="translate(-65.532 -3.058)" fill="#263238"/>
          </g>
        </g>
        <g id="Grupo_1067728" data-name="Grupo 1067728">
          <g id="Grupo_1067727" data-name="Grupo 1067727" clip-path="url(#clip-path)">
            <path id="Trazado_807855" data-name="Trazado 807855" d="M63.7,138.075h45.278s0-38.017,39.508-38.7c20.518-.354,31.157,13.087,35.479,23.384,5.019,11.957,3.5,25.584-3.225,36.672-7.68,12.662-24.219,25.386-54.734,20.009l-.289,100.877h44.771v-59.8s62.792-16.232,62.792-85.432c0-66.209-53.542-80.512-82.317-81.431-16.012-.512-21.816-1.2-41.62,1.612C84.111,58.848,63.169,88.151,63.7,138.075" transform="translate(-13.758 -11.489)" fill="#dbf9bd"/>
            <rect id="Rectángulo_375411" data-name="Rectángulo 375411" width="45.438" height="42.437" transform="translate(111.838 289.861)" fill="#dbf9bd"/>
            <g id="Grupo_1067717" data-name="Grupo 1067717" transform="translate(111.838 290.122)" opacity="0.1">
              <g id="Grupo_1067716" data-name="Grupo 1067716">
                <g id="Grupo_1067715" data-name="Grupo 1067715" clip-path="url(#clip-path-8)">
                  <rect id="Rectángulo_375412" data-name="Rectángulo 375412" width="45.438" height="42.437" transform="translate(0 0)"/>
                </g>
              </g>
            </g>
            <g id="Grupo_1067720" data-name="Grupo 1067720" transform="translate(49.761 41.699)" opacity="0.1">
              <g id="Grupo_1067719" data-name="Grupo 1067719">
                <g id="Grupo_1067718" data-name="Grupo 1067718" clip-path="url(#clip-path-9)">
                  <path id="Trazado_807856" data-name="Trazado 807856" d="M63.7,138.075h45.278s0-38.017,39.508-38.7c20.518-.354,31.157,13.087,35.479,23.384,5.019,11.957,3.5,25.584-3.225,36.672-7.68,12.662-24.219,25.386-54.734,20.009l-.289,100.877h44.771v-59.8s62.792-16.232,62.792-85.432c0-66.209-53.542-80.512-82.317-81.431-16.012-.512-21.816-1.2-41.62,1.612C84.111,58.848,63.169,88.151,63.7,138.075" transform="translate(-63.693 -53.187)"/>
                </g>
              </g>
            </g>
            <path id="Trazado_807857" data-name="Trazado 807857" d="M39.781,138.16H85.059s0-38.017,39.508-38.7c20.518-.354,31.157,13.087,35.479,23.384,5.019,11.957,3.5,25.584-3.225,36.672-7.68,12.662-24.509,24.172-55.023,18.795V280.4H146.57V220.6s62.792-16.232,62.792-85.432c0-66.209-59.376-81.587-84.791-81.587-19.435,0-85.645,4.7-84.791,84.577" transform="translate(-8.591 -11.574)" fill="#dbf9bd"/>
            <g id="Grupo_1067723" data-name="Grupo 1067723" transform="translate(31.182 42.009)" opacity="0.3">
              <g id="Grupo_1067722" data-name="Grupo 1067722">
                <g id="Grupo_1067721" data-name="Grupo 1067721" clip-path="url(#clip-path-10)">
                  <path id="Trazado_807858" data-name="Trazado 807858" d="M39.781,138.16H85.059s0-38.017,39.508-38.7c20.518-.354,31.157,13.087,35.479,23.384,5.019,11.957,3.5,25.584-3.225,36.672-7.68,12.662-24.509,24.172-55.023,18.795V280.4H146.57V220.6s62.792-16.232,62.792-85.432c0-66.209-59.376-81.587-84.791-81.587-19.435,0-85.645,4.7-84.791,84.577" transform="translate(-39.773 -53.583)"/>
                </g>
              </g>
            </g>
            <rect id="Rectángulo_375416" data-name="Rectángulo 375416" width="45.438" height="42.437" transform="translate(93.082 289.861)" fill="#dbf9bd"/>
            <g id="Grupo_1067726" data-name="Grupo 1067726" transform="translate(93.082 290.122)" opacity="0.3">
              <g id="Grupo_1067725" data-name="Grupo 1067725">
                <g id="Grupo_1067724" data-name="Grupo 1067724" clip-path="url(#clip-path-8)">
                  <rect id="Rectángulo_375417" data-name="Rectángulo 375417" width="45.438" height="42.437" transform="translate(0 0)"/>
                </g>
              </g>
            </g>
            <path id="Trazado_807859" data-name="Trazado 807859" d="M142.083,112.244a4.2,4.2,0,0,1-.677-.042c-.443-.023-1.087-.147-1.929-.156a39.455,39.455,0,0,0-7.1.294,50.867,50.867,0,0,0-10.248,2.411,43.709,43.709,0,0,0-5.711,2.456,30.348,30.348,0,0,0-5.584,3.617,27.728,27.728,0,0,0-4.571,4.829,46.462,46.462,0,0,0-3.425,5.19,45.972,45.972,0,0,0-4.055,9.71,39.143,39.143,0,0,0-1.362,6.973c-.1.837-.122,1.489-.145,1.931a4.224,4.224,0,0,1-.06.676,4.2,4.2,0,0,1-.022-.677c0-.445,0-1.1.069-1.943a36.279,36.279,0,0,1,1.242-7.037,44.96,44.96,0,0,1,4-9.816,45.9,45.9,0,0,1,3.436-5.25,27.856,27.856,0,0,1,4.63-4.9,30.423,30.423,0,0,1,5.66-3.657A43.285,43.285,0,0,1,122,114.4a49.542,49.542,0,0,1,10.339-2.343,36.631,36.631,0,0,1,7.145-.166c.844.034,1.489.185,1.929.234a4.171,4.171,0,0,1,.666.123" transform="translate(-20.993 -24.145)" fill="#263238"/>
            <path id="Trazado_807860" data-name="Trazado 807860" d="M220.407,91.593a.957.957,0,0,1-.147-.178l-.4-.546-1.49-2.114c-.326-.456-.667-.98-1.079-1.524l-1.414-1.715-1.621-1.972c-.59-.684-1.278-1.351-1.964-2.082-.7-.715-1.4-1.5-2.2-2.254l-2.532-2.289c-.441-.39-.873-.808-1.342-1.2l-1.459-1.149c-.995-.767-1.984-1.6-3.062-2.375a98.042,98.042,0,0,0-14.835-8.761l-4.132-1.869-4.105-1.592c-1.334-.554-2.7-.947-4.017-1.383-1.326-.411-2.6-.887-3.9-1.19l-3.75-.985c-1.215-.322-2.423-.513-3.576-.764-1.159-.216-2.266-.5-3.353-.641l-3.118-.451c-1.98-.339-3.8-.407-5.385-.567-.795-.062-1.534-.147-2.216-.18l-1.868-.05-2.586-.083-.673-.032a.991.991,0,0,1-.23-.024.975.975,0,0,1,.229-.017l.673-.009,2.59.007,1.873.015c.684.02,1.425.094,2.223.146,1.592.138,3.417.186,5.406.508l3.132.426c1.092.128,2.2.408,3.368.619,1.158.245,2.372.43,3.592.746l3.768.972c1.3.3,2.583.772,3.915,1.181,1.325.433,2.7.825,4.037,1.378l4.124,1.594,4.149,1.874A96.346,96.346,0,0,1,201.928,71.9c1.08.779,2.069,1.624,3.065,2.4l1.458,1.161c.47.392.9.815,1.341,1.21l2.527,2.316c.793.76,1.489,1.558,2.187,2.282.682.741,1.365,1.417,1.949,2.11l1.6,2,1.392,1.741c.4.553.735,1.085,1.053,1.549l1.429,2.162.363.567a.959.959,0,0,1,.111.2" transform="translate(-31.096 -11.578)" fill="#263238"/>
            <path id="Trazado_807861" data-name="Trazado 807861" d="M222.659,226.055a3.279,3.279,0,0,1-.343.47l-1.044,1.3c-.452.565-1.018,1.247-1.709,2.009s-1.446,1.659-2.357,2.579c-.892.938-1.876,1.961-2.986,3-1.08,1.075-2.3,2.147-3.581,3.29a98.1,98.1,0,0,1-18.313,12.626c-1.523.786-2.96,1.55-4.349,2.176-1.37.666-2.675,1.222-3.869,1.723-1.185.524-2.289.916-3.249,1.286s-1.8.662-2.484.883l-1.585.514a3.069,3.069,0,0,1-.561.153,3.084,3.084,0,0,1,.535-.23l1.558-.586c.68-.245,1.508-.551,2.456-.947s2.043-.8,3.217-1.338c1.185-.516,2.477-1.086,3.837-1.763,1.378-.637,2.8-1.41,4.316-2.2,2.992-1.642,6.213-3.573,9.464-5.8,3.235-2.245,6.184-4.569,8.782-6.782,1.277-1.131,2.506-2.19,3.592-3.25,1.116-1.029,2.109-2.036,3.012-2.959.922-.9,1.693-1.783,2.4-2.531s1.287-1.41,1.758-1.959l1.1-1.248a3.078,3.078,0,0,1,.407-.418" transform="translate(-38.065 -48.828)" fill="#263238"/>
            <path id="Trazado_807862" data-name="Trazado 807862" d="M174.927,322.862c-.113,0-.2-12.593-.2-28.124s.092-28.127.2-28.127.2,12.591.2,28.127-.091,28.124-.2,28.124" transform="translate(-37.74 -57.588)" fill="#263238"/>
            <path id="Trazado_807863" data-name="Trazado 807863" d="M177.13,409.3c-.113,0-.2-8.837-.2-19.736s.091-19.738.2-19.738.2,8.836.2,19.738-.091,19.736-.2,19.736" transform="translate(-38.216 -79.883)" fill="#263238"/>
          </g>
        </g>
        <g id="Grupo_1067748" data-name="Grupo 1067748">
          <g id="Grupo_1067747" data-name="Grupo 1067747" clip-path="url(#clip-path)">
            <path id="Trazado_807864" data-name="Trazado 807864" d="M234,151.516c-.791,1.578,2.139,2.851,3.829,3.363a21.38,21.38,0,0,0,12.045-1.142,10.793,10.793,0,0,0,4.093-4.59,32.218,32.218,0,0,0,2.078-5.871s-18.523,1.213-22.045,8.241" transform="translate(-50.515 -30.947)" fill="#e8505b"/>
            <g id="Grupo_1067731" data-name="Grupo 1067731" transform="translate(183.353 112.328)" opacity="0.4">
              <g id="Grupo_1067730" data-name="Grupo 1067730">
                <g id="Grupo_1067729" data-name="Grupo 1067729" clip-path="url(#clip-path-13)">
                  <path id="Trazado_807865" data-name="Trazado 807865" d="M234,151.516c-.791,1.578,2.139,2.851,3.829,3.363a21.38,21.38,0,0,0,12.045-1.142,10.793,10.793,0,0,0,4.093-4.59,32.218,32.218,0,0,0,2.078-5.871s-18.523,1.213-22.045,8.241" transform="translate(-233.868 -143.275)"/>
                </g>
              </g>
            </g>
            <path id="Trazado_807866" data-name="Trazado 807866" d="M300.449,145.883a17.758,17.758,0,0,0,10.455,3.283,7.417,7.417,0,0,0,4.979-1.566c.6-.553,1.055-1.259,1.678-1.791.423-.361.917-.635,1.314-1.023a1.678,1.678,0,0,0,.577-1.488,3.1,3.1,0,0,0-1.083-1.731c-2.128-1.207-4.666-1.163-7.111-1.107a24.338,24.338,0,0,0-7.174,1.406c-1.9.637-3.883,1.538-4.845,3.292" transform="translate(-64.636 -30.334)" fill="#e8505b"/>
            <g id="Grupo_1067734" data-name="Grupo 1067734" transform="translate(234.604 110.114)" opacity="0.4">
              <g id="Grupo_1067733" data-name="Grupo 1067733">
                <g id="Grupo_1067732" data-name="Grupo 1067732" clip-path="url(#clip-path-14)">
                  <path id="Trazado_807867" data-name="Trazado 807867" d="M319.452,143.3a3.278,3.278,0,0,0-1.39-1.575,12.523,12.523,0,0,0-6.8-1.264,24.388,24.388,0,0,0-7.174,1.406c-1.9.638-3.884,1.538-4.845,3.293l1.209.724a17.769,17.769,0,0,0,10.455,3.283,7.414,7.414,0,0,0,4.979-1.566c.6-.552,1.055-1.258,1.678-1.79.423-.361.917-.635,1.314-1.024a1.676,1.676,0,0,0,.577-1.487" transform="translate(-299.24 -140.451)"/>
                </g>
              </g>
            </g>
            <path id="Trazado_807868" data-name="Trazado 807868" d="M249.2,164.443l39.083.512a.5.5,0,0,0,.484-.656L284.186,150s.676-7.145,1.61-15.745c1.417-13.049,3.3-29.457,3.327-29.413-2.67-7.491-18.443-8.769-18.443-8.769L252.7,97.141l-.633-1.054-5.174,2.4a24.044,24.044,0,0,0-3.245,1.831C240.236,102.61,232,107.848,230.5,113.7c-3.471,13.518,2.408,28.61,2.408,28.61l3.773-2.949a26.553,26.553,0,0,1,2.995-2l7.574,20.294a3.576,3.576,0,0,0-1.642,2.605,4.032,4.032,0,0,0,3.6,4.19" transform="translate(-49.551 -20.751)" fill="#632059"/>
            <g id="Grupo_1067737" data-name="Grupo 1067737" transform="translate(211.308 99.505)" opacity="0.3">
              <g id="Grupo_1067736" data-name="Grupo 1067736">
                <g id="Grupo_1067735" data-name="Grupo 1067735" clip-path="url(#clip-path-15)">
                  <path id="Trazado_807869" data-name="Trazado 807869" d="M274.623,147.177c1.24-6.662.585-13.514-.074-20.258-2.17,5.517-2.092,11.737-4.387,17.2a7.356,7.356,0,0,0-.612,1.811,2.025,2.025,0,0,0,.522,1.768c.625.571,1.555.263,2.4.162a9.13,9.13,0,0,0,2.157-.686" transform="translate(-269.525 -126.919)"/>
                </g>
              </g>
            </g>
            <g id="Grupo_1067740" data-name="Grupo 1067740" transform="translate(201.485 130.228)" opacity="0.4">
              <g id="Grupo_1067739" data-name="Grupo 1067739">
                <g id="Grupo_1067738" data-name="Grupo 1067738" clip-path="url(#clip-path-16)">
                  <path id="Trazado_807870" data-name="Trazado 807870" d="M257.522,171.066c3.156,1.094,6.474-.935,9.794-1.3a24.7,24.7,0,0,1,6.568.619,49.1,49.1,0,0,0,13.329.326,5.1,5.1,0,0,0,1.961-.506,2.366,2.366,0,0,0,1.025-1.946c-7.381-.757-14.763-1.209-22.143-1.966a13.908,13.908,0,0,0-5.537.176c-2.23.691-3.95,2.444-5.522,4.171" transform="translate(-256.996 -166.107)"/>
                </g>
              </g>
            </g>
            <path id="Trazado_807871" data-name="Trazado 807871" d="M317.2,133.335c-3.2-7.184-14.445-27.068-14.445-27.068l-8.713,10.924,2.034,21.442s4.6-5.136,17.465-5.238a6.306,6.306,0,0,1,4.788,2.521Z" transform="translate(-63.513 -22.954)" fill="#632059"/>
            <path id="Trazado_807872" data-name="Trazado 807872" d="M256.161,133.338a29.756,29.756,0,0,1-1.468-4.689,29.611,29.611,0,0,1-1.073-4.8,29.734,29.734,0,0,1,1.468,4.69,29.634,29.634,0,0,1,1.074,4.795" transform="translate(-54.778 -26.752)" fill="#263238"/>
            <path id="Trazado_807873" data-name="Trazado 807873" d="M293.2,118.346a5.275,5.275,0,0,1,.806.686,21.926,21.926,0,0,1,1.941,2.132,20.585,20.585,0,0,1,4.161,8.514,15.91,15.91,0,0,1,.249,5.251c-.2,1.6-.509,3.014-.706,4.209s-.33,2.162-.392,2.835a7.077,7.077,0,0,1-.11,1.048,4.206,4.206,0,0,1-.049-1.058,24.814,24.814,0,0,1,.266-2.869c.161-1.2.439-2.627.618-4.209a16.155,16.155,0,0,0-.276-5.123,21.547,21.547,0,0,0-3.989-8.421c-1.45-1.932-2.579-2.936-2.519-3" transform="translate(-63.331 -25.562)" fill="#263238"/>
            <path id="Trazado_807874" data-name="Trazado 807874" d="M277.383,179.348a3.7,3.7,0,0,1-.851.248,8.137,8.137,0,0,1-1.021.2,13.513,13.513,0,0,1-1.368.166,20.175,20.175,0,0,1-3.589-.02,21.321,21.321,0,0,1-8.357-2.6,20.216,20.216,0,0,1-2.971-2.016c-.408-.308-.734-.638-1.033-.912a8.279,8.279,0,0,1-.728-.741,3.737,3.737,0,0,1-.561-.686c.059-.056.9.884,2.5,2.112a22.6,22.6,0,0,0,2.971,1.913,22.535,22.535,0,0,0,8.216,2.551,22.543,22.543,0,0,0,3.532.106c2.015-.1,3.242-.4,3.258-.324" transform="translate(-55.491 -37.365)" fill="#263238"/>
            <path id="Trazado_807875" data-name="Trazado 807875" d="M297.738,175.4a2.776,2.776,0,0,1,.3,1.145,7.059,7.059,0,0,1-.209,2.857,4.988,4.988,0,0,1-1.537,2.428,2.161,2.161,0,0,1-1.033.589c-.035-.059.347-.3.837-.8a5.539,5.539,0,0,0,1.341-2.334,15.264,15.264,0,0,0,.3-3.885" transform="translate(-63.775 -37.886)" fill="#263238"/>
            <path id="Trazado_807876" data-name="Trazado 807876" d="M295.246,178.92a4.26,4.26,0,0,1-1.679,4.327c-.087-.085.645-.865,1.1-2.063.472-1.19.458-2.259.579-2.264" transform="translate(-63.409 -38.646)" fill="#263238"/>
            <path id="Trazado_807877" data-name="Trazado 807877" d="M286.018,146.014a15.9,15.9,0,0,1-1.394,2.007,16.064,16.064,0,0,1-1.371,2.023,7.276,7.276,0,0,1,2.765-4.03" transform="translate(-61.179 -31.538)" fill="#263238"/>
            <path id="Trazado_807878" data-name="Trazado 807878" d="M248.975,120.436a19.818,19.818,0,0,1-1.733-1.149,22.322,22.322,0,0,0-9.259-3.457,19.769,19.769,0,0,1-2.061-.268,7.258,7.258,0,0,1,2.093-.019,18.751,18.751,0,0,1,9.391,3.506,7.261,7.261,0,0,1,1.57,1.386" transform="translate(-50.959 -24.946)" fill="#263238"/>
            <path id="Trazado_807879" data-name="Trazado 807879" d="M303.249,105.935a33.91,33.91,0,0,0-3.961,3.707,33.93,33.93,0,0,0-2.978,4.535,4.848,4.848,0,0,1,.546-1.521,15.534,15.534,0,0,1,4.986-5.924,4.827,4.827,0,0,1,1.406-.8" transform="translate(-64.001 -22.881)" fill="#263238"/>
            <path id="Trazado_807880" data-name="Trazado 807880" d="M278.332,97.695a1.511,1.511,0,0,1,.176.362,6.669,6.669,0,0,1,.365,1.1,9.309,9.309,0,0,1-.014,4.245,10.434,10.434,0,0,1-3.2,5.4,10.841,10.841,0,0,1-7.213,2.569,12.2,12.2,0,0,1-7.283-2.434,13.916,13.916,0,0,1-4.008-4.857,14.776,14.776,0,0,1-1.335-4.034,10.876,10.876,0,0,1-.142-1.147,1.477,1.477,0,0,1-.006-.4c.042,0,.089.547.3,1.519a16.031,16.031,0,0,0,1.436,3.933,13.949,13.949,0,0,0,3.975,4.688,11.969,11.969,0,0,0,7.061,2.328,10.568,10.568,0,0,0,6.964-2.444,10.3,10.3,0,0,0,3.166-5.188,9.642,9.642,0,0,0,.14-4.144c-.194-.973-.434-1.478-.386-1.5" transform="translate(-55.223 -21.102)" fill="#263238"/>
            <g id="Grupo_1067743" data-name="Grupo 1067743" transform="translate(222.075 114.736)" opacity="0.3">
              <g id="Grupo_1067742" data-name="Grupo 1067742">
                <g id="Grupo_1067741" data-name="Grupo 1067741" clip-path="url(#clip-path-17)">
                  <path id="Trazado_807881" data-name="Trazado 807881" d="M287.035,147.477c-.012-.392-.063-.853-.4-1.049a.771.771,0,0,0-.71.012,2.007,2.007,0,0,0-.568.468,9.615,9.615,0,0,0-2.1,3.348l3.844-.332c-.025-.811-.042-1.637-.067-2.448" transform="translate(-283.258 -146.347)"/>
                </g>
              </g>
            </g>
            <g id="Grupo_1067746" data-name="Grupo 1067746" transform="translate(235.822 101.826)" opacity="0.3">
              <g id="Grupo_1067745" data-name="Grupo 1067745">
                <g id="Grupo_1067744" data-name="Grupo 1067744" clip-path="url(#clip-path-18)">
                  <path id="Trazado_807882" data-name="Trazado 807882" d="M303.58,135.835a12.591,12.591,0,0,0-2.786-5.954,19.647,19.647,0,0,1,.17,12.2l.2-.519c1.068-2.172,2.71-3.53,2.415-5.729" transform="translate(-300.793 -129.88)"/>
                </g>
              </g>
            </g>
            <path id="Trazado_807883" data-name="Trazado 807883" d="M289.034,369.5l-2.345,35.166-15.289-.18-2.408-36.559Z" transform="translate(-58.102 -79.472)" fill="#ffbe9d"/>
            <path id="Trazado_807884" data-name="Trazado 807884" d="M287.489,408.786l0,1.017s17.233,6.936,17.414,10.207l-34.229-.2.532-11.388a19.58,19.58,0,0,0,16.279.365" transform="translate(-58.466 -88.219)" fill="#3b5620"/>
            <path id="Trazado_807885" data-name="Trazado 807885" d="M275.474,413.077a1.4,1.4,0,0,0-.976,1.589,1.344,1.344,0,0,0,1.567.982,1.474,1.474,0,0,0,1.025-1.689,1.394,1.394,0,0,0-1.743-.84" transform="translate(-59.285 -89.212)" fill="#fff"/>
            <path id="Trazado_807886" data-name="Trazado 807886" d="M270.678,422.192l.128-2.739,32.76,1.195s1.52.672,1.341,1.744Z" transform="translate(-58.466 -90.601)" fill="#263238"/>
            <path id="Trazado_807887" data-name="Trazado 807887" d="M291.416,410.263c-.006.167-.843.238-1.668.771-.84.511-1.268,1.232-1.421,1.165-.154-.033.1-1.031,1.112-1.658s2.014-.43,1.977-.278" transform="translate(-62.269 -88.582)" fill="#263238"/>
            <path id="Trazado_807888" data-name="Trazado 807888" d="M296.217,412.208c.038.162-.688.442-1.26,1.146-.593.686-.74,1.45-.906,1.442-.158.025-.267-.954.46-1.816s1.7-.931,1.706-.772" transform="translate(-63.49 -89.022)" fill="#263238"/>
            <path id="Trazado_807889" data-name="Trazado 807889" d="M299.36,416.93c-.152.035-.379-.8.055-1.715s1.218-1.272,1.288-1.133c.094.138-.416.626-.762,1.381-.363.746-.415,1.45-.581,1.466" transform="translate(-64.619 -89.435)" fill="#263238"/>
            <path id="Trazado_807890" data-name="Trazado 807890" d="M281.525,39.8a5.555,5.555,0,0,0-2.1-6.261,9.1,9.1,0,0,0-6.793-1.336,27,27,0,0,0-6.7,2.314,7.559,7.559,0,0,0-12.832,4.19,4.8,4.8,0,0,0-5.693,6.31l10.6,3.722L269.586,69.1a9.259,9.259,0,0,0,13.625-12.31,7.945,7.945,0,0,0,1.626-2.011,8.109,8.109,0,0,0,3.745-5.015,8.564,8.564,0,0,0-7.057-9.962" transform="translate(-53.381 -6.924)" fill="#263238"/>
            <path id="Trazado_807891" data-name="Trazado 807891" d="M274.845,84.32c-.658-3.314-1.116-5.584-1.11-5.56,0,0,6.249-2.433,5.818-11.161-.215-4.34-1.871-11.184-3.406-16.738-1.383-5-6.044-10.513-10.982-8.92l-14.93,7.293c-1.5.484-1.762,1.892-1.409,3.428l.024.749,5.809,24.036,2.454,10.743a9.075,9.075,0,0,0,17.73-3.868" transform="translate(-53.716 -8.999)" fill="#ffbe9d"/>
            <path id="Trazado_807892" data-name="Trazado 807892" d="M282.989,60.585a1.107,1.107,0,0,1-.815,1.312,1.059,1.059,0,0,1-1.322-.742,1.107,1.107,0,0,1,.815-1.312,1.059,1.059,0,0,1,1.323.742" transform="translate(-60.657 -12.917)" fill="#263238"/>
            <path id="Trazado_807893" data-name="Trazado 807893" d="M281.581,58.462c-.1.169-1.053-.266-2.218-.018-1.167.23-1.9,1.01-2.053.894-.075-.05.008-.334.324-.684a3.037,3.037,0,0,1,1.607-.89,2.916,2.916,0,0,1,1.8.191c.416.2.591.43.539.507" transform="translate(-59.893 -12.464)" fill="#263238"/>
            <path id="Trazado_807894" data-name="Trazado 807894" d="M268.519,63.9a1.107,1.107,0,0,1-.815,1.312,1.059,1.059,0,0,1-1.321-.742,1.107,1.107,0,0,1,.814-1.312,1.059,1.059,0,0,1,1.323.742" transform="translate(-57.532 -13.634)" fill="#263238"/>
            <path id="Trazado_807895" data-name="Trazado 807895" d="M267.2,61.987c-.105.169-1.054-.266-2.218-.018-1.167.23-1.9,1.01-2.053.894-.075-.05.006-.334.324-.684a3.034,3.034,0,0,1,1.606-.89,2.919,2.919,0,0,1,1.8.191c.416.2.591.43.539.507" transform="translate(-56.788 -13.225)" fill="#263238"/>
            <path id="Trazado_807896" data-name="Trazado 807896" d="M275.208,68.957a7.857,7.857,0,0,1,1.822-.739c.291-.093.561-.212.568-.425a1.55,1.55,0,0,0-.383-.841l-1.356-2.082a39.918,39.918,0,0,1-3.221-5.514,39.869,39.869,0,0,1,3.657,5.242q.692,1.1,1.321,2.1a1.76,1.76,0,0,1,.4,1.136.762.762,0,0,1-.4.538,2.015,2.015,0,0,1-.491.176,7.783,7.783,0,0,1-1.918.405" transform="translate(-58.888 -12.821)" fill="#263238"/>
            <path id="Trazado_807897" data-name="Trazado 807897" d="M277.345,88.8a21.954,21.954,0,0,1-11.945-.644s4.1,5.363,12.392,2.8Z" transform="translate(-57.326 -19.042)" fill="#eb996e"/>
            <path id="Trazado_807898" data-name="Trazado 807898" d="M267.2,59.9c-.078.336-1.276.327-2.643.663-1.374.309-2.443.851-2.662.586-.1-.129.06-.455.474-.821a4.734,4.734,0,0,1,4.042-.951c.534.143.821.365.789.523" transform="translate(-56.563 -12.799)" fill="#263238"/>
            <path id="Trazado_807899" data-name="Trazado 807899" d="M280.894,53.723c-.187.315-1.195.24-2.339.466-1.152.193-2.073.621-2.354.39-.125-.114-.029-.411.341-.75A3.757,3.757,0,0,1,278.349,53a3.706,3.706,0,0,1,1.974.141c.461.187.651.433.571.584" transform="translate(-59.648 -11.433)" fill="#263238"/>
            <path id="Trazado_807900" data-name="Trazado 807900" d="M255.222,43.062a5.9,5.9,0,0,0,8.005,4.294c1.243-.5,2.522-1.45,3.782-.994,1.326.48,1.742,2.241,2.972,2.93,1.758.984,3.875-.72,5.882-.552,1.551.13,2.753,1.337,3.966,2.31s2.9,1.788,4.27,1.051a17.535,17.535,0,0,0-1.388-3.776,5.882,5.882,0,0,0-2.871-2.716,22.059,22.059,0,0,1-2.093-.7c-1.415-.728-2.049-2.372-3.082-3.584a6.472,6.472,0,0,0-5.491-2.2c-1.7.175-3.308,1.029-5.013.956-1.26-.053-2.467-.614-3.729-.593-2.457.042-4.3,2.193-5.664,4.238" transform="translate(-55.03 -8.444)" fill="#263238"/>
            <path id="Trazado_807901" data-name="Trazado 807901" d="M260.252,45.517c-1.122-.083-3.432-.32-4.191-1.12a6.611,6.611,0,0,0-6.3-2.068,5.458,5.458,0,0,0-3.935,5.222,7.85,7.85,0,0,0-5.723,5.623,9.1,9.1,0,0,0,1.958,8.236,16.315,16.315,0,0,1,1.287,1.863,13.346,13.346,0,0,0-1.395,2.115c-1.791,3.966,3.072,5.486,3.072,5.486.013,2.666,2.47,2.654,4.048,2.646,1.515-.008,2.448,4.2,3.675,4.032L251.5,64.567a1.625,1.625,0,0,0,.575.1c2.972.053,2.2-5.569,1.233-7.024a16.838,16.838,0,0,0,2.228-3.586,12.153,12.153,0,0,0,.115-6.011c1.036-.153,5.1-2.5,4.6-2.533" transform="translate(-51.798 -9.105)" fill="#263238"/>
            <path id="Trazado_807902" data-name="Trazado 807902" d="M253.916,71.086a2.517,2.517,0,0,0-4.042-1.348c-.753.672-1.2,1.8-.727,3.694,1.266,5.047,6.071,2.735,6.044,2.589-.017-.092-.734-2.851-1.276-4.935" transform="translate(-53.773 -14.936)" fill="#ffbe9d"/>
            <path id="Trazado_807903" data-name="Trazado 807903" d="M253.555,74.926c-.027-.01-.073.084-.2.189a.908.908,0,0,1-.654.179c-.583-.062-1.243-.8-1.5-1.7a2.982,2.982,0,0,1-.07-1.32,1.048,1.048,0,0,1,.492-.841.462.462,0,0,1,.579.111c.1.124.1.233.125.235s.087-.112-.006-.31a.578.578,0,0,0-.278-.267.682.682,0,0,0-.518-.006,1.273,1.273,0,0,0-.722,1.013,3.07,3.07,0,0,0,.048,1.483c.288,1.008,1.047,1.83,1.829,1.857a.972.972,0,0,0,.771-.335c.125-.165.123-.284.1-.289" transform="translate(-54.159 -15.368)" fill="#eb996e"/>
            <path id="Trazado_807904" data-name="Trazado 807904" d="M283.133,58.45c-.032-.038.456-.352,1.1-1.14a7.419,7.419,0,0,0,1.576-3.921,7.218,7.218,0,0,0-.281-2.907,6.233,6.233,0,0,0-1.792-2.785,7.366,7.366,0,0,0-7.207-1.4c-.236.076-.455.194-.678.286-.214.112-.416.238-.616.35l-.31.175,0-.346a2.547,2.547,0,0,0-.634-1.647,4.05,4.05,0,0,0-1.448-1.035,5.344,5.344,0,0,0-3.366-.246c-2.164.491-4,1.48-5.732,1.679a5.545,5.545,0,0,1-3.911-.786,3.191,3.191,0,0,1-.767-.784,1.338,1.338,0,0,1-.174-.339,4.477,4.477,0,0,0,1.027,1,5.522,5.522,0,0,0,3.787.635,13.582,13.582,0,0,0,2.633-.76,23.763,23.763,0,0,1,3.061-1,6.794,6.794,0,0,1,1.772-.177,5.462,5.462,0,0,1,1.827.42,4.436,4.436,0,0,1,1.6,1.135,2.952,2.952,0,0,1,.735,1.911l-.315-.171c.213-.122.429-.256.657-.376.238-.1.472-.224.723-.3a7.7,7.7,0,0,1,7.6,1.508,6.538,6.538,0,0,1,1.864,2.965,7.419,7.419,0,0,1,.245,3.039,7.33,7.33,0,0,1-1.741,3.991,5.2,5.2,0,0,1-.874.811,1.622,1.622,0,0,1-.347.227" transform="translate(-55.919 -9.35)" fill="#455a64"/>
            <path id="Trazado_807905" data-name="Trazado 807905" d="M282.278,39.206a5.63,5.63,0,0,0-1.624-.558,4.3,4.3,0,0,0-1.929.175,3.813,3.813,0,0,0-1.987,1.445l-.191.277-.118-.314a5.9,5.9,0,0,0-4.782-3.551,7.612,7.612,0,0,0-4.6,1.328,20.323,20.323,0,0,1-3.644,1.886,5.735,5.735,0,0,1-2.758.325,3.462,3.462,0,0,1-.732-.2c-.159-.069-.239-.111-.234-.124.013-.037.35.1.985.168a6.012,6.012,0,0,0,2.641-.438,22.053,22.053,0,0,0,3.552-1.939,12.46,12.46,0,0,1,2.2-1.073,5.968,5.968,0,0,1,2.633-.337,6.183,6.183,0,0,1,5.069,3.831l-.31-.036a4.053,4.053,0,0,1,2.193-1.521,4.33,4.33,0,0,1,2.048-.1,3.679,3.679,0,0,1,1.229.47c.253.169.371.279.361.292" transform="translate(-56.091 -7.829)" fill="#455a64"/>
            <path id="Trazado_807906" data-name="Trazado 807906" d="M274.544,74.444a1.708,1.708,0,0,0-1.378-.4,2.017,2.017,0,0,0-1.321.964l-.02.03c-.013.022-.032.042-.043.064l.019-.013a.969.969,0,0,0-.147.592,1.426,1.426,0,0,0,.819,1.061,1.8,1.8,0,0,0,2.054-.3,1.471,1.471,0,0,0,.017-2" transform="translate(-58.676 -15.991)" fill="#e8505b"/>
            <path id="Trazado_807907" data-name="Trazado 807907" d="M274.865,77.086c-.061.012-.137-.233-.346-.561a2.457,2.457,0,0,0-2.546-1.157c-.384.058-.619.162-.65.107s.164-.243.581-.388a2.32,2.32,0,0,1,2.871,1.306c.165.409.139.687.089.693" transform="translate(-58.605 -16.193)" fill="#263238"/>
            <path id="Trazado_807908" data-name="Trazado 807908" d="M254.593,78.579c.038-.024.224.393-.07.987a1.593,1.593,0,0,1-.836.755,1.623,1.623,0,0,1-2.129-1.34,1.6,1.6,0,0,1,.321-1.08c.408-.522.865-.534.859-.489.027.062-.343.178-.62.65a1.421,1.421,0,0,0-.186.879,1.308,1.308,0,0,0,1.63,1.026,1.417,1.417,0,0,0,.712-.547c.307-.453.252-.838.318-.84" transform="translate(-54.335 -16.717)" fill="#e8505b"/>
            <path id="Trazado_807909" data-name="Trazado 807909" d="M251.562,78.117c.044.02-.024.267-.365.434a1,1,0,0,1-.652.064,1.044,1.044,0,0,1-.717-1.326.989.989,0,0,1,.41-.51c.326-.194.569-.116.562-.068s-.192.1-.387.3a.745.745,0,0,0,.688,1.271c.271-.056.412-.2.46-.162" transform="translate(-53.951 -16.557)" fill="#e8505b"/>
            <path id="Trazado_807910" data-name="Trazado 807910" d="M263.036,161.615s19.411,1.126,30.884,1.231c8.888.082,12.849-2.279,14.626-7.988,1.492-4.795-1.714-13.988-1.714-13.988-6.009.031-9.718.858-13.585,2.671l1.03,4.2-31.3,2.7Z" transform="translate(-56.803 -30.428)" fill="#ffbe9d"/>
            <path id="Trazado_807911" data-name="Trazado 807911" d="M309.374,154.092a11.327,11.327,0,0,0-6.708-4.573,2.776,2.776,0,0,1,1.245.109,8.309,8.309,0,0,1,4.907,3.345,2.773,2.773,0,0,1,.556,1.12" transform="translate(-65.375 -32.289)" fill="#eb996e"/>
            <path id="Trazado_807912" data-name="Trazado 807912" d="M251.116,136.836h0a37.546,37.546,0,0,0-10.413,4.388l4.689,12.751c1.566,4.184,6.364,6.241,10.164,4.07,5.9-3.374,7.986-13.221,7.986-13.221L270.03,116.7l-10.748-6.735Z" transform="translate(-51.992 -23.751)" fill="#ffbe9d"/>
            <path id="Trazado_807913" data-name="Trazado 807913" d="M263.831,104.357l.434-9.251-2.4-9.37c-.133-.519-.2-1.167.222-1.483a1.141,1.141,0,0,1,1.449.046c.657.671,3.791,8.9,3.791,8.9s4.757-2.858,5.606-3,1.907,2.42,1.973,2.622a14.928,14.928,0,0,1,.009,1.72s2.942.088,3.2.492a10.091,10.091,0,0,1,.339,2.495s1.243.4,1.444,1.343.6,2.495.014,2.835-1.824,1.022-1.824,1.022-.5,4.8-.627,5.236a29.755,29.755,0,0,1-2.886,3.124Z" transform="translate(-56.541 -18.148)" fill="#ffbe9d"/>
            <path id="Trazado_807914" data-name="Trazado 807914" d="M251.649,152.59c.013-.026.293.167.9.365a6.133,6.133,0,0,0,2.771.22,7.726,7.726,0,0,0,4.012-1.851,18.566,18.566,0,0,0,3.73-4.722,21.162,21.162,0,0,0,1.453-3.239,33.175,33.175,0,0,0,1.006-3.759c.615-2.642,1.279-5.486,1.983-8.509,1.415-6.048,3-12.809,4.7-20.092l.013-.054.041-.04c.539-.529,1.082-1.074,1.619-1.635.267-.28.535-.564.791-.857a5.379,5.379,0,0,0,.356-.443c.092-.094.095-.284.131-.484.212-1.57.378-3.192.552-4.825l.011-.1.092-.052,1.494-.837c.114-.067.281-.15.352-.206a.436.436,0,0,0,.141-.263,2.5,2.5,0,0,0,.009-.812,12.193,12.193,0,0,0-.348-1.7,2.1,2.1,0,0,0-1.248-1.007l-.135-.049-.006-.137c-.019-.454-.05-.921-.1-1.386-.026-.232-.056-.466-.1-.688a1.308,1.308,0,0,0-.09-.291c-.024-.051-.013-.013-.049-.045a.754.754,0,0,0-.132-.056,13.839,13.839,0,0,0-2.871-.324l-.2-.01.006-.2c.014-.484.035-1.024.013-1.532a1.613,1.613,0,0,0-.183-.525c-.084-.189-.174-.376-.269-.559a6.728,6.728,0,0,0-.641-1.036,1.732,1.732,0,0,0-.4-.39.381.381,0,0,0-.417-.048,10.086,10.086,0,0,0-1.1.506c-1.464.761-2.885,1.593-4.279,2.421l-.2.122-.088-.22q-1.112-2.785-2.2-5.5l-1.074-2.69a1.116,1.116,0,0,0-.862-.807.873.873,0,0,0-1.02.374.916.916,0,0,0-.119.559c.023.175.109.439.16.653l.355,1.35q.353,1.345.7,2.665l1.359,5.176.007.027,0,.028c-.156,3.219-.3,6.308-.448,9.25l0,.022-.005.02C258.846,114,256.388,122,254.667,127.6c-.866,2.778-1.546,4.961-2.016,6.47q-.35,1.095-.543,1.7c-.125.383-.2.576-.2.576s.043-.2.152-.592q.175-.606.495-1.711l1.926-6.5c1.689-5.615,4.1-13.625,7-23.284l-.007.042c.133-2.942.274-6.031.419-9.251l.006.055q-.671-2.533-1.371-5.172l-.706-2.663-.357-1.349c-.056-.24-.128-.421-.172-.711a1.307,1.307,0,0,1,.17-.8,1.211,1.211,0,0,1,.634-.534,1.512,1.512,0,0,1,.811-.026,1.613,1.613,0,0,1,.718.365,1.584,1.584,0,0,1,.423.677q.534,1.335,1.077,2.689l2.2,5.5-.292-.1c1.4-.833,2.819-1.664,4.3-2.437a10.4,10.4,0,0,1,1.163-.531.89.89,0,0,1,.4-.056.855.855,0,0,1,.372.148,2.117,2.117,0,0,1,.5.48,7.1,7.1,0,0,1,.684,1.1c.1.191.191.383.278.579a1.919,1.919,0,0,1,.218.666c.024.555,0,1.078-.013,1.574l-.2-.212a13.823,13.823,0,0,1,2.993.347,1.1,1.1,0,0,1,.2.088.5.5,0,0,1,.2.2,1.645,1.645,0,0,1,.129.4c.053.248.083.489.111.729.053.481.083.95.1,1.417l-.141-.186a2.476,2.476,0,0,1,1.5,1.239,11.852,11.852,0,0,1,.376,1.815,2.851,2.851,0,0,1-.019.953.833.833,0,0,1-.285.485,4.164,4.164,0,0,1-.4.238l-1.5.84.1-.154c-.176,1.638-.343,3.251-.56,4.84l-.049.3a.793.793,0,0,1-.146.342,5.479,5.479,0,0,1-.386.481c-.264.3-.535.586-.805.869-.543.564-1.087,1.109-1.632,1.641l.053-.094c-1.725,7.278-3.326,14.034-4.757,20.078-.719,3.019-1.395,5.86-2.023,8.5a33.2,33.2,0,0,1-1.036,3.78,21.264,21.264,0,0,1-1.493,3.269,18.626,18.626,0,0,1-3.816,4.745,7.8,7.8,0,0,1-4.12,1.838,6.04,6.04,0,0,1-2.809-.284,4.144,4.144,0,0,1-.666-.3,1.424,1.424,0,0,1-.213-.125" transform="translate(-54.356 -18.103)" fill="#eb996e"/>
            <path id="Trazado_807915" data-name="Trazado 807915" d="M277.419,97.364c0,.057-.266.087-.68.107a7.787,7.787,0,0,0-1.562.185,3.087,3.087,0,0,0-1.33.71c-.287.267-.412.495-.47.47s-.015-.3.254-.662a2.635,2.635,0,0,1,1.443-.913,4.54,4.54,0,0,1,1.675-.078c.419.055.672.127.669.182" transform="translate(-59.045 -20.982)" fill="#eb996e"/>
            <path id="Trazado_807916" data-name="Trazado 807916" d="M275.58,97.275c-.106-.04-.112-.281-.016-.541s.262-.437.367-.4.113.281.016.541-.261.437-.367.4" transform="translate(-59.507 -20.807)" fill="#eb996e"/>
            <path id="Trazado_807917" data-name="Trazado 807917" d="M282.132,101.133a7.341,7.341,0,0,1-2.327.321,1.594,1.594,0,0,0-1.3.623c-.207.321-.138.586-.2.6-.038.035-.25-.265-.06-.733a1.277,1.277,0,0,1,.561-.622,2.483,2.483,0,0,1,.942-.277,6.607,6.607,0,0,1,2.376.084" transform="translate(-60.085 -21.818)" fill="#eb996e"/>
            <path id="Trazado_807918" data-name="Trazado 807918" d="M282.482,104.764c.112.005.178.585.145,1.294s-.149,1.282-.261,1.276-.178-.585-.147-1.294.149-1.282.263-1.276" transform="translate(-60.957 -22.629)" fill="#eb996e"/>
            <path id="Trazado_807919" data-name="Trazado 807919" d="M286.712,130.456l.7-2.4a.657.657,0,0,1,1.1-.277l.909.928.568-2.26a.656.656,0,0,1,1.229-.124L292.5,129Z" transform="translate(-61.93 -27.204)" fill="#fff"/>
            <path id="Trazado_807920" data-name="Trazado 807920" d="M292.555,131.14a20.726,20.726,0,0,1-5.636,1.4,20.729,20.729,0,0,1,5.636-1.4" transform="translate(-61.974 -28.32)" fill="#fff"/>
            <path id="Trazado_807921" data-name="Trazado 807921" d="M234.061,114.054c.019.016-.292.3-.7.931a7.977,7.977,0,0,0-1.063,2.96,21.394,21.394,0,0,0-.141,4.7c.086,1.774.23,3.722.447,5.761a101.176,101.176,0,0,0,1.654,10.365c.279,1.314.53,2.372.7,3.1l.2.842c.045.193.06.3.06.3s-.036-.1-.091-.288c-.066-.238-.143-.513-.232-.835-.193-.727-.461-1.782-.754-3.1a91.845,91.845,0,0,1-1.7-10.372c-.217-2.042-.357-3.994-.435-5.771a20.945,20.945,0,0,1,.178-4.724,7.8,7.8,0,0,1,1.123-2.975,4.725,4.725,0,0,1,.75-.9" transform="translate(-50.103 -24.636)" fill="#fff"/>
            <path id="Trazado_807922" data-name="Trazado 807922" d="M251.139,100.459a.9.9,0,0,1-.176.1l-.517.247c-.448.213-1.1.528-1.875.959a67.755,67.755,0,0,0-5.891,3.682c-2.238,1.539-4.223,2.993-5.672,4.029l-1.721,1.219-.474.323a.864.864,0,0,1-.172.1.917.917,0,0,1,.153-.13l.456-.348,1.691-1.261c1.431-1.059,3.406-2.529,5.647-4.071a58.963,58.963,0,0,1,5.929-3.649c.787-.418,1.445-.719,1.9-.915l.531-.22a.918.918,0,0,1,.189-.066" transform="translate(-50.682 -21.699)" fill="#fff"/>
            <path id="Trazado_807923" data-name="Trazado 807923" d="M299.368,105.209a.639.639,0,0,1-.131-.1l-.353-.306a13.89,13.89,0,0,0-1.373-1.024,27.932,27.932,0,0,0-5.04-2.551,50.975,50.975,0,0,0-5.374-1.788c-.7-.194-1.269-.337-1.663-.434l-.453-.115a.689.689,0,0,1-.156-.051.566.566,0,0,1,.163.019l.46.085c.4.078.974.2,1.678.384a43.532,43.532,0,0,1,5.4,1.748,25.57,25.57,0,0,1,5.044,2.607,9.958,9.958,0,0,1,1.792,1.524" transform="translate(-61.522 -21.349)" fill="#fff"/>
            <path id="Trazado_807924" data-name="Trazado 807924" d="M255.169,181.452a1.118,1.118,0,0,1-.306-.105,5.192,5.192,0,0,1-.778-.416,3.781,3.781,0,0,1-1.705-2.309,4.517,4.517,0,0,1,.3-2.869,3.958,3.958,0,0,1,.454-.758,1.066,1.066,0,0,1,.218-.239,9.2,9.2,0,0,0-.566,1.044,4.641,4.641,0,0,0-.25,2.786,3.816,3.816,0,0,0,1.611,2.25c.6.419,1.032.589,1.018.617" transform="translate(-54.49 -37.747)" fill="#fff"/>
            <path id="Trazado_807925" data-name="Trazado 807925" d="M252.782,172.469a3.461,3.461,0,0,1,.373.984,3.425,3.425,0,0,1,.216,1.03,6.8,6.8,0,0,1-.589-2.014" transform="translate(-54.598 -37.253)" fill="#fff"/>
            <path id="Trazado_807926" data-name="Trazado 807926" d="M260.94,350.582l23.915-.12-.434-82.68-.223-84.1-32.389-.4-5.823,10.978a39.427,39.427,0,0,0-4.48,14.227c-.407,3.8,2.44,16.19,3.434,19.343l8.915,28.271Z" transform="translate(-52.157 -39.588)" fill="#263238"/>
            <path id="Trazado_807927" data-name="Trazado 807927" d="M298.137,183.912l26.277,71.635a33.044,33.044,0,0,1-3.239,27.988l-30.509,59.549-17.154-21.46,25.527-53.346-22.5-36.459,3.787-47.83,10.6-.17Z" transform="translate(-59.078 -39.704)" fill="#263238"/>
            <path id="Trazado_807928" data-name="Trazado 807928" d="M293.183,214.549s.02.124.037.367c.016.261.039.619.068,1.08.052.969.126,2.365.221,4.153.176,3.627.428,8.841.739,15.277.3,6.456.651,14.136,1.043,22.661.192,4.265.393,8.742.6,13.381.149,2.32.081,4.685.108,7.083q.012,3.6.022,7.3c.034,19.7.064,37.538.085,50.469-.009,6.443-.016,11.664-.021,15.294-.011,1.791-.02,3.188-.026,4.158-.008.462-.013.821-.017,1.082-.006.243-.02.368-.02.368s-.015-.125-.022-.368c-.006-.261-.014-.62-.023-1.081-.012-.97-.029-2.368-.05-4.158-.026-3.63-.063-8.85-.109-15.292-.053-12.929-.125-30.762-.2-50.463q-.011-3.694-.02-7.294c-.027-2.4.043-4.764-.1-7.083-.2-4.64-.394-9.116-.579-13.381-.359-8.525-.683-16.2-.955-22.661-.257-6.437-.465-11.654-.609-15.281-.063-1.79-.111-3.186-.145-4.156-.012-.461-.02-.82-.027-1.081,0-.244,0-.369,0-.369" transform="translate(-63.326 -46.342)" fill="#455a64"/>
            <path id="Trazado_807929" data-name="Trazado 807929" d="M292.417,185.741a3.073,3.073,0,0,1,.165.779c.081.5.179,1.236.282,2.143.211,1.813.43,4.328.556,7.112s.133,5.308.088,7.133c-.023.913-.054,1.651-.089,2.161a2.95,2.95,0,0,1-.1.79,24.342,24.342,0,0,1-.1-2.952c-.028-1.822-.082-4.337-.206-7.114s-.3-5.286-.434-7.1a23.69,23.69,0,0,1-.161-2.949" transform="translate(-63.158 -40.12)" fill="#455a64"/>
            <path id="Trazado_807930" data-name="Trazado 807930" d="M285.461,187.742c.042.053-.407.256-.531.895a1.017,1.017,0,0,0,.3.955,1.043,1.043,0,0,0,1.782-.815,1.014,1.014,0,0,0-.524-.855,1.913,1.913,0,0,0-1.023-.183c-.011-.021.075-.1.278-.162a1.339,1.339,0,0,1,1.646,1.179,1.4,1.4,0,0,1-2.418,1.108,1.338,1.338,0,0,1,.183-2.016c.176-.115.3-.127.3-.105" transform="translate(-61.472 -40.508)" fill="#455a64"/>
            <path id="Trazado_807931" data-name="Trazado 807931" d="M266.238,185.988a2.353,2.353,0,0,1,.215.75,7.445,7.445,0,0,1,.069,2.131,8.565,8.565,0,0,1-.9,3.037,8.038,8.038,0,0,1-6.127,4.4,8.558,8.558,0,0,1-3.167-.114,7.432,7.432,0,0,1-2-.747,2.348,2.348,0,0,1-.642-.443,13.637,13.637,0,0,0,2.7.908,8.232,8.232,0,0,0,9.855-7.075,13.581,13.581,0,0,0,0-2.845" transform="translate(-54.796 -40.173)" fill="#455a64"/>
            <path id="Trazado_807932" data-name="Trazado 807932" d="M307.183,192.833a3.172,3.172,0,0,1-1.506-.178,7,7,0,0,1-4.753-5.236,3.172,3.172,0,0,1-.032-1.516c.073,0,.077.576.313,1.45a7.58,7.58,0,0,0,4.564,5.029c.848.32,1.421.379,1.414.452" transform="translate(-64.978 -40.155)" fill="#455a64"/>
            <path id="Trazado_807933" data-name="Trazado 807933" d="M318.134,292.6a4.932,4.932,0,0,1-1.386,1.1,6.418,6.418,0,0,1-1.784.78,4.307,4.307,0,0,1-2.407-.064,6.993,6.993,0,0,1-3.349-2.666,6.168,6.168,0,0,1-.919-1.508,9.7,9.7,0,0,1,1.145,1.33,7.432,7.432,0,0,0,3.247,2.455,5.025,5.025,0,0,0,3.923-.578,16.45,16.45,0,0,1,1.529-.851" transform="translate(-66.589 -62.692)" fill="#455a64"/>
            <path id="Trazado_807934" data-name="Trazado 807934" d="M311.938,297.3a38.877,38.877,0,0,1-4.617-6.492,38.96,38.96,0,0,1,4.617,6.492" transform="translate(-66.38 -62.813)" fill="#455a64"/>
            <path id="Trazado_807935" data-name="Trazado 807935" d="M261.714,217.5c-.105.042-.384-.409-.623-1.008s-.349-1.119-.244-1.16.383.409.623,1.008.349,1.119.244,1.16" transform="translate(-56.334 -46.51)" fill="#fafafa"/>
            <path id="Trazado_807936" data-name="Trazado 807936" d="M281.27,220.383c-.113,0-.2-.388-.2-.867s.091-.868.2-.868.2.389.2.868-.091.867-.2.867" transform="translate(-60.71 -47.228)" fill="#fafafa"/>
            <path id="Trazado_807937" data-name="Trazado 807937" d="M273.29,230.777c-.112.008-.237-.472-.278-1.07s.018-1.091.13-1.1.237.472.278,1.071-.018,1.09-.13,1.1" transform="translate(-58.968 -49.379)" fill="#fafafa"/>
            <path id="Trazado_807938" data-name="Trazado 807938" d="M258.39,238.787c-.093.069-.417-.22-.837-.521s-.79-.525-.754-.635.519-.042.994.3.687.789.6.851" transform="translate(-55.468 -51.318)" fill="#fafafa"/>
            <path id="Trazado_807939" data-name="Trazado 807939" d="M284.452,248.53c-.094-.063.024-.4.264-.764s.51-.6.6-.538-.025.4-.264.764-.51.6-.6.537" transform="translate(-61.434 -53.399)" fill="#fafafa"/>
            <path id="Trazado_807940" data-name="Trazado 807940" d="M268.546,250.86c-.113,0-.2-.648-.2-1.446s.091-1.446.2-1.446.2.647.2,1.446-.091,1.446-.2,1.446" transform="translate(-57.962 -53.561)" fill="#fafafa"/>
            <path id="Trazado_807941" data-name="Trazado 807941" d="M263.021,262.549c-.067.091-.476-.093-.916-.412s-.742-.652-.675-.743.476.093.916.412.742.652.675.743" transform="translate(-56.467 -56.456)" fill="#fafafa"/>
            <path id="Trazado_807942" data-name="Trazado 807942" d="M279.122,266.764c.045.1-.209.316-.568.476s-.688.205-.734.1.209-.316.568-.476.688-.205.733-.1" transform="translate(-60.008 -57.609)" fill="#fafafa"/>
            <path id="Trazado_807943" data-name="Trazado 807943" d="M268.2,284.238c-.1.05-.506-.556-.905-1.355s-.641-1.486-.54-1.537.506.556.906,1.355.641,1.486.54,1.537" transform="translate(-57.613 -60.77)" fill="#fafafa"/>
            <path id="Trazado_807944" data-name="Trazado 807944" d="M286.3,282.776c-.1-.053.078-.582.4-1.181s.659-1.041.758-.988-.078.581-.4,1.181-.659,1.041-.758.988" transform="translate(-61.834 -60.61)" fill="#fafafa"/>
            <path id="Trazado_807945" data-name="Trazado 807945" d="M278.432,298.107c-.116-.017-.107-.636-.227-1.372s-.312-1.323-.207-1.375.485.5.61,1.312-.071,1.457-.176,1.436" transform="translate(-60.041 -63.797)" fill="#fafafa"/>
            <path id="Trazado_807946" data-name="Trazado 807946" d="M269.859,307.276c-.084.076-.475-.219-.874-.658s-.655-.857-.572-.932.474.218.874.658.655.856.572.932" transform="translate(-57.974 -66.025)" fill="#fafafa"/>
            <path id="Trazado_807947" data-name="Trazado 807947" d="M290.4,310.631c-.081-.079.208-.5.644-.944s.854-.738.935-.659-.208.5-.644.945-.855.737-.935.658" transform="translate(-62.723 -66.747)" fill="#fafafa"/>
            <path id="Trazado_807948" data-name="Trazado 807948" d="M278.8,323.605c-.112-.017-.114-.615,0-1.334s.288-1.29.4-1.274.113.615,0,1.335-.288,1.29-.4,1.273" transform="translate(-60.201 -69.335)" fill="#fafafa"/>
            <path id="Trazado_807949" data-name="Trazado 807949" d="M270.691,330.2c-.1.057-.44-.347-.765-.9s-.51-1.052-.412-1.109.44.347.765.9.51,1.051.412,1.109" transform="translate(-58.209 -70.887)" fill="#fafafa"/>
            <path id="Trazado_807950" data-name="Trazado 807950" d="M289.242,338.866c.066.092-.334.49-.892.89s-1.065.65-1.131.558.334-.49.893-.89,1.064-.65,1.13-.558" transform="translate(-62.037 -73.191)" fill="#fafafa"/>
            <path id="Trazado_807951" data-name="Trazado 807951" d="M274.151,348.6c-.11-.04.03-.672.1-1.451s.045-1.426.16-1.446.323.64.247,1.482-.4,1.457-.5,1.415" transform="translate(-59.207 -74.672)" fill="#fafafa"/>
            <path id="Trazado_807952" data-name="Trazado 807952" d="M280.079,364.113c-.088.071-.419-.2-.738-.6s-.507-.78-.419-.851.418.2.738.6.506.78.419.851" transform="translate(-60.242 -78.333)" fill="#fafafa"/>
            <path id="Trazado_807953" data-name="Trazado 807953" d="M273.138,374.017c-.093.063-.525-.4-.964-1.041s-.72-1.208-.627-1.272.525.4.964,1.041.72,1.209.627,1.272" transform="translate(-58.65 -80.286)" fill="#fafafa"/>
            <path id="Trazado_807954" data-name="Trazado 807954" d="M292.371,361.612c-.106-.04-.094-.331.026-.65s.3-.546.408-.506.094.33-.026.65-.3.546-.408.506" transform="translate(-63.136 -77.857)" fill="#fafafa"/>
            <path id="Trazado_807955" data-name="Trazado 807955" d="M284.084,385.372c-.1-.054.093-.612.245-1.311s.216-1.286.333-1.291.236.621.065,1.38-.55,1.276-.644,1.222" transform="translate(-61.356 -82.678)" fill="#fafafa"/>
            <path id="Trazado_807956" data-name="Trazado 807956" d="M289.269,231.1c-.1.048-.35-.267-.555-.7s-.288-.829-.185-.877.35.267.555.7.287.829.185.877" transform="translate(-62.312 -49.574)" fill="#fafafa"/>
            <path id="Trazado_807957" data-name="Trazado 807957" d="M275.007,200.387c.062.1-.49.54-1.072,1.167s-.993,1.2-1.1,1.146.168-.757.8-1.425,1.317-.982,1.37-.888" transform="translate(-58.929 -43.28)" fill="#fafafa"/>
            <path id="Trazado_807958" data-name="Trazado 807958" d="M287.682,199.463c-.114.023-.3-.443-.57-.98s-.528-.967-.442-1.044.512.267.808.862.313,1.145.2,1.163" transform="translate(-61.917 -42.644)" fill="#fafafa"/>
            <path id="Trazado_807959" data-name="Trazado 807959" d="M249.46,209.586c-.105-.042,0-.561.239-1.161s.515-1.052.619-1.011,0,.561-.239,1.161-.514,1.052-.619,1.011" transform="translate(-53.874 -44.801)" fill="#fafafa"/>
            <path id="Trazado_807960" data-name="Trazado 807960" d="M250.234,224.884c-.072.087-.519-.167-1-.566s-.809-.793-.737-.88.519.167,1,.566.809.793.737.88" transform="translate(-53.673 -48.259)" fill="#fafafa"/>
            <path id="Trazado_807961" data-name="Trazado 807961" d="M275.8,188.007c-.1.042-.319-.248-.479-.647s-.2-.757-.1-.8.319.248.479.647.2.757.1.8" transform="translate(-59.436 -40.296)" fill="#fafafa"/>
            <path id="Trazado_807962" data-name="Trazado 807962" d="M300.146,195.232c-.111-.024-.1-.5.022-1.054s.31-.992.421-.967.1.5-.022,1.054-.311.992-.421.967" transform="translate(-64.815 -41.733)" fill="#fafafa"/>
            <path id="Trazado_807963" data-name="Trazado 807963" d="M305.843,206.537c-.1-.043.038-.628.318-1.307s.59-1.194.695-1.151-.038.628-.318,1.307-.59,1.194-.695,1.151" transform="translate(-66.054 -44.08)" fill="#fafafa"/>
            <path id="Trazado_807964" data-name="Trazado 807964" d="M301.43,215.718c-.1.05-.474-.492-.833-1.21s-.568-1.342-.468-1.392.474.491.833,1.21.569,1.342.468,1.392" transform="translate(-64.822 -46.032)" fill="#fafafa"/>
            <path id="Trazado_807965" data-name="Trazado 807965" d="M310.449,225.137c-.105-.041-.029-.494.171-1.013s.447-.907.552-.866.029.494-.171,1.013-.447.907-.552.866" transform="translate(-67.046 -48.223)" fill="#fafafa"/>
            <path id="Trazado_807966" data-name="Trazado 807966" d="M302.507,234.371c-.1.06-.335-.151-.535-.47s-.284-.627-.188-.687.335.151.535.47.284.626.188.686" transform="translate(-65.177 -50.372)" fill="#fafafa"/>
            <path id="Trazado_807967" data-name="Trazado 807967" d="M303.849,252.763c-.082.077-.571-.314-1.089-.873s-.873-1.074-.79-1.151.57.314,1.089.873.873,1.074.79,1.151" transform="translate(-65.222 -54.157)" fill="#fafafa"/>
            <path id="Trazado_807968" data-name="Trazado 807968" d="M314.076,242.061c-.089.07-.517-.327-.956-.886s-.724-1.069-.635-1.138.517.327.956.886.723,1.069.634,1.138" transform="translate(-67.493 -51.846)" fill="#fafafa"/>
            <path id="Trazado_807969" data-name="Trazado 807969" d="M320.079,256.714c-.1-.049.076-.637.4-1.315s.664-1.188.766-1.14-.076.637-.4,1.315-.664,1.189-.766,1.14" transform="translate(-69.131 -54.919)" fill="#fafafa"/>
            <path id="Trazado_807970" data-name="Trazado 807970" d="M307.731,269.06c-.1.06-.463-.376-.969-.837s-.964-.794-.91-.9.637.088,1.187.6.787,1.083.692,1.136" transform="translate(-66.063 -57.736)" fill="#fafafa"/>
            <path id="Trazado_807971" data-name="Trazado 807971" d="M308.509,282.028c0,.113-.388.2-.867.2s-.868-.091-.868-.2.388-.2.868-.2.867.091.867.2" transform="translate(-66.263 -60.874)" fill="#fafafa"/>
            <path id="Trazado_807972" data-name="Trazado 807972" d="M321.151,277.944c-.1-.061.1-.55.252-1.166s.209-1.14.326-1.148.244.561.071,1.247-.559,1.129-.649,1.067" transform="translate(-69.363 -59.536)" fill="#fafafa"/>
            <path id="Trazado_807973" data-name="Trazado 807973" d="M332.989,282.071c-.107.038-.4-.512-.648-1.226s-.367-1.325-.261-1.362.4.512.648,1.226.367,1.324.261,1.362" transform="translate(-71.721 -60.368)" fill="#fafafa"/>
            <path id="Trazado_807974" data-name="Trazado 807974" d="M331.317,299.226c-.1-.053.142-.71.539-1.469s.8-1.333.9-1.28-.142.71-.539,1.47-.8,1.332-.9,1.279" transform="translate(-71.559 -64.038)" fill="#fafafa"/>
            <path id="Trazado_807975" data-name="Trazado 807975" d="M319.987,309.381c-.1.043-.426-.5-.719-1.214s-.446-1.326-.342-1.369.427.5.719,1.214.446,1.326.342,1.369" transform="translate(-68.881 -66.268)" fill="#fafafa"/>
            <path id="Trazado_807976" data-name="Trazado 807976" d="M307.667,313.93c0,.113-.324.2-.723.2s-.723-.091-.723-.2.324-.2.723-.2.723.091.723.2" transform="translate(-66.143 -67.764)" fill="#fafafa"/>
            <path id="Trazado_807977" data-name="Trazado 807977" d="M314.9,329.432c-.109.029-.328-.433-.487-1.032s-.2-1.108-.092-1.137.326.433.487,1.032.2,1.108.092,1.137" transform="translate(-67.879 -70.688)" fill="#fafafa"/>
            <path id="Trazado_807978" data-name="Trazado 807978" d="M306.212,324.282c-.1-.058.019-.429.259-.828s.512-.676.608-.618-.019.429-.259.828-.512.676-.608.618" transform="translate(-66.134 -69.731)" fill="#fafafa"/>
            <path id="Trazado_807979" data-name="Trazado 807979" d="M305.929,341.708c-.112.013-.267-.526-.347-1.205s-.054-1.239.058-1.253.267.526.347,1.2.054,1.24-.058,1.253" transform="translate(-65.995 -73.278)" fill="#fafafa"/>
          </g>
        </g>
      </g>
    </g>
  </g>
</svg>
