<svg xmlns="http://www.w3.org/2000/svg" xmlns:xlink="http://www.w3.org/1999/xlink" width="567" height="333" viewBox="0 0 567 333">
  <defs>
    <clipPath id="clip-path">
      <rect id="Rectángulo_376346" data-name="Rectángulo 376346" width="305.581" height="332.984" fill="none"/>
    </clipPath>
    <clipPath id="clip-path-3">
      <rect id="Rectángulo_376343" data-name="Rectángulo 376343" width="91.684" height="36.833" fill="none"/>
    </clipPath>
    <clipPath id="clip-path-4">
      <rect id="Rectángulo_376344" data-name="Rectángulo 376344" width="66.936" height="76.833" fill="none"/>
    </clipPath>
  </defs>
  <g id="Grupo_1069007" data-name="Grupo 1069007" transform="translate(-810 -2118.447)">
    <g id="Grupo_1068989" data-name="Grupo 1068989" transform="translate(0 154.314)">
      <g id="Grupo_1068971" data-name="Grupo 1068971" transform="translate(0 1378.133)">
        <rect id="Rectángulo_376337" data-name="Rectángulo 376337" width="567" height="333" transform="translate(810 586)" fill="none"/>
      </g>
    </g>
    <g id="Grupo_1069006" data-name="Grupo 1069006" transform="translate(959.709 2118.447)">
      <g id="Grupo_1069005" data-name="Grupo 1069005" clip-path="url(#clip-path)">
        <g id="Grupo_1069004" data-name="Grupo 1069004">
          <g id="Grupo_1069003" data-name="Grupo 1069003" clip-path="url(#clip-path)">
            <path id="Trazado_813020" data-name="Trazado 813020" d="M94.089,367.282c18.045-15.592,19.855-41.264,16.747-63.853-.518-3.771-.514-7.8-2.656-10.937s-6.577-4.97-9.8-3.025c-2.673,1.612-3.56,5.007-4.854,7.872a22.248,22.248,0,0,1-8,9.392c-2.281,1.5-5.183,2.571-7.7,1.5-3.449-1.464-4.3-5.934-4.664-9.7q-1.02-10.529-2.039-21.055c-.365-3.765-.75-7.609-2.289-11.06s-4.468-6.5-8.151-7.136-7.9,1.887-8.274,5.649c-.156,1.565.32,3.125.377,4.7s-.493,3.377-1.932,3.965c-1.456.6-3.073-.315-4.311-1.3-4.276-3.4-7.417-8.021-10.382-12.635s-5.871-9.351-9.823-13.132-9.166-6.562-14.587-6.311-10.82,4.17-11.637,9.6c-.818,5.447,2.833,10.51,6.644,14.458a84.462,84.462,0,0,0,19.21,14.867c1.273.719,2.653,1.5,3.25,2.844,1.076,2.425-1.044,5.162-3.436,6.242-2.709,1.224-5.782,1.247-8.681,1.895s-5.945,2.271-6.768,5.159c-1.144,4.006,2.488,7.705,5.926,10.02a72.346,72.346,0,0,0,22.565,10.1c2.873.728,5.878,1.316,8.311,3.031s4.129,4.958,3.054,7.747-4.45,4-7.405,3.759-5.712-1.544-8.584-2.3c-5.373-1.419-12.015-.373-14.866,4.438-1.874,3.163-1.644,7.273-.181,10.662a27.592,27.592,0,0,0,6.665,8.712c9.292,8.87,20.711,15.6,33.137,18.526s23.659,2.9,35.132-2.689" transform="translate(0 -53.592)" fill="#3b5620"/>
            <path id="Trazado_813021" data-name="Trazado 813021" d="M97.561,385.175a166.182,166.182,0,0,0-9.348-30.382,338.829,338.829,0,0,0-17.132-34.924l-4.96-8.924c-1.635-2.925-3.256-5.827-5.017-8.566a169.211,169.211,0,0,0-11.021-15.161c-3.738-4.654-7.457-8.933-10.961-12.908S32.26,266.7,29.069,263.515a134.384,134.384,0,0,0-16.162-13.9c-2.029-1.487-3.641-2.588-4.744-3.319L6.9,245.473a2.831,2.831,0,0,0-.442-.26,2.692,2.692,0,0,0,.4.32l1.22.881c1.076.769,2.662,1.9,4.664,3.422a142.232,142.232,0,0,1,15.974,14.032c3.16,3.2,6.477,6.848,9.967,10.829s7.18,8.277,10.9,12.929a171.008,171.008,0,0,1,10.944,15.126c1.747,2.727,3.351,5.6,4.988,8.537s3.282,5.909,4.956,8.92a347.371,347.371,0,0,1,17.147,34.832,169.052,169.052,0,0,1,9.458,30.232" transform="translate(-1.442 -54.71)" fill="#e0e0e0"/>
            <path id="Trazado_813022" data-name="Trazado 813022" d="M76.514,306.736a7.679,7.679,0,0,0,.2-1.643c.09-1.06.17-2.6.242-4.5.145-3.8.167-9.059.169-14.855s.1-11.041.3-14.83c.1-1.895.189-3.428.267-4.487a7.615,7.615,0,0,0,.042-1.656,7.487,7.487,0,0,0-.311,1.626c-.161,1.053-.329,2.584-.488,4.481-.331,3.794-.506,9.056-.507,14.861.012,5.719.025,10.894.033,14.848-.007,1.786-.014,3.291-.02,4.5a7.534,7.534,0,0,0,.069,1.655" transform="translate(-17.053 -59.073)" fill="#e0e0e0"/>
            <path id="Trazado_813023" data-name="Trazado 813023" d="M13.058,313.426a10.531,10.531,0,0,0,1.954.032c1.253-.017,3.066-.053,5.306-.024,4.481.021,10.67.267,17.485.837s12.964,1.372,17.393,2.072c2.219.333,4.006.653,5.243.865a10.406,10.406,0,0,0,1.936.268,10.436,10.436,0,0,0-1.883-.538c-1.224-.294-3-.689-5.216-1.088-4.421-.827-10.58-1.7-17.417-2.283a171.707,171.707,0,0,0-17.546-.632c-2.247.036-4.063.146-5.316.249a10.212,10.212,0,0,0-1.939.241" transform="translate(-2.913 -69.813)" fill="#e0e0e0"/>
            <path id="Trazado_813024" data-name="Trazado 813024" d="M110.805,366.729a2.484,2.484,0,0,0,.271-.624l.646-1.837c.555-1.6,1.3-3.928,2.176-6.82,1.763-5.784,3.946-13.85,6.235-22.782s4.4-17.012,6.036-22.824c.8-2.826,1.468-5.151,1.961-6.879.21-.75.382-1.367.524-1.875a2.523,2.523,0,0,0,.137-.669,2.518,2.518,0,0,0-.271.625l-.647,1.835c-.555,1.6-1.3,3.928-2.176,6.82-1.763,5.783-3.946,13.849-6.235,22.786s-4.395,17.008-6.034,22.82c-.806,2.826-1.469,5.152-1.962,6.878-.21.75-.381,1.369-.523,1.875a2.5,2.5,0,0,0-.138.669" transform="translate(-24.721 -67.474)" fill="#e0e0e0"/>
            <path id="Trazado_813025" data-name="Trazado 813025" d="M25.295,367.06a2.611,2.611,0,0,0,.665.2l1.932.434,7.115,1.52c6.008,1.286,14.285,3.156,23.428,5.236s17.449,3.877,23.485,5.039c3.018.582,5.464,1.028,7.161,1.3.785.121,1.431.221,1.956.3a2.544,2.544,0,0,0,.691.057,2.656,2.656,0,0,0-.666-.2l-1.931-.432L82.017,379c-6.008-1.285-14.286-3.156-23.432-5.237S41.14,369.884,35.1,368.723c-3.018-.582-5.465-1.028-7.163-1.3l-1.955-.3a2.53,2.53,0,0,0-.691-.058" transform="translate(-5.644 -81.894)" fill="#e0e0e0"/>
            <path id="Trazado_813026" data-name="Trazado 813026" d="M93.67,176.389a1.565,1.565,0,0,1-1.41-.886l-3.369-7.013a1.562,1.562,0,0,1,1.14-2.216,4.851,4.851,0,0,0,3.181-2.175,4.369,4.369,0,0,0,.669-3.4,4.47,4.47,0,0,0-2.188-2.721,4.99,4.99,0,0,0-3.815-.527,5.855,5.855,0,0,0-3.8,6.218,1.562,1.562,0,1,1-3.094.434,9,9,0,0,1,6-9.647,8.06,8.06,0,0,1,6.257.808,7.6,7.6,0,0,1,3.672,4.682,7.5,7.5,0,0,1-1.085,5.858,8.17,8.17,0,0,1-3.349,2.941l2.6,5.4a1.564,1.564,0,0,1-1.408,2.239" transform="translate(-18.05 -34.393)" fill="#e0e0e0"/>
            <path id="Trazado_813027" data-name="Trazado 813027" d="M100.962,185.172a1.278,1.278,0,1,1-1.72-.555,1.278,1.278,0,0,1,1.72.555" transform="translate(-21.987 -41.159)" fill="#e0e0e0"/>
            <path id="Trazado_813028" data-name="Trazado 813028" d="M39.816,148.073a1.092,1.092,0,0,1-.984-.619l-2.352-4.9a1.09,1.09,0,0,1,.8-1.547,3.389,3.389,0,0,0,2.221-1.52,3.052,3.052,0,0,0,.467-2.375,3.121,3.121,0,0,0-1.527-1.9,3.485,3.485,0,0,0-2.665-.368,4.089,4.089,0,0,0-2.655,4.343,1.091,1.091,0,1,1-2.161.3,6.286,6.286,0,0,1,4.192-6.736,5.629,5.629,0,0,1,4.37.564,5.312,5.312,0,0,1,2.564,3.269,5.236,5.236,0,0,1-.757,4.091,5.708,5.708,0,0,1-2.339,2.054l1.814,3.774a1.092,1.092,0,0,1-.983,1.564" transform="translate(-6.894 -29.572)" fill="#f5f5f5"/>
            <path id="Trazado_813029" data-name="Trazado 813029" d="M44.909,154.206a.893.893,0,1,1-1.2-.388.892.892,0,0,1,1.2.388" transform="translate(-9.643 -34.297)" fill="#f5f5f5"/>
            <path id="Trazado_813030" data-name="Trazado 813030" d="M288.1,155.754a1.091,1.091,0,0,1-.138,1.154l-3.421,4.222a1.09,1.09,0,0,1-1.739-.057,3.387,3.387,0,0,0-2.324-1.357,3.05,3.05,0,0,0-2.346.594,3.12,3.12,0,0,0-1.064,2.193,3.483,3.483,0,0,0,.807,2.566,4.089,4.089,0,0,0,5.061.542,1.091,1.091,0,1,1,1.2,1.823,6.288,6.288,0,0,1-7.883-.907,5.63,5.63,0,0,1-1.359-4.191,5.308,5.308,0,0,1,1.858-3.717,5.235,5.235,0,0,1,4.022-1.065,5.707,5.707,0,0,1,2.857,1.235l2.635-3.254a1.092,1.092,0,0,1,1.834.22" transform="translate(-61.329 -34.612)" fill="#f5f5f5"/>
            <path id="Trazado_813031" data-name="Trazado 813031" d="M292.194,152.331a.893.893,0,1,1,.164,1.252.893.893,0,0,1-.164-1.252" transform="translate(-65.151 -33.909)" fill="#f5f5f5"/>
            <path id="Trazado_813032" data-name="Trazado 813032" d="M273.439,25.308a1.091,1.091,0,0,1-.138,1.154l-3.421,4.222a1.09,1.09,0,0,1-1.739-.057,3.387,3.387,0,0,0-2.324-1.357,3.05,3.05,0,0,0-2.346.594,3.12,3.12,0,0,0-1.064,2.193,3.483,3.483,0,0,0,.807,2.566,4.088,4.088,0,0,0,5.061.542,1.091,1.091,0,1,1,1.2,1.823,6.287,6.287,0,0,1-7.883-.907,5.63,5.63,0,0,1-1.359-4.191,5.307,5.307,0,0,1,1.858-3.716,5.238,5.238,0,0,1,4.023-1.066,5.71,5.71,0,0,1,2.857,1.235l2.635-3.254a1.092,1.092,0,0,1,1.834.22" transform="translate(-58.057 -5.507)" fill="#f5f5f5"/>
            <path id="Trazado_813033" data-name="Trazado 813033" d="M277.532,21.885a.893.893,0,1,1,.164,1.252.893.893,0,0,1-.164-1.252" transform="translate(-61.88 -4.805)" fill="#f5f5f5"/>
            <path id="Trazado_813034" data-name="Trazado 813034" d="M165.321,45.539a1.42,1.42,0,0,1,1.28.8l3.057,6.364a1.418,1.418,0,0,1-1.034,2.011,4.4,4.4,0,0,0-2.886,1.975,3.964,3.964,0,0,0-.608,3.086,4.058,4.058,0,0,0,1.986,2.469,4.527,4.527,0,0,0,3.462.478,5.312,5.312,0,0,0,3.45-5.643,1.418,1.418,0,0,1,2.808-.394,8.169,8.169,0,0,1-5.448,8.755,7.315,7.315,0,0,1-5.678-.733,6.9,6.9,0,0,1-3.332-4.248,6.807,6.807,0,0,1,.984-5.317,7.419,7.419,0,0,1,3.039-2.669l-2.357-4.9a1.419,1.419,0,0,1,1.277-2.032" transform="translate(-36.188 -10.16)" fill="#e0e0e0"/>
            <path id="Trazado_813035" data-name="Trazado 813035" d="M162.261,42.7a1.16,1.16,0,1,1,1.561.5,1.159,1.159,0,0,1-1.561-.5" transform="translate(-36.174 -9.15)" fill="#e0e0e0"/>
            <path id="Trazado_813036" data-name="Trazado 813036" d="M300.981,207.339a1.42,1.42,0,0,1,1.28.8l3.057,6.364a1.417,1.417,0,0,1-1.034,2.01,4.4,4.4,0,0,0-2.886,1.975,3.964,3.964,0,0,0-.608,3.086,4.058,4.058,0,0,0,1.986,2.469,4.524,4.524,0,0,0,3.462.478,5.312,5.312,0,0,0,3.45-5.643,1.418,1.418,0,0,1,2.808-.395,8.168,8.168,0,0,1-5.448,8.755,7.315,7.315,0,0,1-5.678-.733,6.9,6.9,0,0,1-3.332-4.248,6.808,6.808,0,0,1,.984-5.317,7.426,7.426,0,0,1,3.039-2.669l-2.357-4.9a1.419,1.419,0,0,1,1.277-2.032" transform="translate(-66.456 -46.26)" fill="#e0e0e0"/>
            <path id="Trazado_813037" data-name="Trazado 813037" d="M297.921,204.5a1.16,1.16,0,1,1,1.561.5,1.159,1.159,0,0,1-1.561-.5" transform="translate(-66.442 -45.25)" fill="#e0e0e0"/>
            <path id="Trazado_813038" data-name="Trazado 813038" d="M305.575,260.077s-5.973-4.592-14.684,9.856-12.224,22.888-12.224,22.888-2.244,3-4.256.79-4.551-8.244-8.294-7.457c-3.881.817-5.437,4.972-5.157,11.263s.388,20.094.393,21.342c0,1.226-.821,2.972-2.432,1.687s-10.583-12.833-15.808-8.248-1.565,21.98-1.2,23.889-.061,2.683-.984,3.083-3.573-3.766-6.259-6.946-6.358-6.4-9.151-3.5-4.53,15.63,6.161,37.275l5.61,9.706,11.259.178c24.116-1.088,34.428-8.754,35.618-12.6s-3.4-5.508-7.482-6.325-9.01-1.126-9.105-2.128.378-1.746,2.226-2.349,18.848-5.8,20.341-12.586-12.953-9.071-14.855-9.862-.773-2.357.3-2.944c1.1-.6,13.237-7.168,18.881-9.959s8.532-6.16,7.373-9.953c-1.117-3.658-7.629-2.968-10.534-3.665s-1.362-4.107-1.362-4.107,5.7-7.15,14.143-21.754,1.354-17.659,1.354-17.659" transform="translate(-49.843 -57.872)" fill="#3b5620"/>
            <path id="Trazado_813039" data-name="Trazado 813039" d="M299.082,276.914s-.05.11-.162.315l-.5.907c-.458.806-1.121,1.973-1.971,3.469-1.715,3.011-4.228,7.349-7.353,12.7-6.246,10.7-15,25.41-24.717,41.625s-18.508,30.909-24.808,41.577l-7.447,12.641-2.027,3.435-.535.889c-.122.2-.192.3-.192.3s.049-.11.162-.315l.5-.906,1.97-3.469c1.715-3.01,4.228-7.349,7.352-12.7,6.246-10.7,15-25.413,24.721-41.633s18.5-30.9,24.8-41.57l7.448-12.641c.874-1.482,1.556-2.638,2.028-3.436l.534-.89c.122-.2.193-.3.193-.3" transform="translate(-51.175 -61.783)" fill="#e0e0e0"/>
            <path id="Trazado_813040" data-name="Trazado 813040" d="M282.52,304.9a3.663,3.663,0,0,1,.228.778c.127.506.287,1.242.479,2.154.378,1.824.837,4.356,1.294,7.16.44,2.766.837,5.267,1.14,7.181.143.862.263,1.589.36,2.173a3.572,3.572,0,0,1,.1.8,3.652,3.652,0,0,1-.234-.778c-.124-.506-.287-1.242-.468-2.157-.361-1.828-.787-4.365-1.243-7.168-.458-2.762-.874-5.259-1.192-7.17-.148-.862-.271-1.588-.371-2.172a3.573,3.573,0,0,1-.094-.806" transform="translate(-63.032 -68.026)" fill="#e0e0e0"/>
            <path id="Trazado_813041" data-name="Trazado 813041" d="M288.463,329.9c-.02-.094,5.159-1.27,11.566-2.627s11.62-2.38,11.64-2.286-5.159,1.27-11.568,2.627-11.618,2.38-11.639,2.286" transform="translate(-64.36 -72.507)" fill="#e0e0e0"/>
            <path id="Trazado_813042" data-name="Trazado 813042" d="M267.8,362.5a3.749,3.749,0,0,1,.828.021l2.243.168c1.894.139,4.511.32,7.4.414s5.517.1,7.416.085l2.249-.016a3.777,3.777,0,0,1,.827.034,3.743,3.743,0,0,1-.822.1c-.53.043-1.3.09-2.248.127-1.9.078-4.532.117-7.434.017s-5.524-.315-7.415-.517c-.945-.1-1.709-.2-2.235-.279a3.728,3.728,0,0,1-.813-.155" transform="translate(-59.751 -80.875)" fill="#e0e0e0"/>
            <path id="Trazado_813043" data-name="Trazado 813043" d="M257.17,339.791a3.2,3.2,0,0,1,.393.656l.956,1.848c.793,1.566,1.867,3.741,3.034,6.153s2.206,4.6,2.943,6.2l.856,1.9a3.243,3.243,0,0,1,.271.716,3.2,3.2,0,0,1-.393-.656l-.956-1.848c-.793-1.566-1.868-3.742-3.035-6.154s-2.206-4.6-2.942-6.2l-.856-1.9a3.242,3.242,0,0,1-.271-.716" transform="translate(-57.378 -75.812)" fill="#e0e0e0"/>
            <path id="Trazado_813044" data-name="Trazado 813044" d="M235.434,365.008a5.231,5.231,0,0,1,.495.845l1.233,2.363c1.028,2,2.426,4.779,3.951,7.856s2.889,5.871,3.86,7.9l1.134,2.412a5.215,5.215,0,0,1,.373.905,5.283,5.283,0,0,1-.494-.845c-.322-.615-.736-1.409-1.234-2.363-1.028-2-2.426-4.779-3.951-7.856s-2.888-5.871-3.86-7.9l-1.134-2.412a5.26,5.26,0,0,1-.374-.906" transform="translate(-52.528 -81.438)" fill="#e0e0e0"/>
            <path id="Trazado_813045" data-name="Trazado 813045" d="M249.508,392.9a6.061,6.061,0,0,1,1.049,0l2.853.11c2.408.09,5.733.2,9.409.223s7-.039,9.413-.1l2.853-.073a6.037,6.037,0,0,1,1.049.012,5.992,5.992,0,0,1-1.042.123c-.672.056-1.646.123-2.85.183-2.409.127-5.742.23-9.424.2s-7.012-.172-9.42-.326c-1.2-.079-2.177-.154-2.848-.221a6.063,6.063,0,0,1-1.04-.135" transform="translate(-55.669 -87.659)" fill="#e0e0e0"/>
            <path id="Trazado_813046" data-name="Trazado 813046" d="M295.615,425.258c0,.112-62.989.2-140.672.2-77.71,0-140.686-.09-140.686-.2s62.975-.2,140.686-.2c77.682,0,140.672.09,140.672.2" transform="translate(-3.181 -94.836)" fill="#263238"/>
            <path id="Trazado_813047" data-name="Trazado 813047" d="M239.829,333.867,228,277.431s-6.936-27.2-30.815-36.571l-1.648-.507c-.035-.012-2.265-.695-2.3-.708-.959-.374-4.88-1.617-5.91-1.938-32.2-11.16-40.738-8.257-74.29,3.192,0,0-14.905,4.01-22.129,23.453s-21.053,49.852-21.053,49.852l33.472,11.82,6.416-9.531v65.2H201.8l-2.54-30.014-.443-36.97" transform="translate(-15.585 -51.466)" fill="#572558"/>
            <path id="Trazado_813048" data-name="Trazado 813048" d="M160.854,248.3a5.229,5.229,0,0,1-.768.713,10.212,10.212,0,0,1-.966.762c-.391.277-.822.618-1.345.921a24.878,24.878,0,0,1-3.769,1.958,26.023,26.023,0,0,1-10.162,1.987,24.786,24.786,0,0,1-4.229-.395c-.6-.085-1.126-.237-1.593-.347a10.2,10.2,0,0,1-1.182-.342,5.176,5.176,0,0,1-.98-.371c.024-.081,1.436.414,3.8.778a27.289,27.289,0,0,0,4.182.3,27.313,27.313,0,0,0,10.022-1.959,27.221,27.221,0,0,0,3.759-1.857c2.054-1.228,3.176-2.219,3.229-2.153" transform="translate(-30.312 -55.398)" fill="#fafafa"/>
            <g id="Grupo_1068999" data-name="Grupo 1068999" transform="translate(94.156 288.956)" opacity="0.3">
              <g id="Grupo_1068998" data-name="Grupo 1068998">
                <g id="Grupo_1068997" data-name="Grupo 1068997" clip-path="url(#clip-path-3)">
                  <path id="Trazado_813049" data-name="Trazado 813049" d="M121.2,372.829l7.548,8.715h7.416v9.488l76.72,17.742-.625-7.39L140.077,376.6h-12.1l-5.833-4.659Z" transform="translate(-121.196 -371.941)"/>
                </g>
              </g>
            </g>
            <path id="Trazado_813050" data-name="Trazado 813050" d="M137.154,357.892l-6.4-1.185s-15.167-16.59-18.012-16.827c-2.341-.2-15.243-.069-19.738-.018a1.564,1.564,0,0,0-.04,3.126l15.245.591.072,1.227-15.267.2c-1.554.12-2.551,2.582,2.425,3.025l12.769.454v.794l-12.948,1.809c-.654.092-2.375.426-2.391,1.087,0,0-.783,1.622,2.906,2.084,1.266.158,12.506-.215,12.506-.215l-.434,1.011-11.636,2.51a1.654,1.654,0,0,0,.5,3.264l12.434-1.154,12.2,9.746h16.316Z" transform="translate(-20.406 -75.808)" fill="#ffbe9d"/>
            <path id="Trazado_813051" data-name="Trazado 813051" d="M276.866,358l-37.234,7.323-3.777-26.477" transform="translate(-52.622 -75.602)" fill="#572558"/>
            <path id="Trazado_813052" data-name="Trazado 813052" d="M214.515,364.164l-69.015-2.23.012,23.854,45.788,9.094,32.151,5.133c19.982,0,35.965-18.34,32.871-38.081l-.085.023Z" transform="translate(-32.463 -80.752)" fill="#572558"/>
            <path id="Trazado_813053" data-name="Trazado 813053" d="M233.513,363.722a5.549,5.549,0,0,1-.894.062l-2.565.074-9.436.171c-7.968.116-18.978.251-31.139.135s-23.175-.559-31.129-1.1c-3.977-.266-7.192-.523-9.41-.747l-2.553-.261a5.551,5.551,0,0,1-.887-.128,5.63,5.63,0,0,1,.9.019l2.561.16c2.222.159,5.44.357,9.417.573,7.954.44,18.953.818,31.111.938s23.161.041,31.13.023l9.438,0,2.567.029a5.55,5.55,0,0,1,.895.047" transform="translate(-32.463 -80.749)" fill="#263238"/>
            <path id="Trazado_813054" data-name="Trazado 813054" d="M145.457,362.211a2.625,2.625,0,0,1,.026.423c.006.3.015.714.026,1.237.011,1.109.027,2.693.048,4.7.019,4.081.046,9.878.078,16.858l-.134-.165c7.794,1.671,17.136,3.74,27.193,5.851,13.79,2.916,26.34,5.22,35.465,6.63,4.563.7,8.264,1.214,10.824,1.552l2.948.388.766.111a1.287,1.287,0,0,1,.259.051,1.3,1.3,0,0,1-.264-.01l-.771-.071-2.958-.313c-2.567-.291-6.276-.761-10.847-1.426-9.142-1.339-21.711-3.6-35.505-6.517-10.06-2.112-19.4-4.2-27.181-5.916l-.134-.03v-.136c.027-6.98.05-12.777.065-16.858.019-2.008.034-3.592.045-4.7.01-.523.019-.934.025-1.237a2.582,2.582,0,0,1,.026-.423" transform="translate(-32.417 -80.814)" fill="#263238"/>
            <path id="Trazado_813055" data-name="Trazado 813055" d="M136.037,270.317a6.416,6.416,0,0,1,.05-1.165c.047-.747.122-1.826.151-3.162a54.366,54.366,0,0,0-.723-10.388c-.708-4-1.6-7.641-2.989-9.905a7.923,7.923,0,0,0-2.061-2.323c-.6-.429-.991-.588-.973-.625.005-.013.1.019.288.094a4.894,4.894,0,0,1,.774.4,7.5,7.5,0,0,1,2.215,2.3,16.766,16.766,0,0,1,1.863,4.353,49.173,49.173,0,0,1,1.893,16.1c-.066,1.342-.185,2.423-.28,3.167a6.441,6.441,0,0,1-.207,1.148" transform="translate(-28.891 -54.16)" fill="#263238"/>
            <path id="Trazado_813056" data-name="Trazado 813056" d="M235.552,251.246c.112,0,.2,15.857.2,35.414s-.09,35.418-.2,35.418-.2-15.854-.2-35.418.09-35.414.2-35.414" transform="translate(-52.51 -56.056)" fill="#572558"/>
            <path id="Trazado_813057" data-name="Trazado 813057" d="M260.98,353.753c0,.076-1.175.039-3.041.27a24.913,24.913,0,0,0-3.234.63,24.36,24.36,0,0,0-7.317,3.311,24.859,24.859,0,0,0-2.609,2.014c-1.4,1.249-2.151,2.155-2.209,2.106a3.273,3.273,0,0,1,.483-.67,16.272,16.272,0,0,1,1.534-1.647,21.631,21.631,0,0,1,2.592-2.112,22.629,22.629,0,0,1,7.434-3.364,21.592,21.592,0,0,1,3.3-.553,16.214,16.214,0,0,1,2.249-.064,3.2,3.2,0,0,1,.822.079" transform="translate(-54.12 -78.906)" fill="#263238"/>
            <g id="Grupo_1069002" data-name="Grupo 1069002" transform="translate(101.85 201.319)" opacity="0.3">
              <g id="Grupo_1069001" data-name="Grupo 1069001">
                <g id="Grupo_1069000" data-name="Grupo 1069000" clip-path="url(#clip-path-4)">
                  <path id="Trazado_813058" data-name="Trazado 813058" d="M137.042,335.969c11.632-6.945,18.891-18.447,25.985-29.987s13.7-23.655,23.538-32.969c4.518-4.277,9.8-7.885,11.47-13.878l-17.681,14.051L131.1,329.831Z" transform="translate(-131.1 -259.136)"/>
                </g>
              </g>
            </g>
            <path id="Trazado_813059" data-name="Trazado 813059" d="M94.341,318.885a32.151,32.151,0,0,0-5.96,1.13,29.8,29.8,0,0,0-3.929,1.734,9.1,9.1,0,0,1-1.621.775,7.113,7.113,0,0,1,1.482-1.025,21.138,21.138,0,0,1,3.938-1.868,15.915,15.915,0,0,1,4.286-.814,6.193,6.193,0,0,1,1.8.068" transform="translate(-18.48 -71.129)" fill="#263238"/>
            <path id="Trazado_813060" data-name="Trazado 813060" d="M94.341,318.885a32.151,32.151,0,0,0-5.96,1.13,29.8,29.8,0,0,0-3.929,1.734,9.1,9.1,0,0,1-1.621.775,7.113,7.113,0,0,1,1.482-1.025,21.138,21.138,0,0,1,3.938-1.868,15.915,15.915,0,0,1,4.286-.814,6.193,6.193,0,0,1,1.8.068" transform="translate(-18.48 -71.129)" fill="#263238"/>
            <path id="Trazado_813061" data-name="Trazado 813061" d="M215.281,350.873a10.606,10.606,0,0,0-2.684-1.236,13.822,13.822,0,0,0-7.941.5c-3.295.972-6.71,3.3-10.932,5.059a15.975,15.975,0,0,1-7.021,1.342,18.94,18.94,0,0,1-7.336-2.253c-2.357-1.175-4.549-2.5-6.78-3.536a20.518,20.518,0,0,0-6.761-1.91,22.035,22.035,0,0,0-11.635,2.1,21.115,21.115,0,0,0-6.479,4.76l-.844.952-.56.746-.352.455a.715.715,0,0,1-.131.148.7.7,0,0,1,.1-.171l.319-.479.532-.774.821-.983a20.641,20.641,0,0,1,6.471-4.911,22.22,22.22,0,0,1,11.8-2.218,20.781,20.781,0,0,1,6.892,1.921c2.258,1.043,4.458,2.369,6.793,3.533a18.673,18.673,0,0,0,7.182,2.22,15.681,15.681,0,0,0,6.857-1.293c4.174-1.709,7.633-4.033,10.985-4.986a13.737,13.737,0,0,1,8.072-.376,8.171,8.171,0,0,1,2.018.927l.471.336a.751.751,0,0,1,.152.125" transform="translate(-32.535 -77.727)" fill="#572558"/>
            <path id="Trazado_813062" data-name="Trazado 813062" d="M268.889,314.481a6.344,6.344,0,0,0-1.4-.264,6.762,6.762,0,0,0-3.651,1.118c-1.434.8-2.819,2.262-4.777,3.361a6.221,6.221,0,0,1-3.4.855,9.231,9.231,0,0,1-3.578-1.137c-1.14-.576-2.2-1.217-3.293-1.653a15.3,15.3,0,0,0-9-.731,15.354,15.354,0,0,0-3.668,1.311c-.826.414-1.252.707-1.275.671a1.293,1.293,0,0,1,.294-.233,8.5,8.5,0,0,1,.907-.577,14.081,14.081,0,0,1,3.678-1.45,14.4,14.4,0,0,1,2.711-.406,14.543,14.543,0,0,1,3.147.134,14.736,14.736,0,0,1,3.362.915c1.133.446,2.2,1.093,3.325,1.659a8.94,8.94,0,0,0,3.42,1.1,5.888,5.888,0,0,0,3.2-.787c1.9-1.037,3.318-2.481,4.811-3.281a6.67,6.67,0,0,1,3.8-1.028,3.636,3.636,0,0,1,1.054.246,1.311,1.311,0,0,1,.334.176" transform="translate(-52.397 -70.066)" fill="#fafafa"/>
            <path id="Trazado_813063" data-name="Trazado 813063" d="M220.519,300.748a2.7,2.7,0,0,1-.528-.092c-.172-.033-.381-.09-.632-.132l-.872-.116a14.939,14.939,0,0,0-5.537.566,33.88,33.88,0,0,0-7.571,3.413,72.985,72.985,0,0,1-9.017,4.9,19.23,19.23,0,0,1-5.153,1.411,13.2,13.2,0,0,1-4.971-.341,23,23,0,0,1-4.178-1.67c-1.258-.623-2.409-1.234-3.484-1.738a14.842,14.842,0,0,0-5.328-1.612,9.383,9.383,0,0,0-1.52.047,2.685,2.685,0,0,1-.535.033,2.725,2.725,0,0,1,.524-.114,7.8,7.8,0,0,1,1.538-.123,14.342,14.342,0,0,1,5.441,1.51c1.091.49,2.253,1.089,3.511,1.7A23.052,23.052,0,0,0,186.333,310a12.922,12.922,0,0,0,4.829.308,19.093,19.093,0,0,0,5.046-1.391,76.366,76.366,0,0,0,8.985-4.849,33.107,33.107,0,0,1,7.681-3.366,14.446,14.446,0,0,1,5.631-.446l.877.154c.252.054.459.125.629.171a2.7,2.7,0,0,1,.509.171" transform="translate(-38.195 -66.966)" fill="#fafafa"/>
            <path id="Trazado_813064" data-name="Trazado 813064" d="M258.926,270.156a4.276,4.276,0,0,1-.831.482c-.548.284-1.346.687-2.36,1.13a22.308,22.308,0,0,1-3.682,1.275,13.552,13.552,0,0,1-4.771.325c-1.692-.178-3.257-.537-4.692-.731a13.633,13.633,0,0,0-3.813-.069,8.341,8.341,0,0,0-3.281,1.21c-.009-.011.051-.072.175-.18a4.289,4.289,0,0,1,.581-.42,7.012,7.012,0,0,1,2.481-.893,13.124,13.124,0,0,1,3.905-.018c1.458.177,3.028.525,4.685.7a17.042,17.042,0,0,0,8.3-1.461c1.02-.406,1.835-.768,2.4-1.008a4.45,4.45,0,0,1,.9-.34" transform="translate(-52.542 -60.275)" fill="#fafafa"/>
            <path id="Trazado_813065" data-name="Trazado 813065" d="M126.473,286.5a4.133,4.133,0,0,0-1.376-.331,5.8,5.8,0,0,0-3.56,1.32c-.674.475-1.371,1.064-2.2,1.607a8.123,8.123,0,0,1-2.942,1.179,13.862,13.862,0,0,1-7.124-.85c-2.407-.869-4.563-1.976-6.625-2.7a17.81,17.81,0,0,0-2.978-.814,12.54,12.54,0,0,0-2.676-.162,8.515,8.515,0,0,0-3.722,1c-.8.45-1.175.817-1.2.784-.01-.011.079-.1.259-.273a5.1,5.1,0,0,1,.864-.647,8.265,8.265,0,0,1,3.783-1.146,12.486,12.486,0,0,1,2.747.117,17.53,17.53,0,0,1,3.049.794c2.1.717,4.267,1.816,6.638,2.671a13.717,13.717,0,0,0,6.921.865,7.874,7.874,0,0,0,2.829-1.1c.815-.514,1.524-1.091,2.22-1.559a5.792,5.792,0,0,1,3.733-1.241,2.767,2.767,0,0,1,1.049.283,1,1,0,0,1,.317.205" transform="translate(-20.541 -63.684)" fill="#fafafa"/>
            <path id="Trazado_813066" data-name="Trazado 813066" d="M191.665,363.4c.01-.01.095.064.249.214a5.531,5.531,0,0,1,.612.717,7.435,7.435,0,0,1,1.269,3.219,7.34,7.34,0,0,1-1.032,5c-1.031,1.673-2.792,3-3.78,4.92a4.682,4.682,0,0,0-.387,3.024,11.437,11.437,0,0,0,1.008,2.775,11.321,11.321,0,0,1,1.6,4.866,3.924,3.924,0,0,1-1.454,3.1,2.523,2.523,0,0,1-.858.411.9.9,0,0,1-.329.036,3.658,3.658,0,0,0,1.091-.571,3.839,3.839,0,0,0,1.265-2.973,11.414,11.414,0,0,0-1.653-4.7,11.579,11.579,0,0,1-1.063-2.864,5.054,5.054,0,0,1,.413-3.275,12.165,12.165,0,0,1,1.945-2.639,18.985,18.985,0,0,0,1.885-2.3,7.149,7.149,0,0,0,1.063-4.765,7.738,7.738,0,0,0-1.116-3.167c-.437-.674-.761-.991-.731-1.02" transform="translate(-41.967 -81.079)" fill="#fafafa"/>
            <path id="Trazado_813067" data-name="Trazado 813067" d="M234.263,397.813c-.009.01-.109-.076-.292-.253a3.181,3.181,0,0,1-.6-.934,5.282,5.282,0,0,1,.2-4.011,8.166,8.166,0,0,1,1.51-2.383c.66-.768,1.443-1.506,2.23-2.3a12.707,12.707,0,0,0,2.159-2.713,9.158,9.158,0,0,0,1.039-3.535,44.167,44.167,0,0,0-.333-7.272,12.615,12.615,0,0,1,.753-5.951,6.781,6.781,0,0,1,2.554-3.127,4.687,4.687,0,0,1,1-.473,1.391,1.391,0,0,1,.375-.088,10.231,10.231,0,0,0-1.29.692,6.861,6.861,0,0,0-2.378,3.107,12.609,12.609,0,0,0-.644,5.815,42.078,42.078,0,0,1,.363,7.338,9.468,9.468,0,0,1-1.1,3.686,12.845,12.845,0,0,1-2.241,2.783c-1.61,1.573-3.119,2.954-3.739,4.534a5.236,5.236,0,0,0-.314,3.842,4.954,4.954,0,0,0,.746,1.245" transform="translate(-52 -81.385)" fill="#fafafa"/>
            <path id="Trazado_813068" data-name="Trazado 813068" d="M213.191,417.694a4.857,4.857,0,0,1-.865.547,7.461,7.461,0,0,1-2.819.806,12.193,12.193,0,0,1-4.612-.518,25.078,25.078,0,0,1-5.583-2.581,37.213,37.213,0,0,0-6.611-3.306,15.814,15.814,0,0,0-8.338-.285,50.655,50.655,0,0,0-8.869,3.067,52.311,52.311,0,0,1-9.595,3.313,17.075,17.075,0,0,1-5.173.291A13.845,13.845,0,0,1,155.9,417.6c-2.974-1.486-5.346-3.638-7.768-5.389a24.5,24.5,0,0,0-3.694-2.31l-.947-.452c-.319-.138-.649-.242-.968-.363a15.87,15.87,0,0,0-1.934-.577,19.4,19.4,0,0,0-7.328-.3,20.394,20.394,0,0,0-5.822,1.738c-.412.18-.782.408-1.154.6a8.665,8.665,0,0,0-1.033.615c-.321.212-.635.406-.922.608l-.789.619a13.682,13.682,0,0,0-1.26,1.113,8.651,8.651,0,0,0-.857.887l-.51.566a1.281,1.281,0,0,1-.185.184,1.261,1.261,0,0,1,.152-.211l.481-.593a8,8,0,0,1,.834-.919,13.113,13.113,0,0,1,1.245-1.15l.784-.639c.287-.208.6-.409.921-.628a8.647,8.647,0,0,1,1.036-.635c.373-.2.745-.433,1.158-.62a20.4,20.4,0,0,1,5.878-1.816,19.575,19.575,0,0,1,7.446.253,15.982,15.982,0,0,1,1.974.577c.326.122.663.228.989.366l.969.457a24.782,24.782,0,0,1,3.755,2.328c2.444,1.757,4.814,3.89,7.723,5.335a13.464,13.464,0,0,0,4.693,1.384,16.712,16.712,0,0,0,5.051-.287,52.45,52.45,0,0,0,9.522-3.282,50.473,50.473,0,0,1,8.944-3.066,16.112,16.112,0,0,1,8.519.331,36.955,36.955,0,0,1,6.649,3.378,25.237,25.237,0,0,0,5.5,2.611,12.237,12.237,0,0,0,4.535.578,7.722,7.722,0,0,0,2.8-.722c.6-.285.886-.5.9-.474" transform="translate(-26.936 -90.96)" fill="#fafafa"/>
            <path id="Trazado_813069" data-name="Trazado 813069" d="M179.7,228.805h0a16.155,16.155,0,0,0,16.887-14.72c.451-5.129.808-9.508.808-9.508s13.237-.334,15.079-13.286,3.459-43.035,3.459-43.035a45.468,45.468,0,0,0-46.044-.181l-2.115,1.231-3.407,62.487A16.153,16.153,0,0,0,179.7,228.805" transform="translate(-36.667 -31.661)" fill="#ffbe9d"/>
            <path id="Trazado_813070" data-name="Trazado 813070" d="M209.243,189.449c.006-.141,1.14-.221,2.968-.238.475.01.855-.048.921-.3a2.563,2.563,0,0,0-.161-1.381l-.942-3.815c-1.281-5.426-2.1-9.876-1.82-9.941s1.537,4.28,2.818,9.706c.3,1.322.583,2.585.863,3.832a3,3,0,0,1,0,1.975,1.236,1.236,0,0,1-.9.642,3.025,3.025,0,0,1-.811,0c-1.821-.169-2.944-.345-2.938-.486" transform="translate(-46.685 -38.772)" fill="#263238"/>
            <path id="Trazado_813071" data-name="Trazado 813071" d="M202.267,220.329a30.416,30.416,0,0,1-16.29-7s2.787,9.855,15.884,10.366Z" transform="translate(-41.494 -47.596)" fill="#eb996e"/>
            <path id="Trazado_813072" data-name="Trazado 813072" d="M215.605,150.538s-8.16,3.409-18.219-2.324c-6.6-3.762-14.421-5.854-16.241-4.585s-2.574,8.242-9.41,9.912c0,0-.274,13.369-5.569,12.6s-.828-21.253-.828-21.253l13.366-5.639,14.351-1.9,13.279,2.625,10.2,3.407Z" transform="translate(-36.497 -30.645)" fill="#263238"/>
            <path id="Trazado_813073" data-name="Trazado 813073" d="M165.845,168.75c-.209-.124-8.572-3.794-9.439,5.113s8.254,7.939,8.293,7.686,1.146-12.8,1.146-12.8" transform="translate(-34.883 -37.46)" fill="#ffbe9d"/>
            <path id="Trazado_813074" data-name="Trazado 813074" d="M162.964,178.713c-.037-.033-.165.093-.44.188a1.554,1.554,0,0,1-1.161-.089c-.907-.437-1.555-2.008-1.441-3.617a5.137,5.137,0,0,1,.65-2.179,1.8,1.8,0,0,1,1.283-1.078.794.794,0,0,1,.874.514c.095.261.021.433.067.453.023.025.206-.131.17-.506a1,1,0,0,0-.3-.592,1.18,1.18,0,0,0-.837-.31,2.19,2.19,0,0,0-1.755,1.223,5.293,5.293,0,0,0-.779,2.43c-.118,1.8.637,3.569,1.889,4.067a1.671,1.671,0,0,0,1.442-.1c.3-.193.364-.388.334-.407" transform="translate(-35.539 -38.263)" fill="#eb996e"/>
            <path id="Trazado_813075" data-name="Trazado 813075" d="M176.371,141.733a30.631,30.631,0,0,1-5.928,5.305,10.321,10.321,0,0,1-7.607,1.611,6.3,6.3,0,0,1-4.988-5.5c-.106-2.658,2.491-5.25,5.089-4.682a2.776,2.776,0,1,1,1.635-4.981c-2.256-.423-2.51-4-.712-5.432s4.432-1.116,6.56-.253,4.082,2.2,6.326,2.683c3.52.757,7.133-.709,10.246-2.517s6.072-4.021,9.542-4.98c4.26-1.178,8.862-.317,12.937,1.393a20.88,20.88,0,0,1,8.786,6.41,12.242,12.242,0,0,1,2.307,10.372c-.979,3.535-4.268,6.471-7.937,6.485,0,0-8.247.83-14.957-4.151s-20.859-4.322-20.859-4.322Z" transform="translate(-35.217 -27.32)" fill="#263238"/>
            <path id="Trazado_813076" data-name="Trazado 813076" d="M165.718,133.922c-.017.028.159.169.514.412s.89.577,1.6.979a29.121,29.121,0,0,0,6.422,2.554,30.918,30.918,0,0,0,10.218.972c3.9-.256,7.995-1.514,12.257-2.557s8.473-1.566,12.117-.67a11.611,11.611,0,0,1,7.781,5.543,8.828,8.828,0,0,1,.672,6.464,14.467,14.467,0,0,1-1.028,2.255c.025.021.184-.139.468-.469a6.517,6.517,0,0,0,.911-1.667,8.937,8.937,0,0,0-.42-6.882,12.166,12.166,0,0,0-8.172-6.1c-3.855-1-8.252-.462-12.551.6-4.316,1.058-8.331,2.314-12.1,2.608a31.788,31.788,0,0,1-9.984-.75c-5.6-1.362-8.613-3.481-8.7-3.292" transform="translate(-36.974 -29.877)" fill="#455a64"/>
            <path id="Trazado_813077" data-name="Trazado 813077" d="M160.567,151.639c-.1.05.19.922,1.151,2.026a9.076,9.076,0,0,0,10.485,2.267c1.332-.608,1.955-1.283,1.885-1.37-.084-.124-.829.333-2.126.74a9.822,9.822,0,0,1-9.766-2.112c-1.012-.906-1.5-1.63-1.63-1.552" transform="translate(-35.82 -33.832)" fill="#455a64"/>
            <path id="Trazado_813078" data-name="Trazado 813078" d="M164.134,145.973c-.227.106.456,1.725,2.182,2.909s3.472,1.266,3.491,1.015c.053-.271-1.431-.731-2.949-1.8-1.534-1.043-2.488-2.27-2.724-2.126" transform="translate(-36.611 -32.566)" fill="#455a64"/>
            <path id="Trazado_813079" data-name="Trazado 813079" d="M235.015,160.153c.118.029.37-.41.436-1.208a4.928,4.928,0,0,0-3.2-4.925c-.757-.263-1.259-.21-1.281-.091-.077.257,1.754.767,2.9,2.544s.885,3.647,1.151,3.681" transform="translate(-51.531 -34.322)" fill="#263238"/>
            <path id="Trazado_813080" data-name="Trazado 813080" d="M239.74,145.531c-.263-.11-1.245,2.249-3.574,4.193-2.292,1.986-4.779,2.578-4.712,2.855-.011.248,2.8.042,5.329-2.129,2.547-2.143,3.2-4.89,2.956-4.918" transform="translate(-51.64 -32.469)" fill="#455a64"/>
            <path id="Trazado_813081" data-name="Trazado 813081" d="M223.591,174.893a2,2,0,0,1-2.178,1.755,1.916,1.916,0,0,1-1.815-2.06,2,2,0,0,1,2.176-1.757,1.919,1.919,0,0,1,1.816,2.061" transform="translate(-48.994 -38.56)" fill="#263238"/>
            <path id="Trazado_813082" data-name="Trazado 813082" d="M224.519,174.5c-.28.227-1.641-1.084-3.78-1.357-2.133-.3-3.846.592-4.044.3-.1-.131.214-.565.962-.973a5.5,5.5,0,0,1,3.279-.561,5.288,5.288,0,0,1,2.966,1.4c.592.59.753,1.088.617,1.189" transform="translate(-48.344 -38.344)" fill="#263238"/>
            <path id="Trazado_813083" data-name="Trazado 813083" d="M198.543,171.414a2,2,0,0,1-2.178,1.755,1.916,1.916,0,0,1-1.815-2.06,2,2,0,0,1,2.176-1.756,1.918,1.918,0,0,1,1.816,2.06" transform="translate(-43.405 -37.784)" fill="#263238"/>
            <path id="Trazado_813084" data-name="Trazado 813084" d="M199.231,171.176c-.28.227-1.642-1.084-3.78-1.357-2.133-.3-3.846.592-4.044.3-.1-.131.211-.566.962-.973a5.5,5.5,0,0,1,3.278-.561,5.288,5.288,0,0,1,2.967,1.4c.59.59.753,1.088.617,1.189" transform="translate(-42.702 -37.602)" fill="#263238"/>
            <path id="Trazado_813085" data-name="Trazado 813085" d="M197.971,163.491c-.422.376-2.025-.792-4.19-1-2.159-.257-3.972.548-4.3.092-.156-.218.132-.771.928-1.3a5.735,5.735,0,0,1,6.931.738c.667.683.833,1.283.635,1.464" transform="translate(-42.266 -35.799)" fill="#263238"/>
            <path id="Trazado_813086" data-name="Trazado 813086" d="M224.293,168.529c.093.253-.275.678-1.053,1.015a6.331,6.331,0,0,1-6.216-.977c-.637-.56-.857-1.078-.691-1.29.371-.439,1.962.317,3.983.607,2.012.344,3.759.113,3.977.644" transform="translate(-48.255 -37.292)" fill="#263238"/>
            <path id="Trazado_813087" data-name="Trazado 813087" d="M207,198.53c.223.014.38.416.351.9s-.235.863-.458.849-.38-.416-.35-.9.234-.863.457-.85" transform="translate(-46.082 -44.295)" fill="#263238"/>
            <path id="Trazado_813088" data-name="Trazado 813088" d="M164.9,188.421c.021.007-.012.208-.194.523a2.715,2.715,0,0,1-1.129,1.027,2.828,2.828,0,0,1-2.267.134,3.27,3.27,0,0,1-1.947-1.983,3.513,3.513,0,0,1,1.956-4.289,3.632,3.632,0,0,1,1.488-.313,1.107,1.107,0,0,1,.548.086,5.964,5.964,0,0,0-1.913.486,3.347,3.347,0,0,0-1.475,1.44,3.208,3.208,0,0,0-.221,2.46,2.965,2.965,0,0,0,1.7,1.764,2.6,2.6,0,0,0,2.014-.044,3.518,3.518,0,0,0,1.444-1.291" transform="translate(-35.518 -40.946)" fill="#455a64"/>
            <path id="Trazado_813089" data-name="Trazado 813089" d="M177.6,249.451s4.334-6.123,7.058-9.563c3.3-4.168,5.267-7.76,5.267-9.707V219.865s4.108-.973,4.7,3.7,0,5.839,0,5.839,17.25-11.618,18.42-10.775c2.055,1.481-1.843,4.583-1.843,4.583l-10.513,9.5,5.986-1.895a2.79,2.79,0,0,1,2.436,4.957l-3.543,3.07,1.784-.716a2.74,2.74,0,0,1,3.467,1.3,2.71,2.71,0,0,1-.445,3.076l-3.229,3.442,1.513-.8a1.966,1.966,0,0,1,2.682.851,1.945,1.945,0,0,1-.535,2.4l-19.31,15.268Z" transform="translate(-39.625 -48.769)" fill="#ffbe9d"/>
            <path id="Trazado_813090" data-name="Trazado 813090" d="M191.443,263.6s-.082-.071-.241-.226l-.707-.7-2.743-2.76c-2.41-2.443-5.905-5.984-10.291-10.429l-.075-.076.062-.088c1.263-1.788,2.637-3.707,4.127-5.733.745-1.012,1.52-2.053,2.333-3.109s1.663-2.121,2.459-3.272a31.634,31.634,0,0,0,2.233-3.652,7.843,7.843,0,0,0,1.1-4.218c0-3.062-.007-6.243-.011-9.528v-.155l.144-.027a4.353,4.353,0,0,1,3.119.514,3.887,3.887,0,0,1,1.131,1.191,5.55,5.55,0,0,1,.566,1.537,24.5,24.5,0,0,1,.35,3.224c.028.545.038,1.092.014,1.645a5.69,5.69,0,0,1-.266,1.7l-.285-.252c2.663-1.786,5.424-3.594,8.277-5.4,1.427-.9,2.877-1.8,4.358-2.677a44.868,44.868,0,0,1,4.6-2.467,6.018,6.018,0,0,1,.665-.24,1.934,1.934,0,0,1,.376-.071.746.746,0,0,1,.235.016.479.479,0,0,1,.212.134,1.465,1.465,0,0,1,.585,1.365,4.736,4.736,0,0,1-1.384,2.418c-.625.675-1.342,1.227-1.983,1.833l-1.969,1.778-7.671,6.926-.19-.333,3.505-1.107,1.726-.545c.29-.089.563-.183.864-.267a2.828,2.828,0,0,1,.943-.1,2.973,2.973,0,0,1,1.547,5.427l.016-.013-3.546,3.066-.184-.3,1.736-.695a2.977,2.977,0,0,1,1.912-.124,2.884,2.884,0,0,1,1.537,4.532c-.39.465-.781.843-1.165,1.262l-2.262,2.4-.188-.246,1.623-.853a2.1,2.1,0,0,1,2.553,3.189,3.4,3.4,0,0,1-.637.58l-.644.507-1.261.991-2.408,1.891-7.982,6.253-5.057,3.944-1.317,1.017c-.3.227-.447.332-.447.332s.153-.136.45-.378l1.314-1.063,5.023-4.026,7.894-6.3,2.379-1.893,1.246-.991.637-.507a3.149,3.149,0,0,0,.584-.533,1.807,1.807,0,0,0-2.2-2.736l-1.6.852-.83.441.642-.688,2.252-2.409c.373-.409.794-.827,1.139-1.241A2.544,2.544,0,0,0,209,238.138a2.618,2.618,0,0,0-1.687.115l-1.734.7-.992.4.808-.7,3.539-3.074.009-.008.009,0a2.6,2.6,0,0,0-1.356-4.741,4.585,4.585,0,0,0-1.673.358l-1.725.547-3.5,1.112-.86.273.67-.606,7.672-6.938,1.969-1.781c.651-.613,1.355-1.158,1.95-1.8a4.42,4.42,0,0,0,1.277-2.182,1.051,1.051,0,0,0-.438-1.012c-.047-.117-.249-.051-.458,0a5.492,5.492,0,0,0-.618.225,44.482,44.482,0,0,0-4.555,2.442c-1.477.874-2.924,1.771-4.35,2.669-2.849,1.8-5.611,3.6-8.272,5.384l-.493.331.208-.582a5.735,5.735,0,0,0,.227-1.537c.023-.536.015-1.074-.012-1.61a24.341,24.341,0,0,0-.337-3.161,5.154,5.154,0,0,0-.519-1.425,3.519,3.519,0,0,0-1.008-1.067,3.989,3.989,0,0,0-2.826-.468l.144-.182c0,3.285-.008,6.466-.011,9.528,0,.386.012.754-.023,1.16a6.212,6.212,0,0,1-.252,1.136,13.772,13.772,0,0,1-.876,2.076,32.025,32.025,0,0,1-2.269,3.685c-.8,1.154-1.66,2.234-2.481,3.276s-1.593,2.085-2.342,3.093c-1.5,2.018-2.88,3.928-4.152,5.707l-.013-.164,10.141,10.473L190.5,262.6l.7.738c.158.168.238.263.238.263" transform="translate(-39.577 -48.711)" fill="#eb996e"/>
            <path id="Trazado_813091" data-name="Trazado 813091" d="M166.961,271.7l-52.934,69.886c-8.035,10.608-22.516,14.489-34.547,8.731-8.794-4.21-15.245-13.049-9.847-31.247l50.707-34.695,30.821-29.746Z" transform="translate(-15.095 -56.812)" fill="#572558"/>
            <path id="Trazado_813092" data-name="Trazado 813092" d="M81.619,350.241s.2.092.571.29l1.656.878a22.605,22.605,0,0,0,6.919,1.854,23.364,23.364,0,0,0,5.185-.094,26.911,26.911,0,0,0,2.925-.515c.5-.115,1-.279,1.519-.42a14.52,14.52,0,0,0,1.551-.509,30.473,30.473,0,0,0,6.363-3.125,25.044,25.044,0,0,0,5.966-5.213c3.613-4.274,7.347-9.155,11.383-14.362s8.278-10.83,12.753-16.736c8.932-11.827,18.7-24.87,28.9-38.595q.815-1.1,1.625-2.189l.014.258-15.795-17.074.27.018c-10.79,8.907-20.777,17.41-29.831,24.983s-17.156,14.24-24.01,19.665-12.426,9.653-16.306,12.489c-1.929,1.433-3.455,2.493-4.473,3.229l-1.165.823c-.263.184-.4.27-.4.27s.126-.106.381-.3l1.144-.852c1-.754,2.516-1.832,4.432-3.282,3.853-2.871,9.4-7.125,16.228-12.579s14.919-12.128,23.948-19.729,19.013-16.107,29.8-25.024l.145-.119.127.137,15.8,17.068.114.124-.1.134-1.626,2.189c-10.205,13.726-19.979,26.764-28.929,38.579-4.483,5.9-8.745,11.508-12.784,16.717s-7.793,10.068-11.431,14.344a25.259,25.259,0,0,1-6.045,5.243,30.536,30.536,0,0,1-6.425,3.122,14.5,14.5,0,0,1-1.566.506c-.521.139-1.025.3-1.532.414a26.7,26.7,0,0,1-2.95.5,23.39,23.39,0,0,1-5.224.06,22.2,22.2,0,0,1-6.938-1.938c-.729-.389-1.273-.709-1.642-.916s-.55-.326-.55-.326" transform="translate(-17.233 -56.734)" fill="#263238"/>
            <path id="Trazado_813093" data-name="Trazado 813093" d="M119.824,353.457a14.469,14.469,0,0,0-1.851-1.061,11.192,11.192,0,0,0-5.691-.718,20.217,20.217,0,0,0-3.925.819c-1.381.418-2.819,1.008-4.34,1.608a44.606,44.606,0,0,1-4.863,1.7,15.318,15.318,0,0,1-5.524.538,19.117,19.117,0,0,1-5.348-1.482c-1.654-.685-3.188-1.465-4.672-2.139-2.944-1.371-5.808-2.262-8.264-2.122A8.909,8.909,0,0,0,70,352.539a8.638,8.638,0,0,0-1.412,1.591,2.828,2.828,0,0,1,.262-.493,6.2,6.2,0,0,1,1.046-1.216,8.881,8.881,0,0,1,5.43-2.108c2.527-.179,5.462.708,8.432,2.069,1.5.669,3.033,1.44,4.671,2.112a18.927,18.927,0,0,0,5.238,1.446,15.057,15.057,0,0,0,5.382-.519,45.425,45.425,0,0,0,4.828-1.663c1.524-.59,2.971-1.171,4.379-1.583a20.057,20.057,0,0,1,3.995-.782,11.034,11.034,0,0,1,5.783.858,6.278,6.278,0,0,1,1.785,1.2" transform="translate(-15.304 -78.155)" fill="#fafafa"/>
            <path id="Trazado_813094" data-name="Trazado 813094" d="M150.414,318.749a2.821,2.821,0,0,0,.2-1.385,3.905,3.905,0,0,0-2.336-2.843,13.12,13.12,0,0,0-2.571-.784,13.64,13.64,0,0,1-3.006-.964,19.449,19.449,0,0,1-5.664-4.438,71.08,71.08,0,0,0-4.963-5.138,13,13,0,0,0-4.978-2.843,8.55,8.55,0,0,0-3.85-.263c-.907.164-1.38.388-1.4.348a1.293,1.293,0,0,1,.335-.173,5.277,5.277,0,0,1,1.03-.329,8.276,8.276,0,0,1,3.957.141,12.971,12.971,0,0,1,5.144,2.836,65.226,65.226,0,0,1,5.014,5.143,19.527,19.527,0,0,0,5.53,4.379c1.942.963,4.01,1.037,5.54,1.827a4.02,4.02,0,0,1,2.37,3.083,2.2,2.2,0,0,1-.162,1.078,1,1,0,0,1-.2.325" transform="translate(-27.187 -66.881)" fill="#fafafa"/>
            <path id="Trazado_813095" data-name="Trazado 813095" d="M344.149,82.961l-2.314.154-4.582,7.373.307,4.619s-3.562.458-3.543-5.619-.334-4.506-.334-4.506-7.6.475-8.272-.142c-.491-.449-1.2-7.979-1.551-12.066A4.44,4.44,0,0,1,326.7,68.1a3.309,3.309,0,0,1,.81-.165c1.894-.126,11.675.771,11.675.771l4-.266Z" transform="translate(-72.253 -15.156)" fill="#465729"/>
            <path id="Trazado_813096" data-name="Trazado 813096" d="M356.767,83.827l-2.475-15.733-3.963.263,1.03,15.51Z" transform="translate(-78.163 -15.193)" fill="#465729"/>
            <path id="Trazado_813097" data-name="Trazado 813097" d="M278.145,105.388a1.08,1.08,0,0,1,.332.08,2.132,2.132,0,0,1,.388.15,3.355,3.355,0,0,1,.5.263,5.824,5.824,0,0,1,2.722,5.233,5.058,5.058,0,0,1-1.026,2.708,5.906,5.906,0,0,1-2.545,1.934,5.227,5.227,0,0,1-6.272-1.656,5.907,5.907,0,0,1-1.258-2.94,5.049,5.049,0,0,1,.445-2.861,5.821,5.821,0,0,1,4.952-3.206,3.358,3.358,0,0,1,.569.02,2.1,2.1,0,0,1,.411.061,1.058,1.058,0,0,1,.329.095c-.007.044-.468-.078-1.3-.019a5.74,5.74,0,0,0-3.19,1.317,5.436,5.436,0,0,0-1.467,1.875,4.742,4.742,0,0,0-.38,2.669,5.189,5.189,0,0,0,9.409,2.485,4.743,4.743,0,0,0,.988-2.507,5.441,5.441,0,0,0-.35-2.355,5.738,5.738,0,0,0-2.123-2.721c-.694-.463-1.156-.584-1.14-.626" transform="translate(-60.451 -23.447)" fill="#263238"/>
            <path id="Trazado_813098" data-name="Trazado 813098" d="M258.076,123.224a1.7,1.7,0,0,1,.787.286,3.681,3.681,0,0,1,1.76,3.324,3.233,3.233,0,0,1-.653,1.742,3.556,3.556,0,0,1-6.466-1.708,3.235,3.235,0,0,1,.293-1.837,3.684,3.684,0,0,1,3.172-2.021,1.706,1.706,0,0,1,.825.14c-.007.038-.3-.029-.817.018a3.626,3.626,0,0,0-1.976.841,3.061,3.061,0,0,0-1.127,2.81,3.2,3.2,0,0,0,5.8,1.532,3.058,3.058,0,0,0,.408-3,3.63,3.63,0,0,0-1.3-1.708c-.428-.3-.715-.382-.7-.419" transform="translate(-56.554 -27.445)" fill="#263238"/>
            <path id="Trazado_813099" data-name="Trazado 813099" d="M289.608,64.7s.024-.22.091-.647.174-1.071.308-1.9q.1-.627.232-1.4c.109-.509.28-1.054.437-1.652s.339-1.238.527-1.924a6.918,6.918,0,0,1,.35-1.043l.422-1.091a38.259,38.259,0,0,1,5.689-10.172A40.184,40.184,0,0,1,309.22,34.686l1.891-1.088c.658-.328,1.344-.618,2.026-.935.693-.292,1.362-.667,2.1-.9l2.206-.754c.372-.124.743-.259,1.121-.377l1.164-.273,2.36-.555c.8-.162,1.623-.231,2.444-.352a20.65,20.65,0,0,1,2.5-.261,37.564,37.564,0,0,1,5.154.019c.87.074,1.754.094,2.633.213l2.645.456c.442.085.893.136,1.332.249l1.317.367c.877.255,1.775.47,2.652.764a42.639,42.639,0,0,1,5.174,2.217l1.276.65c.212.111.429.213.638.331l.608.389,2.447,1.567c.794.562,1.544,1.2,2.324,1.8.38.313.792.591,1.148.935l1.078,1.029a45.55,45.55,0,0,1,4.094,4.43l1.773,2.5.445.629.388.667.772,1.343.775,1.35.65,1.422.647,1.43.325.718c.093.245.172.5.259.745q.509,1.5,1.022,3,.364,1.55.73,3.112a43.217,43.217,0,0,1,.533,12.944,43.22,43.22,0,0,1-3.622,12.443q-.731,1.429-1.456,2.847l-1.713,2.671-.43.662-.487.618-.972,1.234-.973,1.224-1.077,1.125-1.071,1.119-.538.555-.583.5-2.321,2a45.38,45.38,0,0,1-5.038,3.319l-1.294.74c-.428.249-.895.42-1.339.633-.9.4-1.782.831-2.688,1.188l-2.753.934-.683.232c-.232.064-.467.112-.7.169l-1.395.326a42.818,42.818,0,0,1-5.556.911c-.923.075-1.846.068-2.759.1l-1.366.04c-.453,0-.9-.055-1.353-.079l-2.677-.192c-.881-.1-1.744-.288-2.607-.426a37.688,37.688,0,0,1-5.008-1.218,20.7,20.7,0,0,1-2.364-.853c-.768-.315-1.551-.579-2.288-.929l-2.158-1.1-1.064-.545-1-.635-1.96-1.261c-.656-.4-1.215-.928-1.818-1.377-.587-.471-1.183-.917-1.743-1.395l-1.574-1.51a40.194,40.194,0,0,1-8.769-12.669,38.254,38.254,0,0,1-3.08-11.239q-.077-.6-.148-1.161a6.845,6.845,0,0,1-.089-1.1q-.028-1.066-.051-1.994c-.009-.617-.043-1.187-.028-1.708q.061-.777.11-1.412.1-1.249.155-1.913c.037-.431.067-.65.067-.65s0,.222-.026.654-.065,1.081-.116,1.914q-.04.633-.09,1.409c-.009.52.032,1.088.047,1.7s.044,1.279.069,1.987a6.93,6.93,0,0,0,.1,1.092l.156,1.155a38.4,38.4,0,0,0,3.131,11.167,40.075,40.075,0,0,0,8.762,12.556l1.567,1.495c.557.472,1.151.914,1.735,1.379.6.445,1.155.964,1.807,1.363l1.949,1.245.991.628,1.057.538,2.143,1.092c.731.345,1.509.6,2.272.915a20.368,20.368,0,0,0,2.346.841,37.352,37.352,0,0,0,4.969,1.2c.855.134,1.711.324,2.585.417l2.654.186c.446.023.893.08,1.342.076l1.354-.042c.905-.039,1.819-.033,2.734-.109a42.4,42.4,0,0,0,5.5-.911l1.381-.324c.23-.056.463-.1.692-.167l.676-.231,2.726-.928c.9-.354,1.768-.787,2.662-1.179.44-.212.9-.381,1.326-.629l1.28-.736a45.1,45.1,0,0,0,4.987-3.291l2.3-1.983.578-.5.531-.55,1.06-1.109,1.066-1.115.961-1.214.962-1.221.482-.613.425-.656q.845-1.317,1.7-2.645.718-1.4,1.44-2.819a42.866,42.866,0,0,0,3.584-12.32,42.845,42.845,0,0,0-.525-12.816q-.362-1.546-.722-3.082-.508-1.493-1.011-2.974c-.085-.245-.163-.495-.256-.738l-.322-.71-.64-1.417-.642-1.408-.767-1.337-.763-1.332-.384-.661-.441-.623-1.753-2.476a45.249,45.249,0,0,0-4.051-4.391l-1.066-1.021c-.353-.342-.761-.617-1.137-.928-.773-.6-1.515-1.225-2.3-1.784l-2.423-1.555-.6-.386c-.207-.117-.422-.218-.632-.329l-1.262-.646a42.476,42.476,0,0,0-5.123-2.2c-.869-.293-1.759-.507-2.628-.761l-1.3-.366c-.435-.113-.883-.164-1.321-.249l-2.621-.457c-.871-.12-1.747-.141-2.61-.216a37.453,37.453,0,0,0-5.111-.03,20.486,20.486,0,0,0-2.479.253c-.815.119-1.632.184-2.425.343l-2.343.545-1.154.268c-.376.116-.744.249-1.114.371l-2.19.742c-.729.229-1.394.6-2.082.888-.678.312-1.36.6-2.014.922l-1.881,1.075a40.094,40.094,0,0,0-11.52,10.086,38.444,38.444,0,0,0-5.721,10.089l-.429,1.085a6.86,6.86,0,0,0-.357,1.036q-.291,1.022-.545,1.912c-.162.594-.339,1.136-.454,1.642q-.138.766-.251,1.39-.226,1.232-.347,1.886c-.081.425-.132.642-.132.642" transform="translate(-64.54 -6.494)" fill="#263238"/>
            <path id="Trazado_813100" data-name="Trazado 813100" d="M131.328,92c.011.044-.462.109-1.207.484a5.741,5.741,0,0,0-2.436,2.444,5.434,5.434,0,0,0-.632,2.295,4.743,4.743,0,0,0,.677,2.609,5.189,5.189,0,0,0,9.64-1.33,4.748,4.748,0,0,0-.054-2.7,5.45,5.45,0,0,0-1.23-2.039,5.743,5.743,0,0,0-3.007-1.693c-.818-.159-1.291-.094-1.293-.139a1.111,1.111,0,0,1,.338-.054,2.119,2.119,0,0,1,.416-.011,3.312,3.312,0,0,1,.566.048,5.824,5.824,0,0,1,4.528,3.781,5.051,5.051,0,0,1,.1,2.895,5.9,5.9,0,0,1-1.6,2.766,5.226,5.226,0,0,1-6.426.886,5.9,5.9,0,0,1-2.293-2.228,5.052,5.052,0,0,1-.691-2.812,5.827,5.827,0,0,1,3.335-4.866,3.291,3.291,0,0,1,.533-.2,2.057,2.057,0,0,1,.4-.1,1.074,1.074,0,0,1,.34-.04" transform="translate(-28.271 -20.496)" fill="#263238"/>
            <path id="Trazado_813101" data-name="Trazado 813101" d="M150.788,108.151c.009.037-.287.089-.747.331a3.621,3.621,0,0,0-1.5,1.537,3.062,3.062,0,0,0,.042,3.028,3.2,3.2,0,0,0,5.943-.82,3.061,3.061,0,0,0-.779-2.925,3.627,3.627,0,0,0-1.861-1.074c-.509-.109-.806-.078-.809-.116a1.691,1.691,0,0,1,.836-.04,3.685,3.685,0,0,1,2.9,2.39,3.233,3.233,0,0,1,.068,1.859,3.556,3.556,0,0,1-6.625.914,3.241,3.241,0,0,1-.437-1.809,3.684,3.684,0,0,1,2.149-3.087,1.71,1.71,0,0,1,.816-.189" transform="translate(-32.98 -24.107)" fill="#263238"/>
            <path id="Trazado_813102" data-name="Trazado 813102" d="M71.771,49.659H69.261l-5.475-7.631V37.02s-3.878-.239-3.422,6.32-.037,4.888-.037,4.888-8.234.032-8.919.747c-.5.52-.723,8.7-.809,13.136A4.8,4.8,0,0,0,54,66.948a3.6,3.6,0,0,0,.886.12c2.053,0,12.547-1.67,12.547-1.67h4.334Z" transform="translate(-11.289 -8.259)" fill="#572558"/>
            <path id="Trazado_813103" data-name="Trazado 813103" d="M85.419,51.519,83.876,68.68h-4.3V51.865Z" transform="translate(-17.755 -11.495)" fill="#572558"/>
            <path id="Trazado_813104" data-name="Trazado 813104" d="M101.811,43.784s-.026-.239-.057-.706-.07-1.168-.124-2.071q-.038-.684-.087-1.526c-.057-.559-.176-1.165-.273-1.823l-.333-2.125a7.556,7.556,0,0,0-.248-1.16l-.319-1.22a41.549,41.549,0,0,0-4.822-11.586A43.36,43.36,0,0,0,84.5,9.223l-1.879-1.4c-.66-.434-1.356-.83-2.043-1.255L79.53,5.937a8.423,8.423,0,0,0-1.077-.6L76.2,4.258c-.381-.179-.76-.371-1.147-.545l-1.206-.439L71.4,2.382c-.83-.274-1.7-.452-2.56-.686l-1.3-.333c-.218-.053-.434-.119-.656-.162l-.671-.1A40.472,40.472,0,0,0,60.716.462C59.779.43,58.835.338,57.883.353L55.008.5c-.482.033-.969.03-1.451.094L52.108.817c-.967.16-1.951.273-2.923.474a45.96,45.96,0,0,0-5.792,1.7l-1.441.528c-.239.091-.484.172-.721.27l-.7.336L37.728,5.477c-.917.5-1.8,1.077-2.7,1.615-.444.284-.919.527-1.342.848L32.4,8.9a48.846,48.846,0,0,0-4.927,4.186l-2.207,2.431-.555.611c-.172.215-.333.44-.5.66l-.994,1.33-1,1.336-.874,1.429-.873,1.438-.438.721c-.131.249-.247.507-.371.76L18.19,26.862q-.587,1.6-1.179,3.216a46.366,46.366,0,0,0-2.241,13.7,46.373,46.373,0,0,0,2.238,13.7Q17.6,59.1,18.186,60.7l1.475,3.063.371.761.438.721.874,1.439.874,1.429,1,1.336.994,1.331.5.66.555.611,2.208,2.432A48.973,48.973,0,0,0,32.4,78.669l1.279.957c.423.322.9.564,1.342.848.908.539,1.788,1.118,2.705,1.615l2.807,1.354.7.336c.238.1.482.179.722.27l1.441.528a45.934,45.934,0,0,0,5.793,1.7c.972.2,1.955.315,2.923.474l1.449.223c.482.063.97.06,1.451.093l2.876.148c.951.015,1.895-.077,2.832-.11a40.347,40.347,0,0,0,5.494-.638l.672-.1c.221-.044.437-.108.656-.162l1.3-.333c.86-.234,1.73-.411,2.561-.687l2.446-.892,1.2-.439,1.147-.545,2.256-1.083a8.489,8.489,0,0,0,1.078-.6L80.576,81c.688-.424,1.383-.82,2.043-1.254l1.879-1.4A43.365,43.365,0,0,0,95.55,66c.317-.526.641-1.035.936-1.548q.388-.8.761-1.57l.733-1.511c.116-.249.247-.487.347-.736l.276-.748,1.046-2.832c.308-.909.49-1.807.723-2.64q.164-.627.319-1.22a7.447,7.447,0,0,0,.248-1.16q.178-1.136.334-2.124c.1-.659.214-1.265.272-1.823q.048-.841.087-1.525.082-1.355.124-2.071c.031-.467.057-.706.057-.706s0,.239-.015.707-.048,1.17-.085,2.075l-.068,1.53c-.051.56-.163,1.168-.254,1.83s-.2,1.374-.316,2.134a7.472,7.472,0,0,1-.24,1.165l-.31,1.227c-.228.837-.406,1.74-.709,2.654q-.493,1.36-1.033,2.85-.136.373-.273.753c-.1.251-.23.492-.345.742l-.728,1.522-.757,1.582c-.294.517-.618,1.03-.934,1.56A43.465,43.465,0,0,1,84.672,78.57l-1.888,1.415c-.663.439-1.362.84-2.053,1.269l-1.049.638a8.547,8.547,0,0,1-1.083.6l-2.269,1.1c-.383.182-.764.375-1.154.552l-1.213.445-2.462.9c-.836.279-1.711.46-2.578.7l-1.311.339c-.221.054-.439.12-.662.164l-.676.1a40.718,40.718,0,0,1-5.536.653c-.944.035-1.9.128-2.855.116l-2.9-.144c-.486-.033-.977-.03-1.464-.092l-1.461-.221c-.976-.16-1.967-.273-2.948-.474a46.272,46.272,0,0,1-5.845-1.705L41.812,84.4c-.242-.091-.489-.172-.729-.272l-.7-.338-2.833-1.363c-.926-.5-1.814-1.084-2.731-1.627-.448-.287-.928-.531-1.355-.855l-1.291-.964A49.27,49.27,0,0,1,27.2,74.758l-2.23-2.451-.561-.617-.5-.666-1-1.342-1.008-1.349-.883-1.441-.883-1.451-.442-.728-.375-.767-1.489-3.091-1.191-3.247a46.777,46.777,0,0,1-2.261-13.831,46.72,46.72,0,0,1,2.264-13.826l1.191-3.246,1.489-3.09c.126-.255.242-.515.375-.766l.442-.728.882-1.45.884-1.441L22.9,17.882l1-1.342c.169-.222.331-.449.5-.666l.561-.617L27.2,12.806a49.337,49.337,0,0,1,4.974-4.219l1.291-.965c.427-.322.906-.567,1.355-.854.917-.543,1.8-1.126,2.73-1.626L40.381,3.78l.7-.338c.239-.1.486-.181.728-.272l1.454-.531A46.127,46.127,0,0,1,49.11.934c.98-.2,1.973-.315,2.948-.475L53.519.238c.486-.063.977-.06,1.463-.092L57.881,0c.959-.013,1.91.081,2.854.116A40.569,40.569,0,0,1,66.27.77l.677.1c.223.044.441.11.661.164l1.311.338c.866.238,1.741.419,2.578.7l2.462.9,1.213.446c.391.176.771.369,1.154.552l2.27,1.1a8.7,8.7,0,0,1,1.083.6l1.048.639c.691.429,1.391.83,2.053,1.269L84.669,9A43.472,43.472,0,0,1,95.742,21.45a41.4,41.4,0,0,1,4.781,11.664q.16.63.311,1.227a7.6,7.6,0,0,1,.24,1.165q.169,1.142.316,2.134c.091.662.2,1.269.254,1.83l.068,1.53q.055,1.358.085,2.076c.016.468.015.707.015.707" transform="translate(-3.205 0)" fill="#263238"/>
            <path id="Trazado_813105" data-name="Trazado 813105" d="M214.483,67.634h-.03a1.167,1.167,0,0,1-1.136-1.195l.264-10.372a1.166,1.166,0,0,1,1.51-1.084,7.388,7.388,0,0,0,5.827-.729,6.743,6.743,0,0,0,3.3-4.215,6.883,6.883,0,0,0-1.071-5.272,7.488,7.488,0,0,0-4.807-3.344,8.645,8.645,0,0,0-9.328,5.67,1.165,1.165,0,0,1-2.2-.764,11.056,11.056,0,0,1,11.955-7.2,9.828,9.828,0,0,1,6.333,4.361,9.224,9.224,0,0,1,1.388,7.079,9.079,9.079,0,0,1-4.41,5.706,9.909,9.909,0,0,1-6.2,1.256l-.228,8.964a1.164,1.164,0,0,1-1.164,1.136" transform="translate(-46.128 -8.697)" fill="#263238"/>
            <path id="Trazado_813106" data-name="Trazado 813106" d="M218.051,81.969a1.7,1.7,0,1,1-1.7-1.7,1.7,1.7,0,0,1,1.7,1.7" transform="translate(-47.89 -17.908)" fill="#263238"/>
            <path id="Trazado_813107" data-name="Trazado 813107" d="M50.3,223.959a8.085,8.085,0,0,1-4.86-1.544,7.812,7.812,0,0,1-2.975-5.341,7.343,7.343,0,0,1,1.517-5.542,7.239,7.239,0,0,1,5.169-2.519,7.862,7.862,0,0,1,4.6,1.131l3.072-5.823a1.166,1.166,0,0,1,2.062,1.088l-3.714,7.039a1.165,1.165,0,0,1-1.834.3,5.385,5.385,0,0,0-4.049-1.409,4.9,4.9,0,0,0-3.511,1.676,5.011,5.011,0,0,0-1,3.783,5.471,5.471,0,0,0,2.059,3.752,6.443,6.443,0,0,0,7.989-.7,1.165,1.165,0,1,1,1.634,1.662,8.835,8.835,0,0,1-6.161,2.444" transform="translate(-9.463 -45.448)" fill="#263238"/>
            <path id="Trazado_813108" data-name="Trazado 813108" d="M63.418,198.634a1.307,1.307,0,1,1,.591,1.752,1.308,1.308,0,0,1-.591-1.752" transform="translate(-14.119 -44.156)" fill="#263238"/>
            <path id="Trazado_813109" data-name="Trazado 813109" d="M351.079,198.547a1.164,1.164,0,0,1-.945-.482l-4.664-6.45a1.167,1.167,0,0,1,.544-1.778,5.4,5.4,0,0,0,3.059-3,4.9,4.9,0,0,0,.054-3.891,5.013,5.013,0,0,0-2.948-2.574,5.478,5.478,0,0,0-4.274.183,6.441,6.441,0,0,0-2.917,7.471,1.165,1.165,0,1,1-2.214.727,8.761,8.761,0,0,1,4.08-10.278,7.811,7.811,0,0,1,6.1-.3,7.344,7.344,0,0,1,4.3,3.818,7.239,7.239,0,0,1-.034,5.75,7.887,7.887,0,0,1-3.054,3.624l3.857,5.335a1.166,1.166,0,0,1-.944,1.848" transform="translate(-75.048 -39.646)" fill="#263238"/>
            <path id="Trazado_813110" data-name="Trazado 813110" d="M359.813,206.744a1.307,1.307,0,1,1-1.833-.247,1.308,1.308,0,0,1,1.833.247" transform="translate(-79.756 -46.013)" fill="#263238"/>
          </g>
        </g>
      </g>
    </g>
  </g>
</svg>
