<svg xmlns="http://www.w3.org/2000/svg" xmlns:xlink="http://www.w3.org/1999/xlink" width="567" height="333.597" viewBox="0 0 567 333.597">
  <defs>
    <clipPath id="clip-path">
      <rect id="Rectángulo_376368" data-name="Rectángulo 376368" width="470.831" height="333.597" fill="none"/>
    </clipPath>
    <clipPath id="clip-path-3">
      <rect id="Rectángulo_376348" data-name="Rectángulo 376348" width="27.774" height="33.389" fill="none"/>
    </clipPath>
    <clipPath id="clip-path-4">
      <rect id="Rectángulo_376349" data-name="Rectángulo 376349" width="26.378" height="35.331" fill="none"/>
    </clipPath>
    <clipPath id="clip-path-5">
      <rect id="Rectángulo_376350" data-name="Rectángulo 376350" width="19.4" height="27.536" fill="none"/>
    </clipPath>
    <clipPath id="clip-path-6">
      <rect id="Rectángulo_376351" data-name="Rectángulo 376351" width="10.607" height="17.008" fill="none"/>
    </clipPath>
    <clipPath id="clip-path-7">
      <rect id="Rectángulo_376352" data-name="Rectángulo 376352" width="9.165" height="33" fill="none"/>
    </clipPath>
    <clipPath id="clip-path-8">
      <rect id="Rectángulo_376353" data-name="Rectángulo 376353" width="5.875" height="4.047" fill="none"/>
    </clipPath>
    <clipPath id="clip-path-9">
      <rect id="Rectángulo_376354" data-name="Rectángulo 376354" width="18.874" height="26.72" fill="none"/>
    </clipPath>
    <clipPath id="clip-path-10">
      <rect id="Rectángulo_376357" data-name="Rectángulo 376357" width="32.003" height="12.575" fill="none"/>
    </clipPath>
    <clipPath id="clip-path-11">
      <rect id="Rectángulo_376360" data-name="Rectángulo 376360" width="32.004" height="12.575" fill="none"/>
    </clipPath>
    <clipPath id="clip-path-12">
      <rect id="Rectángulo_376363" data-name="Rectángulo 376363" width="32.004" height="12.576" fill="none"/>
    </clipPath>
  </defs>
  <g id="Grupo_1069045" data-name="Grupo 1069045" transform="translate(-810 -2684.281)">
    <g id="Grupo_1068990" data-name="Grupo 1068990" transform="translate(0 154.314)">
      <g id="Grupo_1068975" data-name="Grupo 1068975" transform="translate(0 1944.563)">
        <rect id="Rectángulo_376337" data-name="Rectángulo 376337" width="567" height="333" transform="translate(810 586)" fill="none"/>
      </g>
    </g>
    <g id="Grupo_1069044" data-name="Grupo 1069044" transform="translate(857.169 2684.281)">
      <g id="Grupo_1069043" data-name="Grupo 1069043" clip-path="url(#clip-path)">
        <g id="Grupo_1069042" data-name="Grupo 1069042">
          <g id="Grupo_1069041" data-name="Grupo 1069041" clip-path="url(#clip-path)">
            <path id="Trazado_813111" data-name="Trazado 813111" d="M138.219,153.584s-4.284-3.508-11.01,6.908a143.393,143.393,0,0,0-9.5,16.538s-1.716,2.151-3.144.484-3.157-6.159-5.924-5.665c-2.87.511-4.107,3.529-4.044,8.157s-.17,14.77-.194,15.687c-.024.9-.67,2.164-1.824,1.184s-7.484-9.667-11.426-6.417-1.647,16.111-1.424,17.522-.1,1.97-.792,2.243-2.539-2.848-4.44-5.245-4.527-4.843-6.644-2.777-3.681,11.38,3.682,27.522l3.9,7.257,8.266.386c17.741-.253,25.49-5.652,26.451-8.45s-2.373-4.123-5.353-4.816-6.594-1.031-6.64-1.769.317-1.275,1.688-1.676,13.977-3.832,15.227-8.785-9.31-6.956-10.689-7.581-.514-1.749.289-2.156,9.885-4.966,14.1-6.889,6.407-4.332,5.641-7.145c-.738-2.712-5.538-2.353-7.655-2.93s-.908-3.049-.908-3.049a143.536,143.536,0,0,0,10.882-15.661c6.536-10.538,1.394-12.942,1.394-12.942" transform="translate(-17.841 -35.876)" fill="#3b5620"/>
            <path id="Trazado_813112" data-name="Trazado 813112" d="M86.391,241.351c4.831-7.72,13.646-21.3,21.155-32.992s14.292-22.282,19.161-29.977l5.757-9.118,1.568-2.479.413-.642c.094-.143.148-.214.148-.214s-.039.08-.126.228l-.391.655c-.355.581-.868,1.423-1.526,2.5-1.328,2.173-3.272,5.3-5.689,9.163-4.831,7.72-11.593,18.327-19.1,30.019s-16.348,25.255-21.218,32.949" transform="translate(-20.255 -38.904)" fill="#e0e0e0"/>
            <path id="Trazado_813113" data-name="Trazado 813113" d="M121.439,185.952a2.664,2.664,0,0,1,.15.577c.081.374.184.919.3,1.592.237,1.349.518,3.219.789,5.289.261,2.042.5,3.889.676,5.3.086.636.158,1.173.215,1.6a2.676,2.676,0,0,1,.056.593,2.626,2.626,0,0,1-.154-.576c-.08-.374-.183-.919-.3-1.595-.224-1.351-.479-3.225-.751-5.294-.275-2.039-.524-3.884-.713-5.294-.089-.636-.163-1.172-.224-1.6a2.64,2.64,0,0,1-.051-.594" transform="translate(-28.471 -43.599)" fill="#e0e0e0"/>
            <path id="Trazado_813114" data-name="Trazado 813114" d="M125.264,204.835c-.012-.07,3.818-.817,8.556-1.668s8.589-1.487,8.6-1.417-3.818.817-8.557,1.669-8.589,1.486-8.6,1.416" transform="translate(-29.37 -47.302)" fill="#e0e0e0"/>
            <path id="Trazado_813115" data-name="Trazado 813115" d="M109.147,228.557a2.755,2.755,0,0,1,.608.034l1.644.174c1.388.145,3.306.338,5.429.472s4.051.2,5.447.23l1.653.039a2.789,2.789,0,0,1,.606.044,2.76,2.76,0,0,1-.606.056c-.39.019-.956.037-1.655.043-1.4.015-3.331-.016-5.461-.155s-4.05-.356-5.435-.547c-.692-.1-1.252-.184-1.636-.255a2.751,2.751,0,0,1-.594-.133" transform="translate(-25.591 -53.586)" fill="#e0e0e0"/>
            <path id="Trazado_813116" data-name="Trazado 813116" d="M101.741,211.384a2.4,2.4,0,0,1,.274.491l.66,1.379c.547,1.169,1.287,2.791,2.09,4.589s1.517,3.433,2.022,4.62l.586,1.412a2.362,2.362,0,0,1,.183.532,2.383,2.383,0,0,1-.274-.492l-.66-1.379c-.547-1.169-1.288-2.791-2.09-4.589s-1.517-3.432-2.022-4.619l-.586-1.412a2.392,2.392,0,0,1-.183-.532" transform="translate(-23.854 -49.562)" fill="#e0e0e0"/>
            <path id="Trazado_813117" data-name="Trazado 813117" d="M84.957,229.685a3.874,3.874,0,0,1,.344.632c.222.459.508,1.053.853,1.764.71,1.494,1.673,3.566,2.725,5.86s1.99,4.379,2.657,5.892l.779,1.8a3.881,3.881,0,0,1,.253.674,3.917,3.917,0,0,1-.344-.632l-.852-1.764c-.71-1.494-1.674-3.566-2.725-5.861s-1.989-4.377-2.656-5.892l-.779-1.8a3.88,3.88,0,0,1-.253-.674" transform="translate(-19.919 -53.853)" fill="#e0e0e0"/>
            <path id="Trazado_813118" data-name="Trazado 813118" d="M94.809,250.806a4.423,4.423,0,0,1,.771.024l2.092.145c1.767.121,4.208.279,6.907.377s5.146.13,6.917.138l2.1.011a4.468,4.468,0,0,1,.77.033,4.42,4.42,0,0,1-.768.067c-.5.026-1.212.053-2.1.07-1.772.038-4.223.039-6.928-.064s-5.147-.285-6.912-.452c-.883-.087-1.6-.163-2.088-.227a4.462,4.462,0,0,1-.761-.123" transform="translate(-22.229 -58.803)" fill="#e0e0e0"/>
            <path id="Trazado_813119" data-name="Trazado 813119" d="M52.921,183.522a22,22,0,0,1-.214,3.774,27.428,27.428,0,0,1-3.44,10.13l-.08-.139h.167l-.079.139L27.831,235.452l-.134.238-.145-.232L4.884,199.3l-1.114-1.78-.173-.276h.327l-.156.271a27.786,27.786,0,0,1-3.415-9.552,26.445,26.445,0,0,1-.34-4.97q.067-1.234.134-2.46.183-1.214.365-2.416A27.88,27.88,0,0,1,9.764,162.3a26.817,26.817,0,0,1,7.458-4.383l.986-.367.49-.183.5-.134,2-.521a27.861,27.861,0,0,1,3.995-.485,26.882,26.882,0,0,1,3.887.07c.634.051,1.253.188,1.871.276l.92.149c.3.064.6.155.893.231l1.755.475,1.663.634c.273.108.55.2.815.32l.774.387,1.518.768a27.471,27.471,0,0,1,8.805,8.128,27.965,27.965,0,0,1,3.836,8.208,24.834,24.834,0,0,1,.675,3.243,17.82,17.82,0,0,1,.256,2.411q.034.97.052,1.49c.009.336.005.508.005.508s-.02-.171-.042-.507-.049-.841-.087-1.486a18.636,18.636,0,0,0-.289-2.4,25.356,25.356,0,0,0-.7-3.221,28.08,28.08,0,0,0-3.867-8.132,27.35,27.35,0,0,0-8.765-8.022L37.661,159l-.767-.382c-.263-.116-.537-.207-.808-.313l-1.648-.623-1.738-.464c-.293-.074-.585-.165-.884-.227l-.911-.144c-.612-.085-1.224-.219-1.852-.268a26.625,26.625,0,0,0-3.843-.058,27.648,27.648,0,0,0-3.947.488l-1.973.519-.5.133-.484.181-.973.365a26.543,26.543,0,0,0-7.359,4.342,27.569,27.569,0,0,0-9.12,15.636Q.677,179.373.5,180.571q-.064,1.21-.13,2.43a26.1,26.1,0,0,0,.338,4.907,27.465,27.465,0,0,0,3.374,9.427l.158.271H3.922l.153-.275,1.115,1.779,22.638,36.176-.279.006,21.565-37.958.08.138h-.168l.08-.139a27.738,27.738,0,0,0,3.5-10.05c.176-1.22.226-2.164.267-2.8.011-.31.02-.547.026-.719s.018-.243.018-.243" transform="translate(0 -36.617)" fill="#e0e0e0"/>
            <path id="Trazado_813120" data-name="Trazado 813120" d="M46.246,186.316a1.539,1.539,0,0,1-.031-.271c-.014-.2-.032-.459-.056-.795-.011-.177-.024-.371-.037-.585s-.07-.446-.108-.7a12.256,12.256,0,0,0-.35-1.726,16,16,0,0,0-1.852-4.436,16.61,16.61,0,0,0-19.933-7.126,15.223,15.223,0,0,0-4.2,2.249,18.655,18.655,0,0,0-1.885,1.595,18.814,18.814,0,0,0-1.629,1.918A16.059,16.059,0,0,0,13.784,181a16.427,16.427,0,0,0-.028,10.462,16.049,16.049,0,0,0,2.357,4.575,18.811,18.811,0,0,0,1.62,1.927,18.678,18.678,0,0,0,1.876,1.6A15.263,15.263,0,0,0,23.8,201.84a16.654,16.654,0,0,0,19.97-7.027,16.026,16.026,0,0,0,1.874-4.426A12.335,12.335,0,0,0,46,188.664c.039-.252.087-.484.111-.7s.028-.408.04-.585c.025-.335.045-.6.06-.794a1.514,1.514,0,0,1,.033-.271,1.491,1.491,0,0,1,0,.272c-.006.2-.014.462-.024.8-.007.178-.014.374-.022.589s-.06.449-.095.7a11.88,11.88,0,0,1-.328,1.743,15.873,15.873,0,0,1-1.837,4.494,16.863,16.863,0,0,1-11.373,7.969,16.936,16.936,0,0,1-8.883-.734,17.743,17.743,0,0,1-2.207-.971,17.737,17.737,0,0,1-2.075-1.335,18.968,18.968,0,0,1-1.918-1.634,19.063,19.063,0,0,1-1.657-1.965,16.37,16.37,0,0,1-2.413-4.671,16.755,16.755,0,0,1,.028-10.688,16.381,16.381,0,0,1,2.437-4.657,19.056,19.056,0,0,1,1.667-1.956,19.14,19.14,0,0,1,1.927-1.624,17.709,17.709,0,0,1,2.081-1.324,17.612,17.612,0,0,1,2.212-.96,16.928,16.928,0,0,1,8.886-.69A16.87,16.87,0,0,1,43.986,177.7a15.874,15.874,0,0,1,1.814,4.5,12.011,12.011,0,0,1,.32,1.745c.032.255.073.489.091.705s.014.411.019.589c.009.337.015.6.021.8a1.556,1.556,0,0,1-.005.272" transform="translate(-2.944 -39.714)" fill="#e0e0e0"/>
            <path id="Trazado_813121" data-name="Trazado 813121" d="M31.259,196.677l-9.74-6.8,2.372-3.4,6.531,4.556L38.871,180.3l3.256,2.562Z" transform="translate(-5.045 -42.275)" fill="#e0e0e0"/>
            <path id="Trazado_813122" data-name="Trazado 813122" d="M387.561,36.86a40.087,40.087,0,0,1,10.3,2.72l7.572-6.345,13.006,9.9-4.1,8.988a40.084,40.084,0,0,1,5.369,9.205l9.837.867,2.2,16.2-9.249,3.457a39.96,39.96,0,0,1-2.722,10.3l6.345,7.573-9.9,13-8.99-4.1A40.071,40.071,0,0,1,398.024,114l-.865,9.837-16.2,2.2-3.456-9.25a40.02,40.02,0,0,1-10.3-2.722l-7.574,6.346-13.005-9.9,4.1-8.99a40.138,40.138,0,0,1-5.367-9.2l-9.836-.868-2.2-16.2,9.25-3.456a39.979,39.979,0,0,1,2.722-10.3l-6.346-7.573,9.9-13,8.99,4.1a40.025,40.025,0,0,1,9.206-5.368l.865-9.836,16.2-2.2ZM382.7,59.194a17.536,17.536,0,1,0,17.612,13.413A17.541,17.541,0,0,0,382.7,59.194" transform="translate(-97.422 -6.474)" fill="#fffad0" fill-rule="evenodd"/>
            <path id="Trazado_813123" data-name="Trazado 813123" d="M226.69,90.245a20.927,20.927,0,0,1,5.377,1.42l3.952-3.312,6.79,5.167-2.139,4.693a20.9,20.9,0,0,1,2.8,4.805l5.136.452,1.146,8.455-4.828,1.805a20.855,20.855,0,0,1-1.421,5.378l3.312,3.953-5.167,6.789-4.693-2.139a20.9,20.9,0,0,1-4.806,2.8l-.452,5.136-8.456,1.148-1.8-4.829a20.9,20.9,0,0,1-5.378-1.421l-3.953,3.313-6.79-5.167,2.14-4.693a20.95,20.95,0,0,1-2.8-4.805l-5.134-.452-1.148-8.455,4.829-1.8a20.864,20.864,0,0,1,1.421-5.378l-3.313-3.953,5.167-6.789,4.693,2.139a20.939,20.939,0,0,1,4.806-2.8l.452-5.134,8.455-1.148ZM224.154,101.9a9.155,9.155,0,1,0,9.194,7,9.157,9.157,0,0,0-9.194-7" transform="translate(-46.512 -20.027)" fill="#ebebeb" fill-rule="evenodd"/>
            <path id="Trazado_813124" data-name="Trazado 813124" d="M321.2,171.823a11.177,11.177,0,0,1,3.057,2.021A14.729,14.729,0,0,1,329,182.555a14.907,14.907,0,0,1-.524,6.94,15.145,15.145,0,0,1-4.37,6.688,15.155,15.155,0,0,1-8.024,3.668,15.094,15.094,0,0,1-15.762-8.646,15.154,15.154,0,0,1-1.219-8.739,15.138,15.138,0,0,1,3.293-7.282,14.917,14.917,0,0,1,5.572-4.171,14.727,14.727,0,0,1,9.892-.684,11.183,11.183,0,0,1,3.347,1.491c-.044.1-1.171-.606-3.43-1.171a14.747,14.747,0,0,0-9.565.913,14.45,14.45,0,0,0-8.335,11.023,14.448,14.448,0,0,0,1.2,8.269,14.33,14.33,0,0,0,14.9,8.172,14.452,14.452,0,0,0,7.616-3.431,14.452,14.452,0,0,0,4.818-12.952,14.745,14.745,0,0,0-4.37-8.558c-1.691-1.6-2.888-2.175-2.832-2.264" transform="translate(-73.082 -21.14)" fill="#3b5620"/>
            <path id="Trazado_813125" data-name="Trazado 813125" d="M328.688,151.665a3.182,3.182,0,0,1,.113-.508c.1-.374.23-.876.4-1.525l1.647-6.014.065.156-12.127-6.561.265-.046-5.5,6.261-.1.113-.148-.036a33.755,33.755,0,0,0-8.87-.939l-.168.005-.083-.149-4.064-7.276.349.143-13.226,3.889.24-.341c.162,2.574.341,5.411.524,8.318l.013.212-.182.11a33.543,33.543,0,0,0-6.929,5.576l-.152.161-.214-.061-8.011-2.282.436-.181-6.617,12.1-.084-.485,6.243,5.514.182.162-.058.237a33.648,33.648,0,0,0-.956,8.829l.007.248-.218.122-7.286,4.047.2-.479,3.864,13.235-.431-.3,8.32-.509.256-.015.132.22a33.464,33.464,0,0,0,5.548,6.918l0,0v0c.052.19-.114-.423.116.426l0,.008,0,.015-.008.032-.018.063-.036.126-.073.252-.144.5-.289,1.007-.576,2.008-1.144,3.993-.2-.488,12.089,6.634-.517.09,5.523-6.237.168-.189.244.06a33.353,33.353,0,0,0,8.827.97l.25-.006.12.218,4.037,7.29-.466-.192,13.239-3.845-.28.4q-.254-4.234-.5-8.319l-.014-.231.2-.119a33.413,33.413,0,0,0,6.943-5.551l.154-.161.214.061,8,2.307-.407.17,6.657-12.075.07.4-6.225-5.536-.138-.123.044-.178a33.638,33.638,0,0,0,.991-8.856l0-.17.147-.081,7.3-4.018-.119.289c-1.472-5.134-2.727-9.509-3.8-13.254l.194.136-8.321.454-.083,0-.042-.07a35.068,35.068,0,0,0-4-5.445l-1.137-1.227a3.422,3.422,0,0,1-.373-.41,4.167,4.167,0,0,1,.423.361c.269.253.676.638,1.19,1.182a32.728,32.728,0,0,1,4.128,5.4l-.126-.066,8.315-.56.151-.01.044.147c1.106,3.735,2.4,8.1,3.916,13.22l.057.191-.176.1-7.273,4.067.143-.25a34.073,34.073,0,0,1-.958,9.016l-.093-.3,6.252,5.506.194.171-.125.228-6.608,12.1-.135.247-.272-.077-8.011-2.28.367-.1a34.131,34.131,0,0,1-7.083,5.7l.183-.349q.255,4.086.518,8.318l.02.312-.3.087L310.2,217.893l-.31.091-.158-.283-4.049-7.284.369.211a34.167,34.167,0,0,1-9.046-.983l.411-.129-5.517,6.242-.222.251-.295-.162-12.092-6.628-.3-.163.093-.325,1.144-3.993.575-2.009.289-1.007.144-.5.073-.252.036-.126.018-.064.009-.031,0-.016,0-.008c.231.847.064.234.114.423h0l0,0a34.25,34.25,0,0,1-5.688-7.1l.388.2-8.319.505-.337.021-.095-.324-3.852-13.238-.093-.32.29-.161,7.292-4.037-.211.368a34.393,34.393,0,0,1,.994-9.042l.124.4-6.232-5.527-.237-.21.152-.276,6.646-12.081.146-.265.29.083,8,2.307-.366.1a34.2,34.2,0,0,1,7.1-5.673l-.168.322c-.171-2.908-.339-5.745-.491-8.32l-.016-.268.256-.074,13.245-3.828.233-.067.116.211,4.023,7.3-.25-.143a34.055,34.055,0,0,1,9,1.013l-.246.077,5.546-6.215.115-.13.15.083,12.05,6.7.1.053-.031.1c-.767,2.568-1.358,4.547-1.769,5.921-.2.651-.356,1.153-.472,1.527a3.966,3.966,0,0,1-.181.524" transform="translate(-64.779 -12.901)" fill="#3b5620"/>
            <path id="Trazado_813126" data-name="Trazado 813126" d="M387.318,160.083,375.3,112.311l48.878-.808Z" transform="translate(-87.995 -26.143)" fill="#727997"/>
            <rect id="Rectángulo_376347" data-name="Rectángulo 376347" width="27.774" height="112.319" transform="translate(304.659 116.765) rotate(-52.806)" fill="#727997"/>
            <path id="Trazado_813127" data-name="Trazado 813127" d="M503.635,332.78l6.209,14.077s-12.223,11.039-11.329,13.752l27.727-11.058-8.774-22.331Z" transform="translate(-116.872 -76.721)" fill="#e8505b"/>
            <g id="Grupo_1069010" data-name="Grupo 1069010" transform="translate(381.596 250.499)" opacity="0.5">
              <g id="Grupo_1069009" data-name="Grupo 1069009">
                <g id="Grupo_1069008" data-name="Grupo 1069008" clip-path="url(#clip-path-3)">
                  <path id="Trazado_813128" data-name="Trazado 813128" d="M503.635,332.78l6.209,14.077s-12.223,11.039-11.329,13.752l27.727-11.058-8.774-22.331Z" transform="translate(-498.468 -327.22)"/>
                </g>
              </g>
            </g>
            <path id="Trazado_813129" data-name="Trazado 813129" d="M526.216,355.712l-.972-2.216-26.22,11.431s-1.02,1.03-.534,1.843Z" transform="translate(-116.846 -82.882)" fill="#263238"/>
            <path id="Trazado_813130" data-name="Trazado 813130" d="M568.384,358.357l7.772,13.278s-10.886,12.359-9.689,14.953l26.286-14.145-11.26-21.185Z" transform="translate(-132.794 -82.357)" fill="#e8505b"/>
            <g id="Grupo_1069013" data-name="Grupo 1069013" transform="translate(433.581 268.9)" opacity="0.5">
              <g id="Grupo_1069012" data-name="Grupo 1069012">
                <g id="Grupo_1069011" data-name="Grupo 1069011" clip-path="url(#clip-path-4)">
                  <path id="Trazado_813131" data-name="Trazado 813131" d="M568.384,358.357l7.772,13.278s-10.886,12.359-9.689,14.953l26.286-14.145-11.26-21.185Z" transform="translate(-566.375 -351.257)"/>
                </g>
              </g>
            </g>
            <path id="Trazado_813132" data-name="Trazado 813132" d="M592.723,378.292,591.5,376.2l-24.747,14.344s-.9,1.138-.321,1.892Z" transform="translate(-132.763 -88.205)" fill="#263238"/>
            <path id="Trazado_813133" data-name="Trazado 813133" d="M516.257,104.747l-17.039,1.327-.566-9.539s-6.873-.1-7.9-6.813S488.717,67.4,488.717,67.4a23.6,23.6,0,0,1,23.9-.35l1.1.627Z" transform="translate(-114.586 -15)" fill="#ffbe9d"/>
            <path id="Trazado_813134" data-name="Trazado 813134" d="M501.664,105.242a15.79,15.79,0,0,0,8.416-3.724s-1.49,5.28-8.285,5.618Z" transform="translate(-117.622 -23.802)" fill="#eb996e"/>
            <path id="Trazado_813135" data-name="Trazado 813135" d="M521.576,77.924c.108-.066,4.429-2.016,4.928,2.6s-4.24,4.167-4.263,4.035-.665-6.638-.665-6.638" transform="translate(-122.29 -18.161)" fill="#ffbe9d"/>
            <path id="Trazado_813136" data-name="Trazado 813136" d="M524.029,83.1c.018-.017.086.047.229.095a.807.807,0,0,0,.6-.052,2,2,0,0,0,.728-1.886,2.675,2.675,0,0,0-.35-1.127.937.937,0,0,0-.672-.553.412.412,0,0,0-.451.273c-.048.135-.008.224-.032.235s-.108-.067-.091-.261a.516.516,0,0,1,.15-.309.611.611,0,0,1,.432-.165,1.135,1.135,0,0,1,.918.625,2.744,2.744,0,0,1,.418,1.257,2.1,2.1,0,0,1-.958,2.121.864.864,0,0,1-.749-.043c-.155-.1-.191-.2-.176-.209" transform="translate(-122.857 -18.605)" fill="#eb996e"/>
            <path id="Trazado_813137" data-name="Trazado 813137" d="M492.507,81.948a.97.97,0,0,0,1.062.838.928.928,0,0,0,.868-1,.971.971,0,0,0-1.062-.84.928.928,0,0,0-.869,1.006" transform="translate(-115.473 -18.977)" fill="#263238"/>
            <path id="Trazado_813138" data-name="Trazado 813138" d="M492.11,80.179c.136.109.788-.532,1.823-.674,1.03-.158,1.863.267,1.957.126.047-.064-.106-.273-.469-.467a2.661,2.661,0,0,0-1.589-.256,2.552,2.552,0,0,0-1.429.694c-.284.289-.36.531-.293.578" transform="translate(-115.376 -18.494)" fill="#263238"/>
            <path id="Trazado_813139" data-name="Trazado 813139" d="M505.635,80.429a.971.971,0,0,0,1.063.839.928.928,0,0,0,.868-1.005.97.97,0,0,0-1.062-.84.928.928,0,0,0-.869,1.006" transform="translate(-118.552 -18.621)" fill="#263238"/>
            <path id="Trazado_813140" data-name="Trazado 813140" d="M505.415,78.565c.137.109.79-.532,1.823-.674,1.03-.158,1.863.268,1.958.125.047-.064-.1-.273-.47-.466a2.666,2.666,0,0,0-1.589-.256,2.557,2.557,0,0,0-1.428.694c-.283.289-.359.531-.293.578" transform="translate(-118.496 -18.116)" fill="#263238"/>
            <path id="Trazado_813141" data-name="Trazado 813141" d="M501.089,87.006a6.915,6.915,0,0,0-1.721-.067c-.268.01-.525-.008-.595-.181a1.357,1.357,0,0,1,.067-.807q.237-1.011.5-2.119a34.872,34.872,0,0,0,1.014-5.5,35.009,35.009,0,0,0-1.455,5.408c-.162.743-.316,1.45-.463,2.127a1.542,1.542,0,0,0,.009,1.055.666.666,0,0,0,.488.325,1.817,1.817,0,0,0,.457,0,6.8,6.8,0,0,0,1.7-.237" transform="translate(-116.842 -18.365)" fill="#263238"/>
            <path id="Trazado_813142" data-name="Trazado 813142" d="M505.144,90.039c-.169.014-.014,1.136-.862,2.067s-2.059.976-2.046,1.134c-.006.073.3.181.8.123a2.821,2.821,0,0,0,1.717-.883,2.461,2.461,0,0,0,.651-1.723c-.023-.475-.188-.736-.263-.718" transform="translate(-117.756 -21.111)" fill="#263238"/>
            <path id="Trazado_813143" data-name="Trazado 813143" d="M504.326,73.386c.142.266,1.155-.011,2.388-.036,1.232-.049,2.26.168,2.385-.106.054-.131-.153-.371-.586-.587a4.148,4.148,0,0,0-3.636.108c-.42.242-.613.495-.55.622" transform="translate(-118.243 -16.949)" fill="#263238"/>
            <path id="Trazado_813144" data-name="Trazado 813144" d="M492.052,76.188c.214.209.892-.135,1.746-.266.851-.162,1.6-.064,1.735-.334.057-.129-.09-.348-.439-.526a2.56,2.56,0,0,0-2.806.483c-.268.284-.334.54-.237.643" transform="translate(-115.358 -17.547)" fill="#263238"/>
            <path id="Trazado_813145" data-name="Trazado 813145" d="M483.636,61.006a2.506,2.506,0,0,1,.6-2.346,1.778,1.778,0,0,1,2.305-.151,2.075,2.075,0,0,1,1.416-2.74c1.087-.224,2.139.473,3.24.615a5.043,5.043,0,0,0,3.089-.8c.939-.54,1.791-1.225,2.747-1.735a8.683,8.683,0,0,1,11.708,3.5,3.857,3.857,0,0,1,4.265.963,6.329,6.329,0,0,1,1.579,4.278,14.175,14.175,0,0,1-.344,3.126c.012.087.032.17.043.256.451,3.708.643,8.109-.931,8.355-2.744.429-2.817-4.844-2.817-4.844-3.557-.83-3.012-6.062-3.963-6.711s-2.967-2.182-9.525,2.422A13.818,13.818,0,0,1,488.8,67.28c-.06,0-.12-.005-.181-.011l-.042,0c-.022,0-.039-.012-.061-.015a6.415,6.415,0,0,1-1.92-.514,3.617,3.617,0,0,1-1.727-1.45,1.981,1.981,0,0,1,.09-2.16,4.352,4.352,0,0,1-1.32-2.121" transform="translate(-113.378 -12.387)" fill="#263238"/>
            <path id="Trazado_813146" data-name="Trazado 813146" d="M501.664,110.354l.76,26.7,16.611-35.759-.417-3.31Z" transform="translate(-117.622 -22.973)" fill="#ebebeb"/>
            <path id="Trazado_813147" data-name="Trazado 813147" d="M505.515,218.162c-.609.2-35.193,35.176-34.416,41.458s25.4,52.81,25.4,52.81l17.564-8.66-16.477-40.79.216-2.531,20.137-16.5-1.076-26.537Z" transform="translate(-110.452 -50.975)" fill="#263238"/>
            <path id="Trazado_813148" data-name="Trazado 813148" d="M525.8,223.362c.4.609,6.391,55.558,8,58.4s25.661,49.754,25.661,49.754l17.86-7.2-21.8-51.556,2.485-48.8-1.345-13.779-26.965,5.529Z" transform="translate(-123.281 -49.282)" fill="#263238"/>
            <path id="Trazado_813149" data-name="Trazado 813149" d="M533.477,285.69a3.119,3.119,0,0,1-.116-.55c-.066-.4-.152-.927-.26-1.587-.215-1.422-.516-3.407-.885-5.845-.716-4.977-1.7-11.784-2.777-19.3-1.039-7.529-1.979-14.342-2.666-19.323-.319-2.444-.579-4.437-.765-5.862-.078-.664-.141-1.195-.188-1.6a3.052,3.052,0,0,1-.04-.56,3.125,3.125,0,0,1,.116.55c.066.4.152.926.26,1.586l.885,5.845c.716,4.977,1.7,11.785,2.777,19.308,1.039,7.526,1.979,14.339,2.666,19.32.319,2.444.579,4.437.765,5.862q.117,1,.188,1.6a3.057,3.057,0,0,1,.04.56" transform="translate(-123.275 -54.175)" fill="#455a64"/>
            <path id="Trazado_813150" data-name="Trazado 813150" d="M563.268,289.87a52.132,52.132,0,0,1-2.446,8.6,52.162,52.162,0,0,1,2.446-8.6" transform="translate(-131.489 -67.964)" fill="#455a64"/>
            <path id="Trazado_813151" data-name="Trazado 813151" d="M566.724,302.821a4.974,4.974,0,0,1-.975-1.356,13.364,13.364,0,0,1-1.663-7.8,4.992,4.992,0,0,1,.337-1.635,17.429,17.429,0,0,0,2.3,10.793" transform="translate(-132.243 -68.47)" fill="#455a64"/>
            <path id="Trazado_813152" data-name="Trazado 813152" d="M498.172,269.2a9.41,9.41,0,0,1,4.941,4.506c-.1.064-.948-1.186-2.316-2.423s-2.68-1.981-2.625-2.083" transform="translate(-116.803 -63.116)" fill="#455a64"/>
            <path id="Trazado_813153" data-name="Trazado 813153" d="M501.713,267.084a7.647,7.647,0,0,1,2.668,4.32,23,23,0,0,1-1.292-2.186,22.838,22.838,0,0,1-1.376-2.134" transform="translate(-117.632 -62.62)" fill="#455a64"/>
            <path id="Trazado_813154" data-name="Trazado 813154" d="M504.32,147.743l4.421,21.933,3.6,30.608s14.833-2.072,21.155-4.073c7.332-2.321,23.287-4.3,23.287-4.3l-2.689,2.661c5.709-1.6,9.343-7.046,9.343-7.046-9.839-9.125-18.232-27.9-18.232-27.9l-7.482-37.146s-1.136-5.24-1.821-7.57-12.046-9.846-13.62-10.8l-.99-.468-.315-2.977-1.171-.7L507.51,111.142a13.324,13.324,0,0,0-4.279,8.347,96.371,96.371,0,0,0-.536,13.973c.146,4.351,1.625,14.28,1.625,14.28" transform="translate(-117.85 -23.44)" fill="#632059"/>
            <path id="Trazado_813155" data-name="Trazado 813155" d="M507.039,112.6s-6.5,3.482-7.622,6.437S501.64,154.4,501.64,154.4l-23.324.437-.074,13.9s37.049,2.927,38.49.925c1.949-2.708,4.214-28.026,4.214-28.026l.841-18.216s-2.147-13.891-14.749-10.812" transform="translate(-112.13 -26.297)" fill="#632059"/>
            <g id="Grupo_1069016" data-name="Grupo 1069016" transform="translate(390.453 119.712)" opacity="0.3">
              <g id="Grupo_1069015" data-name="Grupo 1069015">
                <g id="Grupo_1069014" data-name="Grupo 1069014" clip-path="url(#clip-path-5)">
                  <path id="Trazado_813156" data-name="Trazado 813156" d="M510.475,182.9a22.31,22.31,0,0,0,9.336.872c3.286-.3,6.628-2.1,7.871-5.16.951-2.34.554-4.978.7-7.5.125-2.191.668-4.334,1-6.5s-.794-6.158-1.51-8.233c0,0-.831,15.04-3.184,21.355a5.175,5.175,0,0,1-1.442,2.306,5.666,5.666,0,0,1-3.049.84,88.361,88.361,0,0,1-10.156-.205" transform="translate(-510.038 -156.376)"/>
                </g>
              </g>
            </g>
            <path id="Trazado_813157" data-name="Trazado 813157" d="M521.693,129.434a2.043,2.043,0,0,1,0,.331c-.009.235-.021.556-.038.968-.041.87-.1,2.12-.179,3.721-.085,1.621-.188,3.6-.309,5.886-.14,2.294-.216,4.911-.5,7.791-.251,2.881-.553,6.036-.914,9.418s-.776,6.994-1.42,10.773a23.465,23.465,0,0,1-.64,2.857,5.576,5.576,0,0,1-1.682,2.519,4.26,4.26,0,0,1-2.9,1.037c-1.029.023-2.059,0-3.1-.016-4.164-.1-8.467-.316-12.873-.555-6.62-.366-13-.779-18.964-1.2l-.171-.012v-.171c.03-4.936.057-9.587.083-13.876v-.16l.16,0,22.513-.484,6.3-.109,1.659-.016c.375,0,.569.012.569.012s-.193.021-.568.039l-1.657.066-6.3.2-22.51.622.161-.164c-.015,4.289-.03,8.94-.046,13.876l-.17-.184c5.961.407,12.341.814,18.959,1.18,4.4.239,8.706.455,12.86.563,1.038.014,2.069.041,3.082.02a3.889,3.889,0,0,0,2.68-.948,5.206,5.206,0,0,0,1.574-2.354,23.316,23.316,0,0,0,.633-2.8c.65-3.759,1.063-7.371,1.452-10.746s.692-6.529.96-9.408c.3-2.876.393-5.491.554-7.782.145-2.287.27-4.26.373-5.881.108-1.6.193-2.847.251-3.715.032-.411.057-.731.075-.966a2.021,2.021,0,0,1,.039-.328" transform="translate(-112.074 -30.347)" fill="#263238"/>
            <path id="Trazado_813158" data-name="Trazado 813158" d="M484.175,181.665a59.277,59.277,0,0,1-.157-6.74,59.18,59.18,0,0,1,.228-6.738,59.388,59.388,0,0,1,.156,6.741,59.085,59.085,0,0,1-.227,6.737" transform="translate(-113.484 -39.434)" fill="#263238"/>
            <path id="Trazado_813159" data-name="Trazado 813159" d="M480.824,170.889c-.044-.025.188-.285.632-.138a.718.718,0,0,1,.473.618.848.848,0,0,1-.474.832.87.87,0,0,1-.939-.172.784.784,0,0,1-.227-.735c.1-.439.411-.534.421-.488.038.043-.145.206-.152.522a.533.533,0,0,0,.194.437.548.548,0,0,0,.543.087.522.522,0,0,0,.279-.462.452.452,0,0,0-.233-.391c-.268-.16-.494-.059-.518-.109" transform="translate(-112.606 -40.024)" fill="#263238"/>
            <path id="Trazado_813160" data-name="Trazado 813160" d="M548.6,133.539s12.135,15.867,13.613,20.19.336,10.532-2.135,13.5-4.465,1.762-4.465,1.762Z" transform="translate(-128.626 -31.31)" fill="#632059"/>
            <path id="Trazado_813161" data-name="Trazado 813161" d="M555.311,178.176a25.432,25.432,0,0,1-6.147,1.055,25.351,25.351,0,0,1,6.147-1.055" transform="translate(-128.759 -41.768)" fill="#263238"/>
            <path id="Trazado_813162" data-name="Trazado 813162" d="M560.239,193.467a4.068,4.068,0,0,1,.329.838c.184.547.463,1.334.823,2.3a68.261,68.261,0,0,0,3.26,7.352,77.5,77.5,0,0,0,4.076,6.939c.567.861,1.034,1.553,1.361,2.028a4.129,4.129,0,0,1,.474.766,4.02,4.02,0,0,1-.594-.677c-.365-.449-.868-1.119-1.465-1.964a59.508,59.508,0,0,1-4.194-6.915,54.1,54.1,0,0,1-3.174-7.438c-.329-.981-.57-1.784-.71-2.346a4.086,4.086,0,0,1-.186-.881" transform="translate(-131.354 -45.361)" fill="#263238"/>
            <g id="Grupo_1069019" data-name="Grupo 1069019" transform="translate(429.71 149.986)" opacity="0.3">
              <g id="Grupo_1069018" data-name="Grupo 1069018">
                <g id="Grupo_1069017" data-name="Grupo 1069017" clip-path="url(#clip-path-6)">
                  <path id="Trazado_813163" data-name="Trazado 813163" d="M561.318,195.922c1.923,3.427,3.9,6.922,6.829,9.541a17.632,17.632,0,0,1,2.98,2.887,3.633,3.633,0,0,1,.381,3.9,1.226,1.226,0,0,1-1.21.654,1.555,1.555,0,0,1-.792-.642,47.289,47.289,0,0,1-8.057-15.821" transform="translate(-561.318 -195.922)"/>
                </g>
              </g>
            </g>
            <g id="Grupo_1069022" data-name="Grupo 1069022" transform="translate(420.993 104.622)" opacity="0.3">
              <g id="Grupo_1069021" data-name="Grupo 1069021">
                <g id="Grupo_1069020" data-name="Grupo 1069020" clip-path="url(#clip-path-7)">
                  <path id="Trazado_813164" data-name="Trazado 813164" d="M557.047,169.665a5.868,5.868,0,0,0,2-5.5,20.347,20.347,0,0,0-2.015-5.769,95.009,95.009,0,0,1-5.911-17.335l-1.185-4.4,6,31.4Z" transform="translate(-549.932 -136.665)"/>
                </g>
              </g>
            </g>
            <path id="Trazado_813165" data-name="Trazado 813165" d="M519.984,109.513a26.9,26.9,0,0,1,2.261-2.26,26.68,26.68,0,0,1,2.259-2.261,13.442,13.442,0,0,1-4.521,4.521" transform="translate(-121.916 -24.616)" fill="#263238"/>
            <path id="Trazado_813166" data-name="Trazado 813166" d="M515.622,114.408c.019.064-.7.281-1.774.812a14.1,14.1,0,0,0-6.442,6.518c-.518,1.08-.726,1.8-.791,1.784A1.437,1.437,0,0,1,506.7,123a8.656,8.656,0,0,1,.459-1.37,12.666,12.666,0,0,1,6.574-6.653,8.736,8.736,0,0,1,1.365-.476,1.441,1.441,0,0,1,.524-.09" transform="translate(-118.781 -26.823)" fill="#263238"/>
            <path id="Trazado_813167" data-name="Trazado 813167" d="M558.122,172.192a1.346,1.346,0,0,1-.191-.3l-.486-.91-1.746-3.417-.007-.014,0-.018c-.759-3.477-1.833-8.549-3-14.188-1.078-5.316-2.052-10.125-2.772-13.673l-.8-4.153c-.08-.456-.145-.831-.2-1.133a.2.2,0,1,1,.076-.015l.268,1.118c.228,1.028.538,2.425.916,4.128.748,3.542,1.762,8.344,2.881,13.65,1.167,5.64,2.194,10.721,2.878,14.214l-.011-.031,1.64,3.469.425.941a1.337,1.337,0,0,1,.125.337" transform="translate(-128.691 -31.414)" fill="#263238"/>
            <path id="Trazado_813168" data-name="Trazado 813168" d="M507.472,158.3a6.84,6.84,0,0,1-.178-1.15c-.088-.811-.2-1.871-.342-3.148-.272-2.66-.622-6.338-.984-10.4s-.669-7.747-.872-10.413c-.09-1.282-.164-2.345-.22-3.159a6.634,6.634,0,0,1-.028-1.162,6.889,6.889,0,0,1,.178,1.151c.088.811.2,1.871.342,3.149.272,2.66.622,6.337.984,10.4s.669,7.743.872,10.409c.09,1.281.164,2.345.22,3.159a6.72,6.72,0,0,1,.029,1.164" transform="translate(-118.364 -30.215)" fill="#263238"/>
            <path id="Trazado_813169" data-name="Trazado 813169" d="M473.4,168.758s-5.03-3.816-6.258-4.046c-.94-.177-6.554-.083-9.137-.029a1.848,1.848,0,0,0-1.853,1.793,1.066,1.066,0,0,0,.017.183,1.684,1.684,0,0,0,1.228,1.275,1.957,1.957,0,0,0-1.36,1.841c-.021,1.458,1.743,1.765,1.743,1.765a2.5,2.5,0,0,0-.252.224,1.739,1.739,0,0,0,.854,2.919l.8.181a1.723,1.723,0,0,0-1.062,1.448c.029,1.919,4.344,2.287,4.344,2.287s10.665,1.688,10.9,1.611.043-11.452.043-11.452" transform="translate(-106.925 -38.595)" fill="#ffbe9d"/>
            <path id="Trazado_813170" data-name="Trazado 813170" d="M459.906,161.463a3.109,3.109,0,0,0,1.272,2.588l5.943-.233s-4.426-1.527-5.055-2.282a5.115,5.115,0,0,0-.848-.83.84.84,0,0,0-1.311.756" transform="translate(-107.83 -37.644)" fill="#ffbe9d"/>
            <path id="Trazado_813171" data-name="Trazado 813171" d="M464.019,164.682a8.725,8.725,0,0,1-2.714.192,11.012,11.012,0,0,1-2.708-.192,8.72,8.72,0,0,1,2.714-.192,11.014,11.014,0,0,1,2.708.192" transform="translate(-107.524 -38.566)" fill="#eb996e"/>
            <path id="Trazado_813172" data-name="Trazado 813172" d="M462.507,169.009a8.61,8.61,0,0,1-4.663-.166,44.146,44.146,0,0,1,4.663.166" transform="translate(-107.347 -39.575)" fill="#eb996e"/>
            <path id="Trazado_813173" data-name="Trazado 813173" d="M467.563,168.519c.088.054-.026.378-.361.595s-.677.189-.691.087.221-.237.482-.41.481-.332.57-.272" transform="translate(-109.379 -39.508)" fill="#eb996e"/>
            <path id="Trazado_813174" data-name="Trazado 813174" d="M463.225,173.905a17.089,17.089,0,0,1-5.109-.168,17.089,17.089,0,0,1,5.109.168" transform="translate(-107.411 -40.705)" fill="#eb996e"/>
            <path id="Trazado_813175" data-name="Trazado 813175" d="M468.846,171.919c.047-.013.14.107.168.34a1.224,1.224,0,0,1-1.04,1.323c-.234.027-.372-.034-.37-.083,0-.1.511-.171.851-.608s.287-.949.39-.971" transform="translate(-109.636 -40.308)" fill="#eb996e"/>
            <path id="Trazado_813176" data-name="Trazado 813176" d="M464.561,178.62a13.9,13.9,0,0,1-4.574-.566,13.95,13.95,0,0,1,4.574.566" transform="translate(-107.85 -41.734)" fill="#eb996e"/>
            <path id="Trazado_813177" data-name="Trazado 813177" d="M469.93,176.362c.05-.007.122.123.116.354a1.441,1.441,0,0,1-.318.808c-.436.526-.923.717-.978.645-.076-.091.315-.439.674-.881s.407-.908.506-.926" transform="translate(-109.902 -41.35)" fill="#eb996e"/>
            <path id="Trazado_813178" data-name="Trazado 813178" d="M567.037,222.73a6.792,6.792,0,0,0,5.154-3.247c.122-.205.227-.486.067-.664a.59.59,0,0,0-.449-.135,13.943,13.943,0,0,0-4.884.837.665.665,0,0,0-.438.328.673.673,0,0,0,.021.4l.627,2.415" transform="translate(-132.815 -51.273)" fill="#e8505b"/>
            <g id="Grupo_1069025" data-name="Grupo 1069025" transform="translate(433.649 167.41)" opacity="0.4">
              <g id="Grupo_1069024" data-name="Grupo 1069024">
                <g id="Grupo_1069023" data-name="Grupo 1069023" clip-path="url(#clip-path-8)">
                  <path id="Trazado_813179" data-name="Trazado 813179" d="M567.037,222.73a6.792,6.792,0,0,0,5.154-3.247c.122-.205.227-.486.067-.664a.59.59,0,0,0-.449-.135,13.943,13.943,0,0,0-4.884.837.665.665,0,0,0-.438.328.673.673,0,0,0,.021.4l.627,2.415" transform="translate(-566.464 -218.683)"/>
                </g>
              </g>
            </g>
            <path id="Trazado_813180" data-name="Trazado 813180" d="M501.085,114.143s-2.447,8.213-1.772,7.746,2.136-1.764,2.136-1.764Z" transform="translate(-117.043 -26.762)" fill="#ebebeb"/>
            <path id="Trazado_813181" data-name="Trazado 813181" d="M501.329,119.089l-1.338,3.2a4.318,4.318,0,0,0-.259,1.033c-.111.9-.239,2.538.295,2.652a1.8,1.8,0,0,0,1.431-.591Z" transform="translate(-117.146 -27.922)" fill="#263238"/>
            <path id="Trazado_813182" data-name="Trazado 813182" d="M542.772,119s-13.088-5.106-20.335-.6-8.566,11.7-12.882,11.7c-8.416,0-8.147-5.938-8.147-5.938l-1.789.541c-.034,1.216-1.951,9.94,6.919,11.021s12.6-11.01,20.576-11.021a26.485,26.485,0,0,1,14.036,4.315l5.732-3.626Z" transform="translate(-117.096 -27.324)" fill="#263238"/>
            <path id="Trazado_813183" data-name="Trazado 813183" d="M512.181,135.792A12.3,12.3,0,0,0,517.23,130c2.033-4.69,6.4-10.046,10.042-11.392s12.076-2.284,17.9,1.511l3.73,5.039-4.843,3.141a44.97,44.97,0,0,0-8.533-3.417c-6.019-1.681-9.676.217-13.176,3.529-.217.206-.417.41-.592.607a39.682,39.682,0,0,1-5.54,4.9,8.732,8.732,0,0,1-4.037,1.869" transform="translate(-120.087 -27.533)" fill="#455a64"/>
            <path id="Trazado_813184" data-name="Trazado 813184" d="M139.038,37c-7.763,1.2-13.454-5.324-15.268-11.129C122.1,20.513,121.3,14.937,118.944,9.84c-3.289-7.124-12-10.416-19.82-9.758s-15.7,4.577-22.616,8.28l1.908,42.882s15.065-16.042,22.3-16.334c12.078-.488,11.42,19.365,23.148,22.3,0,0,16.442,4.458,27.559-9.9a40.4,40.4,0,0,0,7.678-20.183S153.7,34.742,139.038,37" transform="translate(-17.939 0)" fill="#632059"/>
            <path id="Trazado_813185" data-name="Trazado 813185" d="M76.093,1.63c.106,0,2.219,45.533,4.718,101.7,2.5,56.184,4.441,101.72,4.334,101.725s-2.218-45.523-4.718-101.708C77.928,47.18,75.987,1.635,76.093,1.63" transform="translate(-17.84 -0.382)" fill="#263238"/>
            <g id="Grupo_1069028" data-name="Grupo 1069028" transform="translate(99.715 22.906)" opacity="0.2">
              <g id="Grupo_1069027" data-name="Grupo 1069027">
                <g id="Grupo_1069026" data-name="Grupo 1069026" clip-path="url(#clip-path-9)">
                  <path id="Trazado_813186" data-name="Trazado 813186" d="M130.255,29.921a52.223,52.223,0,0,0,5.709,12.872c2.236,3.5,5.627,6.448,9.693,7.3a9.446,9.446,0,0,1,2.176.565,2.1,2.1,0,0,1,1.3,1.706c.031,1.123-1.129,1.858-2.137,2.355a17.615,17.615,0,0,1-4.462,1.715c-1.572.293-2.8.457-3.882-.723a22.587,22.587,0,0,1-2.807-3.363c-3.544-6.039-5.3-14.675-5.585-21.507" transform="translate(-130.255 -29.921)"/>
                </g>
              </g>
            </g>
            <path id="Trazado_813187" data-name="Trazado 813187" d="M140.53,54.724a1.575,1.575,0,0,1-.349-.2c-.221-.142-.537-.368-.927-.681a15.981,15.981,0,0,1-2.863-3.11,23.894,23.894,0,0,1-2.866-5.575,61.53,61.53,0,0,1-2.123-7.368,82.266,82.266,0,0,1-1.978-13.77c-.1-1.779-.116-3.221-.114-4.216.01-.462.018-.841.025-1.146a1.546,1.546,0,0,1,.036-.4,1.619,1.619,0,0,1,.041.4c.012.3.028.683.047,1.144.044.993.1,2.429.236,4.2a91.954,91.954,0,0,0,2.082,13.7,65.586,65.586,0,0,0,2.08,7.332,24.629,24.629,0,0,0,2.757,5.542,17.357,17.357,0,0,0,2.738,3.152c.743.655,1.2.966,1.179.994" transform="translate(-30.318 -4.281)" fill="#263238"/>
            <path id="Trazado_813188" data-name="Trazado 813188" d="M14.951,279.182l102.56,16.79v-16.79Z" transform="translate(-3.505 -65.458)" fill="#12263f" opacity="0.16"/>
            <path id="Trazado_813189" data-name="Trazado 813189" d="M171.038,328.727l102.56,16.79v-16.79Z" transform="translate(-40.102 -77.074)" fill="#12263f" opacity="0.16"/>
            <path id="Trazado_813190" data-name="Trazado 813190" d="M326.051,376.121l102.56,16.79v-16.79Z" transform="translate(-76.447 -88.186)" fill="#12263f" opacity="0.16"/>
            <path id="Trazado_813191" data-name="Trazado 813191" d="M480.858,413.836l102.56,16.79v-16.79Z" transform="translate(-112.743 -97.029)" fill="#12263f" opacity="0.16"/>
            <rect id="Rectángulo_376355" data-name="Rectángulo 376355" width="102.56" height="12.575" transform="translate(11.446 201.149)" fill="#52722d"/>
            <g id="Grupo_1069031" data-name="Grupo 1069031" transform="translate(82.002 201.149)" opacity="0.3">
              <g id="Grupo_1069030" data-name="Grupo 1069030">
                <g id="Grupo_1069029" data-name="Grupo 1069029" clip-path="url(#clip-path-10)">
                  <rect id="Rectángulo_376356" data-name="Rectángulo 376356" width="32.004" height="12.575" transform="translate(-0.001)"/>
                </g>
              </g>
            </g>
            <rect id="Rectángulo_376358" data-name="Rectángulo 376358" width="102.56" height="12.575" transform="translate(130.937 239.077)" fill="#52722d"/>
            <g id="Grupo_1069034" data-name="Grupo 1069034" transform="translate(201.492 239.077)" opacity="0.3">
              <g id="Grupo_1069033" data-name="Grupo 1069033">
                <g id="Grupo_1069032" data-name="Grupo 1069032" clip-path="url(#clip-path-11)">
                  <rect id="Rectángulo_376359" data-name="Rectángulo 376359" width="32.004" height="12.575"/>
                </g>
              </g>
            </g>
            <rect id="Rectángulo_376361" data-name="Rectángulo 376361" width="102.56" height="12.575" transform="translate(249.604 275.359)" fill="#52722d"/>
            <g id="Grupo_1069037" data-name="Grupo 1069037" transform="translate(320.16 275.359)" opacity="0.3">
              <g id="Grupo_1069036" data-name="Grupo 1069036">
                <g id="Grupo_1069035" data-name="Grupo 1069035" clip-path="url(#clip-path-12)">
                  <rect id="Rectángulo_376362" data-name="Rectángulo 376362" width="32.004" height="12.575"/>
                </g>
              </g>
            </g>
            <rect id="Rectángulo_376364" data-name="Rectángulo 376364" width="102.56" height="12.575" transform="translate(368.272 304.231)" fill="#52722d"/>
            <g id="Grupo_1069040" data-name="Grupo 1069040" transform="translate(438.827 304.231)" opacity="0.3">
              <g id="Grupo_1069039" data-name="Grupo 1069039">
                <g id="Grupo_1069038" data-name="Grupo 1069038" clip-path="url(#clip-path-12)">
                  <rect id="Rectángulo_376365" data-name="Rectángulo 376365" width="32.004" height="12.575" transform="translate(0 0)"/>
                </g>
              </g>
            </g>
            <path id="Trazado_813192" data-name="Trazado 813192" d="M532.471,336.762a2.789,2.789,0,1,0,2.789-2.789,2.789,2.789,0,0,0-2.789,2.789" transform="translate(-124.845 -78.304)" fill="#ebebeb"/>
          </g>
        </g>
      </g>
    </g>
  </g>
</svg>
