<svg xmlns="http://www.w3.org/2000/svg" xmlns:xlink="http://www.w3.org/1999/xlink" width="567" height="333" viewBox="0 0 567 333">
  <defs>
    <clipPath id="clip-path">
      <rect id="Rectángulo_375212" data-name="Rectángulo 375212" width="327.041" height="332.781" fill="none"/>
    </clipPath>
    <clipPath id="clip-path-7">
      <rect id="Rectángulo_375199" data-name="Rectángulo 375199" width="53.767" height="100.433" fill="none"/>
    </clipPath>
    <clipPath id="clip-path-8">
      <rect id="Rectángulo_375200" data-name="Rectángulo 375200" width="4.651" height="24.012" fill="none"/>
    </clipPath>
    <clipPath id="clip-path-10">
      <rect id="Rectángulo_375202" data-name="Rectángulo 375202" width="47.23" height="108.383" fill="none"/>
    </clipPath>
    <clipPath id="clip-path-11">
      <rect id="Rectángulo_375203" data-name="Rectángulo 375203" width="11.498" height="20.667" fill="none"/>
    </clipPath>
    <clipPath id="clip-path-12">
      <rect id="Rectángulo_375204" data-name="Rectángulo 375204" width="11.078" height="3.646" fill="none"/>
    </clipPath>
    <clipPath id="clip-path-13">
      <rect id="Rectángulo_375205" data-name="Rectángulo 375205" width="19.612" height="20.417" fill="none"/>
    </clipPath>
    <clipPath id="clip-path-14">
      <rect id="Rectángulo_375206" data-name="Rectángulo 375206" width="21.585" height="6.921" fill="none"/>
    </clipPath>
    <clipPath id="clip-path-16">
      <rect id="Rectángulo_375208" data-name="Rectángulo 375208" width="43.138" height="107.313" fill="none"/>
    </clipPath>
    <clipPath id="clip-path-17">
      <rect id="Rectángulo_375209" data-name="Rectángulo 375209" width="23.592" height="19.514" fill="none"/>
    </clipPath>
  </defs>
  <g id="Grupo_1068965" data-name="Grupo 1068965" transform="translate(-810 -2852.789)">
    <g id="Grupo_1068946" data-name="Grupo 1068946" transform="translate(0 2266.789)">
      <rect id="Rectángulo_376337" data-name="Rectángulo 376337" width="567" height="333" transform="translate(810 586)" fill="none"/>
    </g>
    <g id="Grupo_1068964" data-name="Grupo 1068964" transform="translate(929 2853.008)">
      <g id="Grupo_1067390" data-name="Grupo 1067390" clip-path="url(#clip-path)">
        <g id="Grupo_1067350" data-name="Grupo 1067350">
          <g id="Grupo_1067349" data-name="Grupo 1067349" clip-path="url(#clip-path)">
            <path id="Trazado_806560" data-name="Trazado 806560" d="M309.258,379.98c-5.676-10.609-17.7-17.831-30.155-18.115,7.559-8,9.047-20.37,4.688-30.312S269.837,314.2,259.071,311s-22.549-2.446-33.278.862c1.244-7.773-6.885-15.532-15.011-14.325a7.541,7.541,0,0,0,2.358-9.843,8.3,8.3,0,0,0-10.039-3.128l.475-56.978H168.159l.475,56.978A8.3,8.3,0,0,0,158.6,287.7a7.541,7.541,0,0,0,2.358,9.843c-8.126-1.207-16.255,6.551-15.01,14.325-10.729-3.308-22.513-4.06-33.278-.862S92.3,321.611,87.944,331.553s-2.871,22.314,4.689,30.312c-12.457.284-24.48,7.506-30.156,18.115-3.3,6.163-3.6,15.269,2.806,18.493H306.452c6.407-3.224,6.1-12.329,2.806-18.493" transform="translate(-17.419 -65.876)" fill="#f5f5f5"/>
            <path id="Trazado_806561" data-name="Trazado 806561" d="M171.939,49.886,214.795,0l41.181,49.886H239.9V163.62H190.019V49.971Z" transform="translate(-49.768 0)" fill="#e0e0e0"/>
            <path id="Trazado_806562" data-name="Trazado 806562" d="M102.307,129.226l8.889-10.348,8.542,10.348h-3.333v22.668H106.057v-22.65Z" transform="translate(-29.613 -34.409)" fill="#f5f5f5"/>
            <path id="Trazado_806563" data-name="Trazado 806563" d="M401.691,331.474l8.889-10.348,8.542,10.348h-3.333v22.668H405.441v-22.65Z" transform="translate(-116.269 -92.95)" fill="#f5f5f5"/>
            <path id="Trazado_806564" data-name="Trazado 806564" d="M306.629,40,318.393,26.31,329.7,40h-4.412V70H311.592V40.027Z" transform="translate(-88.754 -7.615)" fill="#f5f5f5"/>
            <path id="Trazado_806565" data-name="Trazado 806565" d="M74.584,206.188a24.046,24.046,0,0,0-2.834-5.878,8.111,8.111,0,0,0-5.336-3.47,4.956,4.956,0,0,0-5.272,2.969c-.311-4.653-.97-9.428-3.3-13.469s-6.676-7.214-11.33-6.929c-4.39.267-8.148,3.528-10.236,7.4s-2.805,8.309-3.49,12.653c-1.664-2.042-5.177-1.4-6.914.58s-2.176,4.749-2.546,7.356H75.7Z" transform="translate(-6.752 -51.925)" fill="#ebebeb"/>
            <path id="Trazado_806566" data-name="Trazado 806566" d="M123.614,67.2a32.729,32.729,0,0,0-3.855-8,11.038,11.038,0,0,0-7.258-4.722c-2.947-.36-6.212,1.23-7.172,4.039-.423-6.331-1.319-12.825-4.489-18.322s-9.082-9.815-15.415-9.428c-5.971.365-11.084,4.8-13.925,10.066s-3.816,11.3-4.749,17.213c-2.263-2.778-7.043-1.9-9.406.789s-2.96,6.46-3.463,10.007h71.248Z" transform="translate(-15.597 -8.899)" fill="#ebebeb"/>
            <path id="Trazado_806567" data-name="Trazado 806567" d="M415.794,230.921a16.681,16.681,0,0,0-1.962-4.069,5.617,5.617,0,0,0-3.694-2.4,3.433,3.433,0,0,0-3.65,2.056c-.215-3.222-.671-6.527-2.284-9.325s-4.621-5-7.844-4.8c-3.039.186-5.641,2.444-7.086,5.123s-1.943,5.753-2.417,8.76c-1.152-1.414-3.585-.97-4.787.4s-1.506,3.287-1.762,5.092h36.259Z" transform="translate(-110.08 -61.47)" fill="#ebebeb"/>
            <path id="Trazado_806568" data-name="Trazado 806568" d="M62.97,396.837a16.682,16.682,0,0,0-1.962-4.069,5.619,5.619,0,0,0-3.694-2.4,3.431,3.431,0,0,0-3.649,2.056c-.215-3.222-.672-6.527-2.285-9.325s-4.621-5-7.844-4.8c-3.039.185-5.64,2.443-7.086,5.122s-1.943,5.753-2.417,8.76c-1.153-1.414-3.585-.969-4.787.4s-1.506,3.288-1.762,5.093H63.742Z" transform="translate(-7.955 -109.495)" fill="#ebebeb"/>
            <path id="Trazado_806569" data-name="Trazado 806569" d="M403.959,90.76a22.76,22.76,0,0,0-2.678-5.555,7.672,7.672,0,0,0-5.043-3.281,4.685,4.685,0,0,0-4.982,2.807c-.293-4.4-.917-8.91-3.119-12.73s-6.309-6.818-10.709-6.55c-4.149.254-7.7,3.335-9.674,6.994S365.1,80.3,364.455,84.4c-1.572-1.93-4.893-1.323-6.534.549s-2.057,4.487-2.406,6.952h49.5Z" transform="translate(-102.904 -18.94)" fill="#ebebeb"/>
          </g>
        </g>
        <g id="Grupo_1067352" data-name="Grupo 1067352">
          <g id="Grupo_1067351" data-name="Grupo 1067351" clip-path="url(#clip-path)">
            <path id="Trazado_806570" data-name="Trazado 806570" d="M327.041,468.008c0,.1-73.217.185-163.513.185C73.2,468.192,0,468.11,0,468.008s73.2-.185,163.528-.185c90.3,0,163.513.082,163.513.185" transform="translate(0 -135.411)" fill="#263238"/>
          </g>
        </g>
        <g id="Grupo_1067354" data-name="Grupo 1067354">
          <g id="Grupo_1067353" data-name="Grupo 1067353" clip-path="url(#clip-path)">
            <path id="Trazado_806571" data-name="Trazado 806571" d="M134.838,452.2c-.1,0-.185-3.864-.185-8.629s.082-8.63.185-8.63.185,3.863.185,8.63-.082,8.629-.185,8.629" transform="translate(-38.975 -125.894)" fill="#263238"/>
            <path id="Trazado_806572" data-name="Trazado 806572" d="M140.049,444.485c-.1,0-.185-4.169-.185-9.31s.082-9.31.185-9.31.185,4.167.185,9.31-.082,9.31-.185,9.31" transform="translate(-40.484 -123.267)" fill="#263238"/>
            <path id="Trazado_806573" data-name="Trazado 806573" d="M224.744,378.952c-.1,0-.185-11.743-.185-26.226s.082-26.229.185-26.229.185,11.741.185,26.229-.082,26.226-.185,26.226" transform="translate(-64.999 -94.505)" fill="#263238"/>
            <path id="Trazado_806574" data-name="Trazado 806574" d="M233.081,393.579c-.1,0-.185-20.386-.185-45.529s.082-45.534.185-45.534.185,20.382.185,45.534-.082,45.529-.185,45.529" transform="translate(-67.412 -87.563)" fill="#263238"/>
            <path id="Trazado_806575" data-name="Trazado 806575" d="M314.845,417c-.1,0-.185-5.029-.185-11.231s.082-11.232.185-11.232.185,5.028.185,11.232S314.947,417,314.845,417" transform="translate(-91.078 -114.198)" fill="#263238"/>
            <path id="Trazado_806576" data-name="Trazado 806576" d="M325.615,439.607c-.1,0-.185-10.168-.185-22.708s.082-22.711.185-22.711.185,10.166.185,22.711-.082,22.708-.185,22.708" transform="translate(-94.196 -114.098)" fill="#263238"/>
          </g>
        </g>
        <g id="Grupo_1067356" data-name="Grupo 1067356">
          <g id="Grupo_1067355" data-name="Grupo 1067355" clip-path="url(#clip-path)">
            <path id="Trazado_806577" data-name="Trazado 806577" d="M177.529,78.513,174.2,75.051a15.351,15.351,0,1,0-1.747,5.214l0,.009Z" transform="translate(-41.594 -16.659)" fill="#fff"/>
            <path id="Trazado_806578" data-name="Trazado 806578" d="M177.486,78.478s-.119.036-.34.11l-.981.328-3.776,1.276.062.057,0-.009a.048.048,0,0,0-.034-.058.05.05,0,0,0-.054.024,15.322,15.322,0,0,1-5.177,5.494,14.977,14.977,0,0,1-2.087,1.108,17.2,17.2,0,0,1-2.4.8,15.218,15.218,0,0,1-14.418-25.567,15.5,15.5,0,0,1,5.973-3.656,14.984,14.984,0,0,1,6.565-.638,15.274,15.274,0,0,1,10.015,5.542l.4.515a4.133,4.133,0,0,1,.373.524l.669,1.062a21.057,21.057,0,0,1,1,2.157,15.266,15.266,0,0,1,.824,7.462.047.047,0,0,0,.013.038l2.488,2.545.649.66c.147.149.227.226.227.226s-.065-.074-.2-.222l-.625-.664-2.471-2.608.012.038a15.265,15.265,0,0,0-.782-7.525,21.291,21.291,0,0,0-1-2.182l-.671-1.076a4.167,4.167,0,0,0-.374-.531l-.4-.522a15.429,15.429,0,0,0-10.118-5.634,15.177,15.177,0,0,0-6.654.636,15.686,15.686,0,0,0-6.059,3.7,15.325,15.325,0,0,0-3.865,6.349,7.006,7.006,0,0,0-.249.9l-.212.906-.126.917a6.311,6.311,0,0,0-.089.916l-.036.917c-.021.3.025.608.034.911s.024.606.064.905.094.595.142.891a15.19,15.19,0,0,0,2.712,6.408,15.38,15.38,0,0,0,16.233,5.858,17.347,17.347,0,0,0,2.419-.817,15.126,15.126,0,0,0,2.1-1.128,15.328,15.328,0,0,0,5.183-5.57l-.088-.034,0,.008a.048.048,0,0,0,.034.058.052.052,0,0,0,.028,0l3.789-1.344.96-.344c.214-.077.316-.117.316-.117" transform="translate(-41.552 -16.624)" fill="#263238"/>
            <path id="Trazado_806579" data-name="Trazado 806579" d="M167.075,74.132l-4.346-5.59-4.574,5.44,2.372.04-.091,7.479h4.215l.125-7.407,2.3.038" transform="translate(-45.778 -19.839)" fill="#632059"/>
          </g>
        </g>
        <g id="Grupo_1067364" data-name="Grupo 1067364">
          <g id="Grupo_1067363" data-name="Grupo 1067363" clip-path="url(#clip-path)">
            <path id="Trazado_806580" data-name="Trazado 806580" d="M326.168,258.6c.318-8.088,2.843-16.03,4.062-24.07s1.035-16.508-3.73-23.782L313.628,205.4c-8.035,3.372-10.193,10.06-12.145,16.245-2.656,8.414-6.233,13.553-9.182,19.336-.946,1.855-3.685,5.936-5.387,8.456a101.424,101.424,0,0,0-10.971,21.594c-3.622,9.46-5.18,24.209-4.258,34.4a10.983,10.983,0,0,0,1.894,5.949c1.3,1.607,3.734,2.3,5.279.978.979-.841,1.369-2.23,2.029-3.379a3.034,3.034,0,0,1,2.5-1.714,4.616,4.616,0,0,0,1.21.66c2.752.993,5.9-.784,7.523-2.712s2.818-4.268,5.527-5.327c3-1.173,6.687-.294,9.705.853s6.073,2.592,9.462,2.52c3.655-.078,6.752-1.894,9.813-3.381s6.941-2.737,10.272-1.614c-5.6-12.9-11.266-26.117-10.734-39.67" transform="translate(-78.564 -59.453)" fill="#dbf9bd"/>
            <g id="Grupo_1067359" data-name="Grupo 1067359" transform="translate(204.571 148.008)" opacity="0.3">
              <g id="Grupo_1067358" data-name="Grupo 1067358">
                <g id="Grupo_1067357" data-name="Grupo 1067357" clip-path="url(#clip-path-7)">
                  <path id="Trazado_806581" data-name="Trazado 806581" d="M329.879,258.57c.31-8.087,2.771-16.03,3.961-24.07s.79-16.159-3.855-23.433l-6.6-2.765c-12.963,10.125-11.525,26.1-16.195,35.488-4.988,10.033-14.62,20.6-17.124,31.161s-4.177,24.5,2.867,33.784a10.109,10.109,0,0,0,4.193-2.96c1.585-1.927,2.631-4.018,5.292-5.046a11.913,11.913,0,0,1,7.986.26c.01,0,0-.008.01,0,3.8,1.45,3.985,1.551,7.029,2.532,1.763.568,4.711.992,6.848.026a37.54,37.54,0,0,0,6.286-2.515c2.985-1.487,7.846-3.043,11.092-1.92-5.46-12.9-12.31-26.985-11.792-40.538" transform="translate(-287.905 -208.301)"/>
                </g>
              </g>
            </g>
            <path id="Trazado_806582" data-name="Trazado 806582" d="M306.318,260.984a.607.607,0,0,1-.058.162c-.055.124-.122.275-.2.46-.179.406-.46,1-.853,1.74a69.233,69.233,0,0,1-3.669,6.107c-1.647,2.517-3.736,5.426-5.836,8.79a54.385,54.385,0,0,0-3,5.438c-.494.958-.883,1.985-1.341,3-.379,1.046-.824,2.086-1.154,3.18a47.173,47.173,0,0,0-2.372,12.619,43.117,43.117,0,0,0,.774,10.462c.166.73.283,1.435.468,2.085s.355,1.261.516,1.835c.353,1.136.721,2.1.993,2.888l.748,1.782c.075.188.136.342.186.468a.087.087,0,1,1-.034.016l-.22-.453-.814-1.759c-.295-.787-.683-1.744-1.057-2.88l-.546-1.838c-.195-.651-.32-1.359-.5-2.092a42.347,42.347,0,0,1-.858-10.53,46.726,46.726,0,0,1,2.36-12.719c.333-1.1.782-2.149,1.165-3.2.462-1.02.855-2.055,1.356-3.018a53.331,53.331,0,0,1,3.038-5.461c2.125-3.368,4.236-6.261,5.908-8.755,1.69-2.482,2.945-4.562,3.76-6.03.411-.733.712-1.31.912-1.7l.238-.444a.613.613,0,0,1,.092-.146" transform="translate(-83.202 -75.542)" fill="#263238"/>
            <path id="Trazado_806583" data-name="Trazado 806583" d="M311.073,291.007a5.616,5.616,0,0,1-.308.992c-.226.627-.531,1.542-.882,2.679a54.989,54.989,0,0,0-2.417,18.345c.044,1.189.1,2.152.157,2.816a5.666,5.666,0,0,1,.041,1.038,5.565,5.565,0,0,1-.184-1.023c-.1-.661-.2-1.624-.276-2.818a48.641,48.641,0,0,1,2.429-18.438c.384-1.133.728-2.038,1-2.651a5.605,5.605,0,0,1,.443-.94" transform="translate(-88.894 -84.232)" fill="#263238"/>
            <path id="Trazado_806584" data-name="Trazado 806584" d="M317.313,302.928a18.457,18.457,0,0,1-.225,2.1,34.272,34.272,0,0,0,.335,10.088,18.159,18.159,0,0,1,.364,2.077,8.938,8.938,0,0,1-.62-2.025,26.905,26.905,0,0,1-.337-10.175,8.9,8.9,0,0,1,.485-2.061" transform="translate(-91.61 -87.682)" fill="#263238"/>
            <path id="Trazado_806585" data-name="Trazado 806585" d="M322.29,170.991a2,2,0,0,1,1.459-1.807,2.729,2.729,0,0,1,3.09-1.362A2.473,2.473,0,0,1,329,166.768a2.5,2.5,0,0,1,2.019,1.326,2.091,2.091,0,0,1,2.387.085,2.116,2.116,0,0,1,.681,2.3,1.971,1.971,0,0,1,.863,3.823l-11.361-1.375a2.025,2.025,0,0,1-1.3-1.936" transform="translate(-93.286 -48.27)" fill="#263238"/>
            <path id="Trazado_806586" data-name="Trazado 806586" d="M334.851,175.823a8.329,8.329,0,0,0-10.749-3.489l-.391.18c-4.095,2.2-3.615,6.715-1.294,10.773l7.655,15.539,9.385,2.714.045-3.838-1.532-5.847s3.754-2.51,1.917-6.6c-.887-1.977-3.044-5.9-5.036-9.428" transform="translate(-92.812 -49.659)" fill="#ffc09d"/>
            <path id="Trazado_806587" data-name="Trazado 806587" d="M342.617,200.089a10.772,10.772,0,0,1-6.025.9s2.461,2.64,6.33.4Z" transform="translate(-97.426 -57.916)" fill="#ff9b6c"/>
            <path id="Trazado_806588" data-name="Trazado 806588" d="M340.783,183.184a.639.639,0,0,1-.286.845.611.611,0,0,1-.838-.248.639.639,0,0,1,.285-.845.611.611,0,0,1,.839.248" transform="translate(-98.295 -52.929)" fill="#263238"/>
            <path id="Trazado_806589" data-name="Trazado 806589" d="M339.971,181.087c-.036.109-.625-.014-1.246.276s-.932.814-1.035.769c-.049-.019-.04-.19.092-.427a1.74,1.74,0,0,1,.785-.709,1.673,1.673,0,0,1,1.036-.126c.259.059.388.166.368.217" transform="translate(-97.736 -52.343)" fill="#263238"/>
            <path id="Trazado_806590" data-name="Trazado 806590" d="M333.3,186.888a.64.64,0,0,1-.285.845.611.611,0,0,1-.839-.248.64.64,0,0,1,.285-.845.611.611,0,0,1,.839.248" transform="translate(-96.129 -54.001)" fill="#263238"/>
            <path id="Trazado_806591" data-name="Trazado 806591" d="M331.542,184.846c-.037.109-.626-.013-1.246.276s-.932.814-1.035.769c-.048-.018-.04-.189.092-.427a1.746,1.746,0,0,1,.784-.709,1.675,1.675,0,0,1,1.037-.125c.259.059.387.166.368.216" transform="translate(-95.296 -53.431)" fill="#263238"/>
            <path id="Trazado_806592" data-name="Trazado 806592" d="M337.288,188.066a4.523,4.523,0,0,1,.925-.652c.151-.09.286-.192.263-.313s-.163-.274-.325-.424l-1.034-1a23.049,23.049,0,0,1-2.53-2.692,23.085,23.085,0,0,1,2.738,2.483l1.018,1.015a1.024,1.024,0,0,1,.373.589.442.442,0,0,1-.153.355,1.205,1.205,0,0,1-.252.163,4.476,4.476,0,0,1-1.023.476" transform="translate(-96.846 -52.965)" fill="#263238"/>
            <path id="Trazado_806593" data-name="Trazado 806593" d="M336.085,191.938c.1-.053.414.625,1.216.839s1.485-.193,1.534-.1c.029.038-.1.206-.4.355a1.847,1.847,0,0,1-1.263.123,1.624,1.624,0,0,1-.976-.724c-.158-.272-.161-.475-.112-.492" transform="translate(-97.272 -55.556)" fill="#263238"/>
            <path id="Trazado_806594" data-name="Trazado 806594" d="M330.291,182.333c0,.2-.6.3-1.248.612s-1.124.7-1.266.57c-.065-.064-.025-.262.139-.507a2.137,2.137,0,0,1,.847-.7,2.045,2.045,0,0,1,1.069-.2c.285.033.456.132.459.225" transform="translate(-94.866 -52.708)" fill="#263238"/>
            <path id="Trazado_806595" data-name="Trazado 806595" d="M338.731,178.762c-.028.2-.518.288-1.016.561-.507.257-.86.61-1.037.523-.081-.045-.093-.22.017-.453a1.673,1.673,0,0,1,1.653-.873c.254.042.391.15.382.242" transform="translate(-97.433 -51.668)" fill="#263238"/>
            <path id="Trazado_806596" data-name="Trazado 806596" d="M332.858,173.82s-2.249-2.054-3.747-2.083c-1.813-.034-1.693,1.9-3.286,2.152s-3.326.221-4.258,1.985c-1.021,1.931.108,2.43.848,4.282,3,7.5,2.63,10.192.654,6.919-.217-.359-1.4-.176-2.293-1.7a19.948,19.948,0,0,1-2.627-6.136,6.387,6.387,0,0,1,.94-4.125c1.3-2.41,4.011-3.708,5.951-4.38s6.508-.183,7.819,3.087" transform="translate(-92.073 -49.343)" fill="#263238"/>
            <path id="Trazado_806597" data-name="Trazado 806597" d="M325.039,192.906a1.213,1.213,0,0,0-1.68-.514c-.721.422-1.361,1.242-.584,2.787a2.294,2.294,0,0,0,3.8.718c-.024-.055-.945-1.849-1.532-2.991" transform="translate(-93.325 -55.642)" fill="#ffc09d"/>
            <path id="Trazado_806598" data-name="Trazado 806598" d="M325.913,195.561c-.017,0-.031.058-.092.135a.53.53,0,0,1-.352.185,1.32,1.32,0,0,1-1.076-.787,1.741,1.741,0,0,1-.211-.75.612.612,0,0,1,.172-.546.27.27,0,0,1,.346-.011c.076.058.085.122.1.119s.036-.075-.044-.178a.337.337,0,0,0-.193-.117.4.4,0,0,0-.3.062.749.749,0,0,0-.282.675,1.814,1.814,0,0,0,.219.847,1.388,1.388,0,0,0,1.288.835.568.568,0,0,0,.4-.291c.05-.11.034-.179.022-.179" transform="translate(-93.777 -56.039)" fill="#ff9b6c"/>
            <path id="Trazado_806599" data-name="Trazado 806599" d="M320.256,181.244a2.884,2.884,0,0,0,1.424,0,1,1,0,0,0,.706-1.1c-.058-.209-.209-.411-.151-.62.068-.249.373-.322.616-.405a1.948,1.948,0,0,0,1.243-2.123.814.814,0,0,0,1.038-.367,4.42,4.42,0,0,0,.377-1.16,1.251,1.251,0,0,1,.728-.918,3.022,3.022,0,0,0,.664-.146c.348-.2.328-.711.214-1.1a1.46,1.46,0,0,1-.05-1.172c.2-.315.619-.38.976-.486s.752-.384.686-.753a.735.735,0,0,0-.358-.448,1.968,1.968,0,0,0-2.431.3,2.671,2.671,0,0,0-4.682,1.6,2.71,2.71,0,0,0-3.521,2.731,2.012,2.012,0,0,0-1.571,1.5,2.039,2.039,0,0,0,.769,2.045,1.884,1.884,0,0,0-.3,1.792,1.073,1.073,0,0,0,1.563.488,1.14,1.14,0,0,0,1,1.126,1.128,1.128,0,0,0,1.175-.927" transform="translate(-91.5 -49.159)" fill="#263238"/>
            <path id="Trazado_806600" data-name="Trazado 806600" d="M318.746,184.932c-.013,0,.058.257.421.455a.975.975,0,0,0,.708.075,1.049,1.049,0,0,0,.681-.6l-.125.037a3.062,3.062,0,0,0,.874.438,1.758,1.758,0,0,0,.65.082,1.349,1.349,0,0,0,1.166-1.037,1.782,1.782,0,0,0-.045-.683.623.623,0,0,0-.082-.234c-.013,0,0,.09.015.247a2.036,2.036,0,0,1-.01.647,1.238,1.238,0,0,1-1.644.81,3.077,3.077,0,0,1-.828-.406l-.087-.06-.039.1a.92.92,0,0,1-.568.523.894.894,0,0,1-.624-.033,1.489,1.489,0,0,1-.464-.36" transform="translate(-92.261 -53.105)" fill="#455a64"/>
            <path id="Trazado_806601" data-name="Trazado 806601" d="M321.957,172.058c0,.011.081-.014.229-.018a1.05,1.05,0,0,1,.6.168l.058.038.014-.069a3.806,3.806,0,0,1,.833-1.71,2.939,2.939,0,0,1,.978-.745,2.464,2.464,0,0,1,1.328-.207,2.523,2.523,0,0,1,1.005.342,2.085,2.085,0,0,1,.694.7l.05.084.073-.062a1.7,1.7,0,0,1,1.214-.393,1.679,1.679,0,0,1,.944.387,2.3,2.3,0,0,1,.554.745.613.613,0,0,0-.072-.243,1.715,1.715,0,0,0-.418-.576,1.742,1.742,0,0,0-1-.448,1.82,1.82,0,0,0-1.331.4l.122.021a2.217,2.217,0,0,0-.743-.764,2.653,2.653,0,0,0-1.076-.37,2.607,2.607,0,0,0-1.42.227,3.049,3.049,0,0,0-1.022.8,3.707,3.707,0,0,0-.809,1.793l.072-.031a1.029,1.029,0,0,0-.654-.138.452.452,0,0,0-.225.069" transform="translate(-93.19 -49.01)" fill="#455a64"/>
            <path id="Trazado_806602" data-name="Trazado 806602" d="M332.913,352.954l-1.516,7.619.017,1.763s4.869,9.43,3.752,10.785L321.1,359.847l2.112-2.272L324.574,350Z" transform="translate(-92.942 -101.307)" fill="#455a64"/>
            <path id="Trazado_806603" data-name="Trazado 806603" d="M321.1,363.432l1.057-1.047L335.248,375.5s.383.85-.082,1.2Z" transform="translate(-92.942 -104.892)" fill="#263238"/>
            <path id="Trazado_806604" data-name="Trazado 806604" d="M335.218,367.287c-.063.063-.435-.232-.97-.34s-.973,0-1.012-.09.417-.366,1.064-.222.989.608.918.653" transform="translate(-96.454 -106.111)" fill="#263238"/>
            <path id="Trazado_806605" data-name="Trazado 806605" d="M336.584,370.2c-.043.078-.446-.092-.938-.036s-.834.284-.9.217c-.074-.051.237-.478.852-.536s1.043.291.986.355" transform="translate(-96.889 -107.048)" fill="#263238"/>
            <path id="Trazado_806606" data-name="Trazado 806606" d="M336.292,373.515c-.075-.045.135-.461.647-.652s.967-.03.945.052-.4.085-.818.249-.7.41-.774.352" transform="translate(-97.335 -107.899)" fill="#263238"/>
            <path id="Trazado_806607" data-name="Trazado 806607" d="M351.4,313.305l-6.951,5.966s4.074,9.445,2.9,10.68l-12.71-13.78,10.427-9.764Z" transform="translate(-96.863 -88.689)" fill="#455a64"/>
            <path id="Trazado_806608" data-name="Trazado 806608" d="M343.276,317.732a.722.722,0,0,0-.966.173.741.741,0,0,0,.213.976.761.761,0,0,0,1.022-.189.777.777,0,0,0-.333-1" transform="translate(-99.052 -91.935)" fill="#e0e0e0"/>
            <path id="Trazado_806609" data-name="Trazado 806609" d="M334.645,319.765l1.091-.941,11.778,13.564s.313.848-.16,1.158Z" transform="translate(-96.863 -92.284)" fill="#263238"/>
            <path id="Trazado_806610" data-name="Trazado 806610" d="M348.06,324.43c-.065.057-.405-.253-.915-.394s-.94-.07-.972-.155.428-.326,1.044-.144.915.654.843.694" transform="translate(-100.199 -93.687)" fill="#263238"/>
            <path id="Trazado_806611" data-name="Trazado 806611" d="M349.178,327.344c-.048.073-.424-.119-.9-.1s-.826.219-.885.149c-.069-.054.261-.445.859-.46s.99.352.93.409" transform="translate(-100.549 -94.631)" fill="#263238"/>
            <path id="Trazado_806612" data-name="Trazado 806612" d="M348.667,330.537c-.07-.048.162-.437.67-.587s.937.036.91.114-.393.055-.808.185-.7.35-.772.288" transform="translate(-100.918 -95.487)" fill="#263238"/>
            <path id="Trazado_806613" data-name="Trazado 806613" d="M350.266,322c-.084.026-.281-.365-.656-.722s-.762-.549-.74-.635.512-.011.949.416.528.927.448.941" transform="translate(-100.98 -92.802)" fill="#263238"/>
            <path id="Trazado_806614" data-name="Trazado 806614" d="M332.207,265.838s2.227,8.477,6.833,10.318,20.8,9.057,20.8,9.057l-20.323,9.3,4.214,9.449s27.971-10.538,31.176-12.651,4.154-8.735.3-12.139c-1.936-1.71-21.649-18.247-21.649-18.247l-1.88-5.345L334.7,253.531Z" transform="translate(-96.157 -73.384)" fill="#263238"/>
            <path id="Trazado_806615" data-name="Trazado 806615" d="M344.728,311.373a.953.953,0,0,1-.086-.162l-.23-.485-.861-1.874-3.116-6.894-.036-.078.08-.036,18.548-8.519,1.763-.806v.212c-3.659-1.682-7.133-3.256-10.29-4.663l-4.485-1.97c-1.4-.609-2.732-1.133-3.882-1.749a22.824,22.824,0,0,1-5-3.544,14.59,14.59,0,0,1-1.143-1.208c-.123-.145-.21-.261-.268-.339a.637.637,0,0,1-.081-.123.847.847,0,0,1,.1.109c.064.073.156.184.284.323.254.28.637.689,1.169,1.174a23.64,23.64,0,0,0,5.017,3.466c1.145.6,2.473,1.114,3.882,1.718s2.914,1.252,4.5,1.95c3.163,1.4,6.642,2.963,10.3,4.643l.232.107-.232.106-1.763.806L340.55,302l.043-.115,3.046,6.926.819,1.892.207.495a1.051,1.051,0,0,1,.063.173" transform="translate(-97.15 -80.796)" fill="#455a64"/>
            <path id="Trazado_806616" data-name="Trazado 806616" d="M377.017,296.795c0,.072-1.345.035-2.969.291s-2.895.689-2.918.622a2.785,2.785,0,0,1,.811-.352,12.787,12.787,0,0,1,4.2-.651,2.828,2.828,0,0,1,.88.09" transform="translate(-107.423 -85.881)" fill="#455a64"/>
            <path id="Trazado_806617" data-name="Trazado 806617" d="M353.784,266.33c-.121.854-9.972,30.693-12.628,34.423s-8.123,30.012-8.123,30.012-10.726-2.084-10.8-1.526,2.313-18.142,4.572-26.159,3.462-11.207,3.462-11.207l2.379-23.927s-2.866-5.523-2.559-8.59a21.942,21.942,0,0,1,1.893-6.314Z" transform="translate(-93.268 -73.243)" fill="#263238"/>
            <path id="Trazado_806618" data-name="Trazado 806618" d="M360.848,267.28a4.14,4.14,0,0,1,.1.89c.036.574.068,1.408.054,2.437a59.543,59.543,0,0,1-.659,8.014,60.8,60.8,0,0,1-1.678,7.865c-.287.989-.543,1.782-.746,2.321a4.144,4.144,0,0,1-.344.826,4.194,4.194,0,0,1,.207-.87c.161-.551.377-1.353.63-2.346a78.407,78.407,0,0,0,1.564-7.851,76.685,76.685,0,0,0,.765-7.966c.047-1.024.055-1.854.063-2.427a4.2,4.2,0,0,1,.045-.894" transform="translate(-103.498 -77.364)" fill="#455a64"/>
            <path id="Trazado_806619" data-name="Trazado 806619" d="M344.082,280.318a7.546,7.546,0,0,1,1.339,1.194,21,21,0,0,1,1.179,2.8s-.391.443-1.31-.713a11.578,11.578,0,0,1-1.218-1.754Z" transform="translate(-99.592 -81.138)" fill="#ffc09d"/>
            <path id="Trazado_806620" data-name="Trazado 806620" d="M342.5,283.568l-1.557-4.172-2.812-2.42-5.095,1.922,1.818,5.081a16.506,16.506,0,0,0,2.117,2.117c.517.264,1.1-.32,1.1-.32.621.446,1.581-.193,1.581-.193.76.406,1.329-.489,1.329-.489s.959.363,1.265.193a.679.679,0,0,0,.253-.352,1.915,1.915,0,0,0,0-1.368" transform="translate(-96.397 -80.17)" fill="#ffc09d"/>
            <path id="Trazado_806621" data-name="Trazado 806621" d="M338.976,288.064c.041-.036.248.139.462.388s.352.481.311.517-.248-.139-.462-.388-.352-.481-.311-.517" transform="translate(-98.114 -83.379)" fill="#ff9b6c"/>
            <path id="Trazado_806622" data-name="Trazado 806622" d="M340.788,287.244c.049-.027.274.29.569.663s.549.668.511.709-.362-.2-.666-.587-.461-.76-.414-.785" transform="translate(-98.638 -83.142)" fill="#ff9b6c"/>
            <path id="Trazado_806623" data-name="Trazado 806623" d="M342.963,286.594c.052-.021.218.278.442.629s.421.631.379.669-.313-.193-.546-.563-.325-.716-.275-.735" transform="translate(-99.267 -82.954)" fill="#ff9b6c"/>
            <path id="Trazado_806624" data-name="Trazado 806624" d="M344.8,282.241a14.523,14.523,0,0,1,1.211,3.156,14.527,14.527,0,0,1-1.211-3.156" transform="translate(-99.801 -81.694)" fill="#ff9b6c"/>
            <path id="Trazado_806625" data-name="Trazado 806625" d="M338.013,286.938c.022.013.013.085-.055.176a.619.619,0,0,1-.8.14c-.095-.062-.127-.126-.111-.146.033-.043.245.081.505.033s.418-.232.464-.2" transform="translate(-97.556 -83.053)" fill="#ff9b6c"/>
            <path id="Trazado_806626" data-name="Trazado 806626" d="M340.252,286.43c.021.015,0,.09-.082.179a.755.755,0,0,1-.411.215.764.764,0,0,1-.461-.056c-.109-.055-.154-.118-.14-.139.03-.047.269.06.566,0s.485-.234.529-.2" transform="translate(-98.168 -82.906)" fill="#ff9b6c"/>
            <path id="Trazado_806627" data-name="Trazado 806627" d="M344.079,284.36c.009-.03.162.066.114.289a.945.945,0,0,1-.5.544,1.15,1.15,0,0,1-.72.111c-.186-.035-.281-.108-.271-.13a2.291,2.291,0,0,0,.9-.156,1.065,1.065,0,0,0,.455-.411c.063-.134,0-.23.019-.247" transform="translate(-99.195 -82.306)" fill="#ff9b6c"/>
            <path id="Trazado_806628" data-name="Trazado 806628" d="M371.447,157.475s1.553-4.675,1.586-5.389a4.066,4.066,0,0,0-.848-2.642,1.372,1.372,0,0,0-1.63-.076,1.326,1.326,0,0,0-1.175-1.075.733.733,0,0,0-.906.826.86.86,0,0,0-.758-.809,1.281,1.281,0,0,0-.75.181s-1.03-.766-1.619-.18.874,8.718.874,8.718Z" transform="translate(-105.709 -42.865)" fill="#ffc09d"/>
            <path id="Trazado_806629" data-name="Trazado 806629" d="M365.486,156.237s-2.012-2.849-2.076-3.669a4.973,4.973,0,0,1,1.275-3.045c.524-.282,2.637-.959,2.637-.959s.953.749-.276,1.683l-1.427.98a3.474,3.474,0,0,1,2.613,3.045" transform="translate(-105.188 -43.002)" fill="#ffc09d"/>
            <path id="Trazado_806630" data-name="Trazado 806630" d="M368.191,154.219a6.2,6.2,0,0,0-.323-1.113,3.209,3.209,0,0,0-.8-1.04,3.983,3.983,0,0,0-1.509-.8l-.205-.057.173-.12,1.445-1.01a1.4,1.4,0,0,0,.529-.7.794.794,0,0,0-.288-.782l.107.019-1.128.377c-.3.1-.6.208-.885.318-.144.055-.286.11-.423.171a1.754,1.754,0,0,0-.193.094.752.752,0,0,0-.146.126,4.987,4.987,0,0,0-.791,1.48,5.624,5.624,0,0,0-.225.76,1.614,1.614,0,0,0-.031.708,6.522,6.522,0,0,0,.56,1.216c.406.725.772,1.295,1.019,1.69a4.87,4.87,0,0,1,.372.624,3.925,3.925,0,0,1-.448-.573c-.271-.382-.657-.937-1.086-1.659a6.349,6.349,0,0,1-.6-1.249,1.772,1.772,0,0,1,.017-.8,5.606,5.606,0,0,1,.222-.791,5.067,5.067,0,0,1,.826-1.564.949.949,0,0,1,.2-.168,1.9,1.9,0,0,1,.216-.107c.143-.064.287-.119.433-.176.292-.112.59-.217.892-.321l1.133-.377.06-.02.047.039a1.022,1.022,0,0,1,.365,1.02,1.609,1.609,0,0,1-.617.819l-1.466,1-.033-.178a4.052,4.052,0,0,1,1.57.867,3.2,3.2,0,0,1,.8,1.115,2.7,2.7,0,0,1,.153.484,1.841,1.841,0,0,1,.06.367,1.155,1.155,0,0,1,.007.308" transform="translate(-105.148 -42.949)" fill="#ff9b6c"/>
            <path id="Trazado_806631" data-name="Trazado 806631" d="M369.508,149.615a7.765,7.765,0,0,0-.018,2.709,1.369,1.369,0,0,0,.366.829.9.9,0,0,0,.828.158,1.464,1.464,0,0,0,.711-.495" transform="translate(-106.917 -43.306)" fill="#ffc09d"/>
            <path id="Trazado_806632" data-name="Trazado 806632" d="M371.352,152.817c.017,0-.117.32-.6.545a1.016,1.016,0,0,1-.913-.054,1.342,1.342,0,0,1-.512-.985,5.3,5.3,0,0,1,.137-2.708,15.417,15.417,0,0,0,.094,2.67,1.186,1.186,0,0,0,.4.842.876.876,0,0,0,.74.08,3.457,3.457,0,0,0,.656-.39" transform="translate(-106.874 -43.306)" fill="#ff9b6c"/>
            <path id="Trazado_806633" data-name="Trazado 806633" d="M367.034,152.137a1.864,1.864,0,0,0,.014.987,1.016,1.016,0,0,0,.769.892c.347.051.747-.443.9-.933" transform="translate(-106.22 -44.036)" fill="#ffc09d"/>
            <path id="Trazado_806634" data-name="Trazado 806634" d="M368.691,153.083c.026.006.009.224-.164.524a1.222,1.222,0,0,1-.428.45.549.549,0,0,1-.408.056.883.883,0,0,1-.37-.19,1.211,1.211,0,0,1-.386-.663,5.765,5.765,0,0,1-.07-.588c-.008-.357.118-.544.139-.534.039.009-.023.212.026.518.04.193.077.376.114.554a1.085,1.085,0,0,0,.328.535.705.705,0,0,0,.274.147.337.337,0,0,0,.254-.025,1.226,1.226,0,0,0,.39-.351c.192-.252.266-.444.3-.432" transform="translate(-106.189 -44.036)" fill="#ff9b6c"/>
            <path id="Trazado_806635" data-name="Trazado 806635" d="M372.6,149.941a4.582,4.582,0,0,0-.875,1.97,1.065,1.065,0,0,0,.243,1.055.954.954,0,0,0,1.1-.141,2.221,2.221,0,0,0,.862-1.539" transform="translate(-107.585 -43.4)" fill="#ffc09d"/>
            <path id="Trazado_806636" data-name="Trazado 806636" d="M373.884,151.286a1.411,1.411,0,0,1-.21.916,2.159,2.159,0,0,1-.69.78,1.327,1.327,0,0,1-.6.22.747.747,0,0,1-.665-.271,1.055,1.055,0,0,1-.191-.675,2.675,2.675,0,0,1,.1-.61,4.307,4.307,0,0,1,.368-.956,2.072,2.072,0,0,1,.561-.75c.031.023-.183.308-.412.822a5.057,5.057,0,0,0-.307.933,2.633,2.633,0,0,0-.075.562.85.85,0,0,0,.145.528c.229.3.684.2.968.014a2.169,2.169,0,0,0,.662-.681,5.242,5.242,0,0,0,.353-.833" transform="translate(-107.538 -43.4)" fill="#ff9b6c"/>
            <path id="Trazado_806637" data-name="Trazado 806637" d="M345.5,192.391a32.285,32.285,0,0,1,1.9-4.493c.66-.951,9.607-8.27,9.893-10.475.32-2.466,3.178-17.021,3.143-16.758-.029.22,6.733-.586,6.733-.586s-.581,16.548-.792,19.468c-.337,4.647-9.619,14.217-10.815,17.143-1,2.441-.271,9.686-.271,9.686Z" transform="translate(-100.005 -46.335)" fill="#e0e0e0"/>
            <path id="Trazado_806638" data-name="Trazado 806638" d="M350.565,209.269l-.779-1.219-7.15-3.44a33.015,33.015,0,0,0-4.216-1.4,31.377,31.377,0,0,0-5.293-.854l-2.813.194.36,1.971,7.1,3.643-5.665,22.964.571,12.563,20.146,1.761s1.6-.6,1.6-3.89Z" transform="translate(-95.609 -58.571)" fill="#e0e0e0"/>
            <path id="Trazado_806639" data-name="Trazado 806639" d="M337.239,217.08c-1.162,2.861-8.659,19.888-8.659,19.888s7.093,19.847,6.769,20.075-7.646,2.475-7.646,2.475-9.271-20.342-9.389-23.037,4.908-20.737,5.023-21.115.477-2.979,4.1-5.625c4.243-3.1,7.129-1.626,8.851.382,1.482,1.728,1.419,5.361,1.121,6.452a4.63,4.63,0,0,1-.171.5" transform="translate(-92.136 -60.193)" fill="#e0e0e0"/>
            <path id="Trazado_806640" data-name="Trazado 806640" d="M357.826,206.756a12.332,12.332,0,0,1,.983,3.972,25.558,25.558,0,0,1,.262,4.075,20.294,20.294,0,0,1-.63-4.031c-.255-2.222-.728-3.985-.615-4.016" transform="translate(-103.568 -59.845)" fill="#263238"/>
            <path id="Trazado_806641" data-name="Trazado 806641" d="M331.531,264.219a2.968,2.968,0,0,1,.519-.21l1.512-.528,5.571-1.868-.088.176c-1.346-3.941-3.129-9.158-5.082-14.873l-1.746-5.176-.021-.059.021-.06c1.745-4.94,3.024-9.336,3.983-12.45l1.11-3.663.308-.979a.179.179,0,1,1,.062.017c-.065.261-.148.59-.25,1-.225.866-.566,2.124-1.008,3.693-.9,3.136-2.132,7.541-3.865,12.508v-.119l1.755,5.174,4.993,14.9.045.134-.134.042-5.609,1.751-1.535.458a2.968,2.968,0,0,1-.544.134" transform="translate(-95.962 -64.893)" fill="#263238"/>
            <path id="Trazado_806642" data-name="Trazado 806642" d="M359.975,248.852a1.332,1.332,0,0,1-.045-.357c-.015-.277-.033-.615-.056-1.025-.04-.89-.1-2.176-.192-3.765-.181-3.177-.526-7.561-1.2-12.367s-1.55-9.118-2.264-12.217c-.364-1.548-.667-2.8-.888-3.662l-.24-1a.181.181,0,1,1,.072-.021c.082.264.184.588.307.979.265.851.607,2.1,1,3.639a114.673,114.673,0,0,1,2.377,12.227,123.245,123.245,0,0,1,1.094,12.406c.061,1.593.079,2.883.075,3.774-.006.411-.01.75-.014,1.027a1.315,1.315,0,0,1-.03.358" transform="translate(-102.763 -61.973)" fill="#263238"/>
            <path id="Trazado_806643" data-name="Trazado 806643" d="M329.578,204.644l11.239.15-.243-.929s3.435.05,2.942,2.436c-.29,1.4-13.685,1.841-16.287,4.857a12.212,12.212,0,0,1,2.349-6.514" transform="translate(-94.716 -59.009)" fill="#dbf9bd"/>
            <path id="Trazado_806644" data-name="Trazado 806644" d="M349.58,205.829a1.425,1.425,0,0,0-1.33-1.262,1.647,1.647,0,0,0-1.621.839,1.606,1.606,0,0,0,.24,1.8,1.568,1.568,0,0,0,1.784.325,1.758,1.758,0,0,0,.927-1.706" transform="translate(-100.281 -59.209)" fill="#dbf9bd"/>
            <path id="Trazado_806645" data-name="Trazado 806645" d="M348.674,207.426c0-.012.075-.025.22-.038a3.849,3.849,0,0,1,.64.018,6.39,6.39,0,0,1,2.249.708c.222.115.452.244.685.389a1.874,1.874,0,0,1,.666.61.837.837,0,0,1-.083,1.02,1.139,1.139,0,0,1-1.027.309,8.735,8.735,0,0,1-3.6-2.431l.3-.207c.073.164.151.341.229.519a6.691,6.691,0,0,1,.634,2.289,3.076,3.076,0,0,1-.637,2.151,1.1,1.1,0,0,1-1.036.441.725.725,0,0,1-.489-.344,1.294,1.294,0,0,1-.151-.508,8.771,8.771,0,0,1,.025-1.734,8.614,8.614,0,0,1,.64-2.407,2.934,2.934,0,0,1,.441-.8,12.276,12.276,0,0,0-.82,3.231,8.94,8.94,0,0,0,.018,1.671c.033.288.147.536.4.571a.774.774,0,0,0,.713-.342,2.761,2.761,0,0,0,.534-1.911,6.475,6.475,0,0,0-.61-2.162c-.077-.176-.154-.351-.227-.513l-.4-.891.693.684a15.337,15.337,0,0,0,1.651,1.447,5.3,5.3,0,0,0,1.745.916.817.817,0,0,0,.743-.2.525.525,0,0,0,.053-.652,1.623,1.623,0,0,0-.556-.523q-.333-.22-.653-.4a7.34,7.34,0,0,0-2.989-.914" transform="translate(-100.508 -59.935)" fill="#dbf9bd"/>
            <path id="Trazado_806646" data-name="Trazado 806646" d="M347.413,207.453c-.011.041-.312,0-.652-.32a1.674,1.674,0,0,1,.946-2.833c.466-.056.729.1.713.135-.011.057-.278.01-.66.121a1.523,1.523,0,0,0-.8,2.4c.239.318.48.441.455.493" transform="translate(-100.229 -59.131)" fill="#263238"/>
            <path id="Trazado_806647" data-name="Trazado 806647" d="M342.389,207.911c0,.107-1.954.09-4.349.226s-4.331.364-4.347.257a24.774,24.774,0,0,1,8.7-.483" transform="translate(-96.587 -60.124)" fill="#263238"/>
            <path id="Trazado_806648" data-name="Trazado 806648" d="M343.121,206.938a15.611,15.611,0,0,1-4.761-.594,15.667,15.667,0,0,1,4.761.594" transform="translate(-97.938 -59.711)" fill="#263238"/>
            <g id="Grupo_1067362" data-name="Grupo 1067362" transform="translate(236.522 161.332)" opacity="0.3">
              <g id="Grupo_1067361" data-name="Grupo 1067361">
                <g id="Grupo_1067360" data-name="Grupo 1067360" clip-path="url(#clip-path-8)">
                  <path id="Trazado_806649" data-name="Trazado 806649" d="M334.757,241.685a16.56,16.56,0,0,1,.806-3.137,43.336,43.336,0,0,0,1.96-11.5c-1.312,4.359-2.625,8.718-4.129,13.015a6.78,6.78,0,0,0-.522,2.533l2.8,8.463h.166c.389-3.139-1.422-6.234-1.081-9.379" transform="translate(-332.872 -227.052)"/>
                </g>
              </g>
            </g>
          </g>
        </g>
        <g id="Grupo_1067381" data-name="Grupo 1067381">
          <g id="Grupo_1067380" data-name="Grupo 1067380" clip-path="url(#clip-path)">
            <path id="Trazado_806650" data-name="Trazado 806650" d="M250,52.02s.15-5.051-.028-5.761-.964-2.131-1.61-2.347a1.406,1.406,0,0,0-1.624.406,1.36,1.36,0,0,0-1.472-.711.753.753,0,0,0-.647,1.078.882.882,0,0,0-.983-.572,1.314,1.314,0,0,0-.684.4s-1.238-.449-1.644.3,3.423,8.309,3.423,8.309Z" transform="translate(-69.837 -12.613)" fill="#ae7461"/>
            <path id="Trazado_806651" data-name="Trazado 806651" d="M244.128,52.519s-2.815-2.208-3.12-2.994a5.1,5.1,0,0,1,.357-3.368c.432-.431,2.309-1.718,2.309-1.718s1.157.455.225,1.735l-1.114,1.382a3.563,3.563,0,0,1,3.463,2.224" transform="translate(-69.72 -12.863)" fill="#ae7461"/>
            <path id="Trazado_806652" data-name="Trazado 806652" d="M246.2,49.725a6.3,6.3,0,0,0-.645-1,3.3,3.3,0,0,0-1.095-.786,4.083,4.083,0,0,0-1.717-.338l-.218,0,.134-.168,1.123-1.418a1.44,1.44,0,0,0,.314-.841.817.817,0,0,0-.513-.685l.111-.012-1,.7c-.264.19-.525.38-.776.572-.125.1-.249.193-.366.292a1.755,1.755,0,0,0-.162.15.721.721,0,0,0-.106.166,5.11,5.11,0,0,0-.342,1.688,5.713,5.713,0,0,0,0,.811,1.667,1.667,0,0,0,.178.706,6.712,6.712,0,0,0,.908,1.03c.613.593,1.139,1.045,1.5,1.361a5.21,5.21,0,0,1,.549.5,3.912,3.912,0,0,1-.609-.431c-.378-.295-.922-.728-1.555-1.31a6.5,6.5,0,0,1-.961-1.049,1.827,1.827,0,0,1-.218-.79,5.822,5.822,0,0,1-.014-.843,5.2,5.2,0,0,1,.352-1.779.974.974,0,0,1,.144-.223,2.092,2.092,0,0,1,.181-.169c.122-.1.247-.2.374-.3.254-.2.516-.387.782-.578l1-.7.053-.038.058.025a1.048,1.048,0,0,1,.658.9,1.644,1.644,0,0,1-.365.985l-1.147,1.411-.085-.164a4.158,4.158,0,0,1,1.8.389,3.289,3.289,0,0,1,1.115.86,2.752,2.752,0,0,1,.292.431,1.89,1.89,0,0,1,.168.343,1.24,1.24,0,0,1,.1.3" transform="translate(-69.676 -12.808)" fill="#6f4439"/>
            <path id="Trazado_806653" data-name="Trazado 806653" d="M245.758,45.284a7.945,7.945,0,0,0,.779,2.667,1.4,1.4,0,0,0,.6.706.925.925,0,0,0,.86-.087,1.507,1.507,0,0,0,.552-.7" transform="translate(-71.135 -13.107)" fill="#ae7461"/>
            <path id="Trazado_806654" data-name="Trazado 806654" d="M248.545,47.875a1.054,1.054,0,0,1-.428.712,1.043,1.043,0,0,1-.913.215,1.376,1.376,0,0,1-.793-.817,5.419,5.419,0,0,1-.661-2.7,15.864,15.864,0,0,0,.877,2.595,1.219,1.219,0,0,0,.639.711.9.9,0,0,0,.75-.139c.382-.28.492-.6.53-.576" transform="translate(-71.126 -13.107)" fill="#6f4439"/>
            <path id="Trazado_806655" data-name="Trazado 806655" d="M244.044,48.5a1.91,1.91,0,0,0,.3.966,1.043,1.043,0,0,0,1.018.65c.356-.052.6-.655.614-1.183" transform="translate(-70.638 -14.037)" fill="#ae7461"/>
            <path id="Trazado_806656" data-name="Trazado 806656" d="M245.963,48.931c.028,0,.074.217-.007.563a1.249,1.249,0,0,1-.288.568.563.563,0,0,1-.384.175.907.907,0,0,1-.419-.078,1.244,1.244,0,0,1-.575-.537,5.645,5.645,0,0,1-.242-.558c-.114-.348-.045-.569-.021-.566.041,0,.04.216.178.5l.275.51a1.119,1.119,0,0,0,.48.429.724.724,0,0,0,.312.063.341.341,0,0,0,.242-.1,1.254,1.254,0,0,0,.28-.46c.115-.3.131-.514.169-.513" transform="translate(-70.621 -14.038)" fill="#6f4439"/>
            <path id="Trazado_806657" data-name="Trazado 806657" d="M249.076,44.6A4.681,4.681,0,0,0,248.8,46.8a1.09,1.09,0,0,0,.549.965.977.977,0,0,0,1.043-.463,2.28,2.28,0,0,0,.394-1.766" transform="translate(-72.006 -12.91)" fill="#ae7461"/>
            <path id="Trazado_806658" data-name="Trazado 806658" d="M250.74,45.531a1.454,1.454,0,0,1,.064.961,2.223,2.223,0,0,1-.449.969,1.353,1.353,0,0,1-.527.394.769.769,0,0,1-.734-.071,1.079,1.079,0,0,1-.386-.608,2.716,2.716,0,0,1-.086-.627,4.375,4.375,0,0,1,.08-1.047,2.111,2.111,0,0,1,.33-.9c.036.014-.09.356-.163.929a5.13,5.13,0,0,0-.028,1.007,2.751,2.751,0,0,0,.091.574.877.877,0,0,0,.3.477c.312.225.73-.008.956-.271a2.221,2.221,0,0,0,.45-.863,5.411,5.411,0,0,0,.1-.923" transform="translate(-71.962 -12.91)" fill="#6f4439"/>
            <path id="Trazado_806659" data-name="Trazado 806659" d="M236.342,91.883a31.208,31.208,0,0,1,2.01-4.353c.69-.926,3.855-10.527,3.738-12.674s-.264-19.7-.3-19.449c-.033.212,8.156-1.391,8.156-1.391s1.324,19.785,1.434,22.065c.2,4.131-3.055,13.959-4.823,19.778-.752,2.478-.431,9.323-.431,9.323Z" transform="translate(-68.409 -15.635)" fill="#263238"/>
            <path id="Trazado_806660" data-name="Trazado 806660" d="M247.818,113.656a7.986,7.986,0,0,1-.768-1.285c-.437-.814-1-1.963-1.546-3.264s-.97-2.508-1.244-3.391a7.919,7.919,0,0,1-.378-1.448,11.024,11.024,0,0,1,.539,1.394c.315.866.762,2.057,1.305,3.353s1.079,2.449,1.476,3.281a10.825,10.825,0,0,1,.617,1.361" transform="translate(-70.59 -30.18)" fill="#455a64"/>
            <path id="Trazado_806661" data-name="Trazado 806661" d="M220.207,85.983c-.4-6.64-1.469-13.983-10.9-14.1,0,0-7.1-.112-9.614,4.812-1.236,2.422-3.1,11.109-4.179,19.064-.68,2.7-1.539,5.42-3.449,7.412a18.094,18.094,0,0,1-3.948,2.848,17.148,17.148,0,0,0-3.926,2.876,5.885,5.885,0,0,0-1.739,4.41,3.691,3.691,0,0,0,2.634,3.234,4.049,4.049,0,0,0-.781,1.769,3.3,3.3,0,0,0,4.94,3.363c-.68,2.722,1.68,5.595,4.459,5.991a7.632,7.632,0,0,0,7.115-3.607,13.152,13.152,0,0,0,1.939-6.255,6.82,6.82,0,0,0,3.321-.338,21.28,21.28,0,0,0,13.64-12.067l1.779-.522s-1.046-14.764-1.292-18.893" transform="translate(-52.806 -20.807)" fill="#263238"/>
            <path id="Trazado_806662" data-name="Trazado 806662" d="M213.966,74.639l-.8-.141-3.033,4.42c-.738.551-1.034,2.868-.548,3.651l11.27,16.8c.771,1.175,1.177,2.409,2.5,2.872l1.4.488a4.691,4.691,0,0,0,6.255-4.749,2.25,2.25,0,0,0-.109-.571,4.241,4.241,0,0,0-.178-.438c-.765-1.494-1.555-2.7-1.555-2.7-.919-1.587-1.3-2.233-1.293-2.219s3-2.528,1.108-7.276a41.157,41.157,0,0,0-4.9-7.879c-2.748-3.769-7-4.325-10.115-2.249" transform="translate(-60.595 -21.259)" fill="#ae7461"/>
            <path id="Trazado_806663" data-name="Trazado 806663" d="M223.261,87.79a.649.649,0,0,1-.2.881.619.619,0,0,1-.871-.161.646.646,0,0,1,.2-.88.62.62,0,0,1,.873.16" transform="translate(-64.284 -25.332)" fill="#263238"/>
            <path id="Trazado_806664" data-name="Trazado 806664" d="M230.965,82.953a.648.648,0,0,1-.2.88.619.619,0,0,1-.871-.161.646.646,0,0,1,.2-.88.619.619,0,0,1,.873.161" transform="translate(-66.514 -23.932)" fill="#263238"/>
            <path id="Trazado_806665" data-name="Trazado 806665" d="M229.167,80.326c-.026.114-.633.052-1.231.409s-.858.918-.967.883c-.051-.014-.058-.186.05-.439a1.773,1.773,0,0,1,.721-.8,1.7,1.7,0,0,1,1.033-.235c.268.031.408.126.394.178" transform="translate(-65.686 -23.196)" fill="#263238"/>
            <path id="Trazado_806666" data-name="Trazado 806666" d="M221.236,85.773c-.027.114-.634.046-1.235.4s-.868.909-.976.873c-.051-.014-.058-.186.054-.438a1.775,1.775,0,0,1,.729-.789,1.705,1.705,0,0,1,1.035-.225c.267.035.407.13.392.183" transform="translate(-63.387 -24.771)" fill="#263238"/>
            <path id="Trazado_806667" data-name="Trazado 806667" d="M227.713,88.4a4.6,4.6,0,0,1,.868-.753c.144-.107.27-.223.234-.343s-.192-.259-.372-.392l-1.144-.9a23.475,23.475,0,0,1-2.825-2.441,23.223,23.223,0,0,1,3.016,2.208l1.129.914a1.031,1.031,0,0,1,.436.553.446.446,0,0,1-.119.373,1.212,1.212,0,0,1-.238.19,4.542,4.542,0,0,1-.985.587" transform="translate(-64.974 -24.19)" fill="#263238"/>
            <path id="Trazado_806668" data-name="Trazado 806668" d="M232.667,99.614a12.836,12.836,0,0,1-6.731,1.9s3.246,2.135,7.346-.851Z" transform="translate(-65.397 -28.833)" fill="#6f4439"/>
            <path id="Trazado_806669" data-name="Trazado 806669" d="M228.477,91.78a1.606,1.606,0,0,0-1.066.374l-.006,0a.987.987,0,0,0-.274,1.219,1.217,1.217,0,0,0,.567.636,1.676,1.676,0,0,0,1.36-.294,1.158,1.158,0,0,0,.371-1.066,1.1,1.1,0,0,0-.953-.873" transform="translate(-65.714 -26.565)" fill="#6f4439"/>
            <path id="Trazado_806670" data-name="Trazado 806670" d="M226.892,92.42c.094-.063.481.585,1.312.716s1.479-.352,1.538-.264c.033.036-.079.218-.367.4a1.887,1.887,0,0,1-1.263.257,1.64,1.64,0,0,1-1.058-.625c-.186-.257-.21-.461-.163-.484" transform="translate(-65.668 -26.75)" fill="#263238"/>
            <path id="Trazado_806671" data-name="Trazado 806671" d="M219.732,82.861c.017.2-.652.411-1.351.845s-1.206.913-1.376.8c-.078-.053-.049-.263.116-.541a2.768,2.768,0,0,1,2.077-1.257c.323-.016.522.055.534.149" transform="translate(-62.8 -23.94)" fill="#263238"/>
            <path id="Trazado_806672" data-name="Trazado 806672" d="M226.819,76.824c-.025.2-.521.3-1.021.59-.509.271-.861.636-1.042.551-.084-.044-.1-.22.009-.458a1.707,1.707,0,0,1,1.663-.919c.259.036.4.141.392.235" transform="translate(-65.036 -22.165)" fill="#263238"/>
            <path id="Trazado_806673" data-name="Trazado 806673" d="M213.485,90.348s3.581-1.047.4-9.487a12.11,12.11,0,0,1-.115-6.455l-1.13.342s-4.756,5.536-4.806,5.675.534,4.007.534,4.007Z" transform="translate(-60.155 -21.537)" fill="#263238"/>
            <path id="Trazado_806674" data-name="Trazado 806674" d="M215.808,94.881c-.193-.323-1.02-.863-1.369-.723-.931.374-2.426,1.355-1.154,3.527,1.738,2.969,4.361.612,4.317.523-.035-.069-1.129-2.213-1.794-3.328" transform="translate(-61.593 -27.248)" fill="#ae7461"/>
            <path id="Trazado_806675" data-name="Trazado 806675" d="M216.438,98.181c-.018,0-.031.067-.095.158a.6.6,0,0,1-.382.234,1.483,1.483,0,0,1-1.264-.8,1.979,1.979,0,0,1-.289-.826.691.691,0,0,1,.157-.625.305.305,0,0,1,.388-.038c.089.06.1.131.123.126s.035-.087-.061-.2a.378.378,0,0,0-.226-.118.454.454,0,0,0-.33.092.843.843,0,0,0-.271.777,2.038,2.038,0,0,0,.306.933,1.557,1.557,0,0,0,1.506.841.645.645,0,0,0,.427-.356c.049-.127.026-.2.012-.2" transform="translate(-61.995 -27.814)" fill="#6f4439"/>
            <path id="Trazado_806676" data-name="Trazado 806676" d="M219.265,102.517a.905.905,0,0,1-.124-.118l-.342-.359-1.289-1.383.063-.055.271.307-.011-.009.146.088-.054.075a33.533,33.533,0,0,1-6.132-6.861,16.379,16.379,0,0,1-1.887-3.455,6.193,6.193,0,0,1-.342-1.644,8.536,8.536,0,0,1,.06-1.628c.135-1.059.378-2.053.569-3.008.4-1.9.76-3.618,1.064-5.063s.556-2.594.731-3.411l.206-.925c.023-.1.043-.178.058-.24a.323.323,0,0,1,.025-.081.3.3,0,0,1-.009.084c-.011.064-.026.144-.043.244-.042.225-.1.536-.178.932-.163.819-.4,1.985-.682,3.421s-.643,3.164-1.032,5.07c-.187.956-.427,1.953-.559,3a6.769,6.769,0,0,0,.279,3.2,16.45,16.45,0,0,0,1.865,3.421,34.466,34.466,0,0,0,6.065,6.875l-.055.075-.143-.091-.007,0,0,0-.266-.311.062-.056,1.26,1.409.328.374a1.05,1.05,0,0,1,.106.133" transform="translate(-60.653 -21.635)" fill="#455a64"/>
            <path id="Trazado_806677" data-name="Trazado 806677" d="M221.651,166.419c.862-8.853,3.718-17.417,5.4-26.165s2.11-18.048-1.7-26.307l-17.59-7.23c-7.534,3.227-6.951,9.283-9.163,15.953-3.008,9.074-5.842,19.294-8.929,25.464-5.357,10.705-11.21,21.314-14.291,32.746s-3.167,24,2.734,34.613a5.967,5.967,0,0,0,2.307,2.6c2.429,1.251,5.409-.514,7.022-2.533s2.861-4.517,5.4-5.52c2.807-1.111,6.092.07,8.751,1.506s5.329,3.2,8.411,3.32c3.325.129,6.264-1.681,9.149-3.133s6.5-2.594,9.44-1.167c-4.17-14.482-8.376-29.31-6.931-44.146" transform="translate(-50.161 -30.889)" fill="#aec894"/>
            <g id="Grupo_1067367" data-name="Grupo 1067367" transform="translate(130.048 78.992)" opacity="0.3">
              <g id="Grupo_1067366" data-name="Grupo 1067366">
                <g id="Grupo_1067365" data-name="Grupo 1067365" clip-path="url(#clip-path-10)">
                  <path id="Trazado_806678" data-name="Trazado 806678" d="M223.567,166.693c.855-8.853,3.653-17.421,5.3-26.171s1.863-17.68-1.837-25.931l-5.8-3.421c-12.486,10.345-12.315,27.95-17.219,37.978-5.24,10.712-14.734,21.742-17.757,33.177s-5.529,26.626.207,37.228a9.411,9.411,0,0,0,4.017-3c1.576-2.021,2.674-4.253,5.162-5.224a9.093,9.093,0,0,1,7.232.754c.01,0,0-.009.01,0,3.35,1.813,3.507,1.936,6.2,3.19,1.56.727,4.206,1.365,6.215.431,2.089-.594,3.809-2.692,5.743-3.693,2.815-1.456,6.338-2.6,9.206-1.182-4.042-14.474-8.119-29.294-6.687-44.13" transform="translate(-183.025 -111.17)"/>
                </g>
              </g>
            </g>
            <g id="Grupo_1067370" data-name="Grupo 1067370" transform="translate(161.566 147.829)" opacity="0.3">
              <g id="Grupo_1067369" data-name="Grupo 1067369">
                <g id="Grupo_1067368" data-name="Grupo 1067368" clip-path="url(#clip-path-11)">
                  <path id="Trazado_806679" data-name="Trazado 806679" d="M237.875,208.048,234.9,218.442l-.328-.3-7.194,6.8V226.7l5.765,1.952a1.249,1.249,0,0,0,1.6-.851l2.085-7.565,2.044-8.4Z" transform="translate(-227.381 -208.048)"/>
                </g>
              </g>
            </g>
            <path id="Trazado_806680" data-name="Trazado 806680" d="M236.044,262.42l-.57,7.449.22,1.681s5.734,8.443,4.824,9.865l-14.959-11.054,1.755-2.412.428-7.388Z" transform="translate(-65.288 -75.419)" fill="#455a64"/>
            <path id="Trazado_806681" data-name="Trazado 806681" d="M225.558,273.9l.888-1.121,14.01,11.017s.464.767.061,1.157Z" transform="translate(-65.288 -78.955)" fill="#263238"/>
            <path id="Trazado_806682" data-name="Trazado 806682" d="M239.445,275.963c-.054.068-.443-.171-.965-.213s-.929.107-.977.03.357-.4.99-.335,1.015.466.952.518" transform="translate(-68.744 -79.725)" fill="#263238"/>
            <path id="Trazado_806683" data-name="Trazado 806683" d="M241.1,278.571c-.033.08-.436-.036-.9.074s-.764.367-.834.311c-.077-.04.171-.483.751-.609s1.03.157.983.225" transform="translate(-69.279 -80.557)" fill="#263238"/>
            <path id="Trazado_806684" data-name="Trazado 806684" d="M241.208,281.766c-.077-.034.076-.456.543-.7s.92-.14.908-.06-.372.128-.752.332-.622.472-.7.425" transform="translate(-69.812 -81.311)" fill="#263238"/>
            <path id="Trazado_806685" data-name="Trazado 806685" d="M250.609,164.68c-.018.885-6.385,32.479-8.631,36.6s-5.084,35.762-5.084,35.762l-10.031-.711s-.534-22.477.783-30.918,2.149-11.837,2.149-11.837l-.517-24.657s-2.654-7.132-2.716-10.293,2.01-6.757,2.01-6.757Z" transform="translate(-65.578 -43.96)" fill="#263238"/>
            <path id="Trazado_806686" data-name="Trazado 806686" d="M251.293,216.108l-7.221,3.5s1.342,8.911.074,9.695l-7.688-14.512,11.014-5.942Z" transform="translate(-68.442 -60.452)" fill="#455a64"/>
            <path id="Trazado_806687" data-name="Trazado 806687" d="M236.457,216.988l1.135-.553,6.948,14.121s.076.787-.394.944Z" transform="translate(-68.442 -62.647)" fill="#263238"/>
            <path id="Trazado_806688" data-name="Trazado 806688" d="M246.846,223.877c-.068.033-.286-.3-.687-.539s-.781-.269-.789-.349.436-.18.916.112.63.759.56.776" transform="translate(-71.022 -64.521)" fill="#263238"/>
            <path id="Trazado_806689" data-name="Trazado 806689" d="M247.119,226.62c-.056.051-.333-.2-.745-.285s-.748,0-.782-.071.321-.32.831-.2.76.519.7.554" transform="translate(-71.086 -65.425)" fill="#263238"/>
            <path id="Trazado_806690" data-name="Trazado 806690" d="M245.958,229.227c-.048-.057.234-.334.7-.347s.786.239.746.3-.345-.04-.726-.023-.674.139-.718.072" transform="translate(-71.191 -66.249)" fill="#263238"/>
            <path id="Trazado_806691" data-name="Trazado 806691" d="M249.271,222.276c-.077,0-.156-.372-.394-.758s-.523-.635-.485-.7.436.105.711.565.24.9.169.9" transform="translate(-71.896 -63.911)" fill="#263238"/>
            <path id="Trazado_806692" data-name="Trazado 806692" d="M254.566,136.191s4.272,14.445,4.149,20.536-2.632,1.357-2.632,1.357l-1.517-22.431" transform="translate(-73.684 -39.264)" fill="#263238"/>
            <path id="Trazado_806693" data-name="Trazado 806693" d="M227.689,167.995s3.309,8.359,8.225,9.668c2.7.721,10.115,2.186,15.768,3.058a53.694,53.694,0,0,1,9.445,2.613l-22.468,12.96,4.756,7.633s26.335-12.51,29.339-15.055,4.309-7.826.158-12.1c-1.846-1.9-24.08-16.407-24.08-16.407l-2.571-5.212-17.33,8.22Z" transform="translate(-65.905 -44.91)" fill="#263238"/>
            <path id="Trazado_806694" data-name="Trazado 806694" d="M279.813,192.916c.006.073-1.365.2-2.988.662s-2.863,1.057-2.9.991a2.861,2.861,0,0,1,.782-.458,13.117,13.117,0,0,1,4.194-1.178,2.881,2.881,0,0,1,.907-.017" transform="translate(-79.289 -55.833)" fill="#455a64"/>
            <g id="Grupo_1067373" data-name="Grupo 1067373" transform="translate(171.02 133.005)" opacity="0.3">
              <g id="Grupo_1067372" data-name="Grupo 1067372">
                <g id="Grupo_1067371" data-name="Grupo 1067371" clip-path="url(#clip-path-12)">
                  <path id="Trazado_806695" data-name="Trazado 806695" d="M240.686,187.186a13.445,13.445,0,0,0,6.259,3.018c3.367.433,4.526.628,4.526.628l.293-1.355Z" transform="translate(-240.686 -187.186)"/>
                </g>
              </g>
            </g>
            <path id="Trazado_806696" data-name="Trazado 806696" d="M233.292,182.6a17.077,17.077,0,0,0,2.232,1.668,22.159,22.159,0,0,0,6.331,2.231c2.579.573,4.958.919,6.668,1.238.856.157,1.548.289,2.022.4a3,3,0,0,1,.73.207,3.018,3.018,0,0,1-.755-.065L248.481,188c-1.718-.254-4.1-.558-6.707-1.135a20.107,20.107,0,0,1-6.386-2.369,7.377,7.377,0,0,1-.961-.694,5.048,5.048,0,0,1-.658-.605,2.973,2.973,0,0,1-.477-.592" transform="translate(-67.526 -52.854)" fill="#455a64"/>
            <path id="Trazado_806697" data-name="Trazado 806697" d="M256.361,162.2a13.968,13.968,0,0,1,3.931,2.261,13.967,13.967,0,0,1-3.931-2.261" transform="translate(-74.203 -46.946)" fill="#455a64"/>
            <g id="Grupo_1067376" data-name="Grupo 1067376" transform="translate(163.773 111.307)" opacity="0.3">
              <g id="Grupo_1067375" data-name="Grupo 1067375">
                <g id="Grupo_1067374" data-name="Grupo 1067374" clip-path="url(#clip-path-13)">
                  <path id="Trazado_806698" data-name="Trazado 806698" d="M230.508,174.765l19.065,2.3s.919-13.189.325-15.879a24.6,24.6,0,0,0-1.337-4.518c.031.248-18.076,17.083-18.076,17.083Z" transform="translate(-230.487 -156.649)"/>
                </g>
              </g>
            </g>
            <path id="Trazado_806699" data-name="Trazado 806699" d="M244.808,131.506c-.562-5.488,1.418-9.192-4.2-16.52l-7.215-6.892a19.326,19.326,0,0,0-5.1-2.423,12.757,12.757,0,0,0-4.763-.34l-3.019.408.615,2.266,11.657,5.646-.017,32.805,13.105-4.737Z" transform="translate(-63.827 -30.463)" fill="#e0e0e0"/>
            <path id="Trazado_806700" data-name="Trazado 806700" d="M220.165,108.935s5.763-2.422,12.047,3.648c3.374,3.259,6.394,8.939,7.29,10.5a47.169,47.169,0,0,1,3.925,12.452,73.494,73.494,0,0,1,1.786,12.99,49.42,49.42,0,0,1-1.106,13.226l-23.175-2.581,3.341-18.851s-2.7-6.278-2.881-6.784c-1.437-3.913-2-3-3.76-10.9a18.151,18.151,0,0,1-.159-7.184c.457-2.53,1.18-3.5,2.778-5.878Z" transform="translate(-62.865 -31.393)" fill="#263238"/>
            <path id="Trazado_806701" data-name="Trazado 806701" d="M241.6,126.392a1.17,1.17,0,0,1-.182-.193l-.49-.58-1.776-2.17-5.885-7.322-.032-.04.011-.05c.09-.437.186-.9.283-1.371l.074-.358.152.131-1.471.409-.075.021-.05-.058c-.593-.676-1.2-1.313-1.82-1.891a11.3,11.3,0,0,0-1.908-1.5,5.725,5.725,0,0,0-2.107-.59c-.693-.09-1.344-.138-1.936-.176-1.185-.066-2.141-.08-2.8-.09l-.757-.01a1.336,1.336,0,0,1-.263-.015,1.21,1.21,0,0,1,.262-.028c.173-.01.427-.021.757-.029.659-.016,1.616-.025,2.807.021.6.028,1.25.067,1.953.149a5.854,5.854,0,0,1,2.191.6,11.344,11.344,0,0,1,1.959,1.513,25.72,25.72,0,0,1,1.845,1.9l-.126-.038,1.469-.411.19-.053-.038.183-.074.357c-.1.47-.194.934-.285,1.371l-.021-.089,5.824,7.366L241,125.57l.455.6a1.163,1.163,0,0,1,.146.219" transform="translate(-63.843 -31.977)" fill="#455a64"/>
            <path id="Trazado_806702" data-name="Trazado 806702" d="M236.767,152.7a47.8,47.8,0,0,1-4.777.291,47.49,47.49,0,0,1-4.786.052,47.8,47.8,0,0,1,4.778-.291c2.64-.094,4.783-.118,4.786-.052" transform="translate(-65.764 -44.189)" fill="#455a64"/>
            <path id="Trazado_806703" data-name="Trazado 806703" d="M248.467,157.893a1.352,1.352,0,0,1,.1.352c.049.233.123.578.2,1.025a33.175,33.175,0,0,1,.333,3.828,75.5,75.5,0,0,1-.8,12.651l-.025.177-.18-.021-.125-.014c-4.939-.564-9.441-.842-12.689-1.166-1.625-.155-2.938-.3-3.843-.421-.453-.057-.8-.113-1.04-.151a1.4,1.4,0,0,1-.36-.079,1.376,1.376,0,0,1,.368,0l1.047.082,3.85.3c3.251.257,7.754.494,12.71,1.059l.126.014-.2.156a85.1,85.1,0,0,0,.908-12.588c-.008-1.616-.134-2.917-.214-3.816-.053-.414-.1-.754-.131-1.031a1.365,1.365,0,0,1-.023-.365" transform="translate(-66.582 -45.702)" fill="#455a64"/>
            <path id="Trazado_806704" data-name="Trazado 806704" d="M231.872,165.3a9.293,9.293,0,0,1-.261,1.077c-.2.722-.465,1.663-.782,2.8l-.115-.166c2.535.131,6.084.341,10.016.6l-.19.134c.01-.037.021-.077.033-.117l1.14-3.992.163.225c-2.872-.121-5.352-.249-7.131-.35l-2.094-.13a5.331,5.331,0,0,1-.779-.078,3.744,3.744,0,0,1,.715-.021l2.065.028c1.774.034,4.3.1,7.238.2l.225.008-.061.217c-.351,1.248-.73,2.6-1.125,4l-.033.118-.041.144-.149-.01c-3.931-.257-7.478-.509-10.008-.708l-.166-.013.05-.153c.377-1.147.688-2.1.927-2.824a6.94,6.94,0,0,1,.362-.978" transform="translate(-66.727 -47.84)" fill="#455a64"/>
            <path id="Trazado_806705" data-name="Trazado 806705" d="M197.758,179.769a2.909,2.909,0,0,1-.272.461l-.839,1.281c-.752,1.1-1.774,2.726-3.008,4.754-1.193,2.053-2.608,4.5-3.928,7.353a68.156,68.156,0,0,0-3.721,9.49,66.124,66.124,0,0,0-2.238,9.942c-.167,1.558-.387,3.035-.439,4.43l-.119,2.015q-.012.97-.022,1.862c-.038,1.187.027,2.26.055,3.2q.027.7.048,1.314.048.6.088,1.1c.045.635.081,1.142.109,1.527a2.916,2.916,0,0,1,.013.536,2.941,2.941,0,0,1-.087-.528l-.178-1.522q-.055-.5-.12-1.1-.037-.611-.079-1.316c-.048-.945-.133-2.021-.111-3.212q0-.9,0-1.871.048-.976.1-2.026c.039-1.4.249-2.888.407-4.457A64.191,64.191,0,0,1,185.635,203a65.961,65.961,0,0,1,3.767-9.528,81.324,81.324,0,0,1,4.012-7.341c1.267-2.017,2.324-3.627,3.113-4.7l.9-1.243a2.891,2.891,0,0,1,.333-.419" transform="translate(-52.942 -52.034)" fill="#263238"/>
            <path id="Trazado_806706" data-name="Trazado 806706" d="M213.711,199.912s4.107-9.285,6.7-9.639,5.938-.061,6.332,1.649a17.894,17.894,0,0,1,.2,6.571,38.354,38.354,0,0,1-1.7,5.864l-2.476-1.1s3.175-9.546,2.846-11.21-4.643-1.784-5.62-.215-4.361,8.929-4.361,8.929Z" transform="translate(-61.859 -55.036)" fill="#455a64"/>
            <path id="Trazado_806707" data-name="Trazado 806707" d="M195.011,211.767c1.382-3.93,4.544-12.555,5.937-16.348a2.049,2.049,0,0,1,2.557-1.242l23.548,7.645a2.051,2.051,0,0,1,1.337,2.516l-4.721,16.439a2.05,2.05,0,0,1-2.584,1.391L196.332,214.4a2.05,2.05,0,0,1-1.32-2.637" transform="translate(-56.412 -56.175)" fill="#455a64"/>
            <path id="Trazado_806708" data-name="Trazado 806708" d="M226.864,210.284s-.014.058-.051.176-.094.3-.166.526l-.654,2.032-2.439,7.512c-.065.2-.131.4-.2.6a1.221,1.221,0,0,1-.338.581,1.121,1.121,0,0,1-.627.291,1.462,1.462,0,0,1-.688-.112l-2.7-.861-5.949-1.9-6.573-2.107-3.475-1.116-1.778-.571-.448-.144a2.151,2.151,0,0,1-.458-.178,1.14,1.14,0,0,1-.519-1.274c.041-.143.087-.261.13-.392q.131-.386.262-.768l.519-1.521,1.02-2.982,1.936-5.658.029-.087.085.033c6.647,2.569,12.425,4.531,16.535,5.858,2.055.664,3.691,1.173,4.813,1.521l1.292.4.328.1a.856.856,0,0,1,.106.038,1.177,1.177,0,0,1-.119-.03l-.337-.092-1.285-.367c-1.128-.33-2.77-.823-4.83-1.473-4.12-1.3-9.909-3.239-16.565-5.8l.114-.053-1.928,5.661-1.017,2.983q-.258.756-.519,1.522l-.262.767a1.556,1.556,0,0,0-.151.749.956.956,0,0,0,.458.7,2.026,2.026,0,0,0,.421.161l.448.144,1.777.571,3.475,1.119,6.568,2.117,5.944,1.92,2.693.871a1.318,1.318,0,0,0,.628.109.977.977,0,0,0,.551-.252,1.083,1.083,0,0,0,.3-.522l.2-.6,2.5-7.457.689-2.037.183-.533c.043-.121.068-.185.068-.185" transform="translate(-57.824 -58.564)" fill="#263238"/>
            <path id="Trazado_806709" data-name="Trazado 806709" d="M219.108,220.364c0-.012.146.043.431.075a2.174,2.174,0,0,0,1.2-.24,2.253,2.253,0,0,0,1.12-1.532c.239-.741.51-1.582.81-2.511l.473-1.46a2.18,2.18,0,0,0,.039-1.575,2.049,2.049,0,0,0-1.165-1.19c-.567-.2-1.177-.387-1.788-.59l-7.992-2.615a2.053,2.053,0,0,0-1.98.4,2.019,2.019,0,0,0-.579.843l-.335,1.007-.648,1.968-.314.954a8.494,8.494,0,0,0-.279.926,2.061,2.061,0,0,0,1.162,2.211c.258.112.551.192.819.286l3.035,1.008,4.39,1.472,1.191.409.308.11a.548.548,0,0,1,.1.044.524.524,0,0,1-.109-.026l-.314-.094-1.2-.376-4.409-1.415-3.042-.986c-.274-.095-.549-.165-.837-.288a2.222,2.222,0,0,1-1.264-2.384,8.471,8.471,0,0,1,.282-.952c.1-.314.207-.632.311-.954q.315-.965.644-1.968l.335-1.013a2.192,2.192,0,0,1,.63-.92,2.235,2.235,0,0,1,2.159-.438l7.988,2.629c.615.206,1.209.392,1.8.6a2.207,2.207,0,0,1,1.248,1.288,2.325,2.325,0,0,1-.048,1.674l-.484,1.456-.836,2.5c-.061.184-.119.362-.193.534a2.188,2.188,0,0,1-.28.45,2.15,2.15,0,0,1-1.952.794,1.645,1.645,0,0,1-.426-.112" transform="translate(-60.177 -60.333)" fill="#263238"/>
            <g id="Grupo_1067379" data-name="Grupo 1067379" transform="translate(142.426 156.335)" opacity="0.3">
              <g id="Grupo_1067378" data-name="Grupo 1067378">
                <g id="Grupo_1067377" data-name="Grupo 1067377" clip-path="url(#clip-path-14)">
                  <path id="Trazado_806710" data-name="Trazado 806710" d="M200.444,220.02a39.561,39.561,0,0,0,21.585,6.921Z" transform="translate(-200.444 -220.02)"/>
                </g>
              </g>
            </g>
            <path id="Trazado_806711" data-name="Trazado 806711" d="M221.244,214.453l-2.777-.911a.829.829,0,0,1,.517-1.575l2.777.911a.829.829,0,0,1-.517,1.575" transform="translate(-63.07 -61.342)" fill="#e0e0e0"/>
            <path id="Trazado_806712" data-name="Trazado 806712" d="M231.2,187.613a7.748,7.748,0,0,1,1.028,1.527,21.517,21.517,0,0,1,.459,3.084s-.5.34-1.121-1.041a11.812,11.812,0,0,1-.764-2.053Z" transform="translate(-66.806 -54.305)" fill="#ae7461"/>
            <path id="Trazado_806713" data-name="Trazado 806713" d="M228.764,190.966l-.487-4.543L226.1,183.3l-5.551.615.516,5.511a16.9,16.9,0,0,0,1.565,2.642c.446.394,1.179-.036,1.179-.036.5.6,1.621.21,1.621.21.652.6,1.445-.149,1.445-.149s.86.6,1.207.513a.694.694,0,0,0,.341-.285,1.965,1.965,0,0,0,.343-1.361" transform="translate(-63.837 -53.058)" fill="#ae7461"/>
            <path id="Trazado_806714" data-name="Trazado 806714" d="M224.317,194.014c.05-.025.212.2.36.5s.228.568.178.592-.212-.2-.36-.5-.228-.567-.178-.592" transform="translate(-64.924 -56.157)" fill="#6f4439"/>
            <path id="Trazado_806715" data-name="Trazado 806715" d="M226.325,193.659c.055-.015.2.358.4.8a2.974,2.974,0,0,1,.327.834c-.045.031-.308-.289-.512-.752a1.607,1.607,0,0,1-.212-.885" transform="translate(-65.504 -56.054)" fill="#6f4439"/>
            <path id="Trazado_806716" data-name="Trazado 806716" d="M228.648,193.566c.057-.008.146.332.279.738s.257.733.207.76-.262-.271-.4-.7a1.263,1.263,0,0,1-.087-.8" transform="translate(-66.172 -56.028)" fill="#6f4439"/>
            <path id="Trazado_806717" data-name="Trazado 806717" d="M231.584,189.708a14.871,14.871,0,0,1,.4,3.444,14.871,14.871,0,0,1-.4-3.444" transform="translate(-67.025 -54.911)" fill="#6f4439"/>
            <path id="Trazado_806718" data-name="Trazado 806718" d="M223.63,192.716c.018.018-.009.088-.1.161a.635.635,0,0,1-.834-.065c-.078-.085-.094-.158-.073-.173.044-.034.223.143.494.161s.474-.124.512-.083" transform="translate(-64.436 -55.758)" fill="#6f4439"/>
            <path id="Trazado_806719" data-name="Trazado 806719" d="M225.981,192.793c.016.02-.023.089-.127.157a.8.8,0,0,1-.908-.064c-.094-.082-.123-.156-.1-.173.042-.039.252.129.562.144s.541-.109.577-.064" transform="translate(-65.079 -55.779)" fill="#6f4439"/>
            <path id="Trazado_806720" data-name="Trazado 806720" d="M230.247,191.771c.016-.028.144.107.04.316a.973.973,0,0,1-.635.414,1.183,1.183,0,0,1-.743-.072c-.175-.083-.252-.179-.237-.2a2.33,2.33,0,0,0,.936.074,1.089,1.089,0,0,0,.557-.292c.1-.117.058-.228.082-.24" transform="translate(-66.189 -55.507)" fill="#6f4439"/>
            <path id="Trazado_806721" data-name="Trazado 806721" d="M225.43,121.749c-1.171,2.942-8.743,20.46-8.743,20.46s6.58,20.862,6.25,21.1-6.99,2.035-6.99,2.035-9.651-20.8-9.791-23.563,6.067-22.245,6.182-22.634,1.045-4.007,2.989-4.856c4.939-2.157,7.3-1.717,9.081.33,1.533,1.762,1.494,5.488,1.194,6.61a4.713,4.713,0,0,1-.171.519" transform="translate(-59.671 -32.669)" fill="#263238"/>
            <path id="Trazado_806722" data-name="Trazado 806722" d="M219.937,170.582a2.482,2.482,0,0,1,.474-.178l1.381-.439,5.1-1.546-.09.166-4.678-15.612-1.616-5.475-.016-.056.019-.053c.878-2.432,1.881-4.616,2.751-6.592.878-1.958,1.66-3.7,2.318-5.164s1.148-2.619,1.479-3.425c.155-.377.28-.682.379-.925a1.417,1.417,0,0,1,.148-.315,1.494,1.494,0,0,1-.088.337c-.068.217-.172.539-.325.948-.3.821-.765,2-1.384,3.471l-2.245,5.2c-.848,1.981-1.837,4.177-2.7,6.584l0-.109c.514,1.732,1.062,3.574,1.626,5.471l4.579,15.641.038.131-.129.036-5.131,1.432-1.4.371a2.5,2.5,0,0,1-.5.1" transform="translate(-63.661 -37.909)" fill="#455a64"/>
            <path id="Trazado_806723" data-name="Trazado 806723" d="M227.276,116.153c-.048.041-.412-.414-1.15-.954a6.724,6.724,0,0,0-6.727-.776c-.842.359-1.3.718-1.337.667a3.24,3.24,0,0,1,1.226-.9,6.374,6.374,0,0,1,7,.807,3.243,3.243,0,0,1,.988,1.16" transform="translate(-63.117 -32.851)" fill="#455a64"/>
            <path id="Trazado_806724" data-name="Trazado 806724" d="M219.8,106.568l13.275-.536-.412-.854s2.55.05,2.044,2.5c-.3,1.438-14.176,1.889-16.844,4.982a10.094,10.094,0,0,1,1.937-6.088" transform="translate(-63.061 -30.443)" fill="#aec894"/>
            <path id="Trazado_806725" data-name="Trazado 806725" d="M241.572,107.164a1.463,1.463,0,0,0-1.364-1.295,1.688,1.688,0,0,0-1.663.861,1.645,1.645,0,0,0,.247,1.85,1.606,1.606,0,0,0,1.829.333,1.8,1.8,0,0,0,.951-1.749" transform="translate(-68.995 -30.64)" fill="#aec894"/>
            <path id="Trazado_806726" data-name="Trazado 806726" d="M241,109.75c0-.012.077-.025.227-.038a3.915,3.915,0,0,1,.656.019,6.57,6.57,0,0,1,2.306.728c.228.119.463.251.7.4a1.908,1.908,0,0,1,.683.625.857.857,0,0,1-.085,1.041,1.166,1.166,0,0,1-1.051.315,8.964,8.964,0,0,1-3.691-2.493l.3-.207c.075.168.155.349.235.531a6.871,6.871,0,0,1,.649,2.346,3.152,3.152,0,0,1-.651,2.2,1.12,1.12,0,0,1-1.059.451.739.739,0,0,1-.5-.351,1.3,1.3,0,0,1-.155-.519,8.942,8.942,0,0,1,.026-1.779,8.811,8.811,0,0,1,.654-2.468,3.121,3.121,0,0,1,.45-.82,12.486,12.486,0,0,0-.843,3.314,9.1,9.1,0,0,0,.018,1.715c.034.3.151.553.411.589a.8.8,0,0,0,.735-.352,2.833,2.833,0,0,0,.549-1.964,6.646,6.646,0,0,0-.626-2.219l-.233-.527-.394-.891.693.684a15.6,15.6,0,0,0,1.694,1.485,5.434,5.434,0,0,0,1.792.94.84.84,0,0,0,.765-.2.541.541,0,0,0,.055-.673,1.667,1.667,0,0,0-.572-.538c-.228-.151-.453-.286-.67-.408A7.481,7.481,0,0,0,241,109.75" transform="translate(-69.334 -31.666)" fill="#aec894"/>
            <path id="Trazado_806727" data-name="Trazado 806727" d="M234.979,108.322a41.365,41.365,0,0,1-7.753.935,41.229,41.229,0,0,1,7.753-.935" transform="translate(-65.77 -31.344)" fill="#263238"/>
            <path id="Trazado_806728" data-name="Trazado 806728" d="M239.174,108.647c.021.053-.32.114-.61-.234a1.61,1.61,0,0,1-.2-1.557,1.632,1.632,0,0,1,1.187-1.022c.406-.078.651.025.642.068s-.242.056-.568.184a1.582,1.582,0,0,0-.914.9,1.563,1.563,0,0,0,.07,1.273c.167.3.4.336.4.387" transform="translate(-68.961 -30.625)" fill="#263238"/>
          </g>
        </g>
        <g id="Grupo_1067389" data-name="Grupo 1067389">
          <g id="Grupo_1067388" data-name="Grupo 1067388" clip-path="url(#clip-path)">
            <path id="Trazado_806729" data-name="Trazado 806729" d="M98.384,223.558a18.105,18.105,0,0,1,.912-13.468q.16.42.318.841l-2.18-16.28c-2.515-.658-5.243.652-6.866,2.684a12.183,12.183,0,0,0-2.187,4.738l-.113.464c-.149.671-.264,1.35-.355,2.027-.06.455-.129.936-.2,1.425a21.441,21.441,0,0,1-4.326,8.61c-1.273,1.521-2.759,2.865-3.922,4.471a7.826,7.826,0,0,0-1.719,5.544l2.079,1.2a26.214,26.214,0,0,1,5.6-9.178c-1.209,3.261-2.82,6.129-3.559,9.835-.3,1.484.309,2.265,1.646,2.81a11.145,11.145,0,0,0,3.608.83q1.965.147,3.936.206a3.362,3.362,0,0,0,2.007-.368,3.5,3.5,0,0,0,1.263-3.2,11.812,11.812,0,0,0,1.234,2.584s2.972.012,3.711-.723c.688-.684.225-1.162-.08-2.27-.258-.934-.5-1.869-.806-2.79" transform="translate(-22.488 -56.292)" fill="#263238"/>
            <path id="Trazado_806730" data-name="Trazado 806730" d="M90.676,209.8c.534-2.454-.514-5.371.142-7.795a10.392,10.392,0,0,1,4-6.184c2.11-1.362,5.228-1.349,6.9.527l-.07,2.176c-2.958,9.256-5.059,18.869-8.018,28.124-.389,1.216-1.653,2.107-2.472,3.085s-1.422.128-2.646-.234c-1.6-.473-3.5-.884-3.175-2.523,1.3-6.646,4.057-11.261,5.344-17.176" transform="translate(-24.689 -56.404)" fill="#263238"/>
            <path id="Trazado_806731" data-name="Trazado 806731" d="M101.763,197.689a6.336,6.336,0,0,1,.488-1.889,2.172,2.172,0,0,1,1.44-1.226.9.9,0,0,1,.853.216.487.487,0,0,1-.147.763l-.04.077q-.612,1.221-1.271,2.419a1.763,1.763,0,0,1-.405.551.615.615,0,0,1-.641.112c-.34-.169-.334-.647-.278-1.022" transform="translate(-29.447 -56.312)" fill="#455a64"/>
            <path id="Trazado_806732" data-name="Trazado 806732" d="M101.1,199.15a11.5,11.5,0,0,1,6.607-7.44,12.338,12.338,0,0,1,4.3-.889,6.386,6.386,0,0,1,4.278.874,10.718,10.718,0,0,1,3.769,3.752,29.977,29.977,0,0,1,2.3,5.012,10.065,10.065,0,0,1,.34,5.444l-4.032,2.5a29.389,29.389,0,0,1-7.307,2.493,9.9,9.9,0,0,1-7.395-1.49c-2.878-2.14-3.929-6.831-2.859-10.255" transform="translate(-29.146 -55.217)" fill="#263238"/>
            <path id="Trazado_806733" data-name="Trazado 806733" d="M106.271,198.138l4.853-4.624,1.58-.432c3.4-1.356,7.252,1.447,8.382,4.189a52.739,52.739,0,0,1,3.089,9.263,6.327,6.327,0,0,1-2.866,6.856s1.051,2.382,1.693,3.891l-1.243,6.558L113.9,220.2l-8.53-19.9a1.735,1.735,0,0,1,.9-2.166" transform="translate(-30.468 -55.786)" fill="#ffc09d"/>
            <path id="Trazado_806734" data-name="Trazado 806734" d="M127.39,204.783a.634.634,0,0,1-.372.8.6.6,0,0,1-.8-.33.633.633,0,0,1,.371-.8.606.606,0,0,1,.8.329" transform="translate(-36.522 -59.165)" fill="#263238"/>
            <path id="Trazado_806735" data-name="Trazado 806735" d="M125.969,201.726c-.048.1-.616-.078-1.26.143s-1.006.7-1.1.649c-.046-.023-.018-.19.136-.41a1.738,1.738,0,0,1,.851-.616,1.668,1.668,0,0,1,1.036-.016c.249.085.365.2.34.25" transform="translate(-35.772 -58.295)" fill="#263238"/>
            <path id="Trazado_806736" data-name="Trazado 806736" d="M123.174,208.967a4.519,4.519,0,0,1,.983-.545c.158-.073.3-.159.293-.281a.884.884,0,0,0-.276-.45l-.913-1.087a22.856,22.856,0,0,1-2.208-2.906,22.758,22.758,0,0,1,2.437,2.721l.9,1.1a1,1,0,0,1,.3.617.435.435,0,0,1-.189.333,1.182,1.182,0,0,1-.266.134,4.458,4.458,0,0,1-1.061.362" transform="translate(-35.038 -58.96)" fill="#263238"/>
            <path id="Trazado_806737" data-name="Trazado 806737" d="M125.073,221.794a12.548,12.548,0,0,1-6.823.46s2.768,2.67,7.294.643Z" transform="translate(-34.227 -64.198)" fill="#ff9b6c"/>
            <path id="Trazado_806738" data-name="Trazado 806738" d="M124.427,198.752c-.055.194-.584.257-1.145.5-.568.226-.986.558-1.161.46-.08-.05-.069-.225.077-.451a1.835,1.835,0,0,1,.822-.649,1.816,1.816,0,0,1,1.036-.126c.262.056.392.172.371.264" transform="translate(-35.333 -57.444)" fill="#263238"/>
            <path id="Trazado_806739" data-name="Trazado 806739" d="M117.954,208.161a.632.632,0,0,0,.8.378.6.6,0,0,0,.405-.765.632.632,0,0,0-.8-.379.605.605,0,0,0-.406.766" transform="translate(-34.133 -60.021)" fill="#263238"/>
            <path id="Trazado_806740" data-name="Trazado 806740" d="M114.78,205.869c.1.049.423-.453,1.06-.695s1.224-.1,1.263-.206c.021-.048-.107-.158-.367-.229a1.744,1.744,0,0,0-1.048.07,1.675,1.675,0,0,0-.807.649c-.138.225-.151.39-.1.411" transform="translate(-33.216 -59.247)" fill="#263238"/>
            <path id="Trazado_806741" data-name="Trazado 806741" d="M114.159,202.773c.18.1.614-.241,1.2-.474.58-.251,1.127-.32,1.184-.514.023-.093-.112-.207-.382-.261a1.952,1.952,0,0,0-1.071.139,1.927,1.927,0,0,0-.851.658c-.152.228-.163.4-.081.453" transform="translate(-33.029 -58.324)" fill="#263238"/>
            <path id="Trazado_806742" data-name="Trazado 806742" d="M109.571,213.355c-.119-.347-.8-1.031-1.162-.968-.966.169-2.594.806-1.817,3.14,1.062,3.192,4.047,1.467,4.022,1.374-.019-.073-.632-2.346-1.044-3.546" transform="translate(-30.794 -61.474)" fill="#ffc09d"/>
            <path id="Trazado_806743" data-name="Trazado 806743" d="M109.766,216.555c-.017-.006-.043.058-.122.131a.585.585,0,0,1-.413.147c-.378-.011-.841-.452-1.047-1.022a1.935,1.935,0,0,1-.109-.848.677.677,0,0,1,.276-.566.3.3,0,0,1,.379.043c.072.075.073.146.092.146s.051-.077-.018-.2a.375.375,0,0,0-.193-.158.445.445,0,0,0-.334.021.825.825,0,0,0-.416.689,1.986,1.986,0,0,0,.1.954,1.522,1.522,0,0,0,1.27,1.108.628.628,0,0,0,.48-.254c.072-.112.065-.188.053-.19" transform="translate(-31.214 -62.001)" fill="#ff9b6c"/>
            <path id="Trazado_806744" data-name="Trazado 806744" d="M107.308,206.6l1.122.5c2.1-4.647,5.48-15.525,5.3-14.887a10.728,10.728,0,0,0-5.1,1.436c-2.366,1.456-6.673,4.668-5.393,7.635a16.858,16.858,0,0,0,4.062,5.313" transform="translate(-29.817 -55.63)" fill="#263238"/>
            <path id="Trazado_806745" data-name="Trazado 806745" d="M102.286,207.547a.9.9,0,0,1-.025-.2,3.413,3.413,0,0,1,.015-.576,4.887,4.887,0,0,1,.711-1.988,9.187,9.187,0,0,1,2.113-2.316c.905-.759,1.973-1.495,2.927-2.454a16.459,16.459,0,0,0,2.383-2.962,17.183,17.183,0,0,0,1.407-2.773,18.241,18.241,0,0,0,.656-2c.057-.226.1-.41.14-.555a.886.886,0,0,1,.058-.192.834.834,0,0,1-.025.2c-.023.129-.053.32-.108.563a15.447,15.447,0,0,1-.608,2.024,16.433,16.433,0,0,1-1.386,2.813,16.1,16.1,0,0,1-2.4,3,37.069,37.069,0,0,1-2.947,2.454,9.317,9.317,0,0,0-2.11,2.257,5.053,5.053,0,0,0-.749,1.933c-.068.49-.038.767-.056.767" transform="translate(-29.598 -55.44)" fill="#455a64"/>
            <path id="Trazado_806746" data-name="Trazado 806746" d="M103.789,207.968a1.764,1.764,0,0,1-.153-.729,3.431,3.431,0,0,1,.58-1.938,7.609,7.609,0,0,1,2.188-2.065,16.572,16.572,0,0,0,2.817-2.326,14.735,14.735,0,0,0,2.163-2.936,15.205,15.205,0,0,0,1.193-2.735,16.088,16.088,0,0,0,.491-1.955c.036-.22.065-.4.089-.543a.86.86,0,0,1,.042-.188.79.79,0,0,1-.008.193c-.015.144-.033.326-.057.549a13.624,13.624,0,0,1-.441,1.981,14.459,14.459,0,0,1-3.347,5.753,16.122,16.122,0,0,1-2.851,2.336,7.672,7.672,0,0,0-2.177,2,3.466,3.466,0,0,0-.615,1.871,3.969,3.969,0,0,0,.086.73" transform="translate(-29.997 -55.734)" fill="#455a64"/>
            <path id="Trazado_806747" data-name="Trazado 806747" d="M121.328,212.851a.527.527,0,0,0-.31.01.429.429,0,0,0-.189.214,1.151,1.151,0,0,0,1.439,1.583,1.364,1.364,0,0,0,.815-1.467c-.546-.093-1.209-.247-1.755-.34" transform="translate(-34.942 -61.604)" fill="#ff9b6c"/>
            <path id="Trazado_806748" data-name="Trazado 806748" d="M122.235,214.625a1.691,1.691,0,0,1-.721-.039,1.079,1.079,0,0,1-.588-.464,1.131,1.131,0,0,1-.112-.9c.05-.153.127-.314.242-.337a1.443,1.443,0,0,1,.443.047l.8.138a3.371,3.371,0,0,0,.747.085,3.48,3.48,0,0,0-.728-.2l-.8-.173a1.368,1.368,0,0,0-.507-.053.407.407,0,0,0-.246.186,1.119,1.119,0,0,0-.117.259,1.259,1.259,0,0,0,.141,1.025,1.159,1.159,0,0,0,.685.5.893.893,0,0,0,.755-.073" transform="translate(-34.908 -61.572)" fill="#263238"/>
            <path id="Trazado_806749" data-name="Trazado 806749" d="M105.256,213.265a1.633,1.633,0,0,1-.639-.059,5.659,5.659,0,0,1-1.635-.633,6.748,6.748,0,0,1-1.96-1.719,7.536,7.536,0,0,1-1.344-2.9,9.474,9.474,0,0,1,.544-5.689,10.63,10.63,0,0,1,.79-1.555,1.908,1.908,0,0,1,.382-.512c.056.031-.433.8-.929,2.16a9.852,9.852,0,0,0-.428,5.513,7.53,7.53,0,0,0,1.256,2.773,6.883,6.883,0,0,0,1.823,1.7,9.658,9.658,0,0,0,2.139.917" transform="translate(-28.788 -57.948)" fill="#455a64"/>
            <path id="Trazado_806750" data-name="Trazado 806750" d="M115.9,284.728c1.654-17.111,10.54-35.018,3.627-51.883l-15.882-7.051c-6.837,3.229-6.342,9.212-8.38,15.817-2.773,8.985-5.392,19.1-8.22,25.217-9.668,20.472-23.592,48.373-8.75,69.2,8.509,2.432,7.524-14.247,19.2-6.585,10.591,8.9,15.061-4.064,24.444-1.115-3.7-14.292-7.422-28.926-6.035-43.6" transform="translate(-20.784 -65.356)" fill="#dbf9bd"/>
            <g id="Grupo_1067384" data-name="Grupo 1067384" transform="translate(57.299 163.657)" opacity="0.3">
              <g id="Grupo_1067383" data-name="Grupo 1067383">
                <g id="Grupo_1067382" data-name="Grupo 1067382" clip-path="url(#clip-path-16)">
                  <path id="Trazado_806751" data-name="Trazado 806751" d="M117.744,285.191c1.641-17.033,10.289-34.749,3.418-51.516l-5.228-3.35c-11.357,10.293-11.3,27.693-15.791,37.631-11.534,20.234-26.076,45.851-16.265,69.683,5.645-2.827,6.686-12.188,14.894-7.474,14.9,10.8,12.985-4.783,24.785-1.391-3.58-14.285-7.19-28.91-5.814-43.582" transform="translate(-80.641 -230.325)"/>
                </g>
              </g>
            </g>
            <path id="Trazado_806752" data-name="Trazado 806752" d="M97.277,290.99a.615.615,0,0,1-.064.16l-.22.45q-.322.63-.877,1.716c-.774,1.483-1.892,3.63-3.237,6.3-.69,1.327-1.4,2.8-2.17,4.383-.789,1.572-1.555,3.286-2.382,5.08a105.451,105.451,0,0,0-4.637,11.97,57.78,57.78,0,0,0-2.476,12.56,53.558,53.558,0,0,0,.19,10.461c.087.741.14,1.451.241,2.116s.2,1.29.295,1.877.177,1.13.256,1.635q.146.744.269,1.364.228,1.2.361,1.891l.085.495a.588.588,0,0,1,.016.171.622.622,0,0,1-.053-.163c-.033-.131-.072-.291-.121-.486q-.157-.69-.429-1.879l-.3-1.36q-.133-.757-.286-1.634t-.324-1.878c-.11-.666-.173-1.377-.268-2.12a52.138,52.138,0,0,1-.27-10.515,56.894,56.894,0,0,1,2.461-12.643,102.069,102.069,0,0,1,4.68-12c.837-1.794,1.617-3.507,2.417-5.074.784-1.576,1.508-3.047,2.213-4.367,1.376-2.657,2.53-4.786,3.344-6.249l.938-1.683.252-.433a.6.6,0,0,1,.1-.141" transform="translate(-23.367 -84.227)" fill="#263238"/>
            <path id="Trazado_806753" data-name="Trazado 806753" d="M96.521,335.061c.058.018-.25,1.072-.62,2.8a68.552,68.552,0,0,0-1.057,6.828c-.264,2.648-.5,5.041-.686,6.9-.1.883-.181,1.6-.255,2.088a3.08,3.08,0,0,1-.149.759,3.1,3.1,0,0,1,.006-.774q.056-.863.138-2.1c.126-1.769.286-4.216.578-6.913a51.038,51.038,0,0,1,1.17-6.847c.22-.863.421-1.555.588-2.024a3.117,3.117,0,0,1,.287-.719" transform="translate(-27.132 -96.983)" fill="#263238"/>
            <path id="Trazado_806754" data-name="Trazado 806754" d="M107.2,314.127a8.363,8.363,0,0,1-.284,1.234c-.21.785-.5,1.927-.829,3.342a92.879,92.879,0,0,0-2.463,22.517c.018,1.453.05,2.63.087,3.443a8.262,8.262,0,0,1,.01,1.266,8.253,8.253,0,0,1-.154-1.257c-.08-.811-.153-1.989-.2-3.445a80.673,80.673,0,0,1,2.471-22.586c.365-1.411.691-2.545.945-3.32a8.325,8.325,0,0,1,.422-1.194" transform="translate(-29.906 -90.924)" fill="#263238"/>
            <path id="Trazado_806755" data-name="Trazado 806755" d="M136.731,273.926s1.788-3.621,3.881-1.086c4.938,5.981,13.686,16.55,17.431,21.9,1.839,2.63,5.841,7.575,5.428,9.04-3.2,11.325-25.931,34.31-25.931,34.31l-5.57-2.635s7.553-10.4,10.15-17.109c3.141-8.112,7.717-11.73,7.717-11.73l-15.049-10.491-1.89-13.522Z" transform="translate(-38.199 -78.713)" fill="#ffc09d"/>
            <path id="Trazado_806756" data-name="Trazado 806756" d="M138.524,365.564s3.831,9.336,2.66,10.526l-12.225-13.739,2.189-1.977.443-.777a6.949,6.949,0,0,0,3.622,2.937c2.308.658,2.284.066,2.284.066Z" transform="translate(-37.327 -104.085)" fill="#455a64"/>
            <path id="Trazado_806757" data-name="Trazado 806757" d="M128.959,363.106l1.087-.9,11.315,13.51s.293.837-.177,1.132Z" transform="translate(-37.327 -104.839)" fill="#263238"/>
            <path id="Trazado_806758" data-name="Trazado 806758" d="M142.054,367.926c-.065.055-.393-.255-.89-.4-1.243-.1-1.241-.445.075-.292.6.184.886.657.815.695" transform="translate(-40.593 -106.284)" fill="#263238"/>
            <path id="Trazado_806759" data-name="Trazado 806759" d="M143.085,370.813a5.373,5.373,0,0,0-1.756.019c-.109-.524,1.844-.5,1.756-.019" transform="translate(-40.906 -107.225)" fill="#263238"/>
            <path id="Trazado_806760" data-name="Trazado 806760" d="M142.525,373.92c-.2-.406,1.516-.859,1.558-.436-.054-.009-1.513.4-1.558.436" transform="translate(-41.249 -108.056)" fill="#263238"/>
            <path id="Trazado_806761" data-name="Trazado 806761" d="M147.776,254.767c-.07-1.686,8.146,30.608,1.5,21.647l-1.5-22.179" transform="translate(-42.774 -73.588)" fill="#263238"/>
            <path id="Trazado_806762" data-name="Trazado 806762" d="M141.975,291.768c-1.154,11.275-7.326,38.484-10.924,56.941-1.165,5.979-2.294,11.058-2.588,14.355l-6.4-.429c.061-1.428-1.366-15.61-1.444-24.826-.027-3.2,1.449-7.859,2.546-10.869a12.464,12.464,0,0,0,.895-3.885c-.075-8.922-3.128-27.347-3.128-27.347-1.478-3.637-4.409-12-.7-16.858l19.189,4.052Z" transform="translate(-34.28 -80.713)" fill="#ffc09d"/>
            <path id="Trazado_806763" data-name="Trazado 806763" d="M132.547,376.887a2.756,2.756,0,0,1,.045-.52c.051-.374.119-.866.2-1.48.184-1.285.477-3.139.88-5.424.791-4.572,2.044-10.859,3.512-17.781,1.463-6.907,2.786-13.157,3.755-17.729l1.1-5.379c.129-.606.232-1.091.31-1.462a2.82,2.82,0,0,1,.132-.5,2.7,2.7,0,0,1-.059.518c-.061.373-.141.863-.241,1.474-.215,1.28-.554,3.126-.991,5.4-.872,4.557-2.181,10.83-3.649,17.755s-2.76,13.195-3.617,17.752c-.435,2.277-.767,4.123-.995,5.4-.112.61-.2,1.1-.271,1.469a2.753,2.753,0,0,1-.119.508" transform="translate(-38.365 -94.537)" fill="#ff9b6c"/>
            <path id="Trazado_806764" data-name="Trazado 806764" d="M130.718,398.061s5.67,8.348,4.77,9.753L120.7,396.885l1.735-2.385.274-.852a6.948,6.948,0,0,0,4.149,2.13c2.394.169,2.249-.406,2.249-.406Z" transform="translate(-34.936 -113.941)" fill="#455a64"/>
            <path id="Trazado_806765" data-name="Trazado 806765" d="M120.7,397.753l.878-1.108,13.852,10.893s.459.759.06,1.144Z" transform="translate(-34.936 -114.809)" fill="#263238"/>
            <path id="Trazado_806766" data-name="Trazado 806766" d="M134.435,399.8c-.053.067-.437-.169-.954-.211-1.236.158-1.305-.18.014-.3.626.056,1,.461.941.512" transform="translate(-38.36 -115.573)" fill="#263238"/>
            <path id="Trazado_806767" data-name="Trazado 806767" d="M136.059,402.385a5.373,5.373,0,0,0-1.715.38c-.215-.491,1.7-.87,1.715-.38" transform="translate(-38.881 -116.404)" fill="#263238"/>
            <path id="Trazado_806768" data-name="Trazado 806768" d="M136.166,405.526c-.276-.357,1.307-1.153,1.435-.748-.055,0-1.4.7-1.435.748" transform="translate(-39.404 -117.13)" fill="#263238"/>
            <path id="Trazado_806769" data-name="Trazado 806769" d="M123.521,318.969s7.078-3.55,13.237-6.664l2.272-1.15c2.942-1.491,5.387-2.741,6.294-3.229,2.92-1.572,13.185-6.9,13.185-6.9s-9.116-13.449-15.5-19.839l-2.667-6.263s-21.145,3.616-21.5,3.849-1.106,10.491-.5,12.362a51.325,51.325,0,0,1,1.351,7.038c.15,1.273,3.831,20.794,3.831,20.794" transform="translate(-34.188 -79.577)" fill="#263238"/>
            <path id="Trazado_806770" data-name="Trazado 806770" d="M146.184,310.991a45.5,45.5,0,0,1,.8,8.165,45.5,45.5,0,0,1-.8-8.165" transform="translate(-42.301 -90.016)" fill="#455a64"/>
            <path id="Trazado_806771" data-name="Trazado 806771" d="M148.126,314.552a6.4,6.4,0,0,1,1.488.966c.789.56,1.457.984,1.409,1.078a3.406,3.406,0,0,1-1.622-.775c-.817-.574-1.344-1.2-1.275-1.268" transform="translate(-42.873 -91.045)" fill="#455a64"/>
            <g id="Grupo_1067387" data-name="Grupo 1067387" transform="translate(84.151 196.162)" opacity="0.3">
              <g id="Grupo_1067386" data-name="Grupo 1067386">
                <g id="Grupo_1067385" data-name="Grupo 1067385" clip-path="url(#clip-path-17)">
                  <path id="Trazado_806772" data-name="Trazado 806772" d="M118.907,293.323l21.827,2.261s1.585-7.081,1.242-11.275a41.9,41.9,0,0,0-1.644-8.239l-21.9,15.4Z" transform="translate(-118.431 -276.07)"/>
                </g>
              </g>
            </g>
            <path id="Trazado_806773" data-name="Trazado 806773" d="M143.3,171.565s.148-4.994-.027-5.7c-.284-1.373-1.959-3.4-3.2-1.919-.1-.834-2.649-1.1-2.094.363-.048-.538-1.228-.822-1.648-.171-4.373-1.575,1.983,8.245,1.759,8.511Z" transform="translate(-39.017 -47.258)" fill="#ffc09d"/>
            <path id="Trazado_806774" data-name="Trazado 806774" d="M137.436,172.038s-2.784-2.183-3.084-2.961c-.76-2.718.91-4.015,2.635-5.029,1.36.439-.094,2.227-.879,3.082a3.523,3.523,0,0,1,3.424,2.2" transform="translate(-38.833 -47.484)" fill="#ffc09d"/>
            <path id="Trazado_806775" data-name="Trazado 806775" d="M139.5,169.275a3.713,3.713,0,0,0-3.634-2.094c.468-.8,2.459-2.245,1.047-3.077l.109-.012c-4.486,2.438-2.911,5.493.384,7.892-3.713-2.107-4.98-5.807-.464-8.123,1.7.79-.148,2.45-.787,3.278l-.084-.162a3.391,3.391,0,0,1,3.43,2.3" transform="translate(-38.802 -47.43)" fill="#ff9b6c"/>
            <path id="Trazado_806776" data-name="Trazado 806776" d="M139.068,164.884c.023,1.4,1.339,5.029,2.764,2.562" transform="translate(-40.253 -47.726)" fill="#ffc09d"/>
            <path id="Trazado_806777" data-name="Trazado 806777" d="M141.811,167.446c-1.513,3.2-3.123-2.207-2.764-2.562.08.138,1.055,5.226,2.764,2.562" transform="translate(-40.233 -47.726)" fill="#ff9b6c"/>
            <path id="Trazado_806778" data-name="Trazado 806778" d="M137.372,168.061c-.068,1.374,1.872,2.474,1.914.428" transform="translate(-39.762 -48.645)" fill="#ffc09d"/>
            <path id="Trazado_806779" data-name="Trazado 806779" d="M139.273,168.489c.276,2.183-2.273,1.133-1.914-.428.242,1.252,1.592,2.287,1.914.428" transform="translate(-39.748 -48.645)" fill="#ff9b6c"/>
            <path id="Trazado_806780" data-name="Trazado 806780" d="M142.324,164.209c-1.392,3.028,1.653,4.761,1.688.918" transform="translate(-41.09 -47.53)" fill="#ffc09d"/>
            <path id="Trazado_806781" data-name="Trazado 806781" d="M143.968,165.128c.3,3.951-3.45,2.417-1.688-.918-.964,2.834,1.227,4.7,1.688.918" transform="translate(-41.046 -47.531)" fill="#ff9b6c"/>
            <path id="Trazado_806782" data-name="Trazado 806782" d="M129.758,210.958c7.586-14.422,5.382-21.957,5.381-36.066-.032.21,8.065-1.375,8.065-1.375s1.308,19.562,1.417,21.817c.269,6.211-6.823,21.805-5.195,28.773Z" transform="translate(-37.558 -50.224)" fill="#263238"/>
            <path id="Trazado_806783" data-name="Trazado 806783" d="M141.106,232.486a34.363,34.363,0,0,1-3.892-9.283c.814,2.3,2.82,7.088,3.892,9.283" transform="translate(-39.717 -64.606)" fill="#455a64"/>
            <path id="Trazado_806784" data-name="Trazado 806784" d="M138.128,250.141c-.556-5.425,1.95-9.716-4.764-15.921-6.249-5.775-9.6-11.778-19.26-9.554l.608,2.239,11.526,5.583-.017,32.437,12.958-4.684Z" transform="translate(-33.027 -64.892)" fill="#e0e0e0"/>
            <path id="Trazado_806785" data-name="Trazado 806785" d="M113.765,227.918c20.628-3.633,27.737,37.033,23.673,52.218l-22.915-2.552,3.3-18.64c-2.973-8.031-11.5-20.811-3.977-30.4Z" transform="translate(-32.079 -65.905)" fill="#263238"/>
            <path id="Trazado_806786" data-name="Trazado 806786" d="M134.956,245.048c-2.783-3.256-4.922-6.068-8.27-10.189.114-.557.242-1.177.363-1.759l.15.129-1.528.426c-2.563-4.017-7.344-4.484-11.509-4.276,4.171-.493,9.046.1,11.642,4.079l-.125-.036,1.641-.459c-.128.62-.268,1.295-.392,1.891l-.021-.089c3.266,4.177,5.5,6.854,8.05,10.284" transform="translate(-33.044 -66.351)" fill="#455a64"/>
            <rect id="Rectángulo_375210" data-name="Rectángulo 375210" width="25.336" height="19.007" transform="translate(76.232 200.37) rotate(-68.6)" fill="#455a64"/>
            <path id="Trazado_806787" data-name="Trazado 806787" d="M139.494,274.925a1.5,1.5,0,0,1,.095.359c.048.238.125.59.2,1.048a35.307,35.307,0,0,1,.336,3.935,87.873,87.873,0,0,1-.718,13.234l-.022.178-.182-.02-2.326-.254-14.754-1.4c-1.888-.19-3.413-.359-4.466-.5-.527-.065-.935-.126-1.211-.169a1.823,1.823,0,0,1-.419-.085,1.839,1.839,0,0,1,.427.011l1.217.1,4.475.379c3.779.322,9,.717,14.767,1.292l2.332.257-.2.158a98.481,98.481,0,0,0,.834-13.179c-.011-1.669-.139-3-.222-3.924-.055-.427-.1-.775-.135-1.054a1.569,1.569,0,0,1-.026-.371" transform="translate(-33.584 -79.577)" fill="#455a64"/>
            <path id="Trazado_806788" data-name="Trazado 806788" d="M130.726,277.005c.75-1.167,7.618.956,8.192,1.455.155.924-3.758-.4-3.455-.367l-4.737-1.088" transform="translate(-37.839 -80.079)" fill="#ffc09d"/>
            <path id="Trazado_806789" data-name="Trazado 806789" d="M137.472,279.285c-3.364-2.059-3.605-2.307-7.727-2.271l-2.059,4.9,4.13,2.34c.318.012,3.788,1.022,3.584-.571.751-.034,1.1-1.112,1.1-1.112.834-.149.729-1.187.729-1.187,1.311-.22,1.452-1.337.239-2.1" transform="translate(-36.959 -80.181)" fill="#ffc09d"/>
            <path id="Trazado_806790" data-name="Trazado 806790" d="M136.864,286.085c0-.127,1.2.112,1.148.228,0,.127-1.2-.111-1.148-.228" transform="translate(-39.615 -82.797)" fill="#ff9b6c"/>
            <path id="Trazado_806791" data-name="Trazado 806791" d="M137.764,284.36a8.05,8.05,0,0,1,1.67.4c0,.194-1.764-.233-1.67-.4" transform="translate(-39.875 -82.306)" fill="#ff9b6c"/>
            <path id="Trazado_806792" data-name="Trazado 806792" d="M139.049,282.533a6.3,6.3,0,0,1,1.425.5c-.017.193-1.533-.342-1.425-.5" transform="translate(-40.246 -81.777)" fill="#ff9b6c"/>
            <path id="Trazado_806793" data-name="Trazado 806793" d="M137.82,278.048a15,15,0,0,1,2.857,1.7,14.916,14.916,0,0,1-2.857-1.7" transform="translate(-39.891 -80.478)" fill="#ff9b6c"/>
            <path id="Trazado_806794" data-name="Trazado 806794" d="M135.476,285.576c.288.278-.338.976-.646.721a1.454,1.454,0,0,0,.646-.721" transform="translate(-39.027 -82.66)" fill="#ff9b6c"/>
            <path id="Trazado_806795" data-name="Trazado 806795" d="M136.9,283.791c.239.308-.39,1.02-.725.821a2.3,2.3,0,0,0,.725-.821" transform="translate(-39.417 -82.143)" fill="#ff9b6c"/>
            <path id="Trazado_806796" data-name="Trazado 806796" d="M138.752,279.792c.764.074.009,1.629-.568,1.467.141-.016,1.107-1.124.568-1.467" transform="translate(-39.997 -80.986)" fill="#ff9b6c"/>
            <path id="Trazado_806797" data-name="Trazado 806797" d="M116.12,240.127c-1.21,3.04-6.585,16.014-6.585,16.014l12.928,7.1-2.729,6.5c-10.869-2.664-16.077-5.62-18.453-7.454-3.924-3.03-.961-8.266,4.3-23.929.117-.4,1.793-5.006,3.8-5.878,7.785-3.382,8.348,1.865,6.733,7.651" transform="translate(-28.794 -66.982)" fill="#263238"/>
            <path id="Trazado_806798" data-name="Trazado 806798" d="M110.826,262.8a3.128,3.128,0,0,1,.479-.635c.328-.392.811-.949,1.413-1.63l-.027.044c.541-1.478,1.371-3.41,2.288-5.531l2.557-5.77.793-1.74a2.726,2.726,0,0,1,.325-.625,14.554,14.554,0,0,1-.877,2.468c-.6,1.5-1.477,3.555-2.459,5.816-.916,2.118-1.781,4.04-2.371,5.48l-.011.028-.016.017c-.627.659-1.14,1.187-1.5,1.548a3.129,3.129,0,0,1-.591.532" transform="translate(-32.078 -71.469)" fill="#455a64"/>
            <path id="Trazado_806799" data-name="Trazado 806799" d="M120.782,237.872a6.968,6.968,0,0,1-.612-1.254,9.517,9.517,0,0,0-1.794-2.749,4.936,4.936,0,0,0-2.851-1.43,9.912,9.912,0,0,0-1.365.038,2.158,2.158,0,0,1,1.384-.3,4.762,4.762,0,0,1,3.094,1.429,8.158,8.158,0,0,1,1.774,2.91,4.284,4.284,0,0,1,.37,1.356" transform="translate(-33.043 -67.203)" fill="#455a64"/>
            <path id="Trazado_806800" data-name="Trazado 806800" d="M113.461,225.642l10.606-.428-.226-.541a2.3,2.3,0,0,1,1.7,2.89c-.294,1.421-11.224,1.04-13.863,4.1.125-1.937.26-4.212,1.778-6.02" transform="translate(-32.327 -65.032)" fill="#dbf9bd"/>
            <path id="Trazado_806801" data-name="Trazado 806801" d="M132.235,226.522c-.146-1.532-2.367-1.705-2.994-.428-1.154,2.535,3.211,3.234,2.994.428" transform="translate(-37.353 -65.196)" fill="#dbf9bd"/>
            <path id="Trazado_806802" data-name="Trazado 806802" d="M132.241,227.559a3.093,3.093,0,0,1,.853.016,6.746,6.746,0,0,1,2.27.6,2.908,2.908,0,0,1,1.273,1.083.876.876,0,0,1-.031,1.017,1.149,1.149,0,0,1-1.035.265,4.635,4.635,0,0,1-1.918-.9,12.262,12.262,0,0,1-1.671-1.5l.3-.2.214.531a9.076,9.076,0,0,1,.576,2.282,3.092,3.092,0,0,1-.459,2.189.909.909,0,0,1-1.083.3,1.361,1.361,0,0,1-.662-.8,3.726,3.726,0,0,1-.116-1.746,8.24,8.24,0,0,1,.74-2.366,3.62,3.62,0,0,1,.443-.79,5.022,5.022,0,0,1-.31.846,9.284,9.284,0,0,0-.613,2.341,3.549,3.549,0,0,0,.142,1.605,1.068,1.068,0,0,0,.507.616.573.573,0,0,0,.691-.225,2.815,2.815,0,0,0,.361-1.934,9.024,9.024,0,0,0-.562-2.185c-.07-.177-.141-.353-.207-.517l-.362-.905.668.706a12.355,12.355,0,0,0,1.612,1.46,4.409,4.409,0,0,0,1.757.855.853.853,0,0,0,.748-.147c.163-.153.116-.438,0-.662a2.71,2.71,0,0,0-1.123-1,7.442,7.442,0,0,0-2.172-.689,5.133,5.133,0,0,1-.834-.155" transform="translate(-37.832 -65.759)" fill="#dbf9bd"/>
            <path id="Trazado_806803" data-name="Trazado 806803" d="M130.045,228.273c0,.044-.239.11-.574-.071a1.339,1.339,0,0,1-.646-1.237,1.892,1.892,0,0,1,.57-1.256c.251-.245.448-.335.479-.3s-.1.2-.278.465a2.141,2.141,0,0,0-.4,1.1,1.232,1.232,0,0,0,.423,1.008c.227.195.432.232.427.288" transform="translate(-37.288 -65.243)" fill="#263238"/>
            <path id="Trazado_806804" data-name="Trazado 806804" d="M115.126,229.468a5.323,5.323,0,0,1,1.376-.453c.863-.226,2.066-.5,3.408-.729s2.566-.385,3.455-.463a5.34,5.34,0,0,1,1.447-.038c.011.106-2.169.4-4.838.866s-4.821.92-4.847.817" transform="translate(-33.323 -65.923)" fill="#263238"/>
            <path id="Trazado_806805" data-name="Trazado 806805" d="M122.013,226.354a10.754,10.754,0,0,1,4.908.784,11.806,11.806,0,0,1-2.466-.314,11.851,11.851,0,0,1-2.441-.47" transform="translate(-35.317 -65.498)" fill="#263238"/>
            <path id="Trazado_806806" data-name="Trazado 806806" d="M157.4,287.27a12.806,12.806,0,0,1-1.585-1.516c-.945-.968-2.232-2.324-3.636-3.838l-.153-.166-.023-.024-.013-.031c-.769-1.861-1.443-3.544-1.914-4.766a12.29,12.29,0,0,1-.69-2,12.272,12.272,0,0,1,.929,1.9c.531,1.2,1.245,2.863,2.017,4.723l-.035-.055.153.166c1.4,1.513,2.66,2.9,3.556,3.912a12.9,12.9,0,0,1,1.393,1.694" transform="translate(-43.24 -79.577)" fill="#455a64"/>
          </g>
        </g>
      </g>
    </g>
  </g>
</svg>
